<?xml version="1.0" standalone="no"?>
<!DOCTYPE svg PUBLIC "-//W3C//DTD SVG 1.1//EN" "http://www.w3.org/Graphics/SVG/1.1/DTD/svg11.dtd" >
<svg>
<metadata>
Created by FontForge 20120731 at Thu Sep  5 14:00:23 2019
 By www-data
Copyright (c) 2011 by TypeTogether. All rights reserved.
</metadata>
<defs>
<font id="AbrilDisplay-SemiBold" horiz-adv-x="550" >
  <font-face 
    font-family="Abril Display SB"
    font-weight="600"
    font-stretch="normal"
    units-per-em="1000"
    panose-1="2 0 5 3 0 0 0 2 0 3"
    ascent="750"
    descent="-250"
    x-height="476"
    cap-height="700"
    bbox="-217 -461 1380 1040"
    underline-thickness="50"
    underline-position="-50"
    stemh="36"
    stemv="118"
    unicode-range="U+0020-FB06"
  />
<missing-glyph horiz-adv-x="200" 
 />
    <glyph glyph-name="ij" unicode="ij" horiz-adv-x="591" 
d="M75 640c0 36 22 67 70 67c42 0 71 -21 71 -67c0 -40 -23 -69 -71 -69c-54 0 -70 36 -70 69zM23 476h189v-450h71v-26h-259v26h70v424h-71v26zM510 476v-428c0 -159 -52 -298 -193 -298c-87 0 -109 52 -109 94c0 49 31 75 68 75c34 0 56 -19 56 -56c0 -11 -2 -24 -6 -38
h-29c-4 -7 -5 -15 -5 -22c0 -17 11 -28 37 -28c57 0 62 56 62 169v506h-77v26h196zM367 639c0 37 22 68 71 68c41 0 70 -21 70 -67c0 -40 -23 -69 -71 -69c-53 0 -70 36 -70 68z" />
    <glyph glyph-name="ff" unicode="ff" horiz-adv-x="668" 
d="M614 749c-73 0 -79 -67 -79 -144v-129h126v-26h-126v-424h121v-26h-307v26h68v424h-207v-424h76v-26h-263v26h68v424h-73v26h73v26c0 153 75 248 220 248c68 0 120 -28 134 -76c31 62 83 99 173 99c86 0 137 -45 137 -107c0 -47 -25 -72 -65 -72c-39 0 -63 25 -63 60
c0 14 3 24 7 36h30c11 38 -5 59 -50 59zM305 726c-70 0 -95 -51 -95 -138v-112h207v21c0 28 3 61 8 91c-9 -8 -24 -12 -38 -12c-39 0 -65 21 -65 58c0 12 2 20 6 33h30c10 34 -7 59 -53 59z" />
    <glyph glyph-name="fi" unicode="fi" horiz-adv-x="621" 
d="M347 750c-100 0 -137 -65 -137 -179v-95h325v-450h69v-26h-255v26h68v424h-207v-424h76v-26h-263v26h68v424h-73v26h73c0 182 74 297 263 297c97 0 166 -46 166 -122c0 -49 -28 -79 -75 -79c-49 0 -71 28 -71 73c0 7 1 15 2 23l40 6c4 10 5 20 5 28c0 33 -30 48 -74 48z
" />
    <glyph glyph-name="fl" unicode="fl" horiz-adv-x="625" 
d="M307 749c-76 0 -97 -55 -97 -144v-129h115v-26h-115v-424h76v-26h-263v26h68v424h-73v26h73c0 177 55 297 217 297c64 0 108 -24 127 -63c24 11 48 21 72 31l28 9v-724h69v-26h-255v26h68v532l8 69c-9 -19 -26 -29 -49 -29c-36 0 -60 21 -60 58c0 11 2 25 6 37h30
c12 34 -3 56 -45 56z" />
    <glyph glyph-name="f_k" unicode="fk" horiz-adv-x="905" 
d="M655 0v26h64l-143 223l-41 -9v-214h60v-26h-246v26h68v530l10 71c-11 -19 -28 -29 -51 -29c-36 0 -55 21 -55 58c0 11 2 25 6 37h30c13 36 -13 56 -49 56c-71 0 -98 -56 -98 -130v-143h115v-26h-115v-424h76v-26h-263v26h68v424h-73v26h73c0 177 55 297 217 297
c64 0 113 -24 132 -63l95 40v-479l32 7l192 172h-86v26h201v-26h-69l-142 -130l189 -294h48v-26h-245z" />
    <glyph glyph-name="f_b" unicode="fb" horiz-adv-x="912" 
d="M307 749c-76 0 -97 -55 -97 -144v-129h115v-26h-115v-424h92v-26h-279v26h68v424h-73v26h73c0 177 55 297 217 297c64 0 113 -23 132 -61l94 38v-351c30 51 78 87 156 87c117 0 187 -80 187 -245c0 -167 -78 -251 -211 -251c-73 0 -118 21 -150 68l-60 -66h-39v564l10 73
c-10 -19 -28 -29 -51 -29c-36 0 -55 21 -55 58c0 11 2 25 6 37h30c12 34 -8 54 -50 54zM656 445c-61 0 -123 -55 -123 -140v-158c0 -71 42 -125 115 -125c74 0 103 61 103 217c0 138 -19 206 -95 206z" />
    <glyph glyph-name="f_h" unicode="fh" horiz-adv-x="939" 
d="M349 26h68v529l10 72c-12 -21 -29 -29 -51 -29c-40 0 -55 25 -55 58c0 11 2 25 6 37h30c13 35 -6 55 -48 55c-67 0 -99 -40 -99 -138v-134h115v-26h-115v-424h76v-26h-263v26h68v424h-73v26h73c0 177 55 297 217 297c64 0 113 -24 132 -63l95 40v-366
c22 49 70 102 169 102c93 0 150 -46 150 -167v-293h71v-26h-256v26h67v305c0 84 -17 115 -69 115c-70 0 -132 -66 -132 -156v-264h68v-26h-254v26z" />
    <glyph glyph-name="f_t" unicode="ft" horiz-adv-x="719" 
d="M417 117v333h-207v-424h124v-26h-311v26h68v424h-73v26h73v45c0 155 56 252 202 252c83 0 136 -43 136 -107c0 -45 -25 -72 -63 -72c-40 0 -64 22 -64 59c0 11 3 24 6 37h30c3 8 3 15 3 22c0 24 -17 37 -51 37c-71 0 -80 -60 -80 -133v-140h207v100l119 31v-131h137v-26
h-137v-328c0 -59 13 -85 61 -85c52 0 77 38 86 106l23 -3c-9 -78 -39 -150 -149 -150c-81 0 -140 29 -140 127z" />
    <glyph glyph-name="f_j" unicode="fj" horiz-adv-x="616" 
d="M353 -225c58 0 64 56 64 169v506h-207v-424h94v-26h-281v26h68v424h-73v26h73c0 182 74 297 263 297c97 0 166 -46 166 -122c0 -49 -31 -79 -73 -79c-53 0 -74 32 -74 77c0 6 1 11 1 17l42 6c3 10 5 18 5 26c0 34 -30 52 -74 52c-100 0 -137 -65 -137 -179v-95h325v-385
c0 -113 -2 -341 -194 -341c-87 0 -109 52 -109 94c0 49 31 75 68 75c34 0 56 -19 56 -56c0 -11 -2 -24 -6 -38h-29c-4 -7 -5 -15 -5 -22c0 -17 11 -28 37 -28z" />
    <glyph glyph-name="f_f_j" unicode="ffj" horiz-adv-x="940" 
d="M666 -250c-87 0 -109 52 -109 94c0 49 31 75 68 75c34 0 56 -19 56 -56c0 -11 -2 -24 -6 -38h-29c-4 -7 -5 -15 -5 -22c0 -17 11 -28 37 -28c57 0 64 56 64 169v506h-207v-424h94v-26h-280v26h68v424h-207v-424h76v-26h-263v26h68v424h-71v26h71v26c0 153 75 248 220 248
c75 0 134 -35 141 -97c38 77 115 120 227 120c98 0 166 -46 166 -122c0 -49 -30 -79 -73 -79c-40 0 -64 20 -70 50c-4 13 -4 29 -2 44l41 6c18 51 -13 78 -68 78c-81 0 -126 -45 -135 -126c-2 -17 -3 -35 -3 -53v-95h325v-382c0 -111 -4 -344 -194 -344zM305 726
c-70 0 -95 -51 -95 -138v-112h209v16c1 34 4 68 12 100c-9 -11 -26 -16 -42 -16c-39 0 -65 21 -65 58c0 12 2 20 6 33h30c10 34 -9 59 -55 59z" />
    <glyph glyph-name="ffi" unicode="ffi" horiz-adv-x="947" 
d="M671 750c-81 0 -124 -45 -133 -126c-2 -17 -3 -35 -3 -53v-95h324v-450h71v-26h-253v26h65v424h-207v-424h87v-26h-273v26h68v424h-207v-424h76v-26h-263v26h68v424h-73v26h73v26c0 153 75 248 220 248c75 0 134 -35 141 -97c38 77 113 120 225 120
c98 0 166 -46 166 -122c0 -49 -28 -79 -75 -79c-41 0 -63 22 -68 52c-3 13 -3 29 0 44l39 7c19 54 -13 75 -68 75zM305 726c-70 0 -95 -51 -95 -138v-112h209v16c0 33 4 68 12 100c-9 -11 -26 -16 -42 -16c-39 0 -65 21 -65 58c0 12 2 20 6 33h30c10 34 -9 59 -55 59z" />
    <glyph glyph-name="ffl" unicode="ffl" horiz-adv-x="950" 
d="M630 749c-75 0 -95 -55 -95 -144v-129h115v-26h-115v-424h87v-26h-273v26h68v424h-207v-424h76v-26h-263v26h68v424h-73v26h73v26c0 153 75 248 220 248c71 0 129 -33 139 -88c32 70 91 111 182 111c63 0 109 -24 128 -63l101 40v-724h68v-26h-252v26h65v532l8 69
c-8 -19 -26 -29 -48 -29c-37 0 -61 21 -61 58c0 11 2 25 6 37h31c11 34 -5 56 -48 56zM429 592c-10 -11 -27 -16 -42 -16c-39 0 -65 21 -65 58c0 12 2 20 6 33h30c10 34 -7 59 -53 59c-70 0 -95 -51 -95 -138v-112h207v16c1 34 4 68 12 100z" />
    <glyph glyph-name="f_f_k" unicode="ffk" horiz-adv-x="1230" 
d="M632 749c-75 0 -97 -55 -97 -144v-129h115v-26h-115v-424h87v-26h-273v26h68v424h-207v-424h76v-26h-263v26h68v424h-73v26h73v26c0 153 75 248 220 248c71 0 129 -33 139 -88c32 70 93 111 183 111c64 0 113 -24 132 -63l95 40v-479l32 7l192 172h-86v26h201v-26h-69
l-142 -130l189 -294h48v-26h-245v26h64l-143 223l-41 -9v-214h60v-26h-243v26h65v530l10 71c-11 -19 -28 -29 -51 -29c-36 0 -55 21 -55 58c0 11 2 25 6 37h30c16 43 -15 56 -50 56zM429 592c-10 -10 -27 -16 -42 -16c-39 0 -65 21 -65 58c0 12 2 20 6 33h30
c10 34 -7 59 -53 59c-70 0 -95 -51 -95 -138v-112h207v16c1 34 4 68 12 100z" />
    <glyph glyph-name="f_f_b" unicode="ffb" horiz-adv-x="1237" 
d="M632 749c-77 0 -97 -56 -97 -144v-129h115v-26h-115v-424h93v-26h-279v26h68v424h-207v-424h76v-26h-263v26h68v424h-73v26h73v14c0 160 68 260 220 260c71 0 129 -33 139 -88c32 70 92 111 183 111c64 0 113 -23 132 -61l94 38v-351c30 51 78 87 156 87
c117 0 187 -80 187 -245c0 -167 -78 -251 -211 -251c-73 0 -118 21 -150 68l-60 -66h-39v564l10 73c-10 -19 -28 -29 -51 -29c-36 0 -55 21 -55 58c0 11 2 25 6 37h30c12 34 -8 54 -50 54zM981 445c-61 0 -123 -55 -123 -140v-158c0 -71 42 -125 115 -125
c74 0 103 61 103 217c0 138 -19 206 -95 206zM429 592c-10 -11 -27 -16 -42 -16c-39 0 -65 21 -65 58c0 12 2 20 6 33h30c10 34 -7 59 -53 59c-70 0 -95 -51 -95 -138v-112h207v16c0 34 4 68 12 100z" />
    <glyph glyph-name="f_f_h" unicode="ffh" horiz-adv-x="1264" 
d="M632 749c-75 0 -97 -55 -97 -144v-129h115v-26h-115v-424h87v-26h-273v26h68v424h-207v-424h76v-26h-263v26h68v424h-73v26h73v14c0 160 68 260 220 260c71 0 129 -33 139 -88c32 70 93 111 184 111c64 0 112 -24 131 -63l95 40v-366c22 49 70 102 169 102
c93 0 150 -46 150 -167v-293h71v-26h-256v26h67v305c0 84 -17 115 -69 115c-70 0 -132 -66 -132 -156v-264h68v-26h-251v26h65v529l10 72c-12 -21 -28 -29 -50 -29c-40 0 -55 25 -55 58c0 11 2 25 6 37h30c13 35 -6 56 -51 56zM429 592c-10 -11 -27 -16 -42 -16
c-39 0 -65 21 -65 58c0 12 2 20 6 33h30c10 34 -7 59 -53 59c-70 0 -95 -51 -95 -138v-112h207v16c0 33 4 68 12 100z" />
    <glyph glyph-name="f_f_t" unicode="fft" horiz-adv-x="1044" 
d="M861 476h137v-26h-137v-328c0 -45 6 -81 66 -81c52 0 73 42 81 102l23 -3c-9 -78 -39 -150 -149 -150c-97 0 -140 36 -140 160v300h-207v-424h120v-26h-306v26h68v424h-207v-424h76v-26h-263v26h68v424h-73v26h73v26c0 153 75 248 220 248c67 0 125 -30 139 -80
c28 62 83 103 171 103c80 0 133 -43 133 -107c0 -45 -25 -72 -63 -72c-40 0 -64 22 -64 59c0 11 3 24 6 37h30c3 8 3 15 3 22c0 24 -16 37 -50 37c-67 0 -81 -61 -81 -133v-140h207v100l119 31v-131zM431 592c-10 -12 -28 -16 -42 -16c-39 0 -65 21 -65 58c0 12 2 20 6 33
h30c10 34 -9 59 -55 59c-70 0 -95 -51 -95 -138v-112h209v16c0 33 4 68 12 100z" />
    <glyph glyph-name="f_iacute" unicode="f&#xed;" horiz-adv-x="621" 
d="M210 476h325v-450h69v-26h-255v26h68v424h-207v-424h76v-26h-263v26h68v424h-73v26h73v45c0 155 54 252 198 252c81 0 132 -43 132 -107c0 -45 -25 -72 -63 -72c-40 0 -64 22 -64 59c0 11 3 24 6 37h30c3 8 3 15 3 22c0 24 -15 37 -47 37c-69 0 -76 -60 -76 -133v-140z
M426 548l70 187l27 5c5 1 10 2 14 2c22 0 36 -12 36 -34c0 -15 -8 -28 -22 -44l-110 -124z" />
    <glyph glyph-name="t_t.alt" unicode="tt" horiz-adv-x="705" 
d="M418 109v341h-233v-329c0 -59 15 -84 67 -84c55 0 79 38 88 106l23 -3c-9 -78 -38 -150 -145 -150c-75 0 -129 29 -129 119v341h-75v26h75v129l96 26v-155h233v129l96 26v-155h140v-26h-140v-329c0 -59 15 -84 67 -84c55 0 79 38 88 106l23 -3c-9 -78 -38 -150 -145 -150
c-75 0 -129 29 -129 119z" />
    <glyph glyph-name=".notdef" horiz-adv-x="200" 
 />
    <glyph glyph-name="space" unicode=" " horiz-adv-x="200" 
 />
    <glyph glyph-name="uni00A0" unicode="&#xa0;" horiz-adv-x="200" 
 />
    <glyph glyph-name="quotesingle" unicode="'" horiz-adv-x="212" 
d="M90 520l-25 225c22 17 42 24 54 24c20 0 31 -13 31 -34c0 -10 -2 -28 -5 -48l-31 -167h-24z" />
    <glyph glyph-name="quotedbl" unicode="&#x22;" horiz-adv-x="381" 
d="M98 520l-25 225c22 17 42 24 54 24c20 0 31 -13 31 -34c0 -10 -2 -28 -5 -48l-31 -167h-24zM246 520l-25 225c22 17 42 24 54 24c20 0 31 -13 31 -34c0 -10 -2 -28 -5 -48l-31 -167h-24z" />
    <glyph glyph-name="numbersign" unicode="#" horiz-adv-x="597" 
d="M174 0h-45l22 139h-120l9 42h117l30 177h-120l8 43h117l19 130h46l-20 -130h152l19 130h46l-20 -130h121l-7 -43h-119l-28 -177h119l-7 -42h-117l-23 -139h-45l23 139h-154zM384 358h-152l-30 -177h154z" />
    <glyph glyph-name="ampersand" unicode="&#x26;" horiz-adv-x="778" 
d="M486 -188c78 0 114 63 114 140c0 60 -22 102 -53 143c-46 -62 -118 -106 -228 -106c-140 0 -254 56 -254 194c0 87 48 141 132 181c-41 41 -69 96 -69 159c0 124 103 188 210 188c102 0 155 -48 155 -124c0 -79 -63 -136 -161 -180c37 -27 78 -52 120 -78
c45 -29 89 -58 130 -94c14 47 21 96 25 144h-74v26h174v-26h-68c-6 -59 -14 -114 -31 -168c49 -54 85 -113 85 -196c0 -130 -92 -230 -213 -230c-86 0 -119 47 -119 93c0 49 29 75 65 75c34 0 57 -17 57 -55c0 -10 -2 -22 -6 -36h-31c-2 -8 -4 -14 -4 -20
c0 -17 12 -30 44 -30zM346 32c83 0 139 37 178 90c-35 37 -79 69 -135 105c-64 40 -123 75 -170 115c-28 -30 -39 -64 -39 -135c0 -123 65 -175 166 -175zM228 575c0 -60 29 -108 85 -153c77 39 106 100 106 165c0 72 -38 102 -86 102c-51 0 -105 -31 -105 -114z" />
    <glyph glyph-name="asterisk" unicode="*" horiz-adv-x="498" 
d="M421 630l-160 -38l116 -35c24 -7 46 -16 46 -42s-26 -43 -50 -53l-115 114l31 -158c-20 -15 -38 -21 -52 -21c-23 0 -35 13 -35 32c0 9 1 21 6 39l34 109l-116 -115c-21 8 -51 25 -51 53c0 25 20 35 42 41l122 36l-161 37c-2 8 -2 17 -2 24c0 24 9 52 36 52
c18 0 30 -10 48 -26l84 -74l-34 158c20 15 38 21 52 21c23 0 36 -14 36 -32c0 -9 -2 -23 -8 -42l-31 -105l77 74c16 15 33 26 52 26c26 0 35 -23 35 -50c0 -8 -1 -17 -2 -25z" />
    <glyph glyph-name="comma" unicode="," horiz-adv-x="257" 
d="M88 -155l-15 19c75 68 84 106 84 134c0 22 -9 33 -22 35l-37 -34c-24 8 -52 32 -52 71c0 43 34 70 72 70c62 0 88 -49 88 -106c0 -70 -34 -125 -118 -189z" />
    <glyph glyph-name="hyphen" unicode="-" horiz-adv-x="333" 
d="M47 250v58h240v-58h-240z" />
    <glyph glyph-name="period" unicode="." horiz-adv-x="265" 
d="M56 65c0 43 27 76 76 76c44 0 77 -23 77 -74c0 -46 -27 -77 -76 -77c-58 0 -77 39 -77 75z" />
    <glyph glyph-name="colon" unicode=":" horiz-adv-x="265" 
d="M56 65c0 43 27 76 76 76c44 0 77 -23 77 -74c0 -46 -27 -77 -76 -77c-58 0 -77 39 -77 75zM56 396c0 43 27 76 76 76c44 0 77 -23 77 -74c0 -46 -27 -77 -76 -77c-58 0 -77 39 -77 75z" />
    <glyph glyph-name="semicolon" unicode=";" horiz-adv-x="257" 
d="M88 -155l-15 19c75 68 84 106 84 134c0 22 -9 33 -22 35l-37 -34c-24 8 -52 32 -52 71c0 43 34 70 72 70c62 0 88 -49 88 -106c0 -70 -34 -125 -118 -189zM55 396c0 43 27 76 76 76c44 0 77 -23 77 -74c0 -46 -27 -77 -76 -77c-58 0 -77 39 -77 75z" />
    <glyph glyph-name="question" unicode="?" horiz-adv-x="533" 
d="M257 711c126 0 199 -68 199 -161c0 -52 -25 -98 -74 -144l-141 -131v-102h-25v204c0 12 3 20 11 28l73 75c38 40 49 68 49 109c0 64 -45 98 -111 98c-60 0 -95 -25 -95 -58c0 -6 1 -12 3 -18h28c5 -13 8 -26 8 -41c0 -39 -28 -62 -65 -62c-40 0 -61 30 -61 70
c0 76 79 133 201 133zM162 56c0 37 23 66 66 66c39 0 67 -20 67 -65c0 -40 -23 -67 -66 -67c-50 0 -67 33 -67 66z" />
    <glyph glyph-name="exclam" unicode="!" horiz-adv-x="377" 
d="M173 178v94c0 187 -45 297 -45 370c0 46 27 69 66 69c38 0 61 -24 61 -68c0 -82 -51 -183 -51 -372v-93h-31zM122 56c0 37 23 66 66 66c38 0 67 -20 67 -65c0 -40 -24 -67 -66 -67c-51 0 -67 33 -67 66z" />
    <glyph glyph-name="exclamdown" unicode="&#xa1;" horiz-adv-x="377" 
d="M173 204v94h31v-93c0 -189 51 -290 51 -372c0 -44 -23 -68 -61 -68c-39 0 -66 23 -66 69c0 73 45 183 45 370zM122 420c0 33 16 66 67 66c42 0 66 -27 66 -67c0 -45 -29 -65 -67 -65c-43 0 -66 29 -66 66z" />
    <glyph glyph-name="questiondown" unicode="&#xbf;" horiz-adv-x="533" 
d="M276 -235c-126 0 -199 68 -199 161c0 52 25 98 74 144l141 131v102h25v-204c0 -12 -3 -20 -11 -28l-73 -75c-38 -40 -49 -68 -49 -109c0 -64 45 -98 111 -98c60 0 95 25 95 58c0 6 -1 12 -3 18h-28c-5 13 -8 26 -8 41c0 39 28 62 65 62c40 0 61 -30 61 -70
c0 -76 -79 -133 -201 -133zM371 420c0 -37 -23 -66 -66 -66c-39 0 -67 20 -67 65c0 40 23 67 66 67c50 0 67 -33 67 -66z" />
    <glyph glyph-name="question.alt" horiz-adv-x="580" 
d="M382 507c0 132 -49 170 -123 170c-56 0 -96 -25 -96 -61c0 -5 1 -10 3 -17h27c5 -13 8 -26 8 -40c0 -39 -28 -62 -65 -62c-40 0 -61 29 -61 70c0 76 83 133 206 133c129 0 220 -61 220 -183c0 -126 -108 -180 -200 -180c-27 0 -51 4 -68 11v-170h-29v179
c-13 9 -22 21 -22 38c0 11 6 24 24 24c15 0 30 -15 26 -47c15 -6 32 -9 49 -9c57 0 101 37 101 144zM154 56c0 37 24 66 66 66c39 0 67 -20 67 -65c0 -40 -23 -67 -66 -67c-50 0 -67 33 -67 66z" />
    <glyph glyph-name="questiondown.alt" horiz-adv-x="580" 
d="M195 -31c0 -132 49 -170 123 -170c56 0 96 25 96 61c0 5 -1 10 -3 17h-27c-5 13 -8 26 -8 40c0 39 28 62 65 62c40 0 61 -29 61 -70c0 -76 -83 -133 -206 -133c-129 0 -220 61 -220 183c0 126 108 180 200 180c27 0 51 -4 68 -11v170h29v-179c13 -9 22 -21 22 -38
c0 -11 -6 -24 -24 -24c-15 0 -30 15 -26 47c-15 6 -32 9 -49 9c-57 0 -101 -37 -101 -144zM423 420c0 -37 -24 -66 -66 -66c-39 0 -67 20 -67 65c0 40 23 67 66 67c50 0 67 -33 67 -66z" />
    <glyph glyph-name="at" unicode="@" horiz-adv-x="856" 
d="M431 395c40 0 73 -15 97 -36l17 29h71l-32 -182c-7 -44 -12 -75 -12 -106c0 -58 17 -76 54 -76c63 0 131 73 131 212c0 190 -112 306 -309 306c-192 0 -347 -133 -347 -367c0 -242 173 -327 347 -327c102 0 177 35 231 80l19 -22c-61 -57 -158 -89 -253 -89
c-202 0 -383 108 -383 354c0 229 150 401 390 401c198 0 342 -116 342 -330c0 -168 -84 -249 -189 -249c-73 0 -106 32 -117 73c-22 -38 -61 -71 -119 -71c-97 0 -131 72 -131 157c0 168 102 243 193 243zM489 131l32 203c-20 21 -47 35 -79 35c-85 0 -115 -120 -115 -226
c0 -77 16 -116 63 -116c50 0 90 51 99 104z" />
    <glyph glyph-name="at.case" horiz-adv-x="856" 
d="M431 540c40 0 73 -15 97 -36l17 29h71l-32 -182c-7 -44 -12 -75 -12 -106c0 -58 17 -76 54 -76c63 0 131 73 131 212c0 190 -112 306 -309 306c-192 0 -347 -133 -347 -367c0 -242 173 -327 347 -327c102 0 177 35 231 80l19 -22c-61 -57 -158 -89 -253 -89
c-202 0 -383 108 -383 354c0 229 150 401 390 401c198 0 342 -116 342 -330c0 -168 -84 -249 -189 -249c-73 0 -106 32 -117 73c-22 -38 -61 -71 -119 -71c-97 0 -131 72 -131 157c0 168 102 243 193 243zM489 276l32 203c-20 21 -47 35 -79 35c-85 0 -115 -120 -115 -226
c0 -77 16 -116 63 -116c50 0 90 51 99 104z" />
    <glyph glyph-name="A" unicode="A" horiz-adv-x="672" 
d="M467 29l-69 204h-219l-73 -204h85v-29h-190v29h65l253 677h41l246 -677h65v-29h-286v29h82zM292 546l-103 -284h199z" />
    <glyph glyph-name="B" unicode="B" horiz-adv-x="630" 
d="M32 700h246c168 0 275 -39 275 -166c0 -92 -55 -145 -155 -162v-2c117 -16 190 -75 190 -172c0 -159 -132 -198 -315 -198h-241v29h80v642h-80v29zM239 348v-319h47c125 0 164 47 164 165c0 107 -41 154 -166 154h-45zM239 671v-294h26c120 0 158 47 158 154
c0 106 -39 140 -152 140h-32z" />
    <glyph glyph-name="C" unicode="C" horiz-adv-x="659" 
d="M375 680c-126 0 -198 -93 -198 -328c0 -212 68 -331 203 -331c103 0 169 68 204 195h23l-7 -215h-15c-7 13 -12 20 -26 20c-32 0 -98 -31 -191 -31c-199 0 -328 107 -328 359c0 238 143 362 332 362c84 0 146 -31 178 -31c16 0 19 7 25 20h16l7 -209h-23
c-35 125 -96 189 -200 189z" />
    <glyph glyph-name="D" unicode="D" horiz-adv-x="724" 
d="M680 362c0 -282 -178 -362 -414 -362h-235v29h81v642h-81v29h262c244 0 387 -89 387 -338zM239 29h43c182 0 260 108 260 329c0 254 -88 313 -277 313h-26v-642z" />
    <glyph glyph-name="E" unicode="E" horiz-adv-x="618" 
d="M36 700h501l10 -190h-24c-27 142 -84 161 -206 161h-80v-299h48c76 0 102 32 118 128h22v-296h-24c-19 107 -40 136 -126 136h-38v-311h89c140 0 199 52 223 181h21l-8 -210h-526v29h74v642h-74v29z" />
    <glyph glyph-name="F" unicode="F" horiz-adv-x="587" 
d="M36 700h498l10 -197h-24c-27 147 -85 168 -208 168h-75v-308h54c76 0 103 30 118 128h21v-296h-23c-18 107 -39 136 -123 136h-47v-302h128v-29h-329v29h74v642h-74v29z" />
    <glyph glyph-name="G" unicode="G" horiz-adv-x="710" 
d="M376 21c56 0 98 25 116 68v167h-85v29h269v-29h-60v-255h-16c-8 14 -16 25 -38 25c-35 0 -107 -36 -194 -36c-199 0 -328 107 -328 355c0 242 147 366 336 366c85 0 144 -31 176 -31c14 0 18 7 24 20h16l7 -209h-22c-34 121 -99 189 -202 189c-126 0 -198 -94 -198 -332
c0 -210 68 -327 199 -327z" />
    <glyph glyph-name="H" unicode="H" horiz-adv-x="758" 
d="M36 700h275v-29h-74v-296h284v296h-74v29h275v-29h-74v-642h74v-29h-275v29h74v310h-284v-310h74v-29h-275v29h74v642h-74v29z" />
    <glyph glyph-name="I" unicode="I" horiz-adv-x="347" 
d="M40 700h267v-29h-70v-642h70v-29h-267v29h70v642h-70v29z" />
    <glyph glyph-name="J" unicode="J" horiz-adv-x="464" 
d="M158 700h287v-29h-70v-443c0 -148 -67 -237 -201 -237c-97 0 -149 44 -149 110c0 53 32 81 73 81c37 0 60 -22 60 -61c0 -12 -2 -28 -7 -45h-31c-3 -6 -4 -12 -4 -17c0 -22 20 -38 57 -38c61 0 75 26 75 115v535h-90v29z" />
    <glyph glyph-name="K" unicode="K" horiz-adv-x="670" 
d="M40 700h267v-29h-70v-311l31 8l250 305h-82v27h196v-27h-67l-200 -246l254 -400h55v-27h-274v27h68l-195 304l-36 -8v-294h70v-29h-267v29h70v642h-70v29z" />
    <glyph glyph-name="L" unicode="L" horiz-adv-x="588" 
d="M36 700h307v-29h-106v-642h66c144 0 196 54 228 197h24l-12 -226h-507v29h74v642h-74v29z" />
    <glyph glyph-name="M" unicode="M" horiz-adv-x="855" 
d="M589 700h226v-29h-70v-642h70v-29h-267v29h70v632h-4l-198 -661h-56l-211 662h-4v-633h70v-29h-175v29h70v642h-70v29h230l163 -525z" />
    <glyph glyph-name="N" unicode="N" horiz-adv-x="701" 
d="M598 671v-676h-59l-394 651v-617h70v-29h-175v29h70v642h-70v29h221l302 -504v475h-70v29h175v-29h-70z" />
    <glyph glyph-name="O" unicode="O" horiz-adv-x="722" 
d="M542 352c0 200 -27 328 -178 328c-158 0 -186 -129 -186 -334c0 -187 30 -325 184 -325c149 0 180 128 180 331zM40 346c0 222 130 365 329 365c195 0 312 -131 312 -355c0 -226 -110 -366 -321 -366c-208 0 -320 128 -320 356z" />
    <glyph glyph-name="P" unicode="P" horiz-adv-x="627" 
d="M30 700h264c171 0 293 -43 293 -196c0 -174 -139 -217 -319 -217h-31v-258h125v-29h-332v29h80v642h-80v29zM237 671v-355h44c121 0 168 56 168 185c0 130 -48 170 -162 170h-50z" />
    <glyph glyph-name="Q" unicode="Q" horiz-adv-x="722" 
d="M40 346c0 222 130 365 329 365c195 0 312 -131 312 -355c0 -208 -91 -339 -273 -358v-6c61 -9 81 -41 96 -87c18 -52 27 -81 59 -81c25 0 38 18 44 73l25 -2c-3 -70 -37 -119 -110 -119c-91 0 -118 51 -139 125c-16 59 -27 70 -45 70c-17 0 -39 -16 -68 -40l-13 15
c20 19 46 37 69 44v4c-185 13 -286 137 -286 352zM542 352c0 200 -27 328 -178 328c-158 0 -186 -129 -186 -334c0 -186 30 -325 184 -325c149 0 180 128 180 331z" />
    <glyph glyph-name="Q.alt" horiz-adv-x="722" 
d="M40 340c0 229 127 371 329 371c196 0 312 -132 312 -359c0 -207 -95 -342 -294 -357v-4l140 -18c47 -47 104 -100 153 -100c31 0 55 14 75 29l14 -16c-57 -48 -108 -78 -156 -78c-57 0 -100 28 -157 87c-53 54 -91 91 -132 95c-182 15 -284 139 -284 350zM542 353
c0 201 -27 327 -180 327c-155 0 -184 -130 -184 -330c0 -190 29 -329 184 -329c149 0 180 128 180 332z" />
    <glyph glyph-name="R" unicode="R" horiz-adv-x="669" 
d="M302 346h-65v-317h95v-29h-302v29h80v642h-80v29h253c167 0 286 -23 286 -166c0 -120 -76 -161 -192 -170v-3c119 -14 165 -55 165 -171v-79c0 -44 3 -68 40 -68c31 0 37 25 50 92l23 -4c-12 -71 -21 -141 -120 -141c-96 0 -125 40 -125 136v119c0 66 -24 101 -108 101z
M237 671v-296h24c118 0 169 44 169 157c0 117 -52 139 -164 139h-29z" />
    <glyph glyph-name="S" unicode="S" horiz-adv-x="574" 
d="M293 21c95 0 164 53 164 133c0 95 -72 115 -199 148c-118 31 -192 69 -192 202c0 104 72 207 215 207c82 0 130 -31 161 -31c15 0 19 7 26 20h15l7 -202h-22c-35 117 -80 182 -192 182c-88 0 -138 -49 -138 -117c0 -78 73 -104 165 -129c110 -29 223 -61 223 -216
c0 -132 -85 -228 -233 -228c-94 0 -154 30 -183 30c-15 0 -19 -11 -27 -30h-17l-10 230h23c34 -119 94 -199 214 -199z" />
    <glyph glyph-name="R.alt" horiz-adv-x="667" 
d="M325 347h-82v-318h95v-29h-302v29h80v642h-80v29h265c153 0 274 -23 274 -166c0 -119 -79 -170 -219 -183c16 -64 58 -74 119 -69l56 -179c12 -36 19 -60 52 -60c32 0 36 26 39 93l24 -1c-1 -75 -4 -145 -109 -145c-89 0 -112 42 -132 104zM243 671v-296h16
c130 0 177 44 177 154c0 114 -47 142 -167 142h-26z" />
    <glyph glyph-name="T" unicode="T" horiz-adv-x="643" 
d="M605 700l10 -213h-24c-32 162 -79 184 -193 184h-12v-642h92v-29h-312v29h92v642h-13c-114 0 -161 -24 -193 -184h-24l10 213h567z" />
    <glyph glyph-name="U" unicode="U" horiz-adv-x="703" 
d="M390 26c109 0 177 65 177 194v451h-71v29h177v-29h-69v-440c0 -150 -59 -241 -244 -241c-158 0 -258 59 -258 237v444h-70v29h269v-29h-72v-457c0 -104 32 -188 161 -188z" />
    <glyph glyph-name="V" unicode="V" horiz-adv-x="665" 
d="M377 160l186 511h-93v29h194v-29h-62l-251 -677h-39l-247 677h-64v29h292v-29h-89z" />
    <glyph glyph-name="W" unicode="W" horiz-adv-x="1007" 
d="M363 164l135 339l-61 168h-66v29h288v-29h-87l176 -496l152 496h-100v29h205v-29h-66l-214 -676h-41l-167 456l-180 -456h-40l-232 676h-64v29h292v-29h-90z" />
    <glyph glyph-name="X" unicode="X" horiz-adv-x="667" 
d="M657 0h-298v29h86l-158 275l-162 -275h99v-29h-207v29h69l180 310l-197 332h-65v29h297v-29h-89l147 -258l154 258h-94v29h205v-29h-69l-175 -292l209 -350h68v-29z" />
    <glyph glyph-name="Y" unicode="Y" horiz-adv-x="617" 
d="M355 367l154 304h-98v29h204v-29h-68l-174 -341v-301h79v-29h-285v29h79v297l-180 345h-65v29h290v-29h-85z" />
    <glyph glyph-name="Z" unicode="Z" horiz-adv-x="623" 
d="M551 700v-28l-350 -643h130c125 0 188 55 217 200h24l-12 -229h-508v25l352 646h-118c-116 0 -165 -16 -205 -177h-23l11 206h482z" />
    <glyph glyph-name="a" unicode="a" horiz-adv-x="526" 
d="M250 239h52v73c0 100 -18 150 -91 150c-37 0 -71 -12 -71 -42c0 -5 1 -11 3 -17h27c5 -13 8 -26 8 -40c0 -39 -28 -63 -65 -63c-40 0 -60 28 -60 68c0 77 78 118 182 118c129 0 186 -45 186 -189v-200c0 -42 12 -55 32 -55c23 0 36 14 42 94l23 -2
c-4 -105 -36 -144 -109 -144c-60 0 -95 24 -103 71c-24 -46 -70 -71 -133 -71c-74 0 -142 28 -142 117c0 102 88 132 219 132zM216 30c44 0 86 37 86 99v85h-29c-88 0 -117 -41 -117 -104c0 -54 19 -80 60 -80z" />
    <glyph glyph-name="b" unicode="b" horiz-adv-x="580" 
d="M324 445c-61 0 -123 -55 -123 -140v-158c0 -71 42 -125 115 -125c74 0 103 61 103 217c0 138 -19 206 -95 206zM202 750v-351c30 51 78 87 156 87c117 0 187 -80 187 -245c0 -167 -78 -251 -211 -251c-73 0 -118 21 -150 68l-60 -66h-39v732h-74v26h191z" />
    <glyph glyph-name="c" unicode="c" horiz-adv-x="477" 
d="M282 462c-87 0 -125 -62 -125 -219c0 -152 37 -216 127 -216c95 0 127 72 138 130l28 -5c-12 -60 -43 -162 -197 -162c-142 0 -223 86 -223 240c0 171 98 256 246 256c111 0 171 -50 171 -127c0 -54 -28 -78 -67 -78c-38 0 -65 23 -65 66c0 10 1 23 5 37h28
c3 9 4 18 4 26c0 31 -21 52 -70 52z" />
    <glyph glyph-name="d" unicode="d" horiz-adv-x="580" 
d="M258 31c60 0 121 49 121 131v170c0 54 -42 121 -111 121c-77 0 -107 -68 -107 -216c0 -138 20 -206 97 -206zM386 0l-8 74c-30 -50 -75 -84 -153 -84c-116 0 -191 81 -191 244c0 167 79 252 208 252c68 0 109 -26 134 -65v303h-86v26h205v-724h73v-26h-182z" />
    <glyph glyph-name="e" unicode="e" horiz-adv-x="491" 
d="M30 234c0 174 103 252 239 252c133 0 197 -78 191 -228h-303v-20c0 -138 30 -213 136 -213c78 0 123 48 140 121l28 -4c-18 -83 -69 -152 -200 -152c-159 0 -231 98 -231 244zM158 285h183c4 118 -14 177 -81 177c-66 0 -98 -54 -102 -177z" />
    <glyph glyph-name="f" unicode="f" horiz-adv-x="342" 
d="M290 749c-71 0 -80 -60 -80 -133v-140h124v-26h-124v-424h120v-26h-309v26h70v424h-73v26h73v45c0 155 56 252 202 252c83 0 136 -43 136 -107c0 -45 -25 -72 -63 -72c-40 0 -64 22 -64 59c0 11 3 24 6 37h30c3 8 3 15 3 22c0 24 -17 37 -51 37z" />
    <glyph glyph-name="g" unicode="g" horiz-adv-x="504" 
d="M426 323c0 -106 -71 -170 -183 -170c-26 0 -53 3 -73 7c-37 -24 -58 -44 -58 -56c0 -10 9 -15 43 -15h129c114 0 206 -25 206 -151c0 -109 -71 -188 -274 -188c-147 0 -217 43 -217 115c0 53 41 72 75 80l34 -23c-7 -17 -10 -37 -10 -51c0 -53 36 -95 142 -95
c123 0 186 50 186 122c0 60 -40 82 -141 82h-121c-83 0 -113 33 -113 74c0 40 30 69 91 114c-66 25 -93 76 -93 149c0 88 59 169 197 169c37 0 72 -10 100 -26c-6 67 27 141 102 141c41 0 71 -25 71 -65c0 -28 -21 -54 -52 -54c-25 0 -43 16 -49 29l23 26
c-2 15 -11 24 -27 24c-21 0 -44 -25 -44 -89c0 -9 0 -19 2 -29c33 -28 54 -65 54 -120zM163 318c0 -109 27 -139 78 -139c44 0 73 27 73 140c0 110 -24 143 -74 143c-47 0 -77 -29 -77 -144z" />
    <glyph glyph-name="g.calt" horiz-adv-x="493" 
d="M405 323c0 -106 -71 -170 -183 -170c-26 0 -53 3 -73 7c-36 -24 -51 -44 -51 -56c0 -10 9 -15 43 -15h122c114 0 206 -25 206 -151c0 -109 -71 -188 -265 -188c-142 0 -205 43 -205 115c0 53 40 72 74 80l35 -23c-8 -17 -10 -37 -10 -51c0 -53 30 -95 130 -95
c110 0 177 50 177 122c0 60 -40 82 -141 82h-114c-83 0 -114 33 -114 74c0 40 24 69 85 114c-66 25 -93 76 -93 149c0 88 59 169 197 169c37 0 71 -9 100 -25c-5 66 27 140 102 140c41 0 71 -25 71 -65c0 -28 -21 -54 -52 -54c-25 0 -43 16 -49 29l23 26
c-2 15 -11 24 -27 24c-21 0 -44 -25 -44 -89c0 -8 0 -19 1 -28c34 -28 55 -65 55 -121zM142 318c0 -109 27 -139 78 -139c44 0 73 27 73 140c0 110 -24 143 -74 143c-47 0 -77 -29 -77 -144z" />
    <glyph glyph-name="h" unicode="h" horiz-adv-x="613" 
d="M21 750h188v-366c22 49 70 102 169 102c92 0 150 -46 150 -167v-293h71v-26h-256v26h67v305c0 84 -18 115 -69 115c-70 0 -132 -66 -132 -156v-264h68v-26h-256v26h70v698h-70v26z" />
    <glyph glyph-name="i" unicode="i" horiz-adv-x="300" 
d="M75 640c0 36 22 67 70 67c42 0 71 -21 71 -67c0 -40 -23 -69 -71 -69c-54 0 -70 36 -70 69zM23 476h189v-450h71v-26h-259v26h70v424h-71v26z" />
    <glyph glyph-name="j" unicode="j" horiz-adv-x="291" 
d="M210 476v-428c0 -159 -52 -298 -193 -298c-87 0 -109 52 -109 94c0 49 31 75 68 75c34 0 56 -19 56 -56c0 -11 -2 -24 -6 -38h-29c-4 -7 -5 -15 -5 -22c0 -17 11 -28 37 -28c57 0 62 56 62 169v506h-77v26h196zM67 639c0 37 22 68 71 68c41 0 70 -21 70 -67
c0 -40 -23 -69 -71 -69c-53 0 -70 36 -70 68z" />
    <glyph glyph-name="j.calt" horiz-adv-x="291" 
d="M210 476v-457c0 -160 -49 -263 -219 -270l-5 23c83 16 105 61 105 175v503h-77v26h196zM67 639c0 37 22 68 71 68c41 0 70 -21 70 -67c0 -40 -23 -69 -71 -69c-53 0 -70 36 -70 68z" />
    <glyph glyph-name="k" unicode="k" horiz-adv-x="579" 
d="M329 0v26h64l-143 223l-41 -9v-214h60v-26h-248v26h70v698h-71v26h189v-479l32 7l192 172h-86v26h201v-26h-69l-142 -130l189 -294h48v-26h-245z" />
    <glyph glyph-name="l" unicode="l" horiz-adv-x="301" 
d="M20 750h190v-724h70v-26h-259v26h70v698h-71v26z" />
    <glyph glyph-name="m" unicode="m" horiz-adv-x="897" 
d="M21 476h188v-90c21 47 61 100 157 100c74 0 122 -33 139 -109c22 50 68 109 163 109c83 0 144 -44 144 -167v-293h71v-26h-254v26h65v316c0 77 -16 104 -63 104c-67 0 -121 -65 -121 -155v-265h67v-26h-250v26h65v312c0 80 -15 108 -63 108c-67 0 -120 -67 -120 -156
v-264h66v-26h-254v26h70v424h-70v26z" />
    <glyph glyph-name="n" unicode="n" horiz-adv-x="615" 
d="M21 476h188v-92c22 49 70 102 169 102c92 0 150 -46 150 -167v-293h71v-26h-256v26h67v308c0 77 -17 110 -70 110c-69 0 -131 -66 -131 -156v-262h68v-26h-256v26h70v424h-70v26z" />
    <glyph glyph-name="o" unicode="o" horiz-adv-x="527" 
d="M371 241c0 127 -17 221 -106 221c-91 0 -108 -91 -108 -221s17 -227 108 -227c87 0 106 83 106 227zM30 236c0 162 92 250 238 250c147 0 229 -77 229 -244c0 -157 -81 -252 -234 -252c-149 0 -233 90 -233 246z" />
    <glyph glyph-name="p" unicode="p" horiz-adv-x="585" 
d="M326 445c-57 0 -121 -55 -121 -140v-158c0 -60 42 -125 118 -125c77 0 100 61 100 217c0 139 -16 206 -97 206zM207 476v-77c30 51 78 87 156 87c117 0 187 -81 187 -244c0 -168 -74 -252 -204 -252c-72 0 -114 26 -138 62v-264h129v-26h-327v26h79v662h-74v26h192z" />
    <glyph glyph-name="q" unicode="q" horiz-adv-x="579" 
d="M256 31c67 0 123 62 123 134v155c0 78 -49 134 -114 134c-66 0 -104 -53 -104 -212c0 -149 23 -211 95 -211zM377 -212v287c-29 -51 -75 -85 -155 -85c-118 0 -188 84 -188 245c0 167 81 251 212 251c65 0 113 -26 136 -71l2 61h175v-26h-64v-662h63v-26h-286v26h105z
" />
    <glyph glyph-name="r" unicode="r" horiz-adv-x="445" 
d="M313 447c-55 0 -104 -86 -104 -175v-246h97v-26h-285v26h70v424h-70v26h188v-94c20 71 68 104 126 104c61 0 102 -39 102 -97s-31 -82 -69 -82c-37 0 -62 22 -62 68c0 10 1 19 3 28h31c3 8 3 14 3 19c0 20 -15 25 -30 25z" />
    <glyph glyph-name="s" unicode="s" horiz-adv-x="435" 
d="M39 -10v169h25c14 -96 84 -137 164 -137c81 0 114 32 114 82c0 59 -58 71 -128 85c-80 16 -168 35 -168 142c0 87 66 155 168 155c42 0 68 -9 98 -23c8 -3 20 -7 28 -7c11 0 15 10 17 32h22v-149h-24c-22 80 -71 119 -140 119c-63 0 -104 -26 -104 -71
c0 -57 60 -67 127 -81c80 -16 168 -38 168 -156c0 -96 -66 -160 -178 -160c-55 0 -95 14 -130 33c-6 4 -12 6 -16 6c-10 0 -15 -8 -21 -39h-22z" />
    <glyph glyph-name="t" unicode="t" horiz-adv-x="386" 
d="M84 117v333h-70v26h70v129l118 31v-160h138v-26h-138v-328c0 -59 14 -85 61 -85c52 0 77 38 86 106l24 -3c-9 -78 -39 -150 -150 -150c-81 0 -139 29 -139 127z" />
    <glyph glyph-name="u" unicode="u" horiz-adv-x="604" 
d="M585 0h-179l-7 87c-23 -48 -69 -97 -163 -97c-92 0 -151 46 -151 167v293h-71v26h189v-332c0 -77 14 -114 72 -114c64 0 121 70 121 144v276h-69v26h187v-450h71v-26z" />
    <glyph glyph-name="v" unicode="v" horiz-adv-x="505" 
d="M0 450v26h250v-26h-76l125 -329l119 329h-74v26h161v-26h-48l-172 -457h-49l-191 457h-45z" />
    <glyph glyph-name="w" unicode="w" horiz-adv-x="774" 
d="M302 450v26h223v-26h-58l122 -327l100 327h-76v26h161v-26h-49l-148 -457h-52l-126 328l-129 -328h-52l-173 457h-45v26h236v-26h-64l114 -332l94 245l-31 87h-47z" />
    <glyph glyph-name="x" unicode="x" horiz-adv-x="545" 
d="M296 292l126 158h-74v26h164v-26h-50l-148 -184l171 -240h60v-26h-272v26h76l-118 170l-130 -170h81v-26h-173v26h53l150 197l-159 227h-54v26h265v-26h-76z" />
    <glyph glyph-name="y" unicode="y" horiz-adv-x="508" 
d="M2 450v26h245v-26h-74l125 -337l122 337h-74v26h162v-26h-50l-201 -531c-49 -130 -84 -169 -162 -169c-74 0 -108 47 -108 93c0 48 29 75 65 75c34 0 58 -17 58 -55c0 -10 -2 -22 -6 -36h-32c-3 -8 -5 -15 -5 -21c0 -17 12 -28 38 -28c56 0 86 58 122 160l22 61h-20
l-182 451h-45z" />
    <glyph glyph-name="y.calt" horiz-adv-x="508" 
d="M17 450v26h240v-26h-74l118 -344l119 344h-74v26h162v-26h-50l-197 -548c-41 -114 -79 -152 -144 -152c-73 0 -102 46 -102 89c0 51 30 78 66 78c34 0 57 -17 57 -55c0 -10 -2 -22 -6 -36h-32c-17 -26 -8 -48 23 -48c54 0 83 66 115 160l21 61h-30l-171 451h-41z" />
    <glyph glyph-name="z" unicode="z" horiz-adv-x="484" 
d="M446 476v-25l-273 -425h110c93 0 120 44 151 150h20l-12 -176h-404v22l278 428h-102c-91 0 -113 -13 -151 -134h-21l11 160h393z" />
    <glyph glyph-name="bracketleft" unicode="[" horiz-adv-x="305" 
d="M295 -128v-27h-213v941h213v-27h-53c-48 0 -58 -5 -58 -52v-782c0 -51 8 -53 57 -53h54z" />
    <glyph glyph-name="bracketright" unicode="]" horiz-adv-x="305" 
d="M10 -155v27h54c49 0 57 2 57 53v782c0 47 -10 52 -58 52h-53v27h213v-941h-213z" />
    <glyph glyph-name="parenleft" unicode="(" horiz-adv-x="295" 
d="M54 320c0 212 103 439 273 462l3 -19c-118 -24 -139 -166 -139 -434c0 -294 21 -422 139 -457l-3 -19c-188 33 -273 260 -273 467z" />
    <glyph glyph-name="parenright" unicode=")" horiz-adv-x="295" 
d="M240 315c0 -212 -103 -439 -273 -462l-3 19c118 24 139 166 139 434c0 294 -21 422 -139 457l3 19c188 -33 273 -260 273 -467z" />
    <glyph glyph-name="braceleft" unicode="{" horiz-adv-x="341" 
d="M44 337c43 1 94 15 94 113c0 75 -29 152 -29 212c0 78 43 124 134 124c33 0 53 -7 69 -13l-6 -21c-12 4 -25 8 -42 8c-25 0 -51 -9 -51 -64c0 -61 28 -170 28 -237c0 -96 -55 -118 -124 -131v-1c69 -15 124 -40 124 -134c0 -65 -28 -194 -28 -249c0 -56 28 -67 59 -67
c15 0 31 3 43 8l7 -22c-14 -6 -36 -14 -69 -14c-97 0 -144 48 -144 127c0 56 29 153 29 225c0 94 -51 112 -94 113v23z" />
    <glyph glyph-name="braceright" unicode="}" horiz-adv-x="341" 
d="M296 336v-23c-43 -1 -94 -19 -94 -113c0 -72 29 -169 29 -225c0 -79 -47 -127 -144 -127c-33 0 -55 8 -69 14l7 22c12 -5 28 -8 43 -8c31 0 59 11 59 67c0 55 -28 184 -28 249c0 94 55 119 124 134v1c-69 13 -124 35 -124 131c0 67 28 176 28 237c0 55 -26 64 -51 64
c-17 0 -30 -4 -42 -8l-6 21c16 6 36 13 69 13c91 0 134 -46 134 -124c0 -60 -29 -137 -29 -212c0 -98 51 -112 94 -113z" />
    <glyph glyph-name="backslash" unicode="\" horiz-adv-x="351" 
d="M49 795l295 -892h-42l-294 892h41z" />
    <glyph glyph-name="slash" unicode="/" horiz-adv-x="351" 
d="M8 -97l295 892h40l-294 -892h-41z" />
    <glyph glyph-name="brokenbar" unicode="&#xa6;" horiz-adv-x="343" 
d="M139 412v383h39v-383h-39zM139 -127v437h39v-437h-39z" />
    <glyph glyph-name="bar" unicode="|" horiz-adv-x="343" 
d="M140 -127v922h39v-922h-39z" />
    <glyph glyph-name="asciicircum" unicode="^" horiz-adv-x="534" 
d="M487 300l-37 -15l-190 336l-175 -337l-38 16l189 364h49z" />
    <glyph glyph-name="underscore" unicode="_" horiz-adv-x="500" 
d="M500 -106h-500v37h500v-37z" />
    <glyph glyph-name="asciitilde" unicode="~" horiz-adv-x="481" 
d="M351 282c-42 0 -91 11 -135 22c-34 9 -70 18 -104 18c-20 0 -44 -7 -63 -43l-17 6c17 60 48 113 109 113c37 0 78 -10 118 -20c39 -9 79 -20 116 -20c28 0 43 9 60 43l19 -5c-26 -83 -57 -114 -103 -114z" />
    <glyph glyph-name="zero" unicode="0" horiz-adv-x="593" 
d="M32 351c0 261 120 360 265 360c147 0 264 -97 264 -360s-120 -361 -264 -361c-180 0 -265 152 -265 361zM166 349c0 -242 30 -328 131 -328c103 0 131 87 131 327c0 241 -33 332 -131 332c-96 0 -131 -93 -131 -331z" />
    <glyph glyph-name="one" unicode="1" horiz-adv-x="399" 
d="M151 666l-123 -11l-3 29l206 27h47v-682h96v-29h-335v29h112v637z" />
    <glyph glyph-name="two" unicode="2" horiz-adv-x="515" 
d="M34 0v61l141 158c127 141 158 219 158 327c0 97 -29 134 -108 134c-58 0 -101 -29 -101 -69c0 -9 2 -19 6 -29h31c5 -15 8 -31 8 -48c0 -35 -27 -59 -65 -59c-46 0 -68 33 -68 80c0 102 93 156 215 156c148 0 212 -69 212 -170s-38 -156 -347 -441h205
c97 0 119 32 134 109h20l-8 -209h-433z" />
    <glyph glyph-name="three" unicode="3" horiz-adv-x="523" 
d="M248 711c129 0 204 -59 204 -155c0 -84 -63 -140 -171 -173c143 -19 206 -90 206 -185c0 -127 -110 -208 -271 -208c-97 0 -192 38 -192 135c0 46 24 79 68 79c38 0 65 -23 65 -60c0 -16 -3 -32 -8 -47h-31c-3 -8 -5 -15 -5 -22c0 -32 42 -54 102 -54
c96 0 139 58 139 174c0 106 -48 147 -107 171c-32 -7 -55 -11 -95 -15l-3 30c110 9 177 37 177 169c0 96 -35 130 -101 130c-56 0 -89 -26 -89 -57c0 -6 1 -12 3 -18h28c5 -13 8 -29 8 -43c0 -35 -26 -57 -61 -57c-43 0 -64 30 -64 73c0 87 91 133 198 133z" />
    <glyph glyph-name="four" unicode="4" horiz-adv-x="559" 
d="M194 0v29h94v150h-279v30l293 491h111v-488h90v78h28v-185h-28v74h-91v-150h70v-29h-288zM48 212h240v403z" />
    <glyph glyph-name="five" unicode="5" horiz-adv-x="523" 
d="M233 395c-49 0 -94 -18 -136 -44l-19 9v329l16 12c83 -12 264 -33 293 -33c23 0 32 12 40 42l21 -3c-18 -123 -34 -152 -73 -152c-22 0 -50 8 -83 19l-179 55l-5 -236c44 21 94 36 153 36c163 0 219 -105 219 -209c0 -144 -107 -230 -261 -230c-99 0 -191 39 -191 139
c0 45 22 78 68 78c38 0 65 -23 65 -61c0 -15 -3 -32 -8 -46h-31c-4 -8 -6 -15 -6 -22c0 -33 42 -57 99 -57c95 0 131 69 131 207c0 115 -27 167 -113 167z" />
    <glyph glyph-name="six" unicode="6" horiz-adv-x="538" 
d="M33 308c0 265 116 403 284 403c108 0 167 -54 167 -122c0 -43 -28 -68 -66 -68c-33 0 -62 19 -62 59c0 10 1 20 4 30l27 4c2 6 2 12 2 18c0 27 -22 48 -74 48c-95 0 -150 -65 -152 -315c32 50 83 77 152 77c110 0 197 -66 197 -211c0 -146 -90 -241 -240 -241
s-239 88 -239 318zM165 222c0 -132 22 -201 109 -201c88 0 109 75 109 195c0 139 -27 189 -93 189c-55 0 -108 -38 -119 -88c-8 -28 -6 -51 -6 -95z" />
    <glyph glyph-name="seven" unicode="7" horiz-adv-x="473" 
d="M117 92c0 73 35 142 179 351l110 160h-235c-94 0 -106 -13 -123 -101h-21l8 198h432v-52l-60 -110c-148 -276 -162 -374 -162 -441c0 -32 7 -54 21 -79l-24 -27c-82 -4 -125 36 -125 101z" />
    <glyph glyph-name="eight" unicode="8" horiz-adv-x="557" 
d="M232 368c-113 15 -177 76 -177 166c0 109 84 177 224 177c137 0 225 -66 225 -176c0 -93 -64 -154 -175 -167v-3c132 -15 197 -81 197 -183c0 -126 -91 -192 -247 -192c-157 0 -248 68 -248 191c0 107 71 172 201 184v3zM279 349c-80 0 -121 -53 -121 -168
c0 -112 39 -160 121 -160s121 49 121 163c0 113 -42 165 -121 165zM177 535c0 -104 36 -150 103 -150c70 0 102 46 102 150c0 96 -32 144 -103 144s-102 -48 -102 -144z" />
    <glyph glyph-name="nine" unicode="9" horiz-adv-x="538" 
d="M505 382c0 -265 -108 -392 -278 -392c-115 0 -173 65 -173 128c0 49 25 81 66 81c37 0 65 -22 65 -64c0 -12 -2 -23 -5 -34h-29c-5 -10 -7 -20 -7 -28c0 -31 32 -52 82 -52c100 0 150 82 150 315c-32 -51 -82 -78 -152 -78c-110 0 -197 71 -197 221c0 146 95 231 241 231
c149 0 237 -100 237 -328zM357 360c13 23 17 47 17 104c0 143 -22 215 -108 215c-89 0 -110 -72 -110 -187c0 -145 26 -197 93 -197c50 0 84 25 108 65z" />
    <glyph glyph-name="dollar" unicode="$" horiz-adv-x="565" 
d="M224 -71v81c-51 9 -88 25 -106 25c-15 0 -18 -9 -26 -30h-18l-10 222h22c26 -91 66 -160 138 -185v268c-93 31 -149 80 -149 182c0 86 49 170 149 193v85h31v-80c7 0 14 1 22 1c13 0 25 -1 37 -3v82h31v-87c37 -9 62 -23 82 -23c14 0 18 7 25 20h15l5 -188h-21
c-23 78 -53 134 -106 158v-234c87 -29 163 -76 163 -197c0 -104 -59 -186 -163 -208v-82h-31v77c-9 -1 -19 -1 -28 -1c-11 0 -21 0 -31 1v-77h-31zM442 162c0 57 -35 87 -97 111v-232c59 17 97 60 97 121zM287 33c9 0 18 0 27 1v250c-18 6 -38 11 -59 16v-265
c10 -1 20 -2 32 -2zM255 442l59 -17v234c-12 3 -24 4 -37 4c-8 0 -15 -1 -22 -1v-220zM144 556c0 -54 31 -82 80 -103v203c-52 -14 -80 -51 -80 -100z" />
    <glyph glyph-name="Euro" unicode="&#x20ac;" horiz-adv-x="611" 
d="M381 683c-96 0 -143 -65 -150 -254h226l-7 -33h-220v-76h204l-8 -33h-195c6 -185 51 -268 153 -268c50 0 97 20 97 61c0 7 -1 14 -4 21h-38c-4 11 -6 22 -6 35c0 36 26 64 69 64s70 -29 70 -76c0 -88 -92 -134 -192 -134c-181 0 -269 101 -287 297h-85l8 33h76v20
c0 19 0 38 2 56h-73l8 33h68c24 191 132 282 284 282c114 0 188 -54 188 -134c0 -47 -27 -76 -70 -76c-41 0 -68 23 -68 62c0 12 1 23 5 35h38c3 7 4 15 4 22c0 35 -36 63 -97 63z" />
    <glyph glyph-name="cent" unicode="&#xa2;" horiz-adv-x="485" 
d="M161 -20l27 116c-87 24 -135 94 -135 203c0 150 93 228 231 228h6l26 108l29 -7l-25 -103c82 -10 128 -56 128 -119c0 -50 -25 -72 -61 -72c-40 0 -58 26 -58 62c0 9 1 20 4 31h28c3 8 3 16 3 24c0 27 -17 45 -49 50l-85 -360c17 -10 38 -15 63 -15c81 0 111 56 127 106
l28 -6c-18 -61 -50 -139 -185 -139c-16 0 -31 1 -45 3l-28 -118zM174 314c0 -70 10 -118 31 -148l79 337c-75 -3 -110 -57 -110 -189z" />
    <glyph glyph-name="sterling" unicode="&#xa3;" horiz-adv-x="571" 
d="M36 295v31h96c-20 49 -43 103 -43 172c0 132 93 213 232 213c127 0 187 -56 187 -137c0 -52 -28 -80 -71 -80c-40 0 -69 23 -69 63c0 12 1 23 5 35h37c2 8 3 16 3 23c0 37 -27 66 -82 66c-86 0 -110 -60 -110 -171v-184h200v-31h-200v-50c0 -59 -20 -103 -58 -149l1 -2
c36 23 77 37 106 37c77 0 147 -65 187 -65c32 0 44 20 49 92l26 -1c-2 -115 -45 -176 -114 -176c-38 0 -63 9 -103 27l-152 66c-18 -65 -50 -85 -82 -85c-28 0 -44 16 -44 36c0 35 41 68 96 75c16 31 27 63 27 111c0 29 -8 56 -17 84h-107z" />
    <glyph glyph-name="yen" unicode="&#xa5;" horiz-adv-x="609" 
d="M350 395l143 279h-94v26h201v-26h-68l-152 -294h140v-31h-152v-73h152v-31h-152v-216h79v-29h-285v29h79v216h-150v31h150v73h-150v31h135l-154 294h-64v26h286v-26h-82z" />
    <glyph glyph-name="florin" unicode="&#x192;" horiz-adv-x="514" 
d="M389 406l-5 -26h-135l-59 -345c-27 -152 -102 -245 -234 -245c-82 0 -121 45 -121 96c0 44 27 82 76 82c37 0 58 -23 58 -56c0 -10 -2 -21 -6 -33l-41 -2c-6 -10 -10 -21 -10 -29c0 -19 16 -34 50 -34c70 0 80 49 95 138l75 428h-72l6 26h71l11 64
c22 147 102 241 237 241c80 0 120 -40 120 -95c0 -45 -22 -80 -72 -80c-38 0 -60 24 -60 55c0 9 2 26 6 36l37 1c5 12 9 22 9 30c0 19 -17 28 -48 28c-68 0 -84 -59 -98 -142l-24 -138h134z" />
    <glyph glyph-name="afii61352" unicode="&#x2116;" horiz-adv-x="1043" 
d="M633 543v-550h-57l-341 598v-435c0 -91 -27 -166 -121 -166c-60 0 -109 33 -109 92c0 50 28 76 67 76c37 0 62 -20 62 -56c0 -12 -2 -23 -6 -35h-38c-5 -9 -6 -17 -6 -23c0 -21 15 -27 36 -27c60 0 82 52 82 141v472l-28 43h-60v27h205l281 -498v343c0 91 30 166 121 166
c60 0 108 -33 108 -92c0 -50 -27 -76 -66 -76c-37 0 -63 20 -63 56c0 12 3 23 6 35h39c4 9 5 17 5 23c0 21 -14 27 -35 27c-58 0 -82 -52 -82 -141zM691 320c0 114 69 169 152 169c75 0 145 -44 145 -161c0 -112 -74 -168 -149 -168c-93 0 -148 61 -148 160zM776 321
c0 -107 20 -142 65 -142c48 0 64 41 64 147c0 109 -20 142 -62 142c-46 0 -67 -36 -67 -147zM714 88v30h252v-30h-252z" />
    <glyph glyph-name="currency" unicode="&#xa4;" horiz-adv-x="530" 
d="M99 340c0 32 10 67 29 96l-77 89l19 18l90 -71c28 19 65 31 104 31c37 0 73 -10 98 -30l90 69l17 -16l-75 -85c18 -27 28 -65 28 -98c0 -36 -12 -72 -30 -100l75 -98l-18 -17l-94 77c-24 -19 -58 -29 -94 -29c-39 0 -76 11 -99 27l-89 -74l-18 18l72 89
c-19 28 -28 68 -28 104zM138 340c0 -72 31 -133 124 -133c80 0 121 61 121 133c0 76 -37 134 -123 134c-85 0 -122 -63 -122 -134z" />
    <glyph glyph-name="section" unicode="&#xa7;" horiz-adv-x="665" 
d="M77 414c0 188 139 297 295 297c89 0 175 -35 175 -122c0 -38 -22 -73 -69 -73c-39 0 -67 22 -67 61c0 10 0 18 3 27l34 8c2 9 4 17 4 25c0 34 -25 51 -82 51c-103 0 -150 -66 -166 -166c201 -38 378 -138 378 -344c0 -193 -140 -306 -296 -306c-89 0 -175 35 -175 122
c0 39 25 75 71 75c40 0 65 -24 65 -63c0 -10 -1 -18 -3 -27l-34 -8c-3 -9 -5 -17 -5 -26c0 -31 26 -50 82 -50c106 0 156 73 171 184c-203 36 -381 127 -381 335zM464 168c0 182 -87 284 -264 332c-2 -23 -3 -46 -3 -71c0 -174 85 -279 264 -326c2 20 3 42 3 65z" />
    <glyph glyph-name="copyright" unicode="&#xa9;" horiz-adv-x="781" 
d="M721 320c0 -205 -135 -331 -331 -331c-219 0 -330 133 -330 317c0 207 148 330 332 330c204 0 329 -124 329 -316zM407 496c-67 0 -101 -44 -101 -178c0 -125 31 -178 102 -178c52 0 92 43 108 107h12l-4 -119h-10c-4 7 -6 15 -14 15c-11 0 -50 -21 -101 -21
c-105 0 -186 59 -186 196c0 127 87 196 190 196c45 0 82 -20 94 -20c8 0 10 8 14 15h9l3 -119h-14c-16 67 -54 106 -102 106zM687 314c0 190 -125 294 -295 294c-168 0 -296 -112 -296 -301c0 -179 111 -289 294 -289c181 0 297 114 297 296z" />
    <glyph glyph-name="registered" unicode="&#xae;" horiz-adv-x="459" 
d="M419 480c0 -112 -78 -188 -190 -188c-125 0 -189 78 -189 181c0 117 85 189 190 189c116 0 189 -72 189 -182zM221 482h-10v-84h23v-11h-91v11h22v170h-22v11h79c46 0 82 -6 82 -45c0 -33 -25 -44 -61 -47v-1c42 -3 56 -15 56 -47v-22c0 -11 2 -16 12 -16c9 0 14 7 17 29
l10 -1c-2 -23 -8 -45 -42 -45c-28 0 -42 11 -42 34v32c0 19 -7 32 -33 32zM211 568v-76h3c34 0 46 14 46 40c0 25 -10 36 -44 36h-5zM389 477c0 102 -69 160 -159 160c-93 0 -159 -62 -159 -163c0 -96 57 -156 159 -156c97 0 159 62 159 159z" />
    <glyph glyph-name="trademark" unicode="&#x2122;" horiz-adv-x="934" 
d="M738 648h140v-20h-40v-331h40v-19h-161v19h39v329l-110 -348h-37l-132 343v-324h38v-19h-99v19h33v331h-33v20h141l96 -261zM379 648l5 -116h-15c-18 81 -48 100 -100 100h-6v-333h51v-21h-184v21h52v333h-6c-50 0 -82 -19 -100 -100h-16l6 116h313z" />
    <glyph glyph-name="ordfeminine" unicode="&#xaa;" horiz-adv-x="425" 
d="M195 476h46v46c0 61 -16 101 -71 101c-37 0 -57 -15 -47 -41h21c4 -9 6 -18 6 -29c0 -28 -21 -45 -50 -45c-31 0 -48 20 -48 50c0 56 60 88 138 88c97 0 145 -32 145 -134v-140c0 -29 9 -37 24 -37c17 0 24 10 29 63c7 -1 13 -1 20 -2c-3 -77 -32 -102 -85 -102
c-48 0 -73 17 -79 51c-17 -32 -50 -51 -100 -51c-55 0 -107 19 -107 85c0 71 60 97 158 97zM177 328c32 0 64 24 64 68v57h-23c-65 0 -83 -27 -83 -71c0 -37 13 -54 42 -54z" />
    <glyph glyph-name="ordmasculine" unicode="&#xba;" horiz-adv-x="424" 
d="M289 472c0 91 -11 151 -76 151c-66 0 -77 -59 -77 -150c0 -93 12 -156 77 -156c64 0 76 53 76 155zM35 469c0 114 71 177 180 177c111 0 174 -55 174 -173c0 -112 -63 -179 -177 -179c-112 0 -177 64 -177 175z" />
    <glyph glyph-name="guillemotleft" unicode="&#xab;" horiz-adv-x="483" 
d="M55 258l173 144l14 -12l-105 -159l103 -171l-13 -12l-156 136c-19 14 -27 26 -27 39c0 15 6 26 11 35zM231 258l173 144l14 -12l-105 -159l103 -171l-13 -12l-156 136c-19 14 -27 26 -27 39c0 15 6 26 11 35z" />
    <glyph glyph-name="guillemotright" unicode="&#xbb;" horiz-adv-x="483" 
d="M252 192l-173 -144l-14 12l104 159l-103 170l14 13l156 -136c17 -15 27 -26 27 -39c0 -15 -5 -26 -11 -35zM428 192l-173 -144l-14 12l104 159l-103 170l14 13l156 -136c17 -15 27 -26 27 -39c0 -15 -5 -26 -11 -35z" />
    <glyph glyph-name="guilsinglleft" unicode="&#x2039;" horiz-adv-x="307" 
d="M55 258l173 144l14 -12l-105 -159l103 -171l-13 -12l-156 136c-19 14 -27 26 -27 39c0 15 6 26 11 35z" />
    <glyph glyph-name="guilsinglright" unicode="&#x203a;" horiz-adv-x="307" 
d="M252 192l-173 -144l-14 12l104 159l-103 170l14 13l156 -136c17 -15 27 -26 27 -39c0 -15 -5 -26 -11 -35z" />
    <glyph glyph-name="quoteleft" unicode="&#x2018;" horiz-adv-x="239" 
d="M178 748l12 -19c-46 -28 -84 -67 -84 -112c0 -14 5 -26 17 -31l34 31c16 -9 40 -28 40 -63c0 -32 -24 -61 -63 -61c-46 0 -74 37 -74 86c0 75 55 130 118 169z" />
    <glyph glyph-name="quoteright" unicode="&#x2019;" horiz-adv-x="239" 
d="M65 459l-12 19c46 28 84 67 84 112c0 14 -5 26 -17 31l-34 -31c-16 9 -40 28 -40 63c0 32 24 61 63 61c46 0 74 -37 74 -86c0 -75 -55 -130 -118 -169z" />
    <glyph glyph-name="quotesinglbase" unicode="&#x201a;" horiz-adv-x="249" 
d="M75 -140l-12 19c46 28 84 67 84 112c0 14 -5 26 -17 31l-34 -31c-16 9 -40 28 -40 63c0 32 24 61 63 61c46 0 74 -37 74 -86c0 -75 -55 -130 -118 -169z" />
    <glyph glyph-name="quotedblleft" unicode="&#x201c;" horiz-adv-x="411" 
d="M178 748l12 -19c-46 -28 -84 -67 -84 -112c0 -14 5 -26 17 -31l34 31c16 -9 40 -28 40 -63c0 -32 -24 -61 -63 -61c-46 0 -74 37 -74 86c0 75 55 130 118 169zM350 748l12 -19c-46 -28 -84 -67 -84 -112c0 -14 5 -26 17 -31l34 31c16 -9 40 -28 40 -63
c0 -32 -24 -61 -63 -61c-46 0 -74 37 -74 86c0 75 55 130 118 169z" />
    <glyph glyph-name="quotedblright" unicode="&#x201d;" horiz-adv-x="409" 
d="M65 459l-12 19c46 28 84 67 84 112c0 14 -5 26 -17 31l-34 -31c-16 9 -40 28 -40 63c0 32 24 61 63 61c46 0 74 -37 74 -86c0 -75 -55 -130 -118 -169zM235 459l-12 19c46 28 84 67 84 112c0 14 -5 26 -17 31l-34 -31c-16 9 -40 28 -40 63c0 32 24 61 63 61
c46 0 74 -37 74 -86c0 -75 -55 -130 -118 -169z" />
    <glyph glyph-name="quotedblbase" unicode="&#x201e;" horiz-adv-x="419" 
d="M75 -140l-12 19c46 28 84 67 84 112c0 14 -5 26 -17 31l-34 -31c-16 9 -40 28 -40 63c0 32 24 61 63 61c46 0 74 -37 74 -86c0 -75 -55 -130 -118 -169zM245 -140l-12 19c46 28 84 67 84 112c0 14 -5 26 -17 31l-34 -31c-16 9 -40 28 -40 63c0 32 24 61 63 61
c46 0 74 -37 74 -86c0 -75 -55 -130 -118 -169z" />
    <glyph glyph-name="dagger" unicode="&#x2020;" horiz-adv-x="508" 
d="M326 355v-6c-23 -44 -51 -91 -53 -211l-5 -258h-26l-4 257c-1 124 -32 167 -54 212v6c24 30 55 90 62 130c-52 -3 -102 -39 -146 -39c-31 0 -52 19 -52 51c0 31 23 48 54 48c45 0 89 -42 145 -44c-3 62 -48 96 -48 146c0 34 19 63 62 63c40 0 55 -29 55 -63
c0 -53 -48 -81 -51 -146c55 4 96 44 145 44c25 0 51 -13 51 -48s-24 -51 -52 -51c-43 0 -92 36 -144 39c5 -37 37 -101 61 -130z" />
    <glyph glyph-name="daggerdbl" unicode="&#x2021;" horiz-adv-x="518" 
d="M331 385v-6c-23 -25 -42 -54 -56 -85c15 -31 34 -59 55 -83v-6c-26 -30 -55 -64 -62 -101c52 3 101 39 146 39c30 0 52 -19 52 -51c0 -31 -24 -48 -54 -48c-46 0 -89 42 -145 44c3 -62 48 -96 48 -146c0 -34 -20 -63 -62 -63c-41 0 -55 29 -55 63c0 53 48 81 51 146
c-55 -4 -97 -44 -145 -44c-25 0 -52 13 -52 48s25 51 53 51c42 0 92 -36 144 -39c-6 34 -35 72 -61 100v6c22 25 44 56 55 85c-13 32 -31 56 -55 84v6c29 30 55 63 62 101c-52 -3 -101 -40 -145 -40c-31 0 -53 19 -53 51c0 31 24 48 55 48c45 0 88 -42 144 -44
c-3 62 -47 96 -47 146c0 34 19 63 62 63c40 0 55 -29 55 -63c0 -53 -48 -81 -51 -146c55 4 96 44 145 44c25 0 51 -13 51 -48s-24 -51 -52 -51c-43 0 -92 37 -144 40c6 -35 35 -72 61 -101z" />
    <glyph glyph-name="bullet" unicode="&#x2022;" horiz-adv-x="353" 
d="M64 319c0 63 39 113 113 113c66 0 114 -34 114 -112c0 -67 -38 -114 -113 -114c-86 0 -114 58 -114 113z" />
    <glyph glyph-name="periodcentered" unicode="&#xb7;" horiz-adv-x="274" 
d="M62 319c0 43 27 76 76 76c44 0 77 -23 77 -74c0 -45 -26 -77 -76 -77c-58 0 -77 39 -77 75z" />
    <glyph glyph-name="ellipsis" unicode="&#x2026;" horiz-adv-x="796" 
d="M588 65c0 43 26 76 75 76c45 0 77 -23 77 -74c0 -46 -26 -77 -75 -77c-58 0 -77 39 -77 75zM323 65c0 43 26 76 75 76c44 0 77 -23 77 -74c0 -46 -26 -77 -76 -77c-57 0 -76 39 -76 75zM58 65c0 43 26 76 75 76c45 0 77 -23 77 -74c0 -46 -26 -77 -75 -77
c-58 0 -77 39 -77 75z" />
    <glyph glyph-name="paragraph" unicode="&#xb6;" horiz-adv-x="612" 
d="M343 -14v251h-16c-148 0 -262 67 -262 231c0 152 110 232 275 232h227v-26h-64v-619c0 -167 -66 -237 -244 -237c-121 0 -167 65 -167 127c0 61 37 92 82 92c41 0 70 -22 70 -69c0 -14 -3 -30 -7 -48h-39c-5 -11 -9 -20 -9 -29c0 -26 23 -46 71 -46c61 0 83 38 83 141z
M377 -25c0 -50 -5 -95 -34 -121c111 25 128 106 128 210v610h-94v-699z" />
    <glyph glyph-name="uni00AD" unicode="&#xad;" horiz-adv-x="333" 
d="M47 250v58h240v-58h-240z" />
    <glyph glyph-name="endash" unicode="&#x2013;" horiz-adv-x="500" 
d="M0 262v37h500v-37h-500z" />
    <glyph glyph-name="emdash" unicode="&#x2014;" horiz-adv-x="1000" 
d="M0 262v37h1000v-37h-1000z" />
    <glyph glyph-name="hyphen.case" horiz-adv-x="333" 
d="M47 312v58h240v-58h-240z" />
    <glyph glyph-name="Agrave" unicode="&#xc0;" horiz-adv-x="672" 
d="M467 29l-69 204h-219l-73 -204h85v-29h-190v29h65l253 677h41l246 -677h65v-29h-286v29h82zM292 546l-103 -284h199zM286 896l138 -149l-11 -14l-152 76c-20 10 -36 22 -36 43c0 19 12 31 37 38z" />
    <glyph glyph-name="Aacute" unicode="&#xc1;" horiz-adv-x="672" 
d="M467 29l-69 204h-219l-73 -204h85v-29h-190v29h65l253 677h41l246 -677h65v-29h-286v29h82zM292 546l-103 -284h199zM261 747l138 149l24 -6c25 -7 37 -19 37 -38c0 -21 -16 -33 -36 -43l-152 -76z" />
    <glyph glyph-name="Acircumflex" unicode="&#xc2;" horiz-adv-x="672" 
d="M467 29l-69 204h-219l-73 -204h85v-29h-190v29h65l253 677h41l246 -677h65v-29h-286v29h82zM292 546l-103 -284h199zM186 743l125 135c9 6 22 12 37 12c18 0 29 -11 45 -31l97 -114l-10 -15l-140 83l-142 -83z" />
    <glyph glyph-name="Atilde" unicode="&#xc3;" horiz-adv-x="672" 
d="M467 29l-69 204h-219l-73 -204h85v-29h-190v29h65l253 677h41l246 -677h65v-29h-286v29h82zM292 546l-103 -284h199zM405 769c-34 0 -63 12 -90 23c-22 9 -43 17 -62 17c-16 0 -36 -7 -51 -43l-19 6c17 60 44 108 108 108c31 0 53 -12 82 -24c21 -8 42 -16 61 -16
c22 0 38 7 52 42l20 -5c-20 -76 -57 -108 -101 -108z" />
    <glyph glyph-name="Adieresis" unicode="&#xc4;" horiz-adv-x="672" 
d="M467 29l-69 204h-219l-73 -204h85v-29h-190v29h65l253 677h41l246 -677h65v-29h-286v29h82zM292 546l-103 -284h199zM378 815c0 31 20 58 58 58c34 0 60 -18 60 -58c0 -35 -20 -60 -59 -60c-45 0 -59 31 -59 60zM181 815c0 31 21 58 59 58c34 0 60 -18 60 -58
c0 -35 -20 -60 -59 -60c-44 0 -60 31 -60 60z" />
    <glyph glyph-name="Aring" unicode="&#xc5;" horiz-adv-x="672" 
d="M467 29l-69 204h-219l-73 -204h85v-29h-190v29h65l253 677h41l246 -677h65v-29h-286v29h82zM292 546l-103 -284h199zM285 817c0 -29 15 -57 55 -57c36 0 53 26 53 57c0 30 -18 57 -55 57c-35 0 -53 -28 -53 -57zM248 817c0 47 30 86 93 86c59 0 89 -35 89 -84
c0 -52 -32 -89 -91 -89c-64 0 -91 36 -91 87z" />
    <glyph glyph-name="Aringacute" unicode="&#x1fa;" horiz-adv-x="672" 
d="M249 788c0 47 30 86 93 86c59 0 89 -35 89 -84c0 -45 -24 -79 -68 -87l243 -674h65v-29h-286v29h82l-69 204h-219l-73 -204h85v-29h-190v29h65l250 674c-47 8 -67 41 -67 85zM292 551l-103 -289h199zM258 891l138 149l24 -6c25 -7 37 -19 37 -38c0 -21 -16 -33 -36 -43
l-152 -76zM286 788c0 -29 15 -57 55 -57c36 0 53 26 53 57c0 30 -18 57 -55 57c-35 0 -53 -28 -53 -57z" />
    <glyph glyph-name="AE" unicode="&#xc6;" horiz-adv-x="946" 
d="M310 700h555l10 -190h-23c-28 142 -84 161 -207 161h-79v-308h41c80 0 108 27 125 128h21v-296h-23c-19 107 -41 136 -126 136h-38v-302h88c140 0 199 52 224 181h20l-7 -210h-526v29h74v301h-188l-153 -301h81v-29h-178v29h57l326 642h-74v29zM439 671h-16l-157 -309
h173v309z" />
    <glyph glyph-name="AEacute" unicode="&#x1fc;" horiz-adv-x="946" 
d="M310 700h555l10 -190h-23c-28 142 -84 161 -207 161h-79v-308h41c80 0 108 27 125 128h21v-296h-23c-19 107 -41 136 -126 136h-38v-302h88c140 0 199 52 224 181h20l-7 -210h-526v29h74v301h-188l-153 -301h81v-29h-178v29h57l326 642h-74v29zM439 671h-16l-157 -309
h173v309zM524 747l138 149l24 -6c25 -7 37 -19 37 -38c0 -21 -16 -33 -36 -43l-152 -76z" />
    <glyph glyph-name="Ccedilla" unicode="&#xc7;" horiz-adv-x="659" 
d="M375 680c-126 0 -198 -93 -198 -328c0 -212 68 -331 203 -331c103 0 169 68 204 195h23l-7 -215h-15c-7 13 -12 20 -26 20c-31 0 -94 -29 -182 -31l-26 -45c7 1 19 2 26 2c58 0 87 -33 87 -80c0 -46 -36 -92 -113 -92c-52 0 -87 28 -87 60c0 23 16 33 32 33
c15 0 30 -10 35 -27l-19 -17c0 -16 11 -31 37 -31c25 0 45 13 45 66c0 44 -11 66 -45 66c-9 0 -18 -1 -30 -4l-3 12l33 57c-188 7 -309 115 -309 359c0 238 143 362 332 362c84 0 146 -31 178 -31c16 0 19 7 25 20h16l7 -209h-23c-35 125 -96 189 -200 189z" />
    <glyph glyph-name="Egrave" unicode="&#xc8;" horiz-adv-x="618" 
d="M36 700h501l10 -190h-24c-27 142 -84 161 -206 161h-80v-299h48c76 0 102 32 118 128h22v-296h-24c-19 107 -40 136 -126 136h-38v-311h89c140 0 199 52 223 181h21l-8 -210h-526v29h74v642h-74v29zM255 896l138 -149l-11 -14l-152 76c-20 10 -36 22 -36 43
c0 19 12 31 37 38z" />
    <glyph glyph-name="Eacute" unicode="&#xc9;" horiz-adv-x="618" 
d="M36 700h501l10 -190h-24c-27 142 -84 161 -206 161h-80v-299h48c76 0 102 32 118 128h22v-296h-24c-19 107 -40 136 -126 136h-38v-311h89c140 0 199 52 223 181h21l-8 -210h-526v29h74v642h-74v29zM230 747l138 149l24 -6c25 -7 37 -19 37 -38c0 -21 -16 -33 -36 -43
l-152 -76z" />
    <glyph glyph-name="Ecircumflex" unicode="&#xca;" horiz-adv-x="618" 
d="M36 700h501l10 -190h-24c-27 142 -84 161 -206 161h-80v-299h48c76 0 102 32 118 128h22v-296h-24c-19 107 -40 136 -126 136h-38v-311h89c140 0 199 52 223 181h21l-8 -210h-526v29h74v642h-74v29zM155 743l125 135c9 6 22 12 37 12c18 0 29 -11 45 -31l97 -114l-10 -15
l-140 83l-142 -83z" />
    <glyph glyph-name="Edieresis" unicode="&#xcb;" horiz-adv-x="618" 
d="M36 700h501l10 -190h-24c-27 142 -84 161 -206 161h-80v-299h48c76 0 102 32 118 128h22v-296h-24c-19 107 -40 136 -126 136h-38v-311h89c140 0 199 52 223 181h21l-8 -210h-526v29h74v642h-74v29zM347 815c0 31 20 58 58 58c34 0 60 -18 60 -58c0 -35 -20 -60 -59 -60
c-45 0 -59 31 -59 60zM150 815c0 31 21 58 59 58c34 0 60 -18 60 -58c0 -35 -20 -60 -59 -60c-44 0 -60 31 -60 60z" />
    <glyph glyph-name="Igrave" unicode="&#xcc;" horiz-adv-x="347" 
d="M40 700h267v-29h-70v-642h70v-29h-267v29h70v642h-70v29zM120 896l138 -149l-11 -14l-152 76c-20 10 -36 22 -36 43c0 19 12 31 37 38z" />
    <glyph glyph-name="Iacute" unicode="&#xcd;" horiz-adv-x="347" 
d="M40 700h267v-29h-70v-642h70v-29h-267v29h70v642h-70v29zM95 747l138 149l24 -6c25 -7 37 -19 37 -38c0 -21 -16 -33 -36 -43l-152 -76z" />
    <glyph glyph-name="Icircumflex" unicode="&#xce;" horiz-adv-x="347" 
d="M40 700h267v-29h-70v-642h70v-29h-267v29h70v642h-70v29zM20 743l125 135c9 6 22 12 37 12c18 0 29 -11 45 -31l97 -114l-10 -15l-140 83l-142 -83z" />
    <glyph glyph-name="Idieresis" unicode="&#xcf;" horiz-adv-x="347" 
d="M40 700h267v-29h-70v-642h70v-29h-267v29h70v642h-70v29zM212 815c0 31 20 58 58 58c34 0 60 -18 60 -58c0 -35 -20 -60 -59 -60c-45 0 -59 31 -59 60zM15 815c0 31 21 58 59 58c34 0 60 -18 60 -58c0 -35 -20 -60 -59 -60c-44 0 -60 31 -60 60z" />
    <glyph glyph-name="Eth" unicode="&#xd0;" horiz-adv-x="737" 
d="M693 362c0 -282 -178 -362 -414 -362h-235v29h81v326h-87v29h87v287h-81v29h262c244 0 387 -89 387 -338zM252 29h43c182 0 260 108 260 329c0 254 -88 313 -277 313h-26v-287h176v-29h-176v-326z" />
    <glyph glyph-name="Ntilde" unicode="&#xd1;" horiz-adv-x="701" 
d="M598 671v-676h-59l-394 651v-617h70v-29h-175v29h70v642h-70v29h221l302 -504v475h-70v29h175v-29h-70zM427 769c-34 0 -63 12 -90 23c-22 9 -43 17 -62 17c-16 0 -36 -7 -51 -43l-19 6c17 60 44 108 108 108c31 0 53 -12 82 -24c21 -8 42 -16 61 -16c22 0 38 7 52 42
l20 -5c-20 -76 -57 -108 -101 -108z" />
    <glyph glyph-name="Ograve" unicode="&#xd2;" horiz-adv-x="722" 
d="M542 352c0 200 -27 328 -178 328c-158 0 -186 -129 -186 -334c0 -187 30 -325 184 -325c149 0 180 128 180 331zM40 346c0 222 130 365 329 365c195 0 312 -131 312 -355c0 -226 -110 -366 -321 -366c-208 0 -320 128 -320 356zM310 896l138 -149l-11 -14l-152 76
c-20 10 -36 22 -36 43c0 19 12 31 37 38z" />
    <glyph glyph-name="Oacute" unicode="&#xd3;" horiz-adv-x="722" 
d="M542 352c0 200 -27 328 -178 328c-158 0 -186 -129 -186 -334c0 -187 30 -325 184 -325c149 0 180 128 180 331zM40 346c0 222 130 365 329 365c195 0 312 -131 312 -355c0 -226 -110 -366 -321 -366c-208 0 -320 128 -320 356zM285 747l138 149l24 -6
c25 -7 37 -19 37 -38c0 -21 -16 -33 -36 -43l-152 -76z" />
    <glyph glyph-name="Ocircumflex" unicode="&#xd4;" horiz-adv-x="722" 
d="M542 352c0 200 -27 328 -178 328c-158 0 -186 -129 -186 -334c0 -187 30 -325 184 -325c149 0 180 128 180 331zM40 346c0 222 130 365 329 365c195 0 312 -131 312 -355c0 -226 -110 -366 -321 -366c-208 0 -320 128 -320 356zM210 743l125 135c9 6 22 12 37 12
c18 0 29 -11 45 -31l97 -114l-10 -15l-140 83l-142 -83z" />
    <glyph glyph-name="Otilde" unicode="&#xd5;" horiz-adv-x="722" 
d="M542 352c0 200 -27 328 -178 328c-158 0 -186 -129 -186 -334c0 -187 30 -325 184 -325c149 0 180 128 180 331zM40 346c0 222 130 365 329 365c195 0 312 -131 312 -355c0 -226 -110 -366 -321 -366c-208 0 -320 128 -320 356zM429 769c-34 0 -63 12 -90 23
c-22 9 -43 17 -62 17c-16 0 -36 -7 -51 -43l-19 6c17 60 44 108 108 108c31 0 53 -12 82 -24c21 -8 42 -16 61 -16c22 0 38 7 52 42l20 -5c-20 -76 -57 -108 -101 -108z" />
    <glyph glyph-name="Odieresis" unicode="&#xd6;" horiz-adv-x="722" 
d="M542 352c0 200 -27 328 -178 328c-158 0 -186 -129 -186 -334c0 -187 30 -325 184 -325c149 0 180 128 180 331zM40 346c0 222 130 365 329 365c195 0 312 -131 312 -355c0 -226 -110 -366 -321 -366c-208 0 -320 128 -320 356zM402 815c0 31 20 58 58 58
c34 0 60 -18 60 -58c0 -35 -20 -60 -59 -60c-45 0 -59 31 -59 60zM205 815c0 31 21 58 59 58c34 0 60 -18 60 -58c0 -35 -20 -60 -59 -60c-44 0 -60 31 -60 60z" />
    <glyph glyph-name="Oslash" unicode="&#xd8;" horiz-adv-x="722" 
d="M40 346c0 222 130 365 329 365c37 0 71 -5 103 -14l29 77l32 -11l-29 -78c113 -48 177 -163 177 -329c0 -226 -110 -366 -321 -366c-41 0 -78 5 -112 14l-30 -80l-32 11l30 81c-115 48 -176 162 -176 330zM542 352c0 127 -11 225 -58 280l-219 -584c25 -18 56 -27 97 -27
c149 0 180 128 180 331zM178 346c0 -118 12 -217 59 -274l219 584c-24 15 -54 24 -92 24c-158 0 -186 -129 -186 -334z" />
    <glyph glyph-name="Oslashacute" unicode="&#x1fe;" horiz-adv-x="722" 
d="M40 346c0 222 130 365 329 365c37 0 71 -5 103 -14l29 77l32 -11l-29 -78c113 -48 177 -163 177 -329c0 -226 -110 -366 -321 -366c-41 0 -78 5 -112 14l-30 -80l-32 11l30 81c-115 48 -176 162 -176 330zM542 352c0 127 -11 225 -58 280l-219 -584c25 -18 56 -27 97 -27
c149 0 180 128 180 331zM178 346c0 -118 12 -217 59 -274l219 584c-24 15 -54 24 -92 24c-158 0 -186 -129 -186 -334zM281 747l138 149l24 -6c25 -7 37 -19 37 -38c0 -21 -16 -33 -36 -43l-152 -76z" />
    <glyph glyph-name="Ugrave" unicode="&#xd9;" horiz-adv-x="703" 
d="M390 26c-129 0 -161 84 -161 188v457h72v29h-269v-29h70v-444c0 -178 100 -237 258 -237c185 0 244 91 244 241v440h69v29h-177v-29h71v-451c0 -129 -68 -194 -177 -194zM311 896l138 -149l-11 -14l-152 76c-20 10 -36 22 -36 43c0 19 12 31 37 38z" />
    <glyph glyph-name="Uacute" unicode="&#xda;" horiz-adv-x="703" 
d="M390 26c-129 0 -161 84 -161 188v457h72v29h-269v-29h70v-444c0 -178 100 -237 258 -237c185 0 244 91 244 241v440h69v29h-177v-29h71v-451c0 -129 -68 -194 -177 -194zM296 747l138 149l24 -6c25 -7 37 -19 37 -38c0 -21 -16 -33 -36 -43l-152 -76z" />
    <glyph glyph-name="Ucircumflex" unicode="&#xdb;" horiz-adv-x="703" 
d="M390 26c-129 0 -161 84 -161 188v457h72v29h-269v-29h70v-444c0 -178 100 -237 258 -237c185 0 244 91 244 241v440h69v29h-177v-29h71v-451c0 -129 -68 -194 -177 -194zM221 743l125 135c9 6 22 12 37 12c18 0 29 -11 45 -31l97 -114l-10 -15l-140 83l-142 -83z" />
    <glyph glyph-name="Udieresis" unicode="&#xdc;" horiz-adv-x="703" 
d="M390 26c109 0 177 65 177 194v451h-71v29h177v-29h-69v-440c0 -150 -59 -241 -244 -241c-158 0 -258 59 -258 237v444h-70v29h269v-29h-72v-457c0 -104 32 -188 161 -188zM413 815c0 31 20 58 58 58c34 0 60 -18 60 -58c0 -35 -20 -60 -59 -60c-45 0 -59 31 -59 60z
M216 815c0 31 21 58 59 58c34 0 60 -18 60 -58c0 -35 -20 -60 -59 -60c-44 0 -60 31 -60 60z" />
    <glyph glyph-name="Yacute" unicode="&#xdd;" horiz-adv-x="617" 
d="M355 367l154 304h-98v29h204v-29h-68l-174 -341v-301h79v-29h-285v29h79v297l-180 345h-65v29h290v-29h-85zM244 747l138 149l24 -6c25 -7 37 -19 37 -38c0 -21 -16 -33 -36 -43l-152 -76z" />
    <glyph glyph-name="Thorn" unicode="&#xde;" horiz-adv-x="627" 
d="M237 671v-105h57c171 0 293 -43 293 -196c0 -174 -139 -217 -319 -217h-31v-124h125v-29h-332v29h80v642h-80v29h332v-29h-125zM237 537v-355h44c121 0 168 56 168 185c0 130 -48 170 -162 170h-50z" />
    <glyph glyph-name="germandbls" unicode="&#xdf;" horiz-adv-x="657" 
d="M283 -7v175h25c12 -91 79 -146 158 -146c65 0 104 32 104 86c0 130 -257 79 -257 258c0 133 158 178 158 281c0 58 -41 101 -134 101c-115 0 -125 -74 -125 -144v-604h-194v26h76v499c0 161 79 249 242 249c139 0 174 -69 174 -127c0 -110 -124 -142 -124 -226
c0 -105 244 -70 244 -268c0 -98 -68 -164 -166 -164c-60 0 -96 20 -123 36c-6 4 -12 6 -16 6c-9 0 -15 -9 -19 -38h-23z" />
    <glyph glyph-name="agrave" unicode="&#xe0;" horiz-adv-x="526" 
d="M250 239h52v73c0 100 -18 150 -91 150c-37 0 -71 -12 -71 -42c0 -5 1 -11 3 -17h27c5 -13 8 -26 8 -40c0 -39 -28 -63 -65 -63c-40 0 -60 28 -60 68c0 77 78 118 182 118c129 0 186 -45 186 -189v-200c0 -42 12 -55 32 -55c23 0 36 14 42 94l23 -2
c-4 -105 -36 -144 -109 -144c-60 0 -95 24 -103 71c-24 -46 -70 -71 -133 -71c-74 0 -142 28 -142 117c0 102 88 132 219 132zM216 30c44 0 86 37 86 99v85h-29c-88 0 -117 -41 -117 -104c0 -54 19 -80 60 -80zM225 735l70 -187l-15 -8l-110 124c-14 16 -22 29 -22 44
c0 22 14 34 35 34c5 0 10 -1 14 -2z" />
    <glyph glyph-name="aacute" unicode="&#xe1;" horiz-adv-x="526" 
d="M250 239h52v73c0 100 -18 150 -91 150c-37 0 -71 -12 -71 -42c0 -5 1 -11 3 -17h27c5 -13 8 -26 8 -40c0 -39 -28 -63 -65 -63c-40 0 -60 28 -60 68c0 77 78 118 182 118c129 0 186 -45 186 -189v-200c0 -42 12 -55 32 -55c23 0 36 14 42 94l23 -2
c-4 -105 -36 -144 -109 -144c-60 0 -95 24 -103 71c-24 -46 -70 -71 -133 -71c-74 0 -142 28 -142 117c0 102 88 132 219 132zM216 30c44 0 86 37 86 99v85h-29c-88 0 -117 -41 -117 -104c0 -54 19 -80 60 -80zM177 548l70 187l27 5c5 1 10 2 14 2c22 0 36 -12 36 -34
c0 -15 -8 -28 -22 -44l-110 -124z" />
    <glyph glyph-name="acircumflex" unicode="&#xe2;" horiz-adv-x="526" 
d="M250 239h52v73c0 100 -18 150 -91 150c-37 0 -71 -12 -71 -42c0 -5 1 -11 3 -17h27c5 -13 8 -26 8 -40c0 -39 -28 -63 -65 -63c-40 0 -60 28 -60 68c0 77 78 118 182 118c129 0 186 -45 186 -189v-200c0 -42 12 -55 32 -55c23 0 36 14 42 94l23 -2
c-4 -105 -36 -144 -109 -144c-60 0 -95 24 -103 71c-24 -46 -70 -71 -133 -71c-74 0 -142 28 -142 117c0 102 88 132 219 132zM216 30c44 0 86 37 86 99v85h-29c-88 0 -117 -41 -117 -104c0 -54 19 -80 60 -80zM103 547l104 177c9 5 23 11 39 11c17 0 32 -8 43 -31l81 -156
l-13 -9l-122 115l-120 -116z" />
    <glyph glyph-name="atilde" unicode="&#xe3;" horiz-adv-x="526" 
d="M250 239h52v73c0 100 -18 150 -91 150c-37 0 -71 -12 -71 -42c0 -5 1 -11 3 -17h27c5 -13 8 -26 8 -40c0 -39 -28 -63 -65 -63c-40 0 -60 28 -60 68c0 77 78 118 182 118c129 0 186 -45 186 -189v-200c0 -42 12 -55 32 -55c23 0 36 14 42 94l23 -2
c-4 -105 -36 -144 -109 -144c-60 0 -95 24 -103 71c-24 -46 -70 -71 -133 -71c-74 0 -142 28 -142 117c0 102 88 132 219 132zM216 30c44 0 86 37 86 99v85h-29c-88 0 -117 -41 -117 -104c0 -54 19 -80 60 -80zM304 580c-34 0 -63 12 -90 23c-22 9 -43 17 -62 17
c-16 0 -36 -7 -51 -43l-19 6c17 61 44 108 108 108c31 0 53 -12 82 -24c21 -8 42 -16 61 -16c22 0 38 7 52 43l20 -5c-20 -77 -57 -109 -101 -109z" />
    <glyph glyph-name="adieresis" unicode="&#xe4;" horiz-adv-x="526" 
d="M250 239h52v73c0 100 -18 150 -91 150c-37 0 -71 -12 -71 -42c0 -5 1 -11 3 -17h27c5 -13 8 -26 8 -40c0 -39 -28 -63 -65 -63c-40 0 -60 28 -60 68c0 77 78 118 182 118c129 0 186 -45 186 -189v-200c0 -42 12 -55 32 -55c23 0 36 14 42 94l23 -2
c-4 -105 -36 -144 -109 -144c-60 0 -95 24 -103 71c-24 -46 -70 -71 -133 -71c-74 0 -142 28 -142 117c0 102 88 132 219 132zM216 30c44 0 86 37 86 99v85h-29c-88 0 -117 -41 -117 -104c0 -54 19 -80 60 -80zM274 628c0 30 20 58 58 58c34 0 60 -18 60 -58
c0 -35 -20 -60 -59 -60c-45 0 -59 30 -59 60zM79 628c0 30 21 58 59 58c34 0 60 -18 60 -58c0 -35 -21 -60 -59 -60c-45 0 -60 30 -60 60z" />
    <glyph glyph-name="aring" unicode="&#xe5;" horiz-adv-x="526" 
d="M250 239h52v73c0 100 -18 150 -91 150c-37 0 -71 -12 -71 -42c0 -5 1 -11 3 -17h27c5 -13 8 -26 8 -40c0 -39 -28 -63 -65 -63c-40 0 -60 28 -60 68c0 77 78 118 182 118c129 0 186 -45 186 -189v-200c0 -42 12 -55 32 -55c23 0 36 14 42 94l23 -2
c-4 -105 -36 -144 -109 -144c-60 0 -95 24 -103 71c-24 -46 -70 -71 -133 -71c-74 0 -142 28 -142 117c0 102 88 132 219 132zM216 30c44 0 86 37 86 99v85h-29c-88 0 -117 -41 -117 -104c0 -54 19 -80 60 -80zM179 644c0 -30 15 -58 56 -58c37 0 54 26 54 58
c0 31 -18 58 -56 58c-36 0 -54 -28 -54 -58zM143 644c0 47 30 86 93 86c59 0 89 -35 89 -84c0 -52 -32 -89 -91 -89c-64 0 -91 36 -91 87z" />
    <glyph glyph-name="aringacute" unicode="&#x1fb;" horiz-adv-x="526" 
d="M250 239h52v73c0 100 -18 150 -91 150c-37 0 -71 -12 -71 -42c0 -5 1 -11 3 -17h27c5 -13 8 -26 8 -40c0 -39 -28 -63 -65 -63c-40 0 -60 28 -60 68c0 77 78 118 182 118c129 0 186 -45 186 -189v-200c0 -42 12 -55 32 -55c23 0 36 14 42 94l23 -2
c-4 -105 -36 -144 -109 -144c-60 0 -95 24 -103 71c-24 -46 -70 -71 -133 -71c-74 0 -142 28 -142 117c0 102 88 132 219 132zM216 30c44 0 86 37 86 99v85h-29c-88 0 -117 -41 -117 -104c0 -54 19 -80 60 -80zM181 617c0 -30 15 -58 56 -58c37 0 54 26 54 58
c0 31 -18 58 -56 58c-36 0 -54 -28 -54 -58zM145 617c0 47 30 86 93 86c59 0 89 -35 89 -84c0 -52 -32 -89 -91 -89c-64 0 -91 36 -91 87zM157 739l138 149l24 -6c25 -7 37 -19 37 -38c0 -21 -16 -33 -36 -43l-152 -76z" />
    <glyph glyph-name="ae" unicode="&#xe6;" horiz-adv-x="760" 
d="M250 255h52v57c0 100 -18 150 -91 150c-49 0 -81 -20 -68 -59h27c3 -5 8 -24 8 -40c0 -39 -28 -63 -65 -63c-40 0 -60 27 -60 68c0 77 78 118 179 118c73 0 117 -23 143 -75c40 54 100 75 162 75c133 0 204 -98 191 -256h-303c0 -128 26 -205 136 -205
c78 0 123 48 140 121l28 -4c-18 -83 -69 -152 -200 -152c-89 0 -149 30 -185 83c-27 -43 -77 -83 -165 -83c-74 0 -148 29 -148 125c0 104 88 140 219 140zM426 257h184c6 125 -15 205 -83 205c-65 0 -100 -58 -101 -205zM228 30c38 0 81 25 101 68c-17 35 -26 83 -27 132
h-35c-82 0 -111 -40 -111 -110c0 -57 20 -90 72 -90z" />
    <glyph glyph-name="aeacute" unicode="&#x1fd;" horiz-adv-x="760" 
d="M250 255h52v57c0 100 -18 150 -91 150c-49 0 -81 -20 -68 -59h27c3 -5 8 -24 8 -40c0 -39 -28 -63 -65 -63c-40 0 -60 27 -60 68c0 77 78 118 179 118c73 0 117 -23 143 -75c40 54 100 75 162 75c133 0 204 -98 191 -256h-303c0 -128 26 -205 136 -205
c78 0 123 48 140 121l28 -4c-18 -83 -69 -152 -200 -152c-89 0 -149 30 -185 83c-27 -43 -77 -83 -165 -83c-74 0 -148 29 -148 125c0 104 88 140 219 140zM426 257h184c6 125 -15 205 -83 205c-65 0 -100 -58 -101 -205zM228 30c38 0 81 25 101 68c-17 35 -26 83 -27 132
h-35c-82 0 -111 -40 -111 -110c0 -57 20 -90 72 -90zM322 548l70 187l27 5c5 1 10 2 14 2c22 0 36 -12 36 -34c0 -15 -8 -28 -22 -44l-110 -124z" />
    <glyph glyph-name="ccedilla" unicode="&#xe7;" horiz-adv-x="477" 
d="M282 462c-87 0 -125 -62 -125 -219c0 -152 37 -216 127 -216c95 0 127 72 138 130l28 -5c-12 -58 -41 -155 -181 -162l-26 -45c7 1 19 2 26 2c58 0 87 -33 87 -80c0 -46 -36 -92 -113 -92c-52 0 -87 28 -87 60c0 23 16 33 32 33c15 0 30 -10 35 -27l-19 -17
c0 -16 11 -31 37 -31c25 0 45 13 45 66c0 44 -11 66 -45 66c-9 0 -18 -1 -30 -4l-3 12l33 57c-135 5 -211 90 -211 240c0 171 98 256 246 256c111 0 171 -50 171 -127c0 -54 -28 -78 -67 -78c-38 0 -65 23 -65 66c0 10 1 23 5 37h28c3 9 4 18 4 26c0 31 -21 52 -70 52z" />
    <glyph glyph-name="egrave" unicode="&#xe8;" horiz-adv-x="491" 
d="M30 234c0 -146 72 -244 231 -244c131 0 182 69 200 152l-28 4c-17 -73 -62 -121 -140 -121c-106 0 -136 75 -136 213v20h303c6 150 -58 228 -191 228c-136 0 -239 -78 -239 -252zM341 285h-183c4 123 36 177 102 177c67 0 85 -59 81 -177zM249 735l70 -187l-15 -8
l-110 124c-14 16 -22 29 -22 44c0 22 14 34 35 34c5 0 10 -1 14 -2z" />
    <glyph glyph-name="eacute" unicode="&#xe9;" horiz-adv-x="491" 
d="M30 234c0 -146 72 -244 231 -244c131 0 182 69 200 152l-28 4c-17 -73 -62 -121 -140 -121c-106 0 -136 75 -136 213v20h303c6 150 -58 228 -191 228c-136 0 -239 -78 -239 -252zM341 285h-183c4 123 36 177 102 177c67 0 85 -59 81 -177zM201 548l70 187l27 5
c5 1 10 2 14 2c22 0 36 -12 36 -34c0 -15 -8 -28 -22 -44l-110 -124z" />
    <glyph glyph-name="ecircumflex" unicode="&#xea;" horiz-adv-x="491" 
d="M30 234c0 -146 72 -244 231 -244c131 0 182 69 200 152l-28 4c-17 -73 -62 -121 -140 -121c-106 0 -136 75 -136 213v20h303c6 150 -58 228 -191 228c-136 0 -239 -78 -239 -252zM341 285h-183c4 123 36 177 102 177c67 0 85 -59 81 -177zM127 547l104 177
c9 5 23 11 39 11c17 0 32 -8 43 -31l81 -156l-13 -9l-122 115l-120 -116z" />
    <glyph glyph-name="edieresis" unicode="&#xeb;" horiz-adv-x="491" 
d="M30 234c0 174 103 252 239 252c133 0 197 -78 191 -228h-303v-20c0 -138 30 -213 136 -213c78 0 123 48 140 121l28 -4c-18 -83 -69 -152 -200 -152c-159 0 -231 98 -231 244zM158 285h183c4 118 -14 177 -81 177c-66 0 -98 -54 -102 -177zM298 628c0 30 20 58 58 58
c34 0 60 -18 60 -58c0 -35 -20 -60 -59 -60c-45 0 -59 30 -59 60zM103 628c0 30 21 58 59 58c34 0 60 -18 60 -58c0 -35 -21 -60 -59 -60c-45 0 -60 30 -60 60z" />
    <glyph glyph-name="igrave" unicode="&#xec;" horiz-adv-x="300" 
d="M23 476h189v-450h71v-26h-259v26h70v424h-71v26zM120 735l70 -187l-15 -8l-110 124c-14 16 -22 29 -22 44c0 22 14 34 35 34c5 0 10 -1 14 -2z" />
    <glyph glyph-name="iacute" unicode="&#xed;" horiz-adv-x="300" 
d="M23 476h189v-450h71v-26h-259v26h70v424h-71v26zM72 548l70 187l27 5c5 1 10 2 14 2c22 0 36 -12 36 -34c0 -15 -8 -28 -22 -44l-110 -124z" />
    <glyph glyph-name="icircumflex" unicode="&#xee;" horiz-adv-x="300" 
d="M23 476h189v-450h71v-26h-259v26h70v424h-71v26zM-2 547l104 177c9 5 23 11 39 11c17 0 32 -8 43 -31l81 -156l-13 -9l-122 115l-120 -116z" />
    <glyph glyph-name="idieresis" unicode="&#xef;" horiz-adv-x="300" 
d="M23 476h189v-450h71v-26h-259v26h70v424h-71v26zM169 628c0 30 20 58 58 58c34 0 60 -18 60 -58c0 -35 -20 -60 -59 -60c-45 0 -59 30 -59 60zM-26 628c0 30 21 58 59 58c34 0 60 -18 60 -58c0 -35 -21 -60 -59 -60c-45 0 -60 30 -60 60z" />
    <glyph glyph-name="eth" unicode="&#xf0;" horiz-adv-x="529" 
d="M225 572l-12 25l85 64c-38 44 -95 77 -180 93l3 17c80 -3 165 -18 234 -67l86 66l12 -24l-76 -59c72 -62 122 -170 122 -352c0 -206 -64 -345 -239 -345c-145 0 -230 91 -230 251c0 173 110 245 218 245c61 0 107 -31 131 -84c-5 83 -16 170 -65 238zM260 462
c-72 0 -103 -67 -103 -218c0 -140 23 -230 107 -230c83 0 108 75 108 233c0 101 -22 215 -112 215z" />
    <glyph glyph-name="ntilde" unicode="&#xf1;" horiz-adv-x="615" 
d="M21 476h188v-92c22 49 70 102 169 102c92 0 150 -46 150 -167v-293h71v-26h-256v26h67v308c0 77 -17 110 -70 110c-69 0 -131 -66 -131 -156v-262h68v-26h-256v26h70v424h-70v26zM371 580c-34 0 -63 12 -90 23c-22 9 -43 17 -62 17c-16 0 -36 -7 -51 -43l-19 6
c17 61 44 108 108 108c31 0 53 -12 82 -24c21 -8 42 -16 61 -16c22 0 38 7 52 43l20 -5c-20 -77 -57 -109 -101 -109z" />
    <glyph glyph-name="ograve" unicode="&#xf2;" horiz-adv-x="527" 
d="M371 241c0 127 -17 221 -106 221c-91 0 -108 -91 -108 -221s17 -227 108 -227c87 0 106 83 106 227zM30 236c0 162 92 250 238 250c147 0 229 -77 229 -244c0 -157 -81 -252 -234 -252c-149 0 -233 90 -233 246zM255 735l70 -187l-15 -8l-110 124c-14 16 -22 29 -22 44
c0 22 14 34 35 34c5 0 10 -1 14 -2z" />
    <glyph glyph-name="oacute" unicode="&#xf3;" horiz-adv-x="527" 
d="M371 241c0 127 -17 221 -106 221c-91 0 -108 -91 -108 -221s17 -227 108 -227c87 0 106 83 106 227zM30 236c0 162 92 250 238 250c147 0 229 -77 229 -244c0 -157 -81 -252 -234 -252c-149 0 -233 90 -233 246zM207 548l70 187l27 5c5 1 10 2 14 2c22 0 36 -12 36 -34
c0 -15 -8 -28 -22 -44l-110 -124z" />
    <glyph glyph-name="ocircumflex" unicode="&#xf4;" horiz-adv-x="527" 
d="M371 241c0 127 -17 221 -106 221c-91 0 -108 -91 -108 -221s17 -227 108 -227c87 0 106 83 106 227zM30 236c0 162 92 250 238 250c147 0 229 -77 229 -244c0 -157 -81 -252 -234 -252c-149 0 -233 90 -233 246zM133 547l104 177c9 5 23 11 39 11c17 0 32 -8 43 -31
l81 -156l-13 -9l-122 115l-120 -116z" />
    <glyph glyph-name="otilde" unicode="&#xf5;" horiz-adv-x="527" 
d="M371 241c0 127 -17 221 -106 221c-91 0 -108 -91 -108 -221s17 -227 108 -227c87 0 106 83 106 227zM30 236c0 162 92 250 238 250c147 0 229 -77 229 -244c0 -157 -81 -252 -234 -252c-149 0 -233 90 -233 246zM334 580c-34 0 -63 12 -90 23c-22 9 -43 17 -62 17
c-16 0 -36 -7 -51 -43l-19 6c17 61 44 108 108 108c31 0 53 -12 82 -24c21 -8 42 -16 61 -16c22 0 38 7 52 43l20 -5c-20 -77 -57 -109 -101 -109z" />
    <glyph glyph-name="odieresis" unicode="&#xf6;" horiz-adv-x="527" 
d="M371 241c0 127 -17 221 -106 221c-91 0 -108 -91 -108 -221s17 -227 108 -227c87 0 106 83 106 227zM30 236c0 162 92 250 238 250c147 0 229 -77 229 -244c0 -157 -81 -252 -234 -252c-149 0 -233 90 -233 246zM304 628c0 30 20 58 58 58c34 0 60 -18 60 -58
c0 -35 -20 -60 -59 -60c-45 0 -59 30 -59 60zM109 628c0 30 21 58 59 58c34 0 60 -18 60 -58c0 -35 -21 -60 -59 -60c-45 0 -60 30 -60 60z" />
    <glyph glyph-name="oslash" unicode="&#xf8;" horiz-adv-x="527" 
d="M30 236c0 162 92 250 238 250c24 0 47 -2 67 -7l26 67l28 -11l-24 -63c85 -29 132 -104 132 -230c0 -157 -81 -252 -234 -252c-29 0 -55 4 -79 10l-26 -68l-28 10l26 67c-82 35 -126 113 -126 227zM371 241c0 73 -6 135 -28 175l-144 -376c16 -17 37 -26 66 -26
c87 0 106 83 106 227zM157 241c0 -69 5 -128 23 -169l141 371c-14 12 -33 19 -56 19c-91 0 -108 -91 -108 -221z" />
    <glyph glyph-name="oslashacute" unicode="&#x1ff;" horiz-adv-x="527" 
d="M30 236c0 162 92 250 238 250c24 0 47 -2 67 -7l26 67l28 -11l-24 -63c85 -29 132 -104 132 -230c0 -157 -81 -252 -234 -252c-29 0 -55 4 -79 10l-26 -68l-28 10l26 67c-82 35 -126 113 -126 227zM371 241c0 73 -6 135 -28 175l-144 -376c16 -17 37 -26 66 -26
c87 0 106 83 106 227zM157 241c0 -69 5 -128 23 -169l141 371c-14 12 -33 19 -56 19c-91 0 -108 -91 -108 -221zM224 548l70 187l27 5c5 1 10 2 14 2c22 0 36 -12 36 -34c0 -15 -8 -28 -22 -44l-110 -124z" />
    <glyph glyph-name="ugrave" unicode="&#xf9;" horiz-adv-x="604" 
d="M585 0h-179l-7 87c-23 -48 -69 -97 -163 -97c-92 0 -151 46 -151 167v293h-71v26h189v-332c0 -77 14 -114 72 -114c64 0 121 70 121 144v276h-69v26h187v-450h71v-26zM271 735l70 -187l-15 -8l-110 124c-14 16 -22 29 -22 44c0 22 14 34 35 34c5 0 10 -1 14 -2z" />
    <glyph glyph-name="uacute" unicode="&#xfa;" horiz-adv-x="604" 
d="M585 0h-179l-7 87c-23 -48 -69 -97 -163 -97c-92 0 -151 46 -151 167v293h-71v26h189v-332c0 -77 14 -114 72 -114c64 0 121 70 121 144v276h-69v26h187v-450h71v-26zM224 548l70 187l27 5c5 1 10 2 14 2c22 0 36 -12 36 -34c0 -15 -8 -28 -22 -44l-110 -124z" />
    <glyph glyph-name="ucircumflex" unicode="&#xfb;" horiz-adv-x="604" 
d="M585 0h-179l-7 87c-23 -48 -69 -97 -163 -97c-92 0 -151 46 -151 167v293h-71v26h189v-332c0 -77 14 -114 72 -114c64 0 121 70 121 144v276h-69v26h187v-450h71v-26zM150 547l104 177c9 5 23 11 39 11c17 0 32 -8 43 -31l81 -156l-13 -9l-122 115l-120 -116z" />
    <glyph glyph-name="udieresis" unicode="&#xfc;" horiz-adv-x="604" 
d="M585 0h-179l-7 87c-23 -48 -69 -97 -163 -97c-92 0 -151 46 -151 167v293h-71v26h189v-332c0 -77 14 -114 72 -114c64 0 121 70 121 144v276h-69v26h187v-450h71v-26zM321 628c0 30 20 58 58 58c34 0 60 -18 60 -58c0 -35 -20 -60 -59 -60c-45 0 -59 30 -59 60zM126 628
c0 30 21 58 59 58c34 0 60 -18 60 -58c0 -35 -21 -60 -59 -60c-45 0 -60 30 -60 60z" />
    <glyph glyph-name="yacute" unicode="&#xfd;" horiz-adv-x="508" 
d="M2 476v-26h45l182 -451h20l-22 -61c-36 -102 -66 -160 -122 -160c-26 0 -38 11 -38 28c0 6 2 13 5 21h32c4 14 6 26 6 36c0 38 -24 55 -58 55c-36 0 -65 -27 -65 -75c0 -46 34 -93 108 -93c78 0 113 39 162 169l201 531h50v26h-162v-26h74l-122 -337l-125 337h74v26h-245
zM221 548l70 187l27 5c5 1 10 2 14 2c22 0 36 -12 36 -34c0 -15 -8 -28 -22 -44l-110 -124z" />
    <glyph glyph-name="thorn" unicode="&#xfe;" horiz-adv-x="580" 
d="M85 -212v936h-74v26h191v-351c30 51 78 87 156 87c117 0 188 -81 188 -244c0 -168 -74 -252 -204 -252c-72 0 -114 26 -138 62v-264h129v-26h-327v26h79zM201 305v-158c0 -60 42 -125 118 -125c77 0 100 61 100 217c0 138 -19 206 -95 206c-61 0 -123 -55 -123 -140z" />
    <glyph glyph-name="ydieresis" unicode="&#xff;" horiz-adv-x="508" 
d="M2 450v26h245v-26h-74l125 -337l122 337h-74v26h162v-26h-50l-201 -531c-49 -130 -84 -169 -162 -169c-74 0 -108 47 -108 93c0 48 29 75 65 75c34 0 58 -17 58 -55c0 -10 -2 -22 -6 -36h-32c-3 -8 -5 -15 -5 -21c0 -17 12 -28 38 -28c56 0 86 58 122 160l22 61h-20
l-182 451h-45zM317 628c0 30 20 58 58 58c34 0 60 -18 60 -58c0 -35 -20 -60 -59 -60c-45 0 -59 30 -59 60zM122 628c0 30 21 58 59 58c34 0 60 -18 60 -58c0 -35 -21 -60 -59 -60c-45 0 -60 30 -60 60z" />
    <glyph glyph-name="Amacron" unicode="&#x100;" horiz-adv-x="672" 
d="M467 29l-69 204h-219l-73 -204h85v-29h-190v29h65l253 677h41l246 -677h65v-29h-286v29h82zM292 546l-103 -284h199zM204 777v57h272v-57h-272z" />
    <glyph glyph-name="amacron" unicode="&#x101;" horiz-adv-x="526" 
d="M250 239h52v73c0 100 -18 150 -91 150c-37 0 -71 -12 -71 -42c0 -5 1 -11 3 -17h27c5 -13 8 -26 8 -40c0 -39 -28 -63 -65 -63c-40 0 -60 28 -60 68c0 77 78 118 182 118c129 0 186 -45 186 -189v-200c0 -42 12 -55 32 -55c23 0 36 14 42 94l23 -2
c-4 -105 -36 -144 -109 -144c-60 0 -95 24 -103 71c-24 -46 -70 -71 -133 -71c-74 0 -142 28 -142 117c0 102 88 132 219 132zM216 30c44 0 86 37 86 99v85h-29c-88 0 -117 -41 -117 -104c0 -54 19 -80 60 -80zM100 591v59h272v-59h-272z" />
    <glyph glyph-name="Abreve" unicode="&#x102;" horiz-adv-x="672" 
d="M467 29l-69 204h-219l-73 -204h85v-29h-190v29h65l253 677h41l246 -677h65v-29h-286v29h82zM292 546l-103 -284h199zM198 873l22 4c19 -43 48 -66 123 -66c76 0 103 21 120 66l21 -4c-7 -65 -44 -130 -145 -130c-102 0 -133 64 -141 130z" />
    <glyph glyph-name="abreve" unicode="&#x103;" horiz-adv-x="526" 
d="M250 239h52v73c0 100 -18 150 -91 150c-37 0 -71 -12 -71 -42c0 -5 1 -11 3 -17h27c5 -13 8 -26 8 -40c0 -39 -28 -63 -65 -63c-40 0 -60 28 -60 68c0 77 78 118 182 118c129 0 186 -45 186 -189v-200c0 -42 12 -55 32 -55c23 0 36 14 42 94l23 -2
c-4 -105 -36 -144 -109 -144c-60 0 -95 24 -103 71c-24 -46 -70 -71 -133 -71c-74 0 -142 28 -142 117c0 102 88 132 219 132zM216 30c44 0 86 37 86 99v85h-29c-88 0 -117 -41 -117 -104c0 -54 19 -80 60 -80zM94 695l21 4c19 -56 49 -83 125 -83c77 0 104 23 121 83l21 -4
c-7 -76 -44 -150 -146 -150c-103 0 -134 73 -142 150z" />
    <glyph glyph-name="Aogonek" unicode="&#x104;" horiz-adv-x="672" 
d="M468 29l-70 204h-219l-74 -204h86v-29h-190v29h64l254 682h41l247 -682h64v-29h-92c-44 -35 -72 -70 -72 -130c0 -31 12 -51 40 -51c25 0 38 14 58 40l15 -10c-16 -28 -43 -70 -106 -70c-59 0 -92 29 -92 77c0 63 60 107 119 144h-156v29h83zM292 551l-103 -289h199z" />
    <glyph glyph-name="aogonek" unicode="&#x105;" horiz-adv-x="526" 
d="M250 239h52v73c0 100 -18 150 -91 150c-37 0 -71 -12 -71 -42c0 -5 1 -11 3 -17h27c5 -13 8 -26 8 -40c0 -39 -28 -63 -65 -63c-40 0 -60 28 -60 68c0 77 78 118 182 118c129 0 186 -45 186 -189v-200c0 -42 12 -55 32 -55c23 0 36 14 42 94l23 -2
c-3 -80 -19 -109 -48 -129c-50 -35 -79 -72 -79 -135c0 -31 12 -51 40 -51c25 0 38 14 58 40l15 -10c-16 -28 -43 -70 -106 -70c-59 0 -92 29 -92 77c0 58 49 99 103 134c-60 0 -95 24 -103 71c-24 -46 -70 -71 -133 -71c-74 0 -142 28 -142 117c0 102 88 132 219 132z
M216 30c44 0 86 37 86 99v85h-29c-88 0 -117 -41 -117 -104c0 -54 19 -80 60 -80z" />
    <glyph glyph-name="Cacute" unicode="&#x106;" horiz-adv-x="659" 
d="M375 680c-126 0 -198 -93 -198 -328c0 -212 68 -331 203 -331c103 0 169 68 204 195h23l-7 -215h-15c-7 13 -12 20 -26 20c-32 0 -98 -31 -191 -31c-199 0 -328 107 -328 359c0 238 143 362 332 362c84 0 146 -31 178 -31c16 0 19 7 25 20h16l7 -209h-23
c-35 125 -96 189 -200 189zM292 747l138 149l24 -6c25 -7 37 -19 37 -38c0 -21 -16 -33 -36 -43l-152 -76z" />
    <glyph glyph-name="cacute" unicode="&#x107;" horiz-adv-x="477" 
d="M282 462c-87 0 -125 -62 -125 -219c0 -152 37 -216 127 -216c95 0 127 72 138 130l28 -5c-12 -60 -43 -162 -197 -162c-142 0 -223 86 -223 240c0 171 98 256 246 256c111 0 171 -50 171 -127c0 -54 -28 -78 -67 -78c-38 0 -65 23 -65 66c0 10 1 23 5 37h28
c3 9 4 18 4 26c0 31 -21 52 -70 52zM207 548l70 187l27 5c5 1 10 2 14 2c22 0 36 -12 36 -34c0 -15 -8 -28 -22 -44l-110 -124z" />
    <glyph glyph-name="Ccircumflex" unicode="&#x108;" horiz-adv-x="659" 
d="M375 680c-126 0 -198 -93 -198 -328c0 -212 68 -331 203 -331c103 0 169 68 204 195h23l-7 -215h-15c-7 13 -12 20 -26 20c-32 0 -98 -31 -191 -31c-199 0 -328 107 -328 359c0 238 143 362 332 362c84 0 146 -31 178 -31c16 0 19 7 25 20h16l7 -209h-23
c-35 125 -96 189 -200 189zM217 743l125 135c9 6 22 12 37 12c18 0 29 -11 45 -31l97 -114l-10 -15l-140 83l-142 -83z" />
    <glyph glyph-name="ccircumflex" unicode="&#x109;" horiz-adv-x="477" 
d="M282 462c-87 0 -125 -62 -125 -219c0 -152 37 -216 127 -216c95 0 127 72 138 130l28 -5c-12 -60 -43 -162 -197 -162c-142 0 -223 86 -223 240c0 171 98 256 246 256c111 0 171 -50 171 -127c0 -54 -28 -78 -67 -78c-38 0 -65 23 -65 66c0 10 1 23 5 37h28
c3 9 4 18 4 26c0 31 -21 52 -70 52zM129 547l104 177c9 5 23 11 39 11c17 0 32 -8 43 -31l81 -156l-13 -9l-122 115l-120 -116z" />
    <glyph glyph-name="Cdotaccent" unicode="&#x10a;" horiz-adv-x="659" 
d="M375 680c-126 0 -198 -93 -198 -328c0 -212 68 -331 203 -331c103 0 169 68 204 195h23l-7 -215h-15c-7 13 -12 20 -26 20c-32 0 -98 -31 -191 -31c-199 0 -328 107 -328 359c0 238 143 362 332 362c84 0 146 -31 178 -31c16 0 19 7 25 20h16l7 -209h-23
c-35 125 -96 189 -200 189zM300 823c0 36 23 68 71 68c41 0 70 -21 70 -68c0 -40 -23 -69 -70 -69c-55 0 -71 36 -71 69z" />
    <glyph glyph-name="cdotaccent" unicode="&#x10b;" horiz-adv-x="477" 
d="M282 462c-87 0 -125 -62 -125 -219c0 -152 37 -216 127 -216c95 0 127 72 138 130l28 -5c-12 -60 -43 -162 -197 -162c-142 0 -223 86 -223 240c0 171 98 256 246 256c111 0 171 -50 171 -127c0 -54 -28 -78 -67 -78c-38 0 -65 23 -65 66c0 10 1 23 5 37h28
c3 9 4 18 4 26c0 31 -21 52 -70 52zM192 640c0 36 23 67 71 67c41 0 70 -21 70 -67c0 -40 -23 -69 -70 -69c-55 0 -71 36 -71 69z" />
    <glyph glyph-name="Ccaron" unicode="&#x10c;" horiz-adv-x="659" 
d="M375 680c-126 0 -198 -93 -198 -328c0 -212 68 -331 203 -331c103 0 169 68 204 195h23l-7 -215h-15c-7 13 -12 20 -26 20c-32 0 -98 -31 -191 -31c-199 0 -328 107 -328 359c0 238 143 362 332 362c84 0 146 -31 178 -31c16 0 19 7 25 20h16l7 -209h-23
c-35 125 -96 189 -200 189zM527 884l-124 -135c-9 -6 -22 -11 -37 -11c-18 0 -30 11 -46 30l-97 115l11 14l139 -82l143 83z" />
    <glyph glyph-name="ccaron" unicode="&#x10d;" horiz-adv-x="477" 
d="M282 462c-87 0 -125 -62 -125 -219c0 -152 37 -216 127 -216c95 0 127 72 138 130l28 -5c-12 -60 -43 -162 -197 -162c-142 0 -223 86 -223 240c0 171 98 256 246 256c111 0 171 -50 171 -127c0 -54 -28 -78 -67 -78c-38 0 -65 23 -65 66c0 10 1 23 5 37h28
c3 9 4 18 4 26c0 31 -21 52 -70 52zM226 558l-99 177l13 9l128 -116l116 115l13 -9l-89 -156c-12 -22 -26 -31 -44 -31c-16 0 -29 6 -38 11z" />
    <glyph glyph-name="Dcaron" unicode="&#x10e;" horiz-adv-x="724" 
d="M680 362c0 -282 -178 -362 -414 -362h-235v29h81v642h-81v29h262c244 0 387 -89 387 -338zM239 29h43c182 0 260 108 260 329c0 254 -88 313 -277 313h-26v-642zM477 884l-124 -135c-9 -6 -22 -11 -37 -11c-18 0 -30 11 -46 30l-97 115l11 14l139 -82l143 83z" />
    <glyph glyph-name="dcaron" unicode="&#x10f;" horiz-adv-x="648" 
d="M258 31c-77 0 -97 68 -97 206c0 148 30 216 107 216c69 0 111 -67 111 -121v-170c0 -82 -61 -131 -121 -131zM378 74l8 -74h182v26h-73v724h-205v-26h86v-303c-25 39 -66 65 -134 65c-129 0 -208 -85 -208 -252c0 -163 75 -244 191 -244c78 0 123 34 153 84zM552 528
l-16 17c36 34 51 65 51 92c0 33 -20 52 -49 72l20 25c11 13 24 21 41 21c37 0 54 -35 54 -70c0 -53 -37 -107 -101 -157z" />
    <glyph glyph-name="Dcroat" unicode="&#x110;" horiz-adv-x="737" 
d="M693 362c0 -282 -178 -362 -414 -362h-235v29h81v326h-87v29h87v287h-81v29h262c244 0 387 -89 387 -338zM252 29h43c182 0 260 108 260 329c0 254 -88 313 -277 313h-26v-287h176v-29h-176v-326z" />
    <glyph glyph-name="dcroat" unicode="&#x111;" horiz-adv-x="580" 
d="M386 0l-8 74c-30 -50 -75 -84 -153 -84c-116 0 -191 81 -191 244c0 167 79 252 208 252c68 0 109 -26 134 -65v162h-179v26h179v115h-86v26h205v-141h68v-26h-68v-557h73v-26h-182zM258 31c60 0 121 49 121 131v170c0 54 -42 121 -111 121c-77 0 -107 -68 -107 -216
c0 -138 20 -206 97 -206z" />
    <glyph glyph-name="Emacron" unicode="&#x112;" horiz-adv-x="618" 
d="M36 700h501l10 -190h-24c-27 142 -84 161 -206 161h-80v-299h48c76 0 102 32 118 128h22v-296h-24c-19 107 -40 136 -126 136h-38v-311h89c140 0 199 52 223 181h21l-8 -210h-526v29h74v642h-74v29zM173 777v57h272v-57h-272z" />
    <glyph glyph-name="emacron" unicode="&#x113;" horiz-adv-x="491" 
d="M30 234c0 -146 72 -244 231 -244c131 0 182 69 200 152l-28 4c-17 -73 -62 -121 -140 -121c-106 0 -136 75 -136 213v20h303c6 150 -58 228 -191 228c-136 0 -239 -78 -239 -252zM341 285h-183c4 123 36 177 102 177c67 0 85 -59 81 -177zM124 591v59h272v-59h-272z" />
    <glyph glyph-name="Ebreve" unicode="&#x114;" horiz-adv-x="618" 
d="M36 700h501l10 -190h-24c-27 142 -84 161 -206 161h-80v-299h48c76 0 102 32 118 128h22v-296h-24c-19 107 -40 136 -126 136h-38v-311h89c140 0 199 52 223 181h21l-8 -210h-526v29h74v642h-74v29zM167 873l22 4c19 -43 48 -66 123 -66c76 0 103 21 120 66l21 -4
c-7 -65 -44 -130 -145 -130c-102 0 -133 64 -141 130z" />
    <glyph glyph-name="ebreve" unicode="&#x115;" horiz-adv-x="491" 
d="M30 234c0 174 103 252 239 252c133 0 197 -78 191 -228h-303v-20c0 -138 30 -213 136 -213c78 0 123 48 140 121l28 -4c-18 -83 -69 -152 -200 -152c-159 0 -231 98 -231 244zM158 285h183c4 118 -14 177 -81 177c-66 0 -98 -54 -102 -177zM113 695l21 4
c19 -56 49 -83 125 -83c77 0 104 23 121 83l21 -4c-7 -76 -44 -150 -146 -150c-103 0 -134 73 -142 150z" />
    <glyph glyph-name="Edotaccent" unicode="&#x116;" horiz-adv-x="618" 
d="M36 700h501l10 -190h-24c-27 142 -84 161 -206 161h-80v-299h48c76 0 102 32 118 128h22v-296h-24c-19 107 -40 136 -126 136h-38v-311h89c140 0 199 52 223 181h21l-8 -210h-526v29h74v642h-74v29zM238 823c0 36 23 68 71 68c41 0 70 -21 70 -68c0 -40 -23 -69 -70 -69
c-55 0 -71 36 -71 69z" />
    <glyph glyph-name="edotaccent" unicode="&#x117;" horiz-adv-x="491" 
d="M30 234c0 174 103 252 239 252c133 0 197 -78 191 -228h-303v-20c0 -138 30 -213 136 -213c78 0 123 48 140 121l28 -4c-18 -83 -69 -152 -200 -152c-159 0 -231 98 -231 244zM158 285h183c4 118 -14 177 -81 177c-66 0 -98 -54 -102 -177zM185 640c0 36 23 67 71 67
c41 0 70 -21 70 -67c0 -40 -23 -69 -70 -69c-55 0 -71 36 -71 69z" />
    <glyph glyph-name="Eogonek" unicode="&#x118;" horiz-adv-x="618" 
d="M36 700h501l10 -190h-24c-27 142 -84 161 -206 161h-80v-299h48c76 0 102 32 118 128h22v-296h-24c-19 107 -40 136 -126 136h-38v-311h89c140 0 199 52 223 181h21l-8 -210h-67c-44 -35 -72 -70 -72 -130c0 -31 12 -51 40 -51c25 0 38 14 58 40l15 -10
c-16 -28 -43 -70 -106 -70c-59 0 -92 29 -92 77c0 63 60 107 119 144h-421v29h74v642h-74v29z" />
    <glyph glyph-name="eogonek" unicode="&#x119;" horiz-adv-x="491" 
d="M30 234c0 174 103 252 239 252c133 0 197 -78 191 -228h-303v-20c0 -138 30 -213 136 -213c78 0 123 48 140 121l28 -4c-12 -57 -40 -101 -94 -134c-50 -31 -82 -75 -82 -138c0 -31 12 -51 40 -51c25 0 38 14 58 40l15 -10c-16 -28 -43 -70 -106 -70c-59 0 -92 29 -92 77
c0 60 53 102 109 138c-15 -3 -31 -4 -48 -4c-159 0 -231 98 -231 244zM158 285h183c4 118 -14 177 -81 177c-66 0 -98 -54 -102 -177z" />
    <glyph glyph-name="Ecaron" unicode="&#x11a;" horiz-adv-x="618" 
d="M36 700h501l10 -190h-24c-27 142 -84 161 -206 161h-80v-299h48c76 0 102 32 118 128h22v-296h-24c-19 107 -40 136 -126 136h-38v-311h89c140 0 199 52 223 181h21l-8 -210h-526v29h74v642h-74v29zM465 884l-124 -135c-9 -6 -22 -11 -37 -11c-18 0 -30 11 -46 30
l-97 115l11 14l139 -82l143 83z" />
    <glyph glyph-name="ecaron" unicode="&#x11b;" horiz-adv-x="491" 
d="M30 234c0 174 103 252 239 252c133 0 197 -78 191 -228h-303v-20c0 -138 30 -213 136 -213c78 0 123 48 140 121l28 -4c-18 -83 -69 -152 -200 -152c-159 0 -231 98 -231 244zM158 285h183c4 118 -14 177 -81 177c-66 0 -98 -54 -102 -177zM225 558l-99 177l13 9
l128 -116l116 115l13 -9l-89 -156c-12 -22 -26 -31 -44 -31c-16 0 -29 6 -38 11z" />
    <glyph glyph-name="Gcircumflex" unicode="&#x11c;" horiz-adv-x="710" 
d="M376 21c56 0 98 25 116 68v167h-85v29h269v-29h-60v-255h-16c-8 14 -16 25 -38 25c-35 0 -107 -36 -194 -36c-199 0 -328 107 -328 355c0 242 147 366 336 366c85 0 144 -31 176 -31c14 0 18 7 24 20h16l7 -209h-22c-34 121 -99 189 -202 189c-126 0 -198 -94 -198 -332
c0 -210 68 -327 199 -327zM221 743l125 135c9 6 22 12 37 12c18 0 29 -11 45 -31l97 -114l-10 -15l-140 83l-142 -83z" />
    <glyph glyph-name="gcircumflex" unicode="&#x11d;" horiz-adv-x="504" 
d="M110 547l104 177c9 5 23 11 39 11c17 0 31 -8 43 -31l62 -125l-11 -9l-100 88l-125 -120zM426 323c0 55 -21 92 -54 120c-2 10 -2 20 -2 29c0 64 23 89 44 89c16 0 25 -9 27 -24l-23 -26c6 -13 24 -29 49 -29c31 0 52 26 52 54c0 40 -30 65 -71 65
c-75 0 -108 -74 -102 -141c-28 16 -63 26 -100 26c-138 0 -197 -81 -197 -169c0 -73 27 -124 93 -149c-61 -45 -91 -74 -91 -114c0 -41 30 -74 113 -74h121c101 0 141 -22 141 -82c0 -72 -63 -122 -186 -122c-106 0 -142 42 -142 95c0 14 3 34 10 51l-34 23
c-34 -8 -75 -27 -75 -80c0 -72 70 -115 217 -115c203 0 274 79 274 188c0 126 -92 151 -206 151h-129c-34 0 -43 5 -43 15c0 12 21 32 58 56c20 -4 47 -7 73 -7c112 0 183 64 183 170zM163 318c0 115 30 144 77 144c50 0 74 -33 74 -143c0 -113 -29 -140 -73 -140
c-51 0 -78 30 -78 139z" />
    <glyph glyph-name="Gbreve" unicode="&#x11e;" horiz-adv-x="710" 
d="M376 21c56 0 98 25 116 68v167h-85v29h269v-29h-60v-255h-16c-8 14 -16 25 -38 25c-35 0 -107 -36 -194 -36c-199 0 -328 107 -328 355c0 242 147 366 336 366c85 0 144 -31 176 -31c14 0 18 7 24 20h16l7 -209h-22c-34 121 -99 189 -202 189c-126 0 -198 -94 -198 -332
c0 -210 68 -327 199 -327zM225 873l22 4c19 -43 48 -66 123 -66c76 0 103 21 120 66l21 -4c-7 -65 -44 -130 -145 -130c-102 0 -133 64 -141 130z" />
    <glyph glyph-name="gbreve" unicode="&#x11f;" horiz-adv-x="514" 
d="M426 323c0 -106 -71 -170 -183 -170c-26 0 -53 3 -73 7c-37 -24 -58 -44 -58 -56c0 -10 9 -15 43 -15h129c114 0 206 -25 206 -151c0 -109 -71 -188 -274 -188c-147 0 -217 43 -217 115c0 53 41 72 75 80l34 -23c-7 -17 -10 -37 -10 -51c0 -53 36 -95 142 -95
c123 0 186 50 186 122c0 60 -40 82 -141 82h-121c-83 0 -113 33 -113 74c0 40 30 69 91 114c-66 25 -93 76 -93 149c0 88 59 169 197 169c38 0 72 -9 101 -26c18 99 62 127 111 127c47 0 81 -31 81 -72c0 -33 -20 -55 -51 -55c-27 0 -46 17 -52 34l21 31
c-2 13 -11 19 -23 19c-21 0 -49 -18 -63 -100c34 -28 55 -65 55 -121zM163 318c0 -109 27 -139 78 -139c44 0 73 27 73 140c0 110 -24 143 -74 143c-47 0 -77 -29 -77 -144zM102 695l21 4c19 -56 49 -83 125 -83c77 0 104 23 121 83l21 -4c-7 -76 -44 -150 -146 -150
c-103 0 -134 73 -142 150z" />
    <glyph glyph-name="Gdotaccent" unicode="&#x120;" horiz-adv-x="710" 
d="M376 21c56 0 98 25 116 68v167h-85v29h269v-29h-60v-255h-16c-8 14 -16 25 -38 25c-35 0 -107 -36 -194 -36c-199 0 -328 107 -328 355c0 242 147 366 336 366c85 0 144 -31 176 -31c14 0 18 7 24 20h16l7 -209h-22c-34 121 -99 189 -202 189c-126 0 -198 -94 -198 -332
c0 -210 68 -327 199 -327zM296 823c0 36 23 68 71 68c41 0 70 -21 70 -68c0 -40 -23 -69 -70 -69c-55 0 -71 36 -71 69z" />
    <glyph glyph-name="gdotaccent" unicode="&#x121;" horiz-adv-x="504" 
d="M426 323c0 -106 -71 -170 -183 -170c-26 0 -53 3 -73 7c-37 -24 -58 -44 -58 -56c0 -10 9 -15 43 -15h129c114 0 206 -25 206 -151c0 -109 -71 -188 -274 -188c-147 0 -217 43 -217 115c0 53 41 72 75 80l34 -23c-7 -17 -10 -37 -10 -51c0 -53 36 -95 142 -95
c123 0 186 50 186 122c0 60 -40 82 -141 82h-121c-83 0 -113 33 -113 74c0 40 30 69 91 114c-66 25 -93 76 -93 149c0 88 59 169 197 169c37 0 72 -10 100 -26c-6 67 27 141 102 141c41 0 71 -25 71 -65c0 -28 -21 -54 -52 -54c-25 0 -43 16 -49 29l23 26
c-2 15 -11 24 -27 24c-21 0 -44 -25 -44 -89c0 -9 0 -19 2 -29c33 -28 54 -65 54 -120zM163 318c0 -109 27 -139 78 -139c44 0 73 27 73 140c0 110 -24 143 -74 143c-47 0 -77 -29 -77 -144zM168 640c0 36 23 67 71 67c41 0 70 -21 70 -67c0 -40 -23 -69 -70 -69
c-55 0 -71 36 -71 69z" />
    <glyph glyph-name="Gcommaaccent" unicode="&#x122;" horiz-adv-x="710" 
d="M376 21c56 0 98 25 116 68v167h-85v29h269v-29h-60v-255h-16c-8 14 -16 25 -38 25c-35 0 -107 -36 -194 -36c-199 0 -328 107 -328 355c0 242 147 366 336 366c85 0 144 -31 176 -31c14 0 18 7 24 20h16l7 -209h-22c-34 121 -99 189 -202 189c-126 0 -198 -94 -198 -332
c0 -210 68 -327 199 -327zM332 -274l-16 18c51 43 59 65 59 90c0 16 -7 27 -17 30l-23 -24c-17 6 -36 21 -36 49c0 31 24 51 53 51c45 0 67 -35 67 -74c0 -48 -26 -93 -87 -140z" />
    <glyph glyph-name="gcommaaccent" unicode="&#x123;" horiz-adv-x="504" 
d="M426 323c0 55 -21 92 -54 120c-2 10 -2 20 -2 29c0 64 23 89 44 89c16 0 25 -9 27 -24l-23 -26c6 -13 24 -29 49 -29c31 0 52 26 52 54c0 40 -30 65 -71 65c-75 0 -108 -74 -102 -141c-28 16 -63 26 -100 26c-138 0 -197 -81 -197 -169c0 -73 27 -124 93 -149
c-61 -45 -91 -74 -91 -114c0 -41 30 -74 113 -74h121c101 0 141 -22 141 -82c0 -72 -63 -122 -186 -122c-106 0 -142 42 -142 95c0 14 3 34 10 51l-34 23c-34 -8 -75 -27 -75 -80c0 -72 70 -115 217 -115c203 0 274 79 274 188c0 126 -92 151 -206 151h-129
c-34 0 -43 5 -43 15c0 12 21 32 58 56c20 -4 47 -7 73 -7c112 0 183 64 183 170zM163 318c0 115 30 144 77 144c50 0 74 -33 74 -143c0 -113 -29 -140 -73 -140c-51 0 -78 30 -78 139zM264 773l18 -20c-51 -48 -57 -76 -57 -93c0 -14 4 -20 14 -23l23 24
c17 -6 38 -24 38 -52c0 -31 -26 -51 -55 -51c-45 0 -66 35 -66 74c0 48 24 94 85 141z" />
    <glyph glyph-name="Hcircumflex" unicode="&#x124;" horiz-adv-x="758" 
d="M36 700h275v-29h-74v-296h284v296h-74v29h275v-29h-74v-642h74v-29h-275v29h74v310h-284v-310h74v-29h-275v29h74v642h-74v29zM226 743l125 135c9 6 22 12 37 12c18 0 29 -11 45 -31l97 -114l-10 -15l-140 83l-142 -83z" />
    <glyph glyph-name="hcircumflex" unicode="&#x125;" horiz-adv-x="613" 
d="M21 750h188v-366c22 49 70 102 169 102c92 0 150 -46 150 -167v-293h71v-26h-256v26h67v305c0 84 -18 115 -69 115c-70 0 -132 -66 -132 -156v-264h68v-26h-256v26h70v698h-70v26zM-29 779l125 135c9 6 22 12 37 12c18 0 29 -11 45 -31l97 -114l-10 -15l-140 83l-142 -83
z" />
    <glyph glyph-name="Hbar" unicode="&#x126;" horiz-adv-x="758" 
d="M36 700h275v-29h-74v-133h284v133h-74v29h275v-29h-74v-133h80v-29h-80v-480h74v-29h-275v29h74v310h-284v-310h74v-29h-275v29h74v480h-79v29h79v133h-74v29zM237 375h284v134h-284v-134z" />
    <glyph glyph-name="hbar" unicode="&#x127;" horiz-adv-x="613" 
d="M21 750h188v-141h176v-26h-176v-199c22 49 70 102 169 102c92 0 150 -46 150 -167v-293h71v-26h-256v26h67v305c0 84 -18 115 -69 115c-70 0 -132 -66 -132 -156v-264h68v-26h-256v26h70v557h-72v26h72v115h-70v26z" />
    <glyph glyph-name="Itilde" unicode="&#x128;" horiz-adv-x="347" 
d="M40 700h267v-29h-70v-642h70v-29h-267v29h70v642h-70v29zM239 769c-34 0 -63 12 -90 23c-22 9 -43 17 -62 17c-16 0 -36 -7 -51 -43l-19 6c17 60 44 108 108 108c31 0 53 -12 82 -24c21 -8 42 -16 61 -16c22 0 38 7 52 42l20 -5c-20 -76 -57 -108 -101 -108z" />
    <glyph glyph-name="itilde" unicode="&#x129;" horiz-adv-x="300" 
d="M23 476h189v-450h71v-26h-259v26h70v424h-71v26zM199 580c-34 0 -63 12 -90 23c-22 9 -43 17 -62 17c-16 0 -36 -7 -51 -43l-19 6c17 61 44 108 108 108c31 0 53 -12 82 -24c21 -8 42 -16 61 -16c22 0 38 7 52 43l20 -5c-20 -77 -57 -109 -101 -109z" />
    <glyph glyph-name="Imacron" unicode="&#x12a;" horiz-adv-x="347" 
d="M40 700h267v-29h-70v-642h70v-29h-267v29h70v642h-70v29zM38 777v57h272v-57h-272z" />
    <glyph glyph-name="imacron" unicode="&#x12b;" horiz-adv-x="300" 
d="M23 476h189v-450h71v-26h-259v26h70v424h-71v26zM-2 591v59h272v-59h-272z" />
    <glyph glyph-name="Ibreve" unicode="&#x12c;" horiz-adv-x="347" 
d="M40 700h267v-29h-70v-642h70v-29h-267v29h70v642h-70v29zM32 873l22 4c19 -43 48 -66 123 -66c76 0 103 21 120 66l21 -4c-7 -65 -44 -130 -145 -130c-102 0 -133 64 -141 130z" />
    <glyph glyph-name="ibreve" unicode="&#x12d;" horiz-adv-x="300" 
d="M23 476h189v-450h71v-26h-259v26h70v424h-71v26zM-11 695l21 4c19 -56 49 -83 125 -83c77 0 104 23 121 83l21 -4c-7 -76 -44 -150 -146 -150c-103 0 -134 73 -142 150z" />
    <glyph glyph-name="Iogonek" unicode="&#x12e;" horiz-adv-x="347" 
d="M40 700h267v-29h-70v-642h70v-29h-75c-44 -35 -72 -70 -72 -130c0 -31 12 -51 40 -51c25 0 38 14 58 40l15 -10c-16 -28 -43 -70 -106 -70c-59 0 -92 29 -92 77c0 63 60 107 119 144h-154v29h70v642h-70v29z" />
    <glyph glyph-name="iogonek" unicode="&#x12f;" horiz-adv-x="300" 
d="M23 476h189v-450h71v-26h-75c-44 -35 -72 -70 -72 -130c0 -31 12 -51 40 -51c25 0 38 14 58 40l15 -10c-16 -28 -43 -70 -106 -70c-59 0 -92 29 -92 77c0 63 60 107 119 144h-146v26h70v424h-71v26zM75 640c0 36 22 67 70 67c42 0 71 -21 71 -67c0 -40 -23 -69 -71 -69
c-54 0 -70 36 -70 69z" />
    <glyph glyph-name="Idotaccent" unicode="&#x130;" horiz-adv-x="347" 
d="M40 700h267v-29h-70v-642h70v-29h-267v29h70v642h-70v29zM103 823c0 36 23 68 71 68c41 0 70 -21 70 -68c0 -40 -23 -69 -70 -69c-55 0 -71 36 -71 69z" />
    <glyph glyph-name="idotaccent" horiz-adv-x="300" 
d="M75 640c0 36 22 67 70 67c42 0 71 -21 71 -67c0 -40 -23 -69 -71 -69c-54 0 -70 36 -70 69zM23 476h189v-450h71v-26h-259v26h70v424h-71v26z" />
    <glyph glyph-name="dotlessi" unicode="&#x131;" horiz-adv-x="300" 
d="M23 476h189v-450h71v-26h-259v26h70v424h-71v26z" />
    <glyph glyph-name="IJ" unicode="&#x132;" horiz-adv-x="811" 
d="M40 700h267v-29h-70v-642h70v-29h-267v29h70v642h-70v29zM505 700h287v-29h-70v-443c0 -148 -67 -237 -201 -237c-97 0 -149 44 -149 110c0 53 32 81 73 81c37 0 60 -22 60 -61c0 -12 -2 -28 -7 -45h-31c-3 -6 -4 -12 -4 -17c0 -22 20 -38 57 -38c61 0 75 26 75 115v535
h-90v29z" />
    <glyph glyph-name="Jcircumflex" unicode="&#x134;" horiz-adv-x="464" 
d="M158 700h287v-29h-70v-443c0 -148 -67 -237 -201 -237c-97 0 -149 44 -149 110c0 53 32 81 73 81c37 0 60 -22 60 -61c0 -12 -2 -28 -7 -45h-31c-3 -6 -4 -12 -4 -17c0 -22 20 -38 57 -38c61 0 75 26 75 115v535h-90v29zM146 743l125 135c9 6 22 12 37 12
c18 0 29 -11 45 -31l97 -114l-10 -15l-140 83l-142 -83z" />
    <glyph glyph-name="jcircumflex" unicode="&#x135;" horiz-adv-x="291" 
d="M210 476v-428c0 -159 -52 -298 -193 -298c-87 0 -109 52 -109 94c0 49 31 75 68 75c34 0 56 -19 56 -56c0 -11 -2 -24 -6 -38h-29c-4 -7 -5 -15 -5 -22c0 -17 11 -28 37 -28c57 0 62 56 62 169v506h-77v26h196zM-17 547l104 177c9 5 23 11 39 11c17 0 32 -8 43 -31
l81 -156l-13 -9l-122 115l-120 -116z" />
    <glyph glyph-name="jcircumflex.calt" horiz-adv-x="291" 
d="M210 476v-457c0 -160 -49 -263 -219 -270l-5 23c83 16 105 61 105 175v503h-77v26h196zM-5 547l104 177c9 5 23 11 39 11c17 0 32 -8 43 -31l81 -156l-13 -9l-122 115l-120 -116z" />
    <glyph glyph-name="Kcommaaccent" unicode="&#x136;" horiz-adv-x="670" 
d="M40 700h267v-29h-70v-311l31 8l250 305h-82v27h196v-27h-67l-200 -246l254 -400h55v-27h-274v27h68l-195 304l-36 -8v-294h70v-29h-267v29h70v642h-70v29zM312 -274l-16 18c51 43 59 65 59 90c0 16 -7 27 -17 30l-23 -24c-17 6 -36 21 -36 49c0 31 24 51 53 51
c45 0 67 -35 67 -74c0 -48 -26 -93 -87 -140z" />
    <glyph glyph-name="kcommaaccent" unicode="&#x137;" horiz-adv-x="579" 
d="M329 0v26h64l-143 223l-41 -9v-214h60v-26h-248v26h70v698h-71v26h189v-479l32 7l192 172h-86v26h201v-26h-69l-142 -130l189 -294h48v-26h-245zM266 -274l-16 18c51 43 59 65 59 90c0 16 -7 27 -17 30l-23 -24c-17 6 -36 21 -36 49c0 31 24 51 53 51c45 0 67 -35 67 -74
c0 -48 -26 -93 -87 -140z" />
    <glyph glyph-name="kgreenlandic" unicode="&#x138;" horiz-adv-x="579" 
d="M329 0v26h64l-143 223l-41 -9v-214h60v-26h-248v26h70v424h-71v26h189v-205l32 7l192 172h-86v26h201v-26h-69l-142 -130l189 -294h48v-26h-245z" />
    <glyph glyph-name="Lacute" unicode="&#x139;" horiz-adv-x="588" 
d="M36 700h307v-29h-106v-642h66c144 0 196 54 228 197h24l-12 -226h-507v29h74v642h-74v29zM106 747l138 149l24 -6c25 -7 37 -19 37 -38c0 -21 -16 -33 -36 -43l-152 -76z" />
    <glyph glyph-name="lacute" unicode="&#x13a;" horiz-adv-x="301" 
d="M20 750h190v-724h70v-26h-259v26h70v698h-71v26zM45 788l138 149l24 -6c25 -7 37 -19 37 -38c0 -21 -16 -33 -36 -43l-152 -76z" />
    <glyph glyph-name="Lcommaaccent" unicode="&#x13b;" horiz-adv-x="588" 
d="M36 700h307v-29h-106v-642h66c144 0 196 54 228 197h24l-12 -226h-507v29h74v642h-74v29zM281 -274l-16 18c51 43 59 65 59 90c0 16 -7 27 -17 30l-23 -24c-17 6 -36 21 -36 49c0 31 24 51 53 51c45 0 67 -35 67 -74c0 -48 -26 -93 -87 -140z" />
    <glyph glyph-name="lcommaaccent" unicode="&#x13c;" horiz-adv-x="301" 
d="M20 750h190v-724h70v-26h-259v26h70v698h-71v26zM124 -274l-16 18c51 43 59 65 59 90c0 16 -7 27 -17 30l-23 -24c-17 6 -36 21 -36 49c0 31 24 51 53 51c45 0 67 -35 67 -74c0 -48 -26 -93 -87 -140z" />
    <glyph glyph-name="Lcaron" unicode="&#x13d;" horiz-adv-x="588" 
d="M36 700h307v-29h-106v-642h66c144 0 196 54 228 197h24l-12 -226h-507v29h74v642h-74v29zM410 485l-16 17c36 34 51 65 51 92c0 33 -20 52 -49 72l20 25c11 13 24 21 41 21c37 0 54 -35 54 -70c0 -53 -37 -107 -101 -157z" />
    <glyph glyph-name="lcaron" unicode="&#x13e;" horiz-adv-x="350" 
d="M20 750h190v-724h70v-26h-259v26h70v698h-71v26zM254 528l-16 17c36 34 51 65 51 92c0 33 -20 52 -49 72l20 25c11 13 24 21 41 21c37 0 54 -35 54 -70c0 -53 -37 -107 -101 -157z" />
    <glyph glyph-name="Ldot" unicode="&#x13f;" horiz-adv-x="588" 
d="M36 700h307v-29h-106v-642h66c144 0 196 54 228 197h24l-12 -226h-507v29h74v642h-74v29zM386 393c0 -33 16 -69 71 -69c47 0 70 29 70 69c0 47 -29 68 -70 68c-48 0 -71 -32 -71 -68z" />
    <glyph glyph-name="ldot" unicode="&#x140;" horiz-adv-x="343" 
d="M20 750h190v-724h70v-26h-259v26h70v698h-71v26zM252 398c0 -33 16 -69 71 -69c47 0 70 29 70 69c0 46 -29 67 -70 67c-48 0 -71 -31 -71 -67z" />
    <glyph glyph-name="Lslash" unicode="&#x141;" horiz-adv-x="588" 
d="M36 700h307v-29h-106v-272l162 92l8 -29l-170 -98v-335h66c144 0 196 54 228 197h24l-12 -226h-507v29h74v278l-90 -52l-8 30l98 56v330h-74v29z" />
    <glyph glyph-name="lslash" unicode="&#x142;" horiz-adv-x="305" 
d="M20 750h190v-301l79 49l8 -32l-87 -54v-386h70v-26h-259v26h70v330l-76 -46l-8 32l84 51v331h-71v26z" />
    <glyph glyph-name="Nacute" unicode="&#x143;" horiz-adv-x="701" 
d="M598 671v-676h-59l-394 651v-617h70v-29h-175v29h70v642h-70v29h221l302 -504v475h-70v29h175v-29h-70zM300 747l138 149l24 -6c25 -7 37 -19 37 -38c0 -21 -16 -33 -36 -43l-152 -76z" />
    <glyph glyph-name="nacute" unicode="&#x144;" horiz-adv-x="615" 
d="M21 476h188v-92c22 49 70 102 169 102c92 0 150 -46 150 -167v-293h71v-26h-256v26h67v308c0 77 -17 110 -70 110c-69 0 -131 -66 -131 -156v-262h68v-26h-256v26h70v424h-70v26zM264 548l70 187l27 5c5 1 10 2 14 2c22 0 36 -12 36 -34c0 -15 -8 -28 -22 -44l-110 -124z
" />
    <glyph glyph-name="Ncommaaccent" unicode="&#x145;" horiz-adv-x="701" 
d="M598 671v-676h-59l-394 651v-617h70v-29h-175v29h70v642h-70v29h221l302 -504v475h-70v29h175v-29h-70zM336 -274l-16 18c51 43 59 65 59 90c0 16 -7 27 -17 30l-23 -24c-17 6 -36 21 -36 49c0 31 24 51 53 51c45 0 67 -35 67 -74c0 -48 -26 -93 -87 -140z" />
    <glyph glyph-name="ncommaaccent" unicode="&#x146;" horiz-adv-x="615" 
d="M21 476h188v-92c22 49 70 102 169 102c92 0 150 -46 150 -167v-293h71v-26h-256v26h67v308c0 77 -17 110 -70 110c-69 0 -131 -66 -131 -156v-262h68v-26h-256v26h70v424h-70v26zM284 -274l-16 18c51 43 59 65 59 90c0 16 -7 27 -17 30l-23 -24c-17 6 -36 21 -36 49
c0 31 24 51 53 51c45 0 67 -35 67 -74c0 -48 -26 -93 -87 -140z" />
    <glyph glyph-name="Ncaron" unicode="&#x147;" horiz-adv-x="701" 
d="M598 671v-676h-59l-394 651v-617h70v-29h-175v29h70v642h-70v29h221l302 -504v475h-70v29h175v-29h-70zM526 884l-124 -135c-9 -6 -22 -11 -37 -11c-18 0 -30 11 -46 30l-97 115l11 14l139 -82l143 83z" />
    <glyph glyph-name="ncaron" unicode="&#x148;" horiz-adv-x="615" 
d="M21 476h188v-92c22 49 70 102 169 102c92 0 150 -46 150 -167v-293h71v-26h-256v26h67v308c0 77 -17 110 -70 110c-69 0 -131 -66 -131 -156v-262h68v-26h-256v26h70v424h-70v26zM285 558l-99 177l13 9l128 -116l116 115l13 -9l-89 -156c-12 -22 -26 -31 -44 -31
c-16 0 -29 6 -38 11z" />
    <glyph glyph-name="napostrophe" unicode="&#x149;" horiz-adv-x="615" 
d="M21 476h188v-92c22 49 70 102 169 102c92 0 150 -46 150 -167v-293h71v-26h-256v26h67v308c0 77 -17 110 -70 110c-69 0 -131 -66 -131 -156v-262h68v-26h-256v26h70v424h-70v26zM-50 459l-17 20c51 48 57 76 57 93c0 14 -4 20 -15 23l-22 -24c-18 6 -38 24 -38 52
c0 31 25 51 54 51c46 0 67 -35 67 -74c0 -48 -25 -94 -86 -141z" />
    <glyph glyph-name="Eng" unicode="&#x14a;" horiz-adv-x="701" 
d="M598 671v-631c0 -148 -58 -237 -171 -237c-97 0 -149 39 -149 105c0 53 32 81 73 81c37 0 60 -22 60 -61c0 -12 -2 -28 -7 -45h-31c-3 -6 -4 -12 -4 -17c0 -22 20 -38 57 -38c61 0 75 31 75 120v110l-356 588v-617h70v-29h-175v29h70v642h-70v29h221l302 -504v475h-70v29
h175v-29h-70z" />
    <glyph glyph-name="eng" unicode="&#x14b;" horiz-adv-x="609" 
d="M21 476h188v-92c22 49 70 102 169 102c92 0 150 -46 150 -167v-271c0 -159 -51 -298 -192 -298c-87 0 -109 52 -109 94c0 49 31 75 68 75c34 0 56 -19 56 -56c0 -11 -2 -24 -6 -38h-29c-4 -7 -5 -15 -5 -22c0 -17 11 -28 37 -28c57 0 62 56 62 169v390
c0 77 -17 110 -70 110c-69 0 -131 -66 -131 -156v-262h68v-26h-256v26h70v424h-70v26z" />
    <glyph glyph-name="Omacron" unicode="&#x14c;" horiz-adv-x="722" 
d="M542 352c0 200 -27 328 -178 328c-158 0 -186 -129 -186 -334c0 -187 30 -325 184 -325c149 0 180 128 180 331zM40 346c0 222 130 365 329 365c195 0 312 -131 312 -355c0 -226 -110 -366 -321 -366c-208 0 -320 128 -320 356zM225 777v57h272v-57h-272z" />
    <glyph glyph-name="omacron" unicode="&#x14d;" horiz-adv-x="527" 
d="M371 241c0 127 -17 221 -106 221c-91 0 -108 -91 -108 -221s17 -227 108 -227c87 0 106 83 106 227zM30 236c0 162 92 250 238 250c147 0 229 -77 229 -244c0 -157 -81 -252 -234 -252c-149 0 -233 90 -233 246zM132 591v59h272v-59h-272z" />
    <glyph glyph-name="Obreve" unicode="&#x14e;" horiz-adv-x="722" 
d="M542 352c0 200 -27 328 -178 328c-158 0 -186 -129 -186 -334c0 -187 30 -325 184 -325c149 0 180 128 180 331zM40 346c0 222 130 365 329 365c195 0 312 -131 312 -355c0 -226 -110 -366 -321 -366c-208 0 -320 128 -320 356zM222 873l22 4c19 -43 48 -66 123 -66
c76 0 103 21 120 66l21 -4c-7 -65 -44 -130 -145 -130c-102 0 -133 64 -141 130z" />
    <glyph glyph-name="obreve" unicode="&#x14f;" horiz-adv-x="527" 
d="M371 241c0 127 -17 221 -106 221c-91 0 -108 -91 -108 -221s17 -227 108 -227c87 0 106 83 106 227zM30 236c0 162 92 250 238 250c147 0 229 -77 229 -244c0 -157 -81 -252 -234 -252c-149 0 -233 90 -233 246zM124 695l21 4c19 -56 49 -83 125 -83c77 0 104 23 121 83
l21 -4c-7 -76 -44 -150 -146 -150c-103 0 -134 73 -142 150z" />
    <glyph glyph-name="Ohungarumlaut" unicode="&#x150;" horiz-adv-x="722" 
d="M542 352c0 200 -27 328 -178 328c-158 0 -186 -129 -186 -334c0 -187 30 -325 184 -325c149 0 180 128 180 331zM40 346c0 222 130 365 329 365c195 0 312 -131 312 -355c0 -226 -110 -366 -321 -366c-208 0 -320 128 -320 356zM269 747l106 172h23c21 -1 44 -11 44 -37
c0 -16 -10 -28 -27 -41l-132 -106zM406 748l115 165l21 -1c20 -3 43 -13 43 -37c0 -18 -12 -30 -29 -42l-136 -98z" />
    <glyph glyph-name="ohungarumlaut" unicode="&#x151;" horiz-adv-x="527" 
d="M371 241c0 127 -17 221 -106 221c-91 0 -108 -91 -108 -221s17 -227 108 -227c87 0 106 83 106 227zM30 236c0 162 92 250 238 250c147 0 229 -77 229 -244c0 -157 -81 -252 -234 -252c-149 0 -233 90 -233 246zM316 550l70 187l27 6c5 1 10 1 14 1c21 0 34 -12 34 -34
c0 -15 -8 -28 -22 -43l-108 -125zM174 550l70 187l27 6c5 1 10 1 14 1c21 0 34 -12 34 -34c0 -15 -8 -28 -22 -43l-108 -125z" />
    <glyph glyph-name="OE" unicode="&#x152;" horiz-adv-x="1047" 
d="M563 700h403l10 -190h-23c-28 142 -84 161 -207 161h-79v-299h48c76 0 102 32 118 128h21v-296h-23c-19 107 -41 136 -126 136h-38v-311h88c140 0 199 52 224 181h20l-7 -210h-429v73c-42 -43 -114 -84 -208 -84c-203 0 -315 129 -315 357c0 222 130 365 327 365
c85 0 152 -31 196 -83v72zM542 352c0 200 -27 328 -178 328c-158 0 -186 -129 -186 -334c0 -187 30 -325 184 -325c149 0 180 128 180 331z" />
    <glyph glyph-name="oe" unicode="&#x153;" horiz-adv-x="824" 
d="M491 285h183c4 118 -14 177 -81 177c-66 0 -98 -54 -102 -177zM371 241c0 127 -17 221 -106 221c-91 0 -108 -91 -108 -221s17 -227 108 -227c87 0 106 83 106 227zM30 236c0 162 92 250 238 250c75 0 130 -31 162 -86c37 54 102 86 174 86c131 0 195 -78 189 -228h-303
v-20c0 -138 30 -213 136 -213c78 0 123 48 140 121l28 -4c-18 -83 -69 -152 -191 -152c-89 0 -144 41 -175 84c-34 -50 -90 -84 -169 -84c-145 0 -229 90 -229 246z" />
    <glyph glyph-name="Racute" unicode="&#x154;" horiz-adv-x="669" 
d="M302 346h-65v-317h95v-29h-302v29h80v642h-80v29h253c167 0 286 -23 286 -166c0 -120 -76 -161 -192 -170v-3c119 -14 165 -55 165 -171v-79c0 -44 3 -68 40 -68c31 0 37 25 50 92l23 -4c-12 -71 -21 -141 -120 -141c-96 0 -125 40 -125 136v119c0 66 -24 101 -108 101z
M237 671v-296h24c118 0 169 44 169 157c0 117 -52 139 -164 139h-29zM215 747l138 149l24 -6c25 -7 37 -19 37 -38c0 -21 -16 -33 -36 -43l-152 -76z" />
    <glyph glyph-name="racute" unicode="&#x155;" horiz-adv-x="445" 
d="M313 447c-55 0 -104 -86 -104 -175v-246h97v-26h-285v26h70v424h-70v26h188v-94c20 71 68 104 126 104c61 0 102 -39 102 -97s-31 -82 -69 -82c-37 0 -62 22 -62 68c0 10 1 19 3 28h31c3 8 3 14 3 19c0 20 -15 25 -30 25zM167 548l70 187l27 5c5 1 10 2 14 2
c22 0 36 -12 36 -34c0 -15 -8 -28 -22 -44l-110 -124z" />
    <glyph glyph-name="Rcommaaccent" unicode="&#x156;" horiz-adv-x="669" 
d="M302 346h-65v-317h95v-29h-302v29h80v642h-80v29h253c167 0 286 -23 286 -166c0 -120 -76 -161 -192 -170v-3c119 -14 165 -55 165 -171v-79c0 -44 3 -68 40 -68c31 0 37 25 50 92l23 -4c-12 -71 -21 -141 -120 -141c-96 0 -125 40 -125 136v119c0 66 -24 101 -108 101z
M237 671v-296h24c118 0 169 44 169 157c0 117 -52 139 -164 139h-29zM316 -274l-16 18c51 43 59 65 59 90c0 16 -7 27 -17 30l-23 -24c-17 6 -36 21 -36 49c0 31 24 51 53 51c45 0 67 -35 67 -74c0 -48 -26 -93 -87 -140z" />
    <glyph glyph-name="rcommaaccent" unicode="&#x157;" horiz-adv-x="445" 
d="M313 447c-55 0 -104 -86 -104 -175v-246h97v-26h-285v26h70v424h-70v26h188v-94c20 71 68 104 126 104c61 0 102 -39 102 -97s-31 -82 -69 -82c-37 0 -62 22 -62 68c0 10 1 19 3 28h31c3 8 3 14 3 19c0 20 -15 25 -30 25zM133 -274l-16 18c51 43 59 65 59 90
c0 16 -7 27 -17 30l-23 -24c-17 6 -36 21 -36 49c0 31 24 51 53 51c45 0 67 -35 67 -74c0 -48 -26 -93 -87 -140z" />
    <glyph glyph-name="Rcaron" unicode="&#x158;" horiz-adv-x="669" 
d="M302 346h-65v-317h95v-29h-302v29h80v642h-80v29h253c167 0 286 -23 286 -166c0 -120 -76 -161 -192 -170v-3c119 -14 165 -55 165 -171v-79c0 -44 3 -68 40 -68c31 0 37 25 50 92l23 -4c-12 -71 -21 -141 -120 -141c-96 0 -125 40 -125 136v119c0 66 -24 101 -108 101z
M237 671v-296h24c118 0 169 44 169 157c0 117 -52 139 -164 139h-29zM459 884l-124 -135c-9 -6 -22 -11 -37 -11c-18 0 -30 11 -46 30l-97 115l11 14l139 -82l143 83z" />
    <glyph glyph-name="rcaron" unicode="&#x159;" horiz-adv-x="445" 
d="M313 447c-55 0 -104 -86 -104 -175v-246h97v-26h-285v26h70v424h-70v26h188v-94c20 71 68 104 126 104c61 0 102 -39 102 -97s-31 -82 -69 -82c-37 0 -62 22 -62 68c0 10 1 19 3 28h31c3 8 3 14 3 19c0 20 -15 25 -30 25zM184 558l-99 177l13 9l128 -116l116 115l13 -9
l-89 -156c-12 -22 -26 -31 -44 -31c-16 0 -29 6 -38 11z" />
    <glyph glyph-name="Racute.alt" horiz-adv-x="667" 
d="M325 347h-82v-318h95v-29h-302v29h80v642h-80v29h265c153 0 274 -23 274 -166c0 -119 -79 -170 -219 -183c16 -64 58 -74 119 -69l56 -179c12 -36 19 -60 52 -60c32 0 36 26 39 93l24 -1c-1 -75 -4 -145 -109 -145c-89 0 -112 42 -132 104zM243 671v-296h16
c130 0 177 44 177 154c0 114 -47 142 -167 142h-26zM232 747l138 149l24 -6c25 -7 37 -19 37 -38c0 -21 -16 -33 -36 -43l-152 -76z" />
    <glyph glyph-name="Rcommaaccent.alt" horiz-adv-x="667" 
d="M325 347h-82v-318h95v-29h-302v29h80v642h-80v29h265c153 0 274 -23 274 -166c0 -119 -79 -170 -219 -183c16 -64 58 -74 119 -69l56 -179c12 -36 19 -60 52 -60c32 0 36 26 39 93l24 -1c-1 -75 -4 -145 -109 -145c-89 0 -112 42 -132 104zM243 671v-296h16
c130 0 177 44 177 154c0 114 -47 142 -167 142h-26zM334 -274l-16 18c51 43 59 65 59 90c0 16 -7 27 -17 30l-23 -24c-17 6 -36 21 -36 49c0 31 24 51 53 51c45 0 67 -35 67 -74c0 -48 -26 -93 -87 -140z" />
    <glyph glyph-name="Rcaron.alt" horiz-adv-x="667" 
d="M325 347h-82v-318h95v-29h-302v29h80v642h-80v29h265c153 0 274 -23 274 -166c0 -119 -79 -170 -219 -183c16 -64 58 -74 119 -69l56 -179c12 -36 19 -60 52 -60c32 0 36 26 39 93l24 -1c-1 -75 -4 -145 -109 -145c-89 0 -112 42 -132 104zM243 671v-296h16
c130 0 177 44 177 154c0 114 -47 142 -167 142h-26zM479 884l-124 -135c-9 -6 -22 -11 -37 -11c-18 0 -30 11 -46 30l-97 115l11 14l139 -82l143 83z" />
    <glyph glyph-name="Sacute" unicode="&#x15a;" horiz-adv-x="574" 
d="M293 21c95 0 164 53 164 133c0 95 -72 115 -199 148c-118 31 -192 69 -192 202c0 104 72 207 215 207c82 0 130 -31 161 -31c15 0 19 7 26 20h15l7 -202h-22c-35 117 -80 182 -192 182c-88 0 -138 -49 -138 -117c0 -78 73 -104 165 -129c110 -29 223 -61 223 -216
c0 -132 -85 -228 -233 -228c-94 0 -154 30 -183 30c-15 0 -19 -11 -27 -30h-17l-10 230h23c34 -119 94 -199 214 -199zM204 747l138 149l24 -6c25 -7 37 -19 37 -38c0 -21 -16 -33 -36 -43l-152 -76z" />
    <glyph glyph-name="sacute" unicode="&#x15b;" horiz-adv-x="435" 
d="M39 -10v169h25c14 -96 84 -137 164 -137c81 0 114 32 114 82c0 59 -58 71 -128 85c-80 16 -168 35 -168 142c0 87 66 155 168 155c42 0 68 -9 98 -23c8 -3 20 -7 28 -7c11 0 15 10 17 32h22v-149h-24c-22 80 -71 119 -140 119c-63 0 -104 -26 -104 -71
c0 -57 60 -67 127 -81c80 -16 168 -38 168 -156c0 -96 -66 -160 -178 -160c-55 0 -95 14 -130 33c-6 4 -12 6 -16 6c-10 0 -15 -8 -21 -39h-22zM160 548l70 187l27 5c5 1 10 2 14 2c22 0 36 -12 36 -34c0 -15 -8 -28 -22 -44l-110 -124z" />
    <glyph glyph-name="Scircumflex" unicode="&#x15c;" horiz-adv-x="574" 
d="M293 21c95 0 164 53 164 133c0 95 -72 115 -199 148c-118 31 -192 69 -192 202c0 104 72 207 215 207c82 0 130 -31 161 -31c15 0 19 7 26 20h15l7 -202h-22c-35 117 -80 182 -192 182c-88 0 -138 -49 -138 -117c0 -78 73 -104 165 -129c110 -29 223 -61 223 -216
c0 -132 -85 -228 -233 -228c-94 0 -154 30 -183 30c-15 0 -19 -11 -27 -30h-17l-10 230h23c34 -119 94 -199 214 -199zM139 743l125 135c9 6 22 12 37 12c18 0 29 -11 45 -31l97 -114l-10 -15l-140 83l-142 -83z" />
    <glyph glyph-name="scircumflex" unicode="&#x15d;" horiz-adv-x="435" 
d="M39 -10v169h25c14 -96 84 -137 164 -137c81 0 114 32 114 82c0 59 -58 71 -128 85c-80 16 -168 35 -168 142c0 87 66 155 168 155c42 0 68 -9 98 -23c8 -3 20 -7 28 -7c11 0 15 10 17 32h22v-149h-24c-22 80 -71 119 -140 119c-63 0 -104 -26 -104 -71
c0 -57 60 -67 127 -81c80 -16 168 -38 168 -156c0 -96 -66 -160 -178 -160c-55 0 -95 14 -130 33c-6 4 -12 6 -16 6c-10 0 -15 -8 -21 -39h-22zM86 547l104 177c9 5 23 11 39 11c17 0 32 -8 43 -31l81 -156l-13 -9l-122 115l-120 -116z" />
    <glyph glyph-name="Scedilla" unicode="&#x15e;" horiz-adv-x="574" 
d="M293 21c95 0 164 53 164 133c0 95 -72 115 -199 148c-118 31 -192 69 -192 202c0 104 72 207 215 207c82 0 130 -31 161 -31c15 0 19 7 26 20h15l7 -202h-22c-35 117 -80 182 -192 182c-88 0 -138 -49 -138 -117c0 -78 73 -104 165 -129c110 -29 223 -61 223 -216
c0 -130 -82 -225 -226 -228l-26 -45c7 1 19 2 26 2c58 0 87 -33 87 -80c0 -46 -36 -92 -113 -92c-52 0 -87 28 -87 60c0 23 16 33 32 33c15 0 30 -10 35 -27l-19 -17c0 -16 11 -31 37 -31c25 0 45 13 45 66c0 44 -11 66 -45 66c-9 0 -18 -1 -30 -4l-3 12l34 58
c-83 4 -136 29 -163 29c-15 0 -19 -11 -27 -30h-17l-10 230h23c34 -119 94 -199 214 -199z" />
    <glyph glyph-name="scedilla" unicode="&#x15f;" horiz-adv-x="435" 
d="M39 -10v169h25c14 -96 84 -137 164 -137c81 0 114 32 114 82c0 59 -58 71 -128 85c-80 16 -168 35 -168 142c0 87 66 155 168 155c42 0 68 -9 98 -23c8 -3 20 -7 28 -7c11 0 15 10 17 32h22v-149h-24c-22 80 -71 119 -140 119c-63 0 -104 -26 -104 -71
c0 -57 60 -67 127 -81c80 -16 168 -38 168 -156c0 -95 -65 -158 -175 -160l-26 -45c7 1 19 2 26 2c58 0 87 -33 87 -80c0 -46 -36 -92 -113 -92c-52 0 -87 28 -87 60c0 23 16 33 32 33c15 0 30 -10 35 -27l-19 -17c0 -16 11 -31 37 -31c25 0 45 13 45 66c0 44 -11 66 -45 66
c-9 0 -18 -1 -30 -4l-3 12l34 58c-43 4 -77 16 -106 32c-6 4 -12 6 -16 6c-10 0 -15 -8 -21 -39h-22z" />
    <glyph glyph-name="Scaron" unicode="&#x160;" horiz-adv-x="574" 
d="M293 21c95 0 164 53 164 133c0 95 -72 115 -199 148c-118 31 -192 69 -192 202c0 104 72 207 215 207c82 0 130 -31 161 -31c15 0 19 7 26 20h15l7 -202h-22c-35 117 -80 182 -192 182c-88 0 -138 -49 -138 -117c0 -78 73 -104 165 -129c110 -29 223 -61 223 -216
c0 -132 -85 -228 -233 -228c-94 0 -154 30 -183 30c-15 0 -19 -11 -27 -30h-17l-10 230h23c34 -119 94 -199 214 -199zM439 884l-124 -135c-9 -6 -22 -11 -37 -11c-18 0 -30 11 -46 30l-97 115l11 14l139 -82l143 83z" />
    <glyph glyph-name="scaron" unicode="&#x161;" horiz-adv-x="435" 
d="M39 -10v169h25c14 -96 84 -137 164 -137c81 0 114 32 114 82c0 59 -58 71 -128 85c-80 16 -168 35 -168 142c0 87 66 155 168 155c42 0 68 -9 98 -23c8 -3 20 -7 28 -7c11 0 15 10 17 32h22v-149h-24c-22 80 -71 119 -140 119c-63 0 -104 -26 -104 -71
c0 -57 60 -67 127 -81c80 -16 168 -38 168 -156c0 -96 -66 -160 -178 -160c-55 0 -95 14 -130 33c-6 4 -12 6 -16 6c-10 0 -15 -8 -21 -39h-22zM184 558l-99 177l13 9l128 -116l116 115l13 -9l-89 -156c-12 -22 -26 -31 -44 -31c-16 0 -29 6 -38 11z" />
    <glyph glyph-name="Scommaaccent" unicode="&#x218;" horiz-adv-x="574" 
d="M293 21c95 0 164 53 164 133c0 95 -72 115 -199 148c-118 31 -192 69 -192 202c0 104 72 207 215 207c82 0 130 -31 161 -31c15 0 19 7 26 20h15l7 -202h-22c-35 117 -80 182 -192 182c-88 0 -138 -49 -138 -117c0 -78 73 -104 165 -129c110 -29 223 -61 223 -216
c0 -132 -85 -228 -233 -228c-94 0 -154 30 -183 30c-15 0 -19 -11 -27 -30h-17l-10 230h23c34 -119 94 -199 214 -199zM261 -274l-16 18c51 43 59 65 59 90c0 16 -7 27 -17 30l-23 -24c-17 6 -36 21 -36 49c0 31 24 51 53 51c45 0 67 -35 67 -74c0 -48 -26 -93 -87 -140z
" />
    <glyph glyph-name="scommaaccent" unicode="&#x219;" horiz-adv-x="435" 
d="M39 -10v169h25c14 -96 84 -137 164 -137c81 0 114 32 114 82c0 59 -58 71 -128 85c-80 16 -168 35 -168 142c0 87 66 155 168 155c42 0 68 -9 98 -23c8 -3 20 -7 28 -7c11 0 15 10 17 32h22v-149h-24c-22 80 -71 119 -140 119c-63 0 -104 -26 -104 -71
c0 -57 60 -67 127 -81c80 -16 168 -38 168 -156c0 -96 -66 -160 -178 -160c-55 0 -95 14 -130 33c-6 4 -12 6 -16 6c-10 0 -15 -8 -21 -39h-22zM198 -274l-16 18c51 43 59 65 59 90c0 16 -7 27 -17 30l-23 -24c-17 6 -36 21 -36 49c0 31 24 51 53 51c45 0 67 -35 67 -74
c0 -48 -26 -93 -87 -140z" />
    <glyph glyph-name="uni0162" unicode="&#x162;" horiz-adv-x="643" 
d="M605 700l10 -213h-24c-32 162 -79 184 -193 184h-12v-642h92v-29h-141l-32 -55c7 1 19 2 26 2c58 0 87 -33 87 -80c0 -46 -36 -92 -113 -92c-52 0 -87 28 -87 60c0 23 16 33 32 33c15 0 30 -10 35 -27l-19 -17c0 -16 11 -31 37 -31c25 0 45 13 45 66c0 44 -11 66 -45 66
c-9 0 -18 -1 -30 -4l-3 12l39 67h-143v29h92v642h-13c-114 0 -161 -24 -193 -184h-24l10 213h567z" />
    <glyph glyph-name="uni0163" unicode="&#x163;" horiz-adv-x="386" 
d="M84 117v333h-70v26h70v129l118 31v-160h138v-26h-138v-328c0 -59 14 -85 61 -85c52 0 77 38 86 106l24 -3c-9 -77 -38 -147 -145 -150l-26 -45c7 1 19 2 26 2c58 0 87 -33 87 -80c0 -46 -36 -92 -113 -92c-52 0 -87 28 -87 60c0 23 16 33 32 33c15 0 30 -10 35 -27
l-19 -17c0 -16 11 -31 37 -31c25 0 45 13 45 66c0 44 -11 66 -45 66c-9 0 -18 -1 -30 -4l-3 12l34 58c-70 5 -117 37 -117 126z" />
    <glyph glyph-name="Tcaron" unicode="&#x164;" horiz-adv-x="643" 
d="M605 700l10 -213h-24c-32 162 -79 184 -193 184h-12v-642h92v-29h-312v29h92v642h-13c-114 0 -161 -24 -193 -184h-24l10 213h567zM478 884l-124 -135c-9 -6 -22 -11 -37 -11c-18 0 -30 11 -46 30l-97 115l11 14l139 -82l143 83z" />
    <glyph glyph-name="tcaron" unicode="&#x165;" horiz-adv-x="386" 
d="M84 117v333h-70v26h70v129l118 31v-160h138v-26h-138v-328c0 -59 14 -85 61 -85c52 0 77 38 86 106l24 -3c-9 -78 -39 -150 -150 -150c-81 0 -139 29 -139 127zM259 527l-16 17c36 34 51 65 51 92c0 33 -20 52 -49 72l20 25c11 13 24 21 41 21c37 0 54 -35 54 -70
c0 -53 -37 -107 -101 -157z" />
    <glyph glyph-name="Tbar" unicode="&#x166;" horiz-adv-x="643" 
d="M605 700l10 -213h-24c-32 162 -79 184 -193 184h-12v-288h164v-29h-164v-325h92v-29h-312v29h92v325h-165v29h165v288h-13c-114 0 -161 -24 -193 -184h-24l10 213h567z" />
    <glyph glyph-name="tbar" unicode="&#x167;" horiz-adv-x="386" 
d="M84 117v165h-69v26h69v142h-70v26h70v129l118 31v-160h138v-26h-138v-142h137v-26h-137v-160c0 -59 14 -85 61 -85c52 0 77 38 86 106l24 -3c-9 -78 -39 -150 -150 -150c-81 0 -139 29 -139 127z" />
    <glyph glyph-name="uni021A" unicode="&#x21a;" horiz-adv-x="643" 
d="M605 700l10 -213h-24c-32 162 -79 184 -193 184h-12v-642h92v-29h-312v29h92v642h-13c-114 0 -161 -24 -193 -184h-24l10 213h567zM295 -274l-16 18c51 43 59 65 59 90c0 16 -7 27 -17 30l-23 -24c-17 6 -36 21 -36 49c0 31 24 51 53 51c45 0 67 -35 67 -74
c0 -48 -26 -93 -87 -140z" />
    <glyph glyph-name="uni021B" unicode="&#x21b;" horiz-adv-x="386" 
d="M84 117v333h-70v26h70v129l118 31v-160h138v-26h-138v-328c0 -59 14 -85 61 -85c52 0 77 38 86 106l24 -3c-9 -78 -39 -150 -150 -150c-81 0 -139 29 -139 127zM189 -274l-16 18c51 43 59 65 59 90c0 16 -7 27 -17 30l-23 -24c-17 6 -36 21 -36 49c0 31 24 51 53 51
c45 0 67 -35 67 -74c0 -48 -26 -93 -87 -140z" />
    <glyph glyph-name="Utilde" unicode="&#x168;" horiz-adv-x="703" 
d="M390 26c-129 0 -161 84 -161 188v457h72v29h-269v-29h70v-444c0 -178 100 -237 258 -237c185 0 244 91 244 241v440h69v29h-177v-29h71v-451c0 -129 -68 -194 -177 -194zM440 769c-34 0 -63 12 -90 23c-22 9 -43 17 -62 17c-16 0 -36 -7 -51 -43l-19 6
c17 60 44 108 108 108c31 0 53 -12 82 -24c21 -8 42 -16 61 -16c22 0 38 7 52 42l20 -5c-20 -76 -57 -108 -101 -108z" />
    <glyph glyph-name="utilde" unicode="&#x169;" horiz-adv-x="604" 
d="M585 0h-179l-7 87c-23 -48 -69 -97 -163 -97c-92 0 -151 46 -151 167v293h-71v26h189v-332c0 -77 14 -114 72 -114c64 0 121 70 121 144v276h-69v26h187v-450h71v-26zM353 580c-34 0 -63 12 -90 23c-22 9 -43 17 -62 17c-16 0 -36 -7 -51 -43l-19 6c17 61 44 108 108 108
c31 0 53 -12 82 -24c21 -8 42 -16 61 -16c22 0 38 7 52 43l20 -5c-20 -77 -57 -109 -101 -109z" />
    <glyph glyph-name="Umacron" unicode="&#x16a;" horiz-adv-x="703" 
d="M390 26c-129 0 -161 84 -161 188v457h72v29h-269v-29h70v-444c0 -178 100 -237 258 -237c185 0 244 91 244 241v440h69v29h-177v-29h71v-451c0 -129 -68 -194 -177 -194zM239 777v57h272v-57h-272z" />
    <glyph glyph-name="umacron" unicode="&#x16b;" horiz-adv-x="604" 
d="M585 0h-179l-7 87c-23 -48 -69 -97 -163 -97c-92 0 -151 46 -151 167v293h-71v26h189v-332c0 -77 14 -114 72 -114c64 0 121 70 121 144v276h-69v26h187v-450h71v-26zM147 591v59h272v-59h-272z" />
    <glyph glyph-name="Ubreve" unicode="&#x16c;" horiz-adv-x="703" 
d="M390 26c109 0 177 65 177 194v451h-71v29h177v-29h-69v-440c0 -150 -59 -241 -244 -241c-158 0 -258 59 -258 237v444h-70v29h269v-29h-72v-457c0 -104 32 -188 161 -188zM233 873l22 4c19 -43 48 -66 123 -66c76 0 103 21 120 66l21 -4c-7 -65 -44 -130 -145 -130
c-102 0 -133 64 -141 130z" />
    <glyph glyph-name="ubreve" unicode="&#x16d;" horiz-adv-x="604" 
d="M585 0h-179l-7 87c-23 -48 -69 -97 -163 -97c-92 0 -151 46 -151 167v293h-71v26h189v-332c0 -77 14 -114 72 -114c64 0 121 70 121 144v276h-69v26h187v-450h71v-26zM140 695l21 4c19 -56 49 -83 125 -83c77 0 104 23 121 83l21 -4c-7 -76 -44 -150 -146 -150
c-103 0 -134 73 -142 150z" />
    <glyph glyph-name="Uring" unicode="&#x16e;" horiz-adv-x="703" 
d="M390 26c-129 0 -161 84 -161 188v457h72v29h-269v-29h70v-444c0 -178 100 -237 258 -237c185 0 244 91 244 241v440h69v29h-177v-29h71v-451c0 -129 -68 -194 -177 -194zM321 831c0 -29 15 -57 55 -57c36 0 53 26 53 57c0 30 -18 57 -55 57c-35 0 -53 -28 -53 -57z
M284 831c0 47 30 86 93 86c59 0 89 -35 89 -84c0 -52 -32 -89 -91 -89c-64 0 -91 36 -91 87z" />
    <glyph glyph-name="uring" unicode="&#x16f;" horiz-adv-x="604" 
d="M585 0h-179l-7 87c-23 -48 -69 -97 -163 -97c-92 0 -151 46 -151 167v293h-71v26h189v-332c0 -77 14 -114 72 -114c64 0 121 70 121 144v276h-69v26h187v-450h71v-26zM228 644c0 -30 15 -58 56 -58c37 0 54 26 54 58c0 31 -18 58 -56 58c-36 0 -54 -28 -54 -58zM192 644
c0 47 30 86 93 86c59 0 89 -35 89 -84c0 -52 -32 -89 -91 -89c-64 0 -91 36 -91 87z" />
    <glyph glyph-name="Uhungarumlaut" unicode="&#x170;" horiz-adv-x="703" 
d="M390 26c-129 0 -161 84 -161 188v457h72v29h-269v-29h70v-444c0 -178 100 -237 258 -237c185 0 244 91 244 241v440h69v29h-177v-29h71v-451c0 -129 -68 -194 -177 -194zM258 747l106 172h23c21 -1 44 -11 44 -37c0 -16 -10 -28 -27 -41l-132 -106zM395 748l115 165
l21 -1c20 -3 43 -13 43 -37c0 -18 -12 -30 -29 -42l-136 -98z" />
    <glyph glyph-name="uhungarumlaut" unicode="&#x171;" horiz-adv-x="604" 
d="M585 0h-179l-7 87c-23 -48 -69 -97 -163 -97c-92 0 -151 46 -151 167v293h-71v26h189v-332c0 -77 14 -114 72 -114c64 0 121 70 121 144v276h-69v26h187v-450h71v-26zM328 550l70 187l27 6c5 1 10 1 14 1c21 0 34 -12 34 -34c0 -15 -8 -28 -22 -43l-108 -125zM186 550
l70 187l27 6c5 1 10 1 14 1c21 0 34 -12 34 -34c0 -15 -8 -28 -22 -43l-108 -125z" />
    <glyph glyph-name="Uogonek" unicode="&#x172;" horiz-adv-x="703" 
d="M390 26c109 0 177 65 177 194v451h-71v29h177v-29h-69v-440c0 -108 -32 -172 -112 -219c-51 -29 -79 -80 -79 -142c0 -31 12 -51 40 -51c25 0 38 14 58 40l15 -10c-16 -28 -43 -70 -106 -70c-59 0 -92 29 -92 77c0 56 49 99 108 141c-21 -3 -52 -7 -76 -7
c-158 0 -258 59 -258 237v444h-70v29h269v-29h-72v-457c0 -104 32 -188 161 -188z" />
    <glyph glyph-name="uogonek" unicode="&#x173;" horiz-adv-x="604" 
d="M585 0h-60c-44 -35 -72 -70 -72 -130c0 -31 12 -51 40 -51c25 0 38 14 58 40l15 -10c-16 -28 -43 -70 -106 -70c-59 0 -92 29 -92 77c0 63 60 107 119 144h-81l-7 87c-23 -48 -69 -97 -163 -97c-92 0 -151 46 -151 167v293h-71v26h189v-332c0 -77 14 -114 72 -114
c64 0 121 70 121 144v276h-69v26h187v-450h71v-26z" />
    <glyph glyph-name="Wcircumflex" unicode="&#x174;" horiz-adv-x="1007" 
d="M363 164l135 339l-61 168h-66v29h288v-29h-87l176 -496l152 496h-100v29h205v-29h-66l-214 -676h-41l-167 456l-180 -456h-40l-232 676h-64v29h292v-29h-90zM361 743l125 135c9 6 22 12 37 12c18 0 29 -11 45 -31l97 -114l-10 -15l-140 83l-142 -83z" />
    <glyph glyph-name="wcircumflex" unicode="&#x175;" horiz-adv-x="774" 
d="M302 476v-26h47l31 -87l-94 -245l-114 332h64v26h-236v-26h45l173 -457h52l129 328l126 -328h52l148 457h49v26h-161v-26h76l-100 -327l-122 327h58v26h-223zM280 547l104 177c9 5 23 11 39 11c17 0 32 -8 43 -31l81 -156l-13 -9l-122 115l-120 -116z" />
    <glyph glyph-name="Wgrave" unicode="&#x1e80;" horiz-adv-x="1007" 
d="M363 164l135 339l-61 168h-66v29h288v-29h-87l176 -496l152 496h-100v29h205v-29h-66l-214 -676h-41l-167 456l-180 -456h-40l-232 676h-64v29h292v-29h-90zM461 896l138 -149l-11 -14l-152 76c-20 10 -36 22 -36 43c0 19 12 31 37 38z" />
    <glyph glyph-name="wgrave" unicode="&#x1e81;" horiz-adv-x="774" 
d="M302 476v-26h47l31 -87l-94 -245l-114 332h64v26h-236v-26h45l173 -457h52l129 328l126 -328h52l148 457h49v26h-161v-26h76l-100 -327l-122 327h58v26h-223zM402 735l70 -187l-15 -8l-110 124c-14 16 -22 29 -22 44c0 22 14 34 35 34c5 0 10 -1 14 -2z" />
    <glyph glyph-name="Wacute" unicode="&#x1e82;" horiz-adv-x="1007" 
d="M363 164l135 339l-61 168h-66v29h288v-29h-87l176 -496l152 496h-100v29h205v-29h-66l-214 -676h-41l-167 456l-180 -456h-40l-232 676h-64v29h292v-29h-90zM436 747l138 149l24 -6c25 -7 37 -19 37 -38c0 -21 -16 -33 -36 -43l-152 -76z" />
    <glyph glyph-name="wacute" unicode="&#x1e83;" horiz-adv-x="774" 
d="M302 476v-26h47l31 -87l-94 -245l-114 332h64v26h-236v-26h45l173 -457h52l129 328l126 -328h52l148 457h49v26h-161v-26h76l-100 -327l-122 327h58v26h-223zM354 548l70 187l27 5c5 1 10 2 14 2c22 0 36 -12 36 -34c0 -15 -8 -28 -22 -44l-110 -124z" />
    <glyph glyph-name="Wdieresis" unicode="&#x1e84;" horiz-adv-x="1007" 
d="M363 164l135 339l-61 168h-66v29h288v-29h-87l176 -496l152 496h-100v29h205v-29h-66l-214 -676h-41l-167 456l-180 -456h-40l-232 676h-64v29h292v-29h-90zM553 815c0 31 20 58 58 58c34 0 60 -18 60 -58c0 -35 -20 -60 -59 -60c-45 0 -59 31 -59 60zM356 815
c0 31 21 58 59 58c34 0 60 -18 60 -58c0 -35 -20 -60 -59 -60c-44 0 -60 31 -60 60z" />
    <glyph glyph-name="wdieresis" unicode="&#x1e85;" horiz-adv-x="774" 
d="M302 450v26h223v-26h-58l122 -327l100 327h-76v26h161v-26h-49l-148 -457h-52l-126 328l-129 -328h-52l-173 457h-45v26h236v-26h-64l114 -332l94 245l-31 87h-47zM451 628c0 30 20 58 58 58c34 0 60 -18 60 -58c0 -35 -20 -60 -59 -60c-45 0 -59 30 -59 60zM256 628
c0 30 21 58 59 58c34 0 60 -18 60 -58c0 -35 -21 -60 -59 -60c-45 0 -60 30 -60 60z" />
    <glyph glyph-name="Ygrave" unicode="&#x1ef2;" horiz-adv-x="617" 
d="M355 367l154 304h-98v29h204v-29h-68l-174 -341v-301h79v-29h-285v29h79v297l-180 345h-65v29h290v-29h-85zM269 896l138 -149l-11 -14l-152 76c-20 10 -36 22 -36 43c0 19 12 31 37 38z" />
    <glyph glyph-name="ygrave" unicode="&#x1ef3;" horiz-adv-x="508" 
d="M2 476v-26h45l182 -451h20l-22 -61c-36 -102 -66 -160 -122 -160c-26 0 -38 11 -38 28c0 6 2 13 5 21h32c4 14 6 26 6 36c0 38 -24 55 -58 55c-36 0 -65 -27 -65 -75c0 -46 34 -93 108 -93c78 0 113 39 162 169l201 531h50v26h-162v-26h74l-122 -337l-125 337h74v26h-245
zM245 735l70 -187l-15 -8l-110 124c-14 16 -22 29 -22 44c0 22 14 34 35 34c5 0 10 -1 14 -2z" />
    <glyph glyph-name="Ycircumflex" unicode="&#x176;" horiz-adv-x="617" 
d="M355 367l154 304h-98v29h204v-29h-68l-174 -341v-301h79v-29h-285v29h79v297l-180 345h-65v29h290v-29h-85zM167 743l125 135c9 6 22 12 37 12c18 0 29 -11 45 -31l97 -114l-10 -15l-140 83l-142 -83z" />
    <glyph glyph-name="ycircumflex" unicode="&#x177;" horiz-adv-x="508" 
d="M2 476v-26h45l182 -451h20l-22 -61c-36 -102 -66 -160 -122 -160c-26 0 -38 11 -38 28c0 6 2 13 5 21h32c4 14 6 26 6 36c0 38 -24 55 -58 55c-36 0 -65 -27 -65 -75c0 -46 34 -93 108 -93c78 0 113 39 162 169l201 531h50v26h-162v-26h74l-122 -337l-125 337h74v26h-245
zM135 547l104 177c9 5 23 11 39 11c17 0 32 -8 43 -31l81 -156l-13 -9l-122 115l-120 -116z" />
    <glyph glyph-name="Ydieresis" unicode="&#x178;" horiz-adv-x="617" 
d="M355 367l154 304h-98v29h204v-29h-68l-174 -341v-301h79v-29h-285v29h79v297l-180 345h-65v29h290v-29h-85zM361 815c0 31 20 58 58 58c34 0 60 -18 60 -58c0 -35 -20 -60 -59 -60c-45 0 -59 31 -59 60zM164 815c0 31 21 58 59 58c34 0 60 -18 60 -58
c0 -35 -20 -60 -59 -60c-44 0 -60 31 -60 60z" />
    <glyph glyph-name="Zacute" unicode="&#x179;" horiz-adv-x="623" 
d="M551 700v-28l-350 -643h130c125 0 188 55 217 200h24l-12 -229h-508v25l352 646h-118c-116 0 -165 -16 -205 -177h-23l11 206h482zM229 747l138 149l24 -6c25 -7 37 -19 37 -38c0 -21 -16 -33 -36 -43l-152 -76z" />
    <glyph glyph-name="zacute" unicode="&#x17a;" horiz-adv-x="484" 
d="M446 476v-25l-273 -425h110c93 0 120 44 151 150h20l-12 -176h-404v22l278 428h-102c-91 0 -113 -13 -151 -134h-21l11 160h393zM187 548l70 187l27 5c5 1 10 2 14 2c22 0 36 -12 36 -34c0 -15 -8 -28 -22 -44l-110 -124z" />
    <glyph glyph-name="Zdotaccent" unicode="&#x17b;" horiz-adv-x="623" 
d="M551 700v-28l-350 -643h130c125 0 188 55 217 200h24l-12 -229h-508v25l352 646h-118c-116 0 -165 -16 -205 -177h-23l11 206h482zM234 823c0 36 23 68 71 68c41 0 70 -21 70 -68c0 -40 -23 -69 -70 -69c-55 0 -71 36 -71 69z" />
    <glyph glyph-name="zdotaccent" unicode="&#x17c;" horiz-adv-x="484" 
d="M446 476v-25l-273 -425h110c93 0 120 44 151 150h20l-12 -176h-404v22l278 428h-102c-91 0 -113 -13 -151 -134h-21l11 160h393zM174 640c0 36 23 67 71 67c41 0 70 -21 70 -67c0 -40 -23 -69 -70 -69c-55 0 -71 36 -71 69z" />
    <glyph glyph-name="Zcaron" unicode="&#x17d;" horiz-adv-x="623" 
d="M551 700v-28l-350 -643h130c125 0 188 55 217 200h24l-12 -229h-508v25l352 646h-118c-116 0 -165 -16 -205 -177h-23l11 206h482zM464 884l-124 -135c-9 -6 -22 -11 -37 -11c-18 0 -30 11 -46 30l-97 115l11 14l139 -82l143 83z" />
    <glyph glyph-name="zcaron" unicode="&#x17e;" horiz-adv-x="484" 
d="M446 476v-25l-273 -425h110c93 0 120 44 151 150h20l-12 -176h-404v22l278 428h-102c-91 0 -113 -13 -151 -134h-21l11 160h393zM211 558l-99 177l13 9l128 -116l116 115l13 -9l-89 -156c-12 -22 -26 -31 -44 -31c-16 0 -29 6 -38 11z" />
    <glyph glyph-name="longs" unicode="&#x17f;" horiz-adv-x="342" 
d="M290 749c-71 0 -80 -60 -80 -133v-590h120v-26h-309v26h70v424h-73v26h73v45c0 155 56 252 202 252c83 0 136 -43 136 -107c0 -45 -25 -72 -63 -72c-40 0 -64 22 -64 59c0 11 3 24 6 37h30c3 8 3 15 3 22c0 24 -17 37 -51 37z" />
    <glyph glyph-name="dotlessj" unicode="&#x237;" horiz-adv-x="291" 
d="M210 476v-428c0 -159 -52 -298 -193 -298c-87 0 -109 52 -109 94c0 49 31 75 68 75c34 0 56 -19 56 -56c0 -11 -2 -24 -6 -38h-29c-4 -7 -5 -15 -5 -22c0 -17 11 -28 37 -28c57 0 62 56 62 169v506h-77v26h196z" />
    <glyph glyph-name="s_t" unicode="&#xfb06;" horiz-adv-x="811" 
d="M509 117v333h-70v26h70v130c-80 27 -120 115 -200 115c-60 0 -91 -41 -91 -98c0 -67 53 -134 91 -156c10 -6 23 -11 31 -11c11 0 15 10 17 32h22v-149h-24c-22 80 -71 119 -140 119c-63 0 -104 -26 -104 -71c0 -58 63 -68 131 -82c79 -16 164 -40 164 -155
c0 -96 -66 -160 -178 -160c-55 0 -95 14 -130 33c-6 4 -12 6 -16 6c-10 0 -15 -8 -21 -39h-22v169h25c14 -96 84 -137 164 -137c81 0 114 32 114 82c0 58 -58 71 -123 84c-81 17 -173 35 -173 143c0 87 66 155 168 155c14 0 26 -1 37 -3c-30 32 -64 83 -64 140
c0 72 48 125 122 125c94 0 141 -86 203 -112c10 75 57 125 131 125c54 0 92 -23 92 -74c0 -56 -47 -89 -107 -90v-121h137v-26h-137v-328c0 -59 13 -85 61 -85c51 0 77 38 86 106l23 -3c-9 -78 -39 -150 -150 -150c-81 0 -139 29 -139 127zM628 674v-49c41 1 73 23 73 66
c0 29 -17 42 -36 42c-28 0 -37 -24 -37 -59z" />
    <glyph glyph-name="s_p" horiz-adv-x="998" 
d="M620 597v-198c30 51 78 87 156 87c117 0 187 -81 187 -244c0 -168 -74 -252 -204 -252c-71 0 -114 26 -138 62v-264h129v-26h-326v26h79v818c-80 27 -114 113 -194 113c-60 0 -91 -39 -91 -96c0 -67 53 -134 91 -156c10 -6 23 -11 31 -11c11 0 15 10 17 32h22v-149h-24
c-22 80 -71 119 -140 119c-63 0 -104 -26 -104 -71c0 -57 60 -67 127 -81c80 -16 168 -38 168 -156c0 -96 -66 -160 -178 -160c-55 0 -95 14 -130 33c-6 4 -12 6 -16 6c-10 0 -15 -8 -21 -39h-22v169h25c14 -96 84 -137 164 -137c81 0 114 32 114 82c0 59 -58 71 -128 85
c-80 16 -168 35 -168 142c0 87 66 155 168 155c14 0 26 -1 37 -3c-30 32 -64 83 -64 140c0 70 48 125 122 125c94 0 134 -86 196 -112c10 75 57 125 130 125c54 0 92 -23 92 -74c0 -56 -47 -89 -107 -90zM739 445c-57 0 -120 -55 -120 -140v-158c0 -60 42 -125 117 -125
c78 0 101 61 101 217c0 139 -17 206 -98 206zM620 686v-61c41 1 73 23 73 66c0 29 -17 42 -36 42c-28 0 -37 -24 -37 -47z" />
    <glyph glyph-name="s_h" horiz-adv-x="1024" 
d="M39 -10v169h25c14 -96 84 -137 164 -137c81 0 114 32 114 82c0 59 -58 71 -128 85c-80 16 -168 35 -168 142c0 87 66 155 168 155c13 0 25 -1 36 -3c-30 32 -63 83 -63 140c0 70 48 125 122 125c94 0 134 -86 196 -112c10 75 57 125 130 125c54 0 92 -23 92 -74
c0 -56 -47 -89 -107 -90v-213c22 49 70 102 169 102c92 0 150 -46 150 -167v-293h71v-26h-256v26h67v305c0 84 -18 115 -69 115c-70 0 -132 -66 -132 -156v-264h68v-26h-256v26h70v580c-80 28 -114 113 -193 113c-60 0 -91 -39 -91 -96c0 -67 55 -138 94 -158
c8 -4 20 -9 28 -9c11 0 15 10 17 32h22v-149h-24c-22 80 -71 119 -140 119c-63 0 -104 -26 -104 -71c0 -57 60 -67 127 -81c80 -16 168 -38 168 -156c0 -96 -66 -160 -178 -160c-55 0 -95 14 -130 33c-6 4 -12 6 -16 6c-10 0 -15 -8 -21 -39h-22zM620 686v-61
c41 1 73 23 73 66c0 29 -17 42 -36 42c-28 0 -37 -24 -37 -47z" />
    <glyph glyph-name="c_t" horiz-adv-x="860" 
d="M282 462c-87 0 -125 -62 -125 -219c0 -152 37 -216 127 -216c95 0 127 72 138 130l28 -5c-12 -60 -43 -162 -197 -162c-142 0 -223 86 -223 240c0 171 98 256 246 256c7 0 15 -1 22 -1c-30 32 -62 82 -62 138c0 72 48 125 122 125c94 0 141 -86 203 -112
c10 75 57 125 131 125c54 0 92 -23 92 -74c0 -56 -47 -89 -107 -90v-121h137v-26h-137v-328c0 -59 13 -85 61 -85c51 0 77 38 86 106l23 -3c-9 -78 -39 -150 -150 -150c-81 0 -139 29 -139 127v333h-70v26h70v130c-80 27 -120 115 -200 115c-60 0 -91 -41 -91 -98
c0 -58 39 -115 74 -144c69 -16 106 -60 106 -120c0 -54 -28 -78 -67 -78c-38 0 -65 23 -65 66c0 10 1 23 5 37h28c3 9 4 18 4 26c0 31 -21 52 -70 52zM677 674v-49c41 1 73 23 73 66c0 29 -17 42 -36 42c-28 0 -37 -24 -37 -59z" />
    <glyph glyph-name="c_h" horiz-adv-x="1079" 
d="M282 462c-87 0 -125 -62 -125 -219c0 -152 37 -216 127 -216c95 0 127 72 138 130l28 -5c-12 -60 -43 -162 -197 -162c-142 0 -223 86 -223 240c0 171 98 256 246 256c37 0 72 -8 102 -25c-19 46 -46 94 -64 130c-33 -8 -64 -12 -87 -12c-58 0 -109 26 -109 88
c0 51 37 80 85 80c62 0 98 -55 130 -123c111 28 255 86 296 126h46v-366c22 49 70 102 169 102c92 0 150 -46 150 -167v-293h71v-26h-256v26h67v305c0 84 -18 115 -69 115c-70 0 -132 -66 -132 -156v-264h68v-26h-256v26h70v649c-59 -28 -138 -57 -211 -76
c21 -40 54 -101 75 -150c14 -32 26 -63 26 -92c0 -42 -22 -76 -67 -76s-65 29 -65 66c0 10 1 23 5 37h28c3 9 4 18 4 26c0 31 -21 52 -70 52zM300 617c-20 39 -46 101 -99 101c-28 0 -49 -18 -49 -47c0 -43 34 -63 79 -63c18 0 42 3 69 9z" />
    <glyph glyph-name="c_k" horiz-adv-x="1045" 
d="M795 0v26h64l-143 223l-40 -9v-214h60v-26h-249v26h70v649c-59 -28 -138 -57 -211 -76c21 -40 54 -101 75 -150c14 -32 26 -63 26 -92c0 -52 -28 -76 -67 -76c-38 0 -65 23 -65 66c0 10 1 23 5 37h28c3 9 4 18 4 26c0 31 -21 52 -70 52c-87 0 -125 -62 -125 -219
c0 -152 37 -216 127 -216c95 0 127 72 138 130l28 -5c-12 -60 -43 -162 -197 -162c-142 0 -223 86 -223 240c0 171 98 256 246 256c37 0 72 -8 102 -25c-19 46 -46 94 -64 130c-33 -8 -64 -12 -87 -12c-58 0 -109 26 -109 88c0 51 37 80 85 80c62 0 98 -55 130 -123
c111 28 255 86 296 126h47v-479l32 7l192 172h-86v26h201v-26h-69l-143 -130l190 -294h47v-26h-245zM300 617c-20 39 -46 101 -99 101c-28 0 -49 -18 -49 -47c0 -43 34 -63 79 -63c18 0 42 3 69 9z" />
    <glyph glyph-name="t_t" horiz-adv-x="760" 
d="M458 117v333h-225v-328c0 -59 14 -85 61 -85c52 0 77 38 86 106l24 -3c-9 -78 -39 -150 -150 -150c-81 0 -139 29 -139 127v333h-70v26h70v131c-60 1 -101 26 -101 82c0 51 43 76 95 76c69 0 110 -38 121 -119c69 22 122 102 217 102c73 0 129 -42 129 -142v-130h138v-26
h-138v-328c0 -59 14 -85 61 -85c52 0 77 38 86 106l24 -3c-9 -78 -39 -150 -150 -150c-81 0 -139 29 -139 127zM233 616v-140h225v132c0 76 -1 107 -38 107c-52 0 -109 -75 -187 -99zM116 635v51c0 23 -3 51 -31 51c-19 0 -37 -15 -37 -44c0 -43 27 -57 68 -58z" />
    <glyph glyph-name="T_h" horiz-adv-x="1160" 
d="M21 487l10 213h610c7 66 57 125 134 125c50 0 87 -22 87 -73c0 -56 -46 -82 -106 -83v-285c22 49 70 102 169 102c92 0 150 -46 150 -167v-293h71v-26h-256v26h67v305c0 60 -5 115 -70 115c-69 0 -131 -66 -131 -156v-264h68v-26h-256v26h70v645h-259v-642h93v-29h-313
v29h93v642h-14c-113 0 -160 -24 -192 -184h-25zM756 739v-40c41 1 72 13 72 56c0 29 -16 42 -35 42c-28 0 -37 -24 -37 -58z" />
    <glyph glyph-name="g_i" horiz-adv-x="803" 
d="M416 323c0 -106 -71 -170 -183 -170c-26 0 -53 3 -73 7c-37 -24 -48 -44 -48 -56c0 -10 9 -15 43 -15h119c114 0 206 -25 206 -151c0 -109 -74 -188 -270 -188c-141 0 -211 43 -211 115c0 53 41 72 75 80l34 -23c-7 -17 -10 -37 -10 -51c0 -53 34 -95 132 -95
c123 0 186 50 186 122c0 60 -40 82 -141 82h-111c-83 0 -113 33 -113 74c0 40 20 69 81 114c-66 25 -93 76 -93 149c0 88 59 169 197 169c38 0 72 -9 101 -26c113 216 198 256 271 256c64 0 104 -37 104 -89c0 -44 -29 -70 -68 -70c-42 0 -66 27 -69 58l35 28
c7 24 -12 36 -31 36c-32 0 -101 -20 -218 -235c34 -28 55 -65 55 -121zM153 318c0 -109 27 -139 78 -139c44 0 73 27 73 140c0 110 -24 143 -74 143c-47 0 -77 -29 -77 -144zM528 476h186v-450h71v-26h-259v26h70v424h-68v26z" />
    <glyph glyph-name="v_i" horiz-adv-x="814" 
d="M0 450v26h250v-26h-76l125 -329c49 135 89 250 135 372c68 181 110 223 188 223c64 0 101 -37 101 -89c0 -44 -29 -70 -68 -70c-42 0 -66 27 -69 58l35 28c7 24 -12 36 -31 36c-31 0 -67 -50 -119 -186c-64 -167 -124 -333 -184 -500h-51l-191 457h-45zM537 476h189v-450
h71v-26h-259v26h70v424h-71v26z" />
    <glyph glyph-name="w_i" horiz-adv-x="1079" 
d="M302 450v26h223v-26h-58l122 -327c41 150 66 248 108 370c63 183 116 223 194 223c64 0 102 -37 102 -89c0 -44 -29 -70 -68 -70c-42 0 -66 27 -69 58l35 28c1 3 1 7 1 10c0 17 -16 26 -32 26c-31 0 -79 -48 -126 -186c-58 -168 -99 -320 -147 -500h-62l-126 328
l-129 -328h-52l-173 457h-45v26h236v-26h-64l114 -332l94 245l-31 87h-47zM802 476h189v-450h71v-26h-259v26h70v424h-71v26z" />
    <glyph glyph-name="y_i" horiz-adv-x="808" 
d="M2 450v26h245v-26h-74l125 -340c46 129 93 258 138 383c63 174 102 223 186 223c64 0 101 -37 101 -89c0 -44 -29 -70 -68 -70c-42 0 -66 27 -69 58l35 28c7 24 -12 36 -31 36c-38 0 -67 -50 -119 -186c-67 -175 -142 -383 -214 -574c-49 -130 -84 -169 -162 -169
c-74 0 -108 47 -108 93c0 48 29 75 65 75c34 0 58 -17 58 -55c0 -10 -2 -22 -6 -36h-32c-3 -8 -5 -15 -5 -21c0 -17 12 -28 38 -28c56 0 86 58 122 160l22 61h-20l-182 451h-45zM531 476h189v-450h71v-26h-259v26h70v424h-71v26z" />
    <glyph glyph-name="circumflex" unicode="&#x2c6;" horiz-adv-x="500" 
d="M118 547l104 177c9 5 23 11 39 11c17 0 32 -8 43 -31l81 -156l-13 -9l-122 115l-120 -116z" />
    <glyph glyph-name="caron" unicode="&#x2c7;" horiz-adv-x="500" 
d="M214 558l-99 177l13 9l128 -116l116 115l13 -9l-89 -156c-12 -22 -26 -31 -44 -31c-16 0 -29 6 -38 11z" />
    <glyph glyph-name="uni02C9" unicode="&#x2c9;" horiz-adv-x="500" 
d="M114 591v59h272v-59h-272z" />
    <glyph glyph-name="breve" unicode="&#x2d8;" horiz-adv-x="500" 
d="M106 695l21 4c19 -56 49 -83 125 -83c77 0 104 23 121 83l21 -4c-7 -76 -44 -150 -146 -150c-103 0 -134 73 -142 150z" />
    <glyph glyph-name="dieresis" unicode="&#xa8;" horiz-adv-x="500" 
d="M293 628c0 30 20 58 58 58c34 0 60 -18 60 -58c0 -35 -20 -60 -59 -60c-45 0 -59 30 -59 60zM98 628c0 30 21 58 59 58c34 0 60 -18 60 -58c0 -35 -21 -60 -59 -60c-45 0 -60 30 -60 60z" />
    <glyph glyph-name="macron" unicode="&#xaf;" horiz-adv-x="500" 
d="M114 591v59h272v-59h-272z" />
    <glyph glyph-name="degree" unicode="&#xb0;" horiz-adv-x="278" 
d="M73 590c0 -42 20 -72 67 -72c43 0 65 30 65 72c0 44 -23 71 -67 71c-43 0 -65 -29 -65 -71zM34 590c0 54 37 101 107 101c67 0 103 -40 103 -99c0 -57 -37 -104 -105 -104c-72 0 -105 44 -105 102z" />
    <glyph glyph-name="acute" unicode="&#xb4;" horiz-adv-x="500" 
d="M172 548l70 187l27 5c5 1 10 2 14 2c22 0 36 -12 36 -34c0 -15 -8 -28 -22 -44l-110 -124z" />
    <glyph glyph-name="grave" unicode="`" horiz-adv-x="500" 
d="M244 735l70 -187l-15 -8l-110 124c-14 16 -22 29 -22 44c0 22 14 34 35 34c5 0 10 -1 14 -2z" />
    <glyph glyph-name="cedilla" unicode="&#xb8;" horiz-adv-x="500" 
d="M244 13h28l-40 -68c7 1 19 2 26 2c58 0 87 -33 87 -80c0 -46 -36 -92 -113 -92c-52 0 -87 28 -87 60c0 23 16 33 32 33c15 0 30 -10 35 -27l-19 -17c0 -16 11 -31 37 -31c25 0 45 13 45 66c0 44 -11 66 -45 66c-9 0 -18 -1 -30 -4l-3 12z" />
    <glyph glyph-name="dotaccent" unicode="&#x2d9;" horiz-adv-x="500" 
d="M178 640c0 36 23 67 71 67c41 0 70 -21 70 -67c0 -40 -23 -69 -70 -69c-55 0 -71 36 -71 69z" />
    <glyph glyph-name="ring" unicode="&#x2da;" horiz-adv-x="500" 
d="M195 644c0 -30 15 -58 56 -58c37 0 54 26 54 58c0 31 -18 58 -56 58c-36 0 -54 -28 -54 -58zM159 644c0 47 30 86 93 86c59 0 89 -35 89 -84c0 -52 -32 -89 -91 -89c-64 0 -91 36 -91 87z" />
    <glyph glyph-name="ogonek" unicode="&#x2db;" horiz-adv-x="500" 
d="M281 12l18 -1l7 -6c-48 -37 -79 -72 -79 -135c0 -31 12 -51 40 -51c25 0 38 14 58 40l15 -10c-16 -28 -43 -70 -106 -70c-59 0 -92 29 -92 77c0 70 74 116 139 156z" />
    <glyph glyph-name="tilde" unicode="&#x2dc;" horiz-adv-x="500" 
d="M310 580c-34 0 -63 12 -90 23c-22 9 -43 17 -62 17c-16 0 -36 -7 -51 -43l-19 6c17 61 44 108 108 108c31 0 53 -12 82 -24c21 -8 42 -16 61 -16c22 0 38 7 52 43l20 -5c-20 -77 -57 -109 -101 -109z" />
    <glyph glyph-name="hungarumlaut" unicode="&#x2dd;" horiz-adv-x="500" 
d="M249 550l70 187l27 6c5 1 10 1 14 1c21 0 34 -12 34 -34c0 -15 -8 -28 -22 -43l-108 -125zM107 550l70 187l27 6c5 1 10 1 14 1c21 0 34 -12 34 -34c0 -15 -8 -28 -22 -43l-108 -125z" />
    <glyph glyph-name="perthousand" unicode="&#x2030;" horiz-adv-x="1031" 
d="M678 142c0 100 70 160 160 160c83 0 154 -44 154 -152c0 -107 -76 -160 -158 -160c-100 0 -156 61 -156 152zM325 142c0 100 71 160 160 160c84 0 154 -44 154 -152c0 -107 -76 -160 -158 -160c-99 0 -156 61 -156 152zM41 551c0 100 71 160 160 160
c83 0 154 -44 154 -152c0 -107 -76 -160 -158 -160c-99 0 -156 61 -156 152zM127 552c0 -94 21 -132 72 -132c55 0 72 44 72 137c0 99 -22 133 -71 133c-51 0 -73 -35 -73 -138zM92 0l451 700h40l-450 -700h-41zM763 143c0 -94 22 -132 73 -132c54 0 71 44 71 137
c0 99 -22 133 -70 133c-51 0 -74 -35 -74 -138zM411 143c0 -94 21 -132 72 -132c55 0 72 44 72 137c0 99 -22 133 -71 133c-51 0 -73 -35 -73 -138z" />
    <glyph glyph-name="percent" unicode="%" horiz-adv-x="762" 
d="M399 155c0 108 76 173 164 173c86 0 159 -50 159 -166s-77 -172 -162 -172c-105 0 -161 67 -161 165zM487 155c0 -99 21 -143 74 -143c57 0 73 49 73 148c0 106 -22 145 -72 145c-52 0 -75 -42 -75 -150zM150 0l421 700h40l-420 -700h-41zM41 538c0 108 76 173 165 173
c85 0 158 -50 158 -166s-77 -172 -161 -172c-106 0 -162 67 -162 165zM130 538c0 -99 21 -143 74 -143c56 0 72 49 72 148c0 106 -21 145 -71 145c-53 0 -75 -42 -75 -150z" />
    <glyph glyph-name="fraction" unicode="&#x2044;" horiz-adv-x="200" 
d="M-132 0l421 700h40l-420 -700h-41z" />
    <glyph glyph-name="zerosuperior" unicode="&#x2070;" horiz-adv-x="396" 
d="M20 605c0 156 78 216 177 216c102 0 179 -59 179 -216c0 -158 -79 -217 -179 -217c-122 0 -177 91 -177 217zM124 603c0 -143 14 -186 73 -186c60 0 74 43 74 185c0 146 -15 191 -74 191c-57 0 -73 -48 -73 -190z" />
    <glyph glyph-name="onesuperior" unicode="&#xb9;" horiz-adv-x="272" 
d="M93 784l-73 -7l-3 26l137 18h39v-401h55v-26h-224v26h69v364z" />
    <glyph glyph-name="twosuperior" unicode="&#xb2;" horiz-adv-x="338" 
d="M22 394v57l78 73c83 76 110 123 110 199c0 49 -16 70 -64 70c-40 0 -57 -13 -57 -30c0 -6 1 -13 4 -20h19c3 -7 5 -16 5 -27c0 -25 -19 -41 -47 -41c-33 0 -49 23 -49 52c0 55 52 94 142 94c95 0 143 -38 143 -103c0 -64 -29 -100 -224 -250h125c61 0 75 24 84 71h24
l-6 -145h-287z" />
    <glyph glyph-name="threesuperior" unicode="&#xb3;" horiz-adv-x="345" 
d="M163 821c93 0 137 -36 137 -95c0 -52 -38 -87 -107 -104c89 -10 130 -51 130 -109c0 -76 -70 -125 -178 -125c-62 0 -130 21 -130 91c0 28 15 52 49 52c28 0 46 -17 46 -41c0 -11 -2 -19 -5 -28h-20c-2 -5 -3 -10 -3 -17c0 -15 18 -29 60 -29c57 0 81 34 81 95
c0 59 -28 84 -60 99c-20 -5 -35 -7 -60 -9l-4 26c72 8 107 22 107 97c0 46 -19 69 -59 69c-36 0 -54 -14 -54 -29c0 -6 1 -11 3 -17h19c3 -8 4 -16 4 -26c0 -23 -19 -39 -44 -39c-32 0 -48 21 -48 49c0 55 53 90 136 90z" />
    <glyph glyph-name="foursuperior" unicode="&#x2074;" horiz-adv-x="377" 
d="M121 394v26h60v76h-174v26l178 292h93v-289h50v39h27v-107h-27v39h-50v-76h44v-26h-201zM41 525h140v229z" />
    <glyph glyph-name="fivesuperior" unicode="&#x2075;" horiz-adv-x="340" 
d="M145 626c-28 0 -56 -10 -83 -25l-13 6v200l11 8c53 -8 168 -20 186 -20c15 0 21 8 26 26l23 -3c-11 -84 -22 -103 -47 -103c-14 0 -31 5 -53 11l-116 32l-2 -121c26 12 53 19 88 19c115 0 150 -65 150 -130c0 -86 -68 -138 -172 -138c-58 0 -126 21 -126 93
c0 27 15 51 48 51c27 0 47 -16 47 -42c0 -10 -3 -19 -5 -27h-20c-3 -6 -4 -11 -4 -17c0 -19 22 -29 58 -29c56 0 72 40 72 114c0 66 -14 95 -68 95z" />
    <glyph glyph-name="sixsuperior" unicode="&#x2076;" horiz-adv-x="368" 
d="M28 581c0 155 75 240 190 240c78 0 117 -37 117 -82c0 -28 -17 -47 -46 -47c-25 0 -45 12 -45 38c0 9 1 16 4 24h17c2 3 3 9 3 15c0 14 -11 25 -47 25c-61 0 -94 -40 -96 -180c20 29 53 47 99 47c72 0 126 -41 126 -126c0 -90 -61 -147 -161 -147
c-101 0 -161 55 -161 193zM127 526c0 -70 9 -110 62 -110c52 0 64 43 64 108c0 76 -15 103 -53 103c-55 0 -73 -42 -73 -101z" />
    <glyph glyph-name="sevensuperior" unicode="&#x2077;" horiz-adv-x="304" 
d="M74 453c0 46 21 87 133 228l48 60h-136c-60 0 -69 -8 -80 -61h-23l5 134h279v-50l-49 -88c-76 -139 -84 -181 -84 -219c0 -22 6 -36 18 -50l-12 -18c-61 -9 -99 19 -99 64z" />
    <glyph glyph-name="eightsuperior" unicode="&#x2078;" horiz-adv-x="367" 
d="M150 615c-76 6 -118 44 -118 98c0 65 53 108 151 108s151 -40 151 -106c0 -56 -40 -94 -116 -100v-2c90 -9 129 -49 129 -110c0 -75 -55 -115 -164 -115c-110 0 -165 41 -165 115c0 64 44 103 132 110v2zM183 599c-48 0 -69 -31 -69 -96c0 -59 19 -87 69 -87s69 29 69 88
c0 65 -21 95 -69 95zM126 715c0 -59 17 -85 59 -85c41 0 56 26 56 85c0 49 -16 78 -58 78c-41 0 -57 -29 -57 -78z" />
    <glyph glyph-name="ninesuperior" unicode="&#x2079;" horiz-adv-x="374" 
d="M346 624c0 -155 -72 -236 -189 -236c-81 0 -120 39 -120 81c0 31 16 52 48 52c25 0 46 -13 46 -40c0 -9 -1 -17 -4 -26h-19c-2 -5 -3 -10 -3 -15c0 -15 12 -24 49 -24c63 0 93 44 94 179c-20 -29 -53 -47 -99 -47c-72 0 -126 43 -126 130c0 91 64 142 162 142
c101 0 161 -58 161 -196zM247 677c0 74 -9 116 -62 116s-65 -42 -65 -106c0 -78 14 -106 54 -106c45 0 73 34 73 96z" />
    <glyph glyph-name="zeroinferior" unicode="&#x2080;" horiz-adv-x="396" 
d="M20 76c0 156 78 216 177 216c102 0 179 -59 179 -216c0 -158 -79 -217 -179 -217c-122 0 -177 91 -177 217zM124 74c0 -143 14 -186 73 -186c60 0 74 43 74 185c0 146 -15 191 -74 191c-57 0 -73 -48 -73 -190z" />
    <glyph glyph-name="oneinferior" unicode="&#x2081;" horiz-adv-x="272" 
d="M93 255l-73 -7l-3 26l137 18h39v-401h55v-26h-224v26h69v364z" />
    <glyph glyph-name="twoinferior" unicode="&#x2082;" horiz-adv-x="338" 
d="M22 -135v57l78 73c83 76 110 123 110 199c0 49 -16 70 -64 70c-40 0 -57 -13 -57 -30c0 -6 1 -13 4 -20h19c3 -7 5 -16 5 -27c0 -25 -19 -41 -47 -41c-33 0 -49 23 -49 52c0 55 52 94 142 94c95 0 143 -38 143 -103c0 -64 -29 -100 -224 -250h125c61 0 75 24 84 71h24
l-6 -145h-287z" />
    <glyph glyph-name="threeinferior" unicode="&#x2083;" horiz-adv-x="345" 
d="M163 292c93 0 137 -36 137 -95c0 -52 -38 -87 -107 -104c89 -10 130 -51 130 -109c0 -76 -70 -125 -178 -125c-62 0 -130 21 -130 91c0 28 15 52 49 52c28 0 46 -17 46 -41c0 -11 -2 -19 -5 -28h-20c-2 -5 -3 -10 -3 -17c0 -15 18 -29 60 -29c57 0 81 34 81 95
c0 59 -28 84 -60 99c-20 -5 -35 -7 -60 -9l-4 26c72 8 107 22 107 97c0 46 -19 69 -59 69c-36 0 -54 -14 -54 -29c0 -6 1 -11 3 -17h19c3 -8 4 -16 4 -26c0 -23 -19 -39 -44 -39c-32 0 -48 21 -48 49c0 55 53 90 136 90z" />
    <glyph glyph-name="fourinferior" unicode="&#x2084;" horiz-adv-x="377" 
d="M121 -135v26h60v76h-174v26l178 292h93v-289h50v39h27v-107h-27v39h-50v-76h44v-26h-201zM41 -4h140v229z" />
    <glyph glyph-name="fiveinferior" unicode="&#x2085;" horiz-adv-x="340" 
d="M145 97c-28 0 -56 -10 -83 -25l-13 6v200l11 8c53 -8 168 -20 186 -20c15 0 21 8 26 26l23 -3c-11 -84 -22 -103 -47 -103c-14 0 -31 5 -53 11l-116 32l-2 -121c26 12 53 19 88 19c115 0 150 -65 150 -130c0 -86 -68 -138 -172 -138c-58 0 -126 21 -126 93
c0 27 15 51 48 51c27 0 47 -16 47 -42c0 -10 -3 -19 -5 -27h-20c-3 -6 -4 -11 -4 -17c0 -19 22 -29 58 -29c56 0 72 40 72 114c0 66 -14 95 -68 95z" />
    <glyph glyph-name="sixinferior" unicode="&#x2086;" horiz-adv-x="368" 
d="M28 52c0 155 75 240 190 240c78 0 117 -37 117 -82c0 -28 -17 -47 -46 -47c-25 0 -45 12 -45 38c0 9 1 16 4 24h17c2 3 3 9 3 15c0 14 -11 25 -47 25c-61 0 -94 -40 -96 -180c20 29 53 47 99 47c72 0 126 -41 126 -126c0 -90 -61 -147 -161 -147c-101 0 -161 55 -161 193
zM127 -3c0 -70 9 -110 62 -110c52 0 64 43 64 108c0 76 -15 103 -53 103c-55 0 -73 -42 -73 -101z" />
    <glyph glyph-name="seveninferior" unicode="&#x2087;" horiz-adv-x="304" 
d="M74 -76c0 46 21 87 133 228l48 60h-136c-60 0 -69 -8 -80 -61h-23l5 134h279v-50l-49 -88c-76 -139 -84 -181 -84 -219c0 -22 6 -36 18 -50l-12 -18c-61 -9 -99 19 -99 64z" />
    <glyph glyph-name="eightinferior" unicode="&#x2088;" horiz-adv-x="367" 
d="M151 86c-76 6 -118 44 -118 98c0 65 53 108 151 108s151 -40 151 -106c0 -56 -40 -94 -116 -100v-2c90 -9 129 -49 129 -110c0 -75 -55 -115 -164 -115c-110 0 -165 41 -165 115c0 64 44 103 132 110v2zM184 70c-48 0 -69 -31 -69 -96c0 -59 19 -87 69 -87s69 29 69 88
c0 65 -21 95 -69 95zM127 186c0 -59 17 -85 59 -85c41 0 56 26 56 85c0 49 -16 78 -58 78c-41 0 -57 -29 -57 -78z" />
    <glyph glyph-name="nineinferior" unicode="&#x2089;" horiz-adv-x="374" 
d="M346 95c0 -155 -72 -236 -189 -236c-81 0 -120 39 -120 81c0 31 16 52 48 52c25 0 46 -13 46 -40c0 -9 -1 -17 -4 -26h-19c-2 -5 -3 -10 -3 -15c0 -15 12 -24 49 -24c63 0 93 44 94 179c-20 -29 -53 -47 -99 -47c-72 0 -126 43 -126 130c0 91 64 142 162 142
c101 0 161 -58 161 -196zM247 148c0 74 -9 116 -62 116s-65 -42 -65 -106c0 -78 14 -106 54 -106c45 0 73 34 73 96z" />
    <glyph glyph-name="zero.num" horiz-adv-x="396" 
d="M20 485c0 156 78 216 177 216c102 0 179 -59 179 -216c0 -158 -79 -217 -179 -217c-122 0 -177 91 -177 217zM124 483c0 -143 14 -186 73 -186c60 0 74 43 74 185c0 146 -15 191 -74 191c-57 0 -73 -48 -73 -190z" />
    <glyph glyph-name="one.num" horiz-adv-x="272" 
d="M93 664l-73 -7l-3 26l137 18h39v-401h55v-26h-224v26h69v364z" />
    <glyph glyph-name="two.num" horiz-adv-x="338" 
d="M22 274v57l78 73c83 76 110 123 110 199c0 49 -16 70 -64 70c-40 0 -57 -13 -57 -30c0 -6 1 -13 4 -20h19c3 -7 5 -16 5 -27c0 -25 -19 -41 -47 -41c-33 0 -49 23 -49 52c0 55 52 94 142 94c95 0 143 -38 143 -103c0 -64 -29 -100 -224 -250h125c61 0 75 24 84 71h24
l-6 -145h-287z" />
    <glyph glyph-name="three.num" horiz-adv-x="345" 
d="M163 701c93 0 137 -36 137 -95c0 -52 -38 -87 -107 -104c89 -10 130 -51 130 -109c0 -76 -70 -125 -178 -125c-62 0 -130 21 -130 91c0 28 15 52 49 52c28 0 46 -17 46 -41c0 -11 -2 -19 -5 -28h-20c-2 -5 -3 -10 -3 -17c0 -15 18 -29 60 -29c57 0 81 34 81 95
c0 59 -28 84 -60 99c-20 -5 -35 -7 -60 -9l-4 26c72 8 107 22 107 97c0 46 -19 69 -59 69c-36 0 -54 -14 -54 -29c0 -6 1 -11 3 -17h19c3 -8 4 -16 4 -26c0 -23 -19 -39 -44 -39c-32 0 -48 21 -48 49c0 55 53 90 136 90z" />
    <glyph glyph-name="four.num" horiz-adv-x="377" 
d="M121 274v26h60v76h-174v26l178 292h93v-289h50v39h27v-107h-27v39h-50v-76h44v-26h-201zM41 405h140v229z" />
    <glyph glyph-name="five.num" horiz-adv-x="340" 
d="M145 506c-28 0 -56 -10 -83 -25l-13 6v200l11 8c53 -8 168 -20 186 -20c15 0 21 8 26 26l23 -3c-11 -84 -22 -103 -47 -103c-14 0 -31 5 -53 11l-116 32l-2 -121c26 12 53 19 88 19c115 0 150 -65 150 -130c0 -86 -68 -138 -172 -138c-58 0 -126 21 -126 93
c0 27 15 51 48 51c27 0 47 -16 47 -42c0 -10 -3 -19 -5 -27h-20c-3 -6 -4 -11 -4 -17c0 -19 22 -29 58 -29c56 0 72 40 72 114c0 66 -14 95 -68 95z" />
    <glyph glyph-name="six.num" horiz-adv-x="368" 
d="M28 461c0 155 75 240 190 240c78 0 117 -37 117 -82c0 -28 -17 -47 -46 -47c-25 0 -45 12 -45 38c0 9 1 16 4 24h17c2 3 3 9 3 15c0 14 -11 25 -47 25c-61 0 -94 -40 -96 -180c20 29 53 47 99 47c72 0 126 -41 126 -126c0 -90 -61 -147 -161 -147
c-101 0 -161 55 -161 193zM127 406c0 -70 9 -110 62 -110c52 0 64 43 64 108c0 76 -15 103 -53 103c-55 0 -73 -42 -73 -101z" />
    <glyph glyph-name="seven.num" horiz-adv-x="304" 
d="M74 333c0 46 21 87 133 228l48 60h-136c-60 0 -69 -8 -80 -61h-23l5 134h279v-50l-49 -88c-76 -139 -84 -181 -84 -219c0 -22 6 -36 18 -50l-12 -18c-61 -9 -99 19 -99 64z" />
    <glyph glyph-name="eight.num" horiz-adv-x="367" 
d="M151 495c-76 6 -118 44 -118 98c0 65 53 108 151 108s151 -40 151 -106c0 -56 -40 -94 -116 -100v-2c90 -9 129 -49 129 -110c0 -75 -55 -115 -164 -115c-110 0 -165 41 -165 115c0 64 44 103 132 110v2zM184 479c-48 0 -69 -31 -69 -96c0 -59 19 -87 69 -87s69 29 69 88
c0 65 -21 95 -69 95zM127 595c0 -59 17 -85 59 -85c41 0 56 26 56 85c0 49 -16 78 -58 78c-41 0 -57 -29 -57 -78z" />
    <glyph glyph-name="nine.num" horiz-adv-x="374" 
d="M346 504c0 -155 -72 -236 -189 -236c-81 0 -120 39 -120 81c0 31 16 52 48 52c25 0 46 -13 46 -40c0 -9 -1 -17 -4 -26h-19c-2 -5 -3 -10 -3 -15c0 -15 12 -24 49 -24c63 0 93 44 94 179c-20 -29 -53 -47 -99 -47c-72 0 -126 43 -126 130c0 91 64 142 162 142
c101 0 161 -58 161 -196zM247 557c0 74 -9 116 -62 116s-65 -42 -65 -106c0 -78 14 -106 54 -106c45 0 73 34 73 96z" />
    <glyph glyph-name="zero.denom" horiz-adv-x="396" 
d="M20 211c0 156 78 216 177 216c102 0 179 -59 179 -216c0 -158 -79 -217 -179 -217c-122 0 -177 91 -177 217zM124 209c0 -143 14 -186 73 -186c60 0 74 43 74 185c0 146 -15 191 -74 191c-57 0 -73 -48 -73 -190z" />
    <glyph glyph-name="one.denom" horiz-adv-x="272" 
d="M93 390l-73 -7l-3 26l137 18h39v-401h55v-26h-224v26h69v364z" />
    <glyph glyph-name="two.denom" horiz-adv-x="338" 
d="M22 0v57l78 73c83 76 110 123 110 199c0 49 -16 70 -64 70c-40 0 -57 -13 -57 -30c0 -6 1 -13 4 -20h19c3 -7 5 -16 5 -27c0 -25 -19 -41 -47 -41c-33 0 -49 23 -49 52c0 55 52 94 142 94c95 0 143 -38 143 -103c0 -64 -29 -100 -224 -250h125c61 0 75 24 84 71h24
l-6 -145h-287z" />
    <glyph glyph-name="three.denom" horiz-adv-x="345" 
d="M163 427c93 0 137 -36 137 -95c0 -52 -38 -87 -107 -104c89 -10 130 -51 130 -109c0 -76 -70 -125 -178 -125c-62 0 -130 21 -130 91c0 28 15 52 49 52c28 0 46 -17 46 -41c0 -11 -2 -19 -5 -28h-20c-2 -5 -3 -10 -3 -17c0 -15 18 -29 60 -29c57 0 81 34 81 95
c0 59 -28 84 -60 99c-20 -5 -35 -7 -60 -9l-4 26c72 8 107 22 107 97c0 46 -19 69 -59 69c-36 0 -54 -14 -54 -29c0 -6 1 -11 3 -17h19c3 -8 4 -16 4 -26c0 -23 -19 -39 -44 -39c-32 0 -48 21 -48 49c0 55 53 90 136 90z" />
    <glyph glyph-name="four.denom" horiz-adv-x="377" 
d="M121 0v26h60v76h-174v26l178 292h93v-289h50v39h27v-107h-27v39h-50v-76h44v-26h-201zM41 131h140v229z" />
    <glyph glyph-name="five.denom" horiz-adv-x="340" 
d="M145 232c-28 0 -56 -10 -83 -25l-13 6v200l11 8c53 -8 168 -20 186 -20c15 0 21 8 26 26l23 -3c-11 -84 -22 -103 -47 -103c-14 0 -31 5 -53 11l-116 32l-2 -121c26 12 53 19 88 19c115 0 150 -65 150 -130c0 -86 -68 -138 -172 -138c-58 0 -126 21 -126 93
c0 27 15 51 48 51c27 0 47 -16 47 -42c0 -10 -3 -19 -5 -27h-20c-3 -6 -4 -11 -4 -17c0 -19 22 -29 58 -29c56 0 72 40 72 114c0 66 -14 95 -68 95z" />
    <glyph glyph-name="six.denom" horiz-adv-x="368" 
d="M28 187c0 155 75 240 190 240c78 0 117 -37 117 -82c0 -28 -17 -47 -46 -47c-25 0 -45 12 -45 38c0 9 1 16 4 24h17c2 3 3 9 3 15c0 14 -11 25 -47 25c-61 0 -94 -40 -96 -180c20 29 53 47 99 47c72 0 126 -41 126 -126c0 -90 -61 -147 -161 -147
c-101 0 -161 55 -161 193zM127 132c0 -70 9 -110 62 -110c52 0 64 43 64 108c0 76 -15 103 -53 103c-55 0 -73 -42 -73 -101z" />
    <glyph glyph-name="seven.denom" horiz-adv-x="304" 
d="M74 59c0 46 21 87 133 228l48 60h-136c-60 0 -69 -8 -80 -61h-23l5 134h279v-50l-49 -88c-76 -139 -84 -181 -84 -219c0 -22 6 -36 18 -50l-12 -18c-61 -9 -99 19 -99 64z" />
    <glyph glyph-name="eight.denom" horiz-adv-x="367" 
d="M151 221c-76 6 -118 44 -118 98c0 65 53 108 151 108s151 -40 151 -106c0 -56 -40 -94 -116 -100v-2c90 -9 129 -49 129 -110c0 -75 -55 -115 -164 -115c-110 0 -165 41 -165 115c0 64 44 103 132 110v2zM184 205c-48 0 -69 -31 -69 -96c0 -59 19 -87 69 -87s69 29 69 88
c0 65 -21 95 -69 95zM127 321c0 -59 17 -85 59 -85c41 0 56 26 56 85c0 49 -16 78 -58 78c-41 0 -57 -29 -57 -78z" />
    <glyph glyph-name="nine.denom" horiz-adv-x="374" 
d="M346 230c0 -155 -72 -236 -189 -236c-81 0 -120 39 -120 81c0 31 16 52 48 52c25 0 46 -13 46 -40c0 -9 -1 -17 -4 -26h-19c-2 -5 -3 -10 -3 -15c0 -15 12 -24 49 -24c63 0 93 44 94 179c-20 -29 -53 -47 -99 -47c-72 0 -126 43 -126 130c0 91 64 142 162 142
c101 0 161 -58 161 -196zM247 283c0 74 -9 116 -62 116s-65 -42 -65 -106c0 -78 14 -106 54 -106c45 0 73 34 73 96z" />
    <glyph glyph-name="onehalf" unicode="&#xbd;" horiz-adv-x="850" 
d="M126 664l-73 -7l-3 26l137 18h39v-401h55v-26h-224v26h69v364zM189 0l421 700h40l-420 -700h-41zM514 0v57l78 73c83 76 110 123 110 199c0 49 -16 70 -64 70c-40 0 -57 -13 -57 -30c0 -6 1 -13 4 -20h19c3 -7 5 -16 5 -27c0 -25 -19 -41 -47 -41c-33 0 -49 23 -49 52
c0 55 52 94 142 94c95 0 143 -38 143 -103c0 -64 -29 -100 -224 -250h125c61 0 75 24 84 71h24l-6 -145h-287z" />
    <glyph glyph-name="onethird" unicode="&#x2153;" horiz-adv-x="850" 
d="M124 664l-73 -7l-3 26l137 18h39v-401h55v-26h-224v26h69v364zM182 0l421 700h40l-420 -700h-41zM648 427c93 0 137 -36 137 -95c0 -52 -38 -87 -107 -104c89 -10 130 -51 130 -109c0 -76 -70 -125 -178 -125c-62 0 -130 21 -130 91c0 28 15 52 49 52c28 0 46 -17 46 -41
c0 -11 -2 -19 -5 -28h-20c-2 -5 -3 -10 -3 -17c0 -15 18 -29 60 -29c57 0 81 34 81 95c0 59 -28 84 -60 99c-20 -5 -35 -7 -60 -9l-4 26c72 8 107 22 107 97c0 46 -19 69 -59 69c-36 0 -54 -14 -54 -29c0 -6 1 -11 3 -17h19c3 -8 4 -16 4 -26c0 -23 -19 -39 -44 -39
c-32 0 -48 21 -48 49c0 55 53 90 136 90z" />
    <glyph glyph-name="twothirds" unicode="&#x2154;" horiz-adv-x="850" 
d="M34 274v57l78 73c83 76 110 123 110 199c0 49 -16 70 -64 70c-40 0 -57 -13 -57 -30c0 -6 1 -13 4 -20h19c3 -7 5 -16 5 -27c0 -25 -19 -41 -47 -41c-33 0 -49 23 -49 52c0 55 52 94 142 94c95 0 143 -38 143 -103c0 -64 -29 -100 -224 -250h125c61 0 75 24 84 71h24
l-6 -145h-287zM208 0l421 700h40l-420 -700h-41zM664 427c93 0 137 -36 137 -95c0 -52 -38 -87 -107 -104c89 -10 130 -51 130 -109c0 -76 -70 -125 -178 -125c-62 0 -130 21 -130 91c0 28 15 52 49 52c28 0 46 -17 46 -41c0 -11 -2 -19 -5 -28h-20c-2 -5 -3 -10 -3 -17
c0 -15 18 -29 60 -29c57 0 81 34 81 95c0 59 -28 84 -60 99c-20 -5 -35 -7 -60 -9l-4 26c72 8 107 22 107 97c0 46 -19 69 -59 69c-36 0 -54 -14 -54 -29c0 -6 1 -11 3 -17h19c3 -8 4 -16 4 -26c0 -23 -19 -39 -44 -39c-32 0 -48 21 -48 49c0 55 53 90 136 90z" />
    <glyph glyph-name="onequarter" unicode="&#xbc;" horiz-adv-x="850" 
d="M131 664l-73 -7l-3 26l137 18h39v-401h55v-26h-224v26h69v364zM197 0l421 700h40l-420 -700h-41zM561 0v26h60v76h-174v26l178 292h93v-289h50v39h27v-107h-27v39h-50v-76h44v-26h-201zM481 131h140v229z" />
    <glyph glyph-name="threequarters" unicode="&#xbe;" horiz-adv-x="850" 
d="M180 701c93 0 137 -36 137 -95c0 -52 -38 -87 -107 -104c89 -10 130 -51 130 -109c0 -76 -70 -125 -178 -125c-62 0 -130 21 -130 91c0 28 15 52 49 52c28 0 46 -17 46 -41c0 -11 -2 -19 -5 -28h-20c-2 -5 -3 -10 -3 -17c0 -15 18 -29 60 -29c57 0 81 34 81 95
c0 59 -28 84 -60 99c-20 -5 -35 -7 -60 -9l-4 26c72 8 107 22 107 97c0 46 -19 69 -59 69c-36 0 -54 -14 -54 -29c0 -6 1 -11 3 -17h19c3 -8 4 -16 4 -26c0 -23 -19 -39 -44 -39c-32 0 -48 21 -48 49c0 55 53 90 136 90zM223 0l421 700h40l-420 -700h-41zM584 0v26h60v76
h-174v26l178 292h93v-289h50v39h27v-107h-27v39h-50v-76h44v-26h-201zM504 131h140v229z" />
    <glyph glyph-name="oneeighth" unicode="&#x215b;" horiz-adv-x="850" 
d="M115 664l-73 -7l-3 26l137 18h39v-401h55v-26h-224v26h69v364zM171 0l421 700h40l-420 -700h-41zM621 221c-76 6 -118 44 -118 98c0 65 53 108 151 108s151 -40 151 -106c0 -56 -40 -94 -116 -100v-2c90 -9 129 -49 129 -110c0 -75 -55 -115 -164 -115
c-110 0 -165 41 -165 115c0 64 44 103 132 110v2zM654 205c-48 0 -69 -31 -69 -96c0 -59 19 -87 69 -87s69 29 69 88c0 65 -21 95 -69 95zM597 321c0 -59 17 -85 59 -85c41 0 56 26 56 85c0 49 -16 78 -58 78c-41 0 -57 -29 -57 -78z" />
    <glyph glyph-name="threeeighths" unicode="&#x215c;" horiz-adv-x="850" 
d="M174 701c93 0 137 -36 137 -95c0 -52 -38 -87 -107 -104c89 -10 130 -51 130 -109c0 -76 -70 -125 -178 -125c-62 0 -130 21 -130 91c0 28 15 52 49 52c28 0 46 -17 46 -41c0 -11 -2 -19 -5 -28h-20c-2 -5 -3 -10 -3 -17c0 -15 18 -29 60 -29c57 0 81 34 81 95
c0 59 -28 84 -60 99c-20 -5 -35 -7 -60 -9l-4 26c72 8 107 22 107 97c0 46 -19 69 -59 69c-36 0 -54 -14 -54 -29c0 -6 1 -11 3 -17h19c3 -8 4 -16 4 -26c0 -23 -19 -39 -44 -39c-32 0 -48 21 -48 49c0 55 53 90 136 90zM190 0l421 700h40l-420 -700h-41zM633 221
c-76 6 -118 44 -118 98c0 65 53 108 151 108s151 -40 151 -106c0 -56 -40 -94 -116 -100v-2c90 -9 129 -49 129 -110c0 -75 -55 -115 -164 -115c-110 0 -165 41 -165 115c0 64 44 103 132 110v2zM666 205c-48 0 -69 -31 -69 -96c0 -59 19 -87 69 -87s69 29 69 88
c0 65 -21 95 -69 95zM609 321c0 -59 17 -85 59 -85c41 0 56 26 56 85c0 49 -16 78 -58 78c-41 0 -57 -29 -57 -78z" />
    <glyph glyph-name="fiveeighths" unicode="&#x215d;" horiz-adv-x="850" 
d="M160 506c-28 0 -56 -10 -83 -25l-13 6v200l11 8c53 -8 168 -20 186 -20c15 0 21 8 26 26l23 -3c-11 -84 -22 -103 -47 -103c-14 0 -31 5 -53 11l-116 32l-2 -121c26 12 53 19 88 19c115 0 150 -65 150 -130c0 -86 -68 -138 -172 -138c-58 0 -126 21 -126 93
c0 27 15 51 48 51c27 0 47 -16 47 -42c0 -10 -3 -19 -5 -27h-20c-3 -6 -4 -11 -4 -17c0 -19 22 -29 58 -29c56 0 72 40 72 114c0 66 -14 95 -68 95zM190 0l421 700h40l-420 -700h-41zM629 221c-76 6 -118 44 -118 98c0 65 53 108 151 108s151 -40 151 -106
c0 -56 -40 -94 -116 -100v-2c90 -9 129 -49 129 -110c0 -75 -55 -115 -164 -115c-110 0 -165 41 -165 115c0 64 44 103 132 110v2zM662 205c-48 0 -69 -31 -69 -96c0 -59 19 -87 69 -87s69 29 69 88c0 65 -21 95 -69 95zM605 321c0 -59 17 -85 59 -85c41 0 56 26 56 85
c0 49 -16 78 -58 78c-41 0 -57 -29 -57 -78z" />
    <glyph glyph-name="seveneighths" unicode="&#x215e;" horiz-adv-x="850" 
d="M108 333c0 46 21 87 133 228l48 60h-136c-60 0 -69 -8 -80 -61h-23l5 134h279v-50l-49 -88c-76 -139 -84 -181 -84 -219c0 -22 6 -36 18 -50l-12 -18c-61 -9 -99 19 -99 64zM141 0l421 700h40l-420 -700h-41zM610 221c-76 6 -118 44 -118 98c0 65 53 108 151 108
s151 -40 151 -106c0 -56 -40 -94 -116 -100v-2c90 -9 129 -49 129 -110c0 -75 -55 -115 -164 -115c-110 0 -165 41 -165 115c0 64 44 103 132 110v2zM643 205c-48 0 -69 -31 -69 -96c0 -59 19 -87 69 -87s69 29 69 88c0 65 -21 95 -69 95zM586 321c0 -59 17 -85 59 -85
c41 0 56 26 56 85c0 49 -16 78 -58 78c-41 0 -57 -29 -57 -78z" />
    <glyph glyph-name="partialdiff" unicode="&#x2202;" horiz-adv-x="569" 
d="M287 367c-109 0 -129 -141 -129 -227c0 -78 18 -119 76 -119c95 0 137 124 137 232c0 72 -29 114 -84 114zM294 671c132 0 226 -88 226 -282c0 -178 -73 -400 -294 -400c-126 0 -190 70 -190 184c0 128 82 235 220 235c75 0 121 -37 139 -89c8 46 12 82 12 118
c0 113 -20 206 -125 206c-46 0 -82 -23 -68 -71l28 -2c4 -46 -13 -81 -60 -81c-40 0 -63 25 -63 63c0 83 88 119 175 119z" />
    <glyph glyph-name="Omega" unicode="&#x2126;" horiz-adv-x="842" 
d="M475 0v78c87 88 132 154 132 320c0 128 -25 282 -177 282c-153 0 -186 -148 -186 -295c0 -169 42 -229 111 -306v-79h-296l-12 227h23c23 -113 62 -140 187 -140h56c-137 72 -210 159 -210 299c0 187 129 325 330 325c196 0 315 -129 315 -302
c0 -181 -152 -280 -227 -322h65c124 0 164 27 186 140h23l-12 -227h-308z" />
    <glyph glyph-name="Delta" unicode="&#x2206;" horiz-adv-x="600" 
d="M593 0h-586l279 716h44zM256 554l-196 -508h369z" />
    <glyph glyph-name="product" unicode="&#x220f;" horiz-adv-x="780" 
d="M39 700h702v-29h-79v-793h79v-29h-287v29h73v793h-274v-793h72v-29h-286v29h79v793h-79v29z" />
    <glyph glyph-name="summation" unicode="&#x2211;" horiz-adv-x="608" 
d="M561 -151h-556l-10 18l279 372l-284 447l10 14h528l8 -188h-26c-26 129 -65 159 -190 159h-168l227 -359l-275 -361h224c153 0 192 40 215 165h26z" />
    <glyph glyph-name="uni0394" unicode="&#x394;" horiz-adv-x="600" 
d="M593 0h-586l279 716h44zM256 554l-196 -508h369z" />
    <glyph glyph-name="uni03A9" unicode="&#x3a9;" horiz-adv-x="842" 
d="M475 0v78c87 88 132 154 132 320c0 128 -25 282 -177 282c-153 0 -186 -148 -186 -295c0 -169 42 -229 111 -306v-79h-296l-12 227h23c23 -113 62 -140 187 -140h56c-137 72 -210 159 -210 299c0 187 129 325 330 325c196 0 315 -129 315 -302
c0 -181 -152 -280 -227 -322h65c124 0 164 27 186 140h23l-12 -227h-308z" />
    <glyph glyph-name="uni03BC" unicode="&#x3bc;" horiz-adv-x="574" 
d="M206 487v-305c0 -73 18 -126 74 -126c52 0 106 37 106 147v275l122 9v-393c0 -38 12 -51 33 -51c22 0 38 15 43 94c8 -1 15 -1 23 -2c-4 -106 -39 -145 -112 -145c-66 0 -104 38 -108 104c-26 -67 -80 -104 -134 -104c-46 0 -90 15 -119 81l-4 -3
c31 -114 64 -200 71 -242c4 -32 -29 -48 -61 -42l-60 12v682z" />
    <glyph glyph-name="pi" unicode="&#x3c0;" horiz-adv-x="597" 
d="M447 377h-37c-8 -67 -10 -113 -10 -161c0 -59 9 -140 66 -140c30 0 54 17 67 67l19 -3c-12 -78 -42 -151 -112 -151c-71 0 -88 57 -88 128c0 74 12 131 31 261l-173 12c0 -140 -8 -255 -19 -314c-13 -69 -43 -87 -71 -87c-32 0 -48 19 -48 47c0 25 13 45 39 86
c44 68 65 134 73 269c-14 0 -39 3 -45 3c-33 0 -46 -8 -64 -44l-21 7c21 87 51 143 107 143c51 0 270 -15 322 -15c27 0 38 8 52 42l22 -6c-23 -96 -55 -144 -110 -144z" />
    <glyph glyph-name="mu" unicode="&#xb5;" horiz-adv-x="619" 
d="M206 487v-305c0 -73 18 -126 74 -126c52 0 106 37 106 147v275l122 9v-393c0 -38 12 -51 33 -51c22 0 38 15 43 94c8 -1 15 -1 23 -2c-4 -106 -39 -145 -112 -145c-66 0 -104 38 -108 104c-26 -67 -80 -104 -134 -104c-46 0 -90 15 -119 81l-4 -3
c31 -114 64 -200 71 -242c4 -32 -29 -48 -61 -42l-60 12v682z" />
    <glyph glyph-name="logicalnot" unicode="&#xac;" horiz-adv-x="600" 
d="M489 164v134h-416v36h454v-170h-38z" />
    <glyph glyph-name="minus" unicode="&#x2212;" 
d="M502 298h-454v36h454v-36z" />
    <glyph glyph-name="uni2215" unicode="&#x2215;" horiz-adv-x="200" 
d="M-139 -10l434 721h42l-433 -721h-43z" />
    <glyph glyph-name="uni2219" unicode="&#x2219;" horiz-adv-x="300" 
d="M62 319c0 43 27 76 76 76c44 0 77 -23 77 -74c0 -45 -26 -77 -76 -77c-58 0 -77 39 -77 75z" />
    <glyph glyph-name="radical" unicode="&#x221a;" horiz-adv-x="547" 
d="M533 744l-168 -744h-70l-178 378l-71 -33l-12 29l161 79l159 -357l147 655z" />
    <glyph glyph-name="infinity" unicode="&#x221e;" horiz-adv-x="644" 
d="M594 246c0 -86 -60 -128 -120 -128c-56 0 -106 26 -166 85c-44 -55 -91 -85 -144 -85c-70 0 -114 49 -114 120c0 89 71 130 133 130c43 0 86 -18 151 -81c49 56 98 75 145 75c65 0 115 -39 115 -116zM171 149c38 0 75 19 118 75c-59 55 -89 82 -126 82
c-41 0 -77 -28 -77 -75c0 -48 35 -82 85 -82zM554 248c0 42 -25 83 -79 83c-39 0 -86 -22 -123 -66c55 -59 81 -85 128 -85c41 0 74 20 74 68z" />
    <glyph glyph-name="integral" unicode="&#x222b;" horiz-adv-x="443" 
d="M230 580c1 -69 21 -164 35 -264c11 -78 28 -184 28 -271c0 -125 -56 -256 -201 -256c-69 0 -121 39 -121 100c0 44 23 79 70 79c33 0 55 -21 57 -51c1 -9 1 -20 -3 -31l-32 -4c-14 -29 -10 -69 36 -69c48 0 89 60 89 144c0 87 -22 195 -37 300c-8 54 -24 160 -24 233
c0 126 61 245 204 245c68 0 122 -39 122 -100c0 -44 -23 -78 -68 -78c-33 0 -56 21 -59 50c-1 10 -1 21 2 32l32 3c4 9 6 19 6 28c0 29 -21 39 -45 39c-57 0 -93 -33 -91 -129z" />
    <glyph glyph-name="approxequal" unicode="&#x2248;" horiz-adv-x="600" 
d="M425 117c-74 0 -179 53 -246 53c-36 0 -57 -17 -81 -55l-28 16c26 44 57 75 108 75c73 0 176 -54 245 -54c33 0 58 12 81 54l29 -16c-23 -45 -57 -73 -108 -73zM425 287c-74 0 -179 53 -246 53c-36 0 -57 -17 -81 -55l-28 16c26 44 57 75 108 75c73 0 176 -54 245 -54
c33 0 58 12 81 54l29 -16c-23 -45 -57 -73 -108 -73z" />
    <glyph glyph-name="notequal" unicode="&#x2260;" 
d="M502 187h-286l-109 -128l-24 22l89 106h-124v36h155l101 120h-256v36h286l87 103l27 -22l-69 -81h123v-36h-154l-102 -120h256v-36z" />
    <glyph glyph-name="lessequal" unicode="&#x2264;" 
d="M502 0h-454v36h454v-36zM501 86l-452 193v28l452 190v-38l-397 -165l397 -168v-40z" />
    <glyph glyph-name="greaterequal" unicode="&#x2265;" 
d="M502 0h-454v36h454v-36zM501 279l-452 -193v40l397 168l-397 165v38l452 -190v-28z" />
    <glyph glyph-name="less" unicode="&#x3c;" 
d="M501 86l-452 193v28l452 190v-38l-396 -165l396 -168v-40z" />
    <glyph glyph-name="equal" unicode="=" 
d="M502 187h-454v36h454v-36zM48 379h454v-36h-454v36z" />
    <glyph glyph-name="greater" unicode="&#x3e;" 
d="M501 279l-452 -193v40l396 168l-396 165v38l452 -190v-28z" />
    <glyph glyph-name="lozenge" unicode="&#x25ca;" 
d="M477 310l-202 -322l-203 322l203 322zM437 309l-162 263l-165 -260l167 -265z" />
    <glyph glyph-name="plus" unicode="+" 
d="M502 299h-210v-207h-40v207h-204v36h204v195h40v-195h210v-36z" />
    <glyph glyph-name="plusminus" unicode="&#xb1;" 
d="M502 299h-211v-187h-40v187h-203v36h203v175h40v-175h211v-36zM502 0h-454v36h454v-36z" />
    <glyph glyph-name="divide" unicode="&#xf7;" 
d="M223 464c0 31 19 55 55 55c33 0 57 -17 57 -54c0 -34 -19 -57 -55 -57c-43 0 -57 28 -57 56zM223 171c0 31 19 55 55 55c33 0 57 -17 57 -54c0 -34 -19 -57 -55 -57c-43 0 -57 28 -57 56zM502 298h-454v36h454v-36z" />
    <glyph glyph-name="multiply" unicode="&#xd7;" 
d="M448 462l-149 -148l146 -147l-26 -24l-145 145l-147 -146l-25 25l146 147l-146 148l25 26l147 -148l148 148z" />
    <glyph glyph-name="commaaccent" horiz-adv-x="500" 
d="M224 -274l-16 18c51 43 59 65 59 90c0 16 -7 27 -17 30l-23 -24c-17 6 -36 21 -36 49c0 31 24 51 53 51c45 0 67 -35 67 -74c0 -48 -26 -93 -87 -140z" />
    <glyph glyph-name="revcommaaccent" horiz-adv-x="500" 
d="M275 773l18 -20c-51 -48 -57 -76 -57 -93c0 -14 4 -20 14 -23l23 24c17 -6 38 -24 38 -52c0 -31 -26 -51 -55 -51c-45 0 -66 35 -66 74c0 48 24 94 85 141z" />
    <glyph glyph-name="tilde.cap" horiz-adv-x="500" 
d="M310 769c-34 0 -63 12 -90 23c-22 9 -43 17 -62 17c-16 0 -36 -7 -51 -43l-19 6c17 60 44 108 108 108c31 0 53 -12 82 -24c21 -8 42 -16 61 -16c22 0 38 7 52 42l20 -5c-20 -76 -57 -108 -101 -108z" />
    <glyph glyph-name="ring.cap" horiz-adv-x="500" 
d="M196 831c0 -29 15 -57 55 -57c36 0 53 26 53 57c0 30 -18 57 -55 57c-35 0 -53 -28 -53 -57zM159 831c0 47 30 86 93 86c59 0 89 -35 89 -84c0 -52 -32 -89 -91 -89c-64 0 -91 36 -91 87z" />
    <glyph glyph-name="circumflex.cap" horiz-adv-x="500" 
d="M97 743l125 135c9 6 22 12 37 12c18 0 29 -11 45 -31l97 -114l-10 -15l-140 83l-142 -83z" />
    <glyph glyph-name="acute.cap" horiz-adv-x="500" 
d="M149 747l138 149l24 -6c25 -7 37 -19 37 -38c0 -21 -16 -33 -36 -43l-152 -76z" />
    <glyph glyph-name="grave.cap" horiz-adv-x="500" 
d="M205 896l138 -149l-11 -14l-152 76c-20 10 -36 22 -36 43c0 19 12 31 37 38z" />
    <glyph glyph-name="dieresis.cap" horiz-adv-x="500" 
d="M289 815c0 31 20 58 58 58c34 0 60 -18 60 -58c0 -35 -20 -60 -59 -60c-45 0 -59 31 -59 60zM92 815c0 31 21 58 59 58c34 0 60 -18 60 -58c0 -35 -20 -60 -59 -60c-44 0 -60 31 -60 60z" />
    <glyph glyph-name="caron.cap" horiz-adv-x="500" 
d="M401 884l-124 -135c-9 -6 -22 -11 -37 -11c-18 0 -30 11 -46 30l-97 115l11 14l139 -82l143 83z" />
    <glyph glyph-name="macron.cap" horiz-adv-x="500" 
d="M114 777v57h272v-57h-272z" />
    <glyph glyph-name="dotaccent.cap" horiz-adv-x="500" 
d="M178 823c0 36 23 68 71 68c41 0 70 -21 70 -68c0 -40 -23 -69 -70 -69c-55 0 -71 36 -71 69z" />
    <glyph glyph-name="cedilla.cap" horiz-adv-x="500" 
d="M244 13h28l-40 -68c7 1 19 2 26 2c58 0 87 -33 87 -80c0 -46 -36 -92 -113 -92c-52 0 -87 28 -87 60c0 23 16 33 32 33c15 0 30 -10 35 -27l-19 -17c0 -16 11 -31 37 -31c25 0 45 13 45 66c0 44 -11 66 -45 66c-9 0 -18 -1 -30 -4l-3 12z" />
    <glyph glyph-name="hungarumlaut.cap" horiz-adv-x="500" 
d="M103 747l106 172h23c21 -1 44 -11 44 -37c0 -16 -10 -28 -27 -41l-132 -106zM240 748l115 165l21 -1c20 -3 43 -13 43 -37c0 -18 -12 -30 -29 -42l-136 -98z" />
    <glyph glyph-name="apostrophe" unicode="&#x2bc;" horiz-adv-x="211" 
d="M78 500l-17 20c51 48 57 76 57 93c0 14 -4 20 -15 23l-22 -24c-18 6 -38 24 -38 52c0 31 25 51 54 51c46 0 67 -35 67 -74c0 -48 -25 -94 -86 -141z" />
    <glyph glyph-name="commaaccent.cap" horiz-adv-x="500" 
d="M224 -274l-16 18c51 43 59 65 59 90c0 16 -7 27 -17 30l-23 -24c-17 6 -36 21 -36 49c0 31 24 51 53 51c45 0 67 -35 67 -74c0 -48 -26 -93 -87 -140z" />
    <glyph glyph-name="breve.cap" horiz-adv-x="500" 
d="M107 873l22 4c19 -43 48 -66 123 -66c76 0 103 21 120 66l21 -4c-7 -65 -44 -130 -145 -130c-102 0 -133 64 -141 130z" />
    <glyph glyph-name="caron.alt" horiz-adv-x="500" 
d="M200 528l-16 17c36 34 51 65 51 92c0 33 -20 52 -49 72l20 25c11 13 24 21 41 21c37 0 54 -35 54 -70c0 -53 -37 -107 -101 -157z" />
    <glyph glyph-name="ogonek.cap" horiz-adv-x="500" 
d="M281 12l18 -1l7 -6c-48 -37 -79 -72 -79 -135c0 -31 12 -51 40 -51c25 0 38 14 58 40l15 -10c-16 -28 -43 -70 -106 -70c-59 0 -92 29 -92 77c0 70 74 116 139 156z" />
    <glyph glyph-name="square" horiz-adv-x="610" 
d="M479 470v-349h-349v349h349z" />
    <glyph glyph-name="square.open" horiz-adv-x="610" 
d="M434 166v259h-259v-259h259zM479 470v-349h-349v349h349z" />
    <glyph glyph-name="circle" unicode="&#x25cb;" horiz-adv-x="610" 
d="M100 294c0 113 92 205 205 205s205 -92 205 -205s-92 -205 -205 -205s-205 92 -205 205z" />
    <glyph glyph-name="circle.open" horiz-adv-x="610" 
d="M100 294c0 113 92 205 205 205s205 -92 205 -205s-92 -205 -205 -205s-205 92 -205 205zM155 294c0 -86 64 -157 150 -157c85 0 151 74 151 160c0 85 -66 153 -151 153c-86 0 -150 -71 -150 -156z" />
    <glyph glyph-name="doublecircle" horiz-adv-x="610" 
d="M305 269c30 0 53 26 53 56s-23 54 -53 54s-53 -26 -53 -55c0 -30 23 -55 53 -55zM305 180c-79 0 -144 65 -144 144s65 143 144 143s143 -64 143 -143s-64 -144 -143 -144zM305 214c59 0 106 52 106 112s-47 107 -106 107c-60 0 -105 -50 -105 -109
c0 -60 45 -110 105 -110z" />
    <glyph glyph-name="triangle.left" horiz-adv-x="425" 
d="M275 434v-231l-185 117z" />
    <glyph glyph-name="triangle" unicode="&#x25b3;" horiz-adv-x="425" 
d="M150 203v231l185 -114z" />
    <glyph glyph-name="raute" horiz-adv-x="610" 
d="M305 505l209 -210l-210 -209l-209 210z" />
    <glyph glyph-name="ornm1" horiz-adv-x="600" 
d="M550 500v-500h-500v500h500z" />
    <glyph glyph-name="ornm2" horiz-adv-x="500" 
d="M211 351l44 143l43 -143l147 32l-102 -108l102 -111l-147 33l-43 -144l-44 144l-148 -33l102 111l-102 108z" />
    <glyph glyph-name="ornm3" horiz-adv-x="500" 
d="M203 352l49 137l48 -137l144 -4l-116 -87l43 -140l-119 83l-120 -83l43 140l-116 87z" />
    <glyph glyph-name="ornm4" horiz-adv-x="500" 
d="M59 348l144 4l48 134v-283l-119 -82l43 140z" />
    <glyph glyph-name="ornm5" horiz-adv-x="500" 
d="M252 489l48 -137l144 -4l-116 -87l43 -140l-119 83v285z" />
    <glyph glyph-name="ornm6" horiz-adv-x="736" 
d="M324 314c0 11 3 22 9 30c-25 23 -48 39 -73 39c-14 0 -29 -9 -35 -21l33 -38c-10 -14 -28 -37 -64 -37c-29 0 -59 23 -59 66c0 51 40 76 86 76c50 0 91 -24 132 -68c7 3 13 5 21 5c11 0 22 -4 30 -10c20 24 32 49 32 75c0 11 -4 24 -17 30l-37 -33c-14 10 -38 28 -38 64
c0 29 24 59 67 59c51 0 76 -40 76 -86c0 -50 -29 -91 -67 -126c4 -8 6 -16 6 -25c0 -10 -3 -19 -8 -27c19 -16 42 -28 69 -28c11 0 22 6 28 18l-33 40c10 13 28 37 64 37c29 0 59 -24 59 -66c0 -52 -40 -77 -86 -77c-48 0 -86 27 -119 59c-7 -4 -17 -6 -26 -6
c-10 0 -19 3 -27 8c-17 -21 -29 -44 -29 -64c0 -14 3 -27 19 -38l36 34c14 -10 38 -28 38 -64c0 -29 -24 -59 -67 -59c-51 0 -76 40 -76 86c0 49 23 84 63 121c-5 8 -7 17 -7 26z" />
    <glyph glyph-name="zero.alt" horiz-adv-x="602" 
d="M230 562c0 73 61 109 124 109c117 0 203 -107 203 -320c0 -263 -118 -361 -258 -361c-180 0 -257 132 -257 361c0 189 82 303 220 355l7 -20c-61 -24 -128 -72 -128 -148c0 -36 10 -63 32 -96v-88c0 -259 30 -333 126 -333c104 0 128 93 128 328c0 167 -13 296 -83 296
c-32 0 -50 -30 -31 -60l34 -4c2 -10 3 -19 3 -26c0 -40 -31 -56 -60 -56c-32 0 -60 20 -60 63z" />
    <glyph glyph-name="one.alt" horiz-adv-x="451" 
d="M211 29v502c-28 -56 -111 -123 -163 -143l-9 27c138 69 216 239 241 296h57v-682h96v-29h-335v29h113z" />
    <glyph glyph-name="two.alt" horiz-adv-x="531" 
d="M227 680c-55 0 -97 -29 -97 -72c0 -8 2 -18 6 -27h35c23 -44 8 -104 -58 -104c-41 0 -69 28 -69 77c0 106 105 157 221 157c148 0 214 -74 214 -178c0 -92 -44 -167 -181 -238c-102 -52 -179 -83 -218 -178c52 29 94 45 134 45c91 0 141 -75 205 -75c34 0 47 26 50 82h27
c-1 -113 -41 -188 -113 -188c-113 0 -154 127 -229 127c-15 0 -41 -7 -57 -15c42 -9 54 -37 54 -56c0 -25 -20 -47 -54 -47c-29 0 -64 17 -64 77c0 81 70 159 169 223c124 79 146 151 146 236c0 106 -42 154 -121 154z" />
    <glyph glyph-name="three.alt" horiz-adv-x="523" 
d="M468 700v-51l-255 -261c26 7 56 12 79 12c144 0 195 -94 195 -192c0 -130 -110 -218 -271 -218c-97 0 -192 40 -192 137c0 46 24 77 69 77c38 0 64 -22 64 -58c0 -16 -3 -32 -8 -48h-32c-3 -7 -5 -13 -5 -21c0 -29 37 -56 103 -56c96 0 139 59 139 177
c0 113 -36 169 -117 169c-23 0 -45 -4 -62 -10l-9 19l218 227h-181c-94 0 -105 -13 -122 -101h-20l8 198h399z" />
    <glyph glyph-name="four.alt" horiz-adv-x="535" 
d="M50 190h225v164l121 36v-200h116v-32h-117v-131h76v-27h-287v27h88v131h-255v32c228 306 250 406 250 466c0 15 -1 35 -11 52l22 23c77 3 111 -31 111 -76c0 -65 -46 -128 -211 -321c-18 -21 -56 -63 -128 -144z" />
    <glyph glyph-name="five.alt" horiz-adv-x="529" 
d="M244 382c-44 0 -81 -15 -120 -34c-14 -25 -32 -40 -51 -40c-13 0 -22 6 -22 22c0 18 29 36 48 41l14 274c-11 14 -19 31 -19 51c0 14 8 28 26 28c28 0 37 -40 37 -77c39 -50 118 -83 176 -83c43 0 59 23 36 55h-34c-7 18 -11 40 -7 57c4 31 31 55 73 55
c50 0 82 -37 82 -87c0 -76 -52 -115 -125 -115c-87 0 -180 50 -213 89l-18 -239c42 22 90 37 146 37c155 0 220 -91 220 -197c0 -143 -108 -229 -265 -229c-104 0 -195 46 -195 136c0 49 28 82 74 82c36 0 60 -20 64 -51c4 -17 0 -39 -6 -57h-36c-23 -43 28 -79 95 -79
c92 0 134 66 134 192c0 108 -26 169 -114 169z" />
    <glyph glyph-name="six.alt" horiz-adv-x="563" 
d="M207 325c0 64 58 98 136 98c91 0 192 -47 192 -194c0 -144 -97 -239 -247 -239c-147 0 -245 93 -245 320c0 263 131 401 298 401c95 0 166 -45 166 -122c0 -52 -33 -77 -73 -77c-36 0 -68 21 -68 65c0 12 2 21 5 33h34c14 47 -14 70 -62 70c-147 0 -173 -212 -173 -378
c0 -204 38 -281 124 -281c82 0 113 73 113 191c0 119 -30 183 -89 183c-23 0 -35 -9 -35 -26c0 -7 2 -14 7 -21l32 -4c2 -8 3 -16 3 -24c0 -34 -19 -60 -56 -60c-35 0 -62 20 -62 65z" />
    <glyph glyph-name="seven.alt" horiz-adv-x="469" 
d="M100 744l28 -3c-6 -36 -14 -59 -33 -97l3 -2c38 44 76 63 105 63c69 0 86 -75 134 -75c32 0 72 19 95 68l24 -4c1 -9 1 -19 1 -30c0 -107 -28 -159 -110 -268c-68 -90 -104 -183 -104 -260c0 -43 10 -80 36 -116l-21 -30c-95 -9 -147 46 -147 106c0 63 15 101 204 325
c106 125 104 185 106 212l-4 1c-48 -54 -93 -79 -139 -79c-68 0 -118 49 -155 49c-30 0 -46 -27 -86 -97l-25 15c40 65 67 133 88 222z" />
    <glyph glyph-name="eight.alt" horiz-adv-x="544" 
d="M275 21c91 0 134 56 134 129c0 102 -74 119 -196 184c-42 -20 -72 -66 -72 -153c0 -114 53 -160 134 -160zM293 680c-90 0 -129 -48 -129 -113c0 -86 88 -121 179 -168c101 -52 175 -96 175 -201c0 -127 -101 -208 -246 -208c-154 0 -242 68 -242 186
c0 97 60 151 152 173c-67 39 -124 87 -124 176c0 118 94 186 233 186c99 0 192 -52 192 -161c0 -57 -28 -101 -83 -101c-38 0 -66 22 -66 57c0 14 6 34 17 50l46 -8c15 11 26 27 26 48c0 45 -45 84 -130 84z" />
    <glyph glyph-name="nine.alt" horiz-adv-x="568" 
d="M361 374c0 -65 -61 -99 -129 -99c-101 0 -199 48 -199 195c0 144 98 241 245 241c149 0 247 -93 247 -318c0 -279 -123 -403 -297 -403c-102 0 -170 50 -170 122c0 51 33 79 71 79c41 0 66 -23 66 -64c0 -11 -3 -22 -7 -35h-34c-4 -7 -7 -19 -7 -29c0 -33 40 -42 81 -42
c143 0 170 190 170 370c0 214 -37 289 -125 289c-82 0 -112 -75 -112 -197c0 -69 10 -181 85 -181c36 0 50 23 33 48l-31 2c-17 39 0 86 52 86c33 0 61 -21 61 -64z" />
    <glyph glyph-name="zero.osf" horiz-adv-x="599" 
d="M32 249c0 194 133 274 273 274c134 0 262 -67 262 -264c0 -192 -134 -269 -269 -269c-170 0 -266 100 -266 259zM162 256c0 -160 42 -236 139 -236c104 0 136 80 136 240c0 171 -43 232 -135 232s-140 -65 -140 -236z" />
    <glyph glyph-name="one.osf" horiz-adv-x="400" 
d="M151 467l-122 -11l-4 29l206 27h43v-483h96v-29h-331v28h112v439z" />
    <glyph glyph-name="two.osf" horiz-adv-x="534" 
d="M320 363c0 63 -21 129 -104 129c-58 0 -92 -26 -92 -63c0 -9 2 -19 7 -29h31c5 -15 8 -27 8 -44c0 -35 -28 -57 -66 -57c-44 0 -66 30 -66 73c0 101 102 151 209 151c148 0 199 -78 199 -154c0 -110 -82 -171 -283 -273v-1h187c83 0 105 28 120 109h20l-8 -204h-427v64
c217 124 265 219 265 299z" />
    <glyph glyph-name="three.osf" horiz-adv-x="513" 
d="M243 523c128 0 202 -49 202 -143c0 -84 -62 -138 -171 -168c141 -16 206 -76 206 -174c0 -123 -112 -198 -270 -198c-98 0 -193 38 -193 135c0 46 26 79 71 79c38 0 64 -23 64 -60c0 -16 -4 -32 -8 -47h-34c-21 -46 16 -76 97 -76c95 0 140 56 140 161
c0 100 -48 139 -107 164c-32 -8 -54 -12 -94 -16l-4 30c115 12 177 47 177 157c0 87 -35 125 -102 125c-76 0 -99 -33 -86 -75h35c4 -13 8 -29 8 -43c0 -40 -29 -62 -66 -62c-43 0 -66 33 -66 73c0 90 91 138 201 138z" />
    <glyph glyph-name="four.osf" horiz-adv-x="564" 
d="M422 -149h-120v199h-280v30l290 432h111v-429h87v78h27v-185h-27v74h-88v-199zM61 83h241v357z" />
    <glyph glyph-name="five.osf" horiz-adv-x="495" 
d="M222 235c-47 0 -95 -18 -137 -44l-18 9l30 300l16 12h266c24 0 33 13 41 43c7 0 13 -1 19 -1c-17 -133 -25 -148 -123 -148h-193l-24 -174c44 21 94 37 150 37c164 0 215 -91 215 -198c0 -141 -106 -231 -261 -231c-99 0 -192 39 -192 139c0 45 24 78 70 78
c39 0 65 -23 65 -61c0 -15 -3 -32 -8 -46h-32c-25 -44 17 -79 91 -79c95 0 134 68 134 202c0 116 -30 162 -109 162z" />
    <glyph glyph-name="six.osf" horiz-adv-x="565" 
d="M186 287c-7 -29 -8 -53 -8 -80c0 -110 23 -186 109 -186c88 0 110 73 110 186c0 123 -30 166 -95 166c-57 0 -103 -37 -116 -86zM332 630c-104 0 -157 -78 -156 -297c20 34 77 76 151 76c105 0 198 -50 198 -196c0 -128 -92 -223 -241 -223c-141 0 -237 73 -237 289
c0 259 121 382 283 382c102 0 171 -47 171 -122c0 -49 -30 -73 -70 -73c-38 0 -68 22 -68 67c0 9 2 20 4 31h34c13 44 -13 66 -69 66z" />
    <glyph glyph-name="seven.osf" horiz-adv-x="477" 
d="M125 -58c0 68 55 134 110 214l179 259h-236c-94 0 -106 -13 -123 -101h-21l8 198h432v-52c-202 -368 -223 -435 -223 -512c0 -31 8 -53 22 -78l-24 -27c-81 -5 -124 35 -124 99z" />
    <glyph glyph-name="eight.osf" horiz-adv-x="560" 
d="M233 337c-113 7 -174 65 -174 150c0 103 83 173 222 173c142 0 222 -59 222 -163c0 -88 -65 -150 -173 -160v-3c133 -10 195 -66 195 -165c0 -119 -95 -180 -244 -180c-155 0 -246 57 -246 176c0 102 79 161 198 169v3zM282 319c-77 0 -121 -46 -121 -148
c0 -98 41 -150 120 -150c78 0 119 47 119 151s-43 147 -118 147zM179 495c0 -98 40 -140 102 -140c66 0 101 43 101 142c0 91 -33 131 -101 131c-67 0 -102 -47 -102 -133z" />
    <glyph glyph-name="nine.osf" horiz-adv-x="563" 
d="M378 205c12 23 17 54 17 98c0 124 -28 189 -112 189c-88 0 -113 -74 -113 -188c0 -126 32 -166 97 -166c54 0 89 25 111 67zM240 -130c107 0 159 91 159 310c-29 -46 -83 -79 -157 -79c-107 0 -198 53 -198 199c0 134 92 223 242 223c141 0 236 -93 236 -325
c0 -255 -116 -359 -281 -359c-107 0 -172 52 -172 124c0 55 33 82 74 82c33 0 64 -20 64 -61c0 -16 -6 -33 -10 -40h-32c-20 -45 21 -74 75 -74z" />
    <glyph glyph-name="dollar.osf" horiz-adv-x="521" 
d="M210 -71v72c-43 6 -73 19 -92 19c-15 0 -17 -8 -25 -25h-17l-9 188h20c23 -79 57 -130 123 -148v182c-76 20 -134 56 -134 148c0 70 45 134 134 152v70h31v-66c7 1 14 1 22 1c11 0 21 -1 30 -2v67h30v-72c30 -8 51 -18 73 -18c12 0 16 6 23 17h15l5 -160h-20
c-20 67 -46 110 -96 127v-171c79 -19 150 -51 150 -151c0 -82 -56 -144 -150 -159v-71h-30v67c-8 0 -16 -1 -24 -1c-10 0 -19 1 -28 2v-68h-31zM268 28c8 0 16 0 25 1v171c-16 3 -35 7 -52 10v-181c8 -1 17 -1 27 -1zM241 328c15 -4 35 -9 52 -11v171c-10 1 -21 2 -31 2
c-8 0 -15 0 -21 -1v-161zM403 115c0 44 -32 63 -80 77v-159c52 11 80 41 80 82zM147 412c0 -40 24 -60 63 -74v146c-40 -10 -63 -35 -63 -72z" />
    <glyph glyph-name="Euro.osf" horiz-adv-x="558" 
d="M37 293l8 33h57c25 130 123 197 253 197c105 0 170 -44 170 -116c0 -47 -28 -69 -65 -69s-59 19 -59 55c0 9 3 22 7 34h39c15 47 -25 69 -81 69c-92 0 -129 -66 -141 -170h183l-8 -33h-178c-1 -12 -1 -25 -1 -38c0 -12 0 -24 1 -35h164l-8 -33h-153
c11 -102 48 -172 130 -172c58 0 105 24 89 71h-39c-3 12 -6 25 -6 34c0 36 22 56 59 56s64 -23 64 -71c0 -72 -74 -115 -169 -115c-145 0 -230 73 -253 197h-75l8 33h63c-1 10 -1 20 -1 31c0 14 0 28 2 42h-60z" />
    <glyph glyph-name="cent.osf" horiz-adv-x="503" 
d="M167 -66l27 116c-87 24 -135 94 -135 203c0 150 93 228 231 228h6l26 108l29 -7l-25 -103c82 -10 128 -56 128 -119c0 -50 -25 -72 -61 -72c-40 0 -58 26 -58 62c0 9 1 20 4 31h28c3 8 3 16 3 24c0 27 -17 45 -49 50l-85 -360c17 -10 38 -15 63 -15c81 0 111 56 127 106
l28 -6c-18 -61 -50 -139 -185 -139c-16 0 -31 1 -45 3l-28 -118zM180 268c0 -70 10 -118 31 -148l79 337c-75 -3 -110 -57 -110 -189z" />
    <glyph glyph-name="sterling.osf" horiz-adv-x="565" 
d="M139 292h-103v32h89c-18 37 -35 78 -35 130c0 125 93 206 231 206c127 0 187 -57 187 -137c0 -52 -28 -80 -71 -80c-40 0 -69 22 -69 63c0 12 1 23 5 35h37c3 12 4 23 3 34c-5 32 -32 54 -80 54c-88 0 -112 -60 -112 -170v-135h200v-32h-200v-47c0 -59 -20 -97 -57 -143
v-2c32 20 70 33 97 35c12 1 24 0 35 -2c66 -10 126 -61 161 -61c32 0 44 20 49 92l26 -1c-2 -115 -45 -176 -114 -176c-38 0 -63 9 -103 27l-152 66c-18 -65 -48 -88 -82 -88c-30 0 -44 19 -44 39c0 35 41 68 96 75c16 31 27 57 27 96c0 34 -10 61 -21 90z" />
    <glyph glyph-name="yen.osf" horiz-adv-x="595" 
d="M79 249v35h142l-121 202h-67v26h255v-26h-76l116 -199l120 199h-74v26h180v-26h-66l-122 -202h142v-35h-162v-75h162v-35h-162v-110h85v-29h-275v29h85v110h-162v35h162v75h-162z" />
    <glyph glyph-name="florin.osf" horiz-adv-x="503" 
d="M435 354l-7 -34h-135l-38 -211c-28 -165 -95 -269 -237 -269c-82 0 -122 45 -122 96c0 44 27 82 77 82c33 0 53 -18 57 -44c2 -12 0 -26 -5 -40l-37 -4c-6 -10 -9 -21 -9 -30c0 -18 13 -33 45 -33c63 0 79 44 91 112c18 114 41 228 61 341h-72l7 34h72l10 59
c27 147 103 247 238 247c80 0 122 -40 122 -95c0 -45 -25 -80 -75 -80c-39 0 -59 24 -59 55c0 9 2 20 6 31l34 2c6 13 9 24 8 34c0 17 -15 27 -44 27c-68 0 -84 -62 -98 -141l-25 -139h135z" />
    <glyph glyph-name="afii61352.osf" horiz-adv-x="821" 
d="M482 388v-396h-49l-234 419v-296c0 -67 -20 -125 -96 -125c-46 0 -89 24 -89 77c0 39 24 60 54 60c28 0 48 -16 48 -46c0 -8 -1 -16 -3 -25h-32c-2 -5 -3 -13 -3 -17c0 -13 10 -22 32 -22c37 0 58 37 58 104v332l-20 33h-40v26h152l191 -347v229c0 58 13 125 98 125
c43 0 88 -26 88 -79c0 -41 -24 -59 -52 -59c-29 0 -50 16 -50 46c0 8 1 16 3 25h32c2 6 4 9 4 21c0 14 -10 22 -30 22c-49 0 -62 -42 -62 -107zM536 238c0 68 43 117 115 117c66 0 111 -38 111 -111c0 -74 -49 -117 -114 -117c-80 0 -112 49 -112 111zM604 239
c0 -66 10 -93 45 -93c38 0 44 32 44 96c0 68 -10 93 -43 93s-46 -25 -46 -96zM542 73v28h214v-28h-214z" />
    <glyph glyph-name="percent.osf" horiz-adv-x="740" 
d="M397 127c0 91 67 147 153 147c81 0 147 -41 147 -139s-72 -145 -150 -145c-97 0 -150 52 -150 137zM479 128c0 -80 23 -115 68 -115c50 0 69 42 69 118c0 84 -24 121 -67 121c-46 0 -70 -40 -70 -124zM184 -10l330 533h40l-329 -533h-41zM43 376c0 91 66 147 152 147
c82 0 148 -41 148 -139s-73 -145 -151 -145c-97 0 -149 52 -149 137zM124 377c0 -80 23 -115 69 -115c49 0 68 42 68 118c0 84 -24 121 -67 121c-45 0 -70 -40 -70 -124z" />
    <glyph glyph-name="perthousand.osf" horiz-adv-x="1072" 
d="M729 127c0 91 67 147 153 147c81 0 147 -41 147 -139s-72 -145 -150 -145c-97 0 -150 52 -150 137zM811 128c0 -80 23 -115 68 -115c50 0 69 42 69 118c0 84 -24 121 -67 121c-46 0 -70 -40 -70 -124zM397 127c0 91 67 147 153 147c81 0 147 -41 147 -139
s-72 -145 -150 -145c-97 0 -150 52 -150 137zM479 128c0 -80 23 -115 68 -115c50 0 69 42 69 118c0 84 -24 121 -67 121c-46 0 -70 -40 -70 -124zM184 -3l329 526h40l-328 -526h-41zM43 376c0 91 66 147 152 147c82 0 148 -41 148 -139s-73 -145 -151 -145
c-97 0 -149 52 -149 137zM124 377c0 -80 23 -115 69 -115c49 0 68 42 68 118c0 84 -24 121 -67 121c-45 0 -70 -40 -70 -124z" />
    <glyph glyph-name="zero.tf" 
d="M25 351c0 261 111 360 257 360c140 0 243 -97 243 -360s-106 -361 -253 -361c-177 0 -247 152 -247 361zM159 349c0 -242 21 -328 116 -328c97 0 117 87 117 327c0 241 -22 333 -112 333c-95 0 -121 -94 -121 -332z" />
    <glyph glyph-name="one.tf" 
d="M226 666l-123 -11l-3 29l207 27h46v-682h96v-29h-335v29h112v637z" />
    <glyph glyph-name="two.tf" 
d="M54 0v61l141 158c127 141 158 219 158 327c0 97 -29 134 -108 134c-58 0 -101 -29 -101 -69c0 -9 2 -19 6 -29h31c5 -15 8 -31 8 -48c0 -35 -27 -59 -65 -59c-46 0 -68 33 -68 80c0 102 93 156 215 156c148 0 212 -69 212 -170s-38 -156 -347 -441h205
c97 0 119 32 134 109h20l-8 -209h-433z" />
    <glyph glyph-name="three.tf" 
d="M267 711c129 0 204 -59 204 -155c0 -84 -63 -140 -171 -173c143 -19 206 -90 206 -185c0 -127 -110 -208 -271 -208c-97 0 -192 38 -192 135c0 46 24 79 68 79c38 0 65 -23 65 -60c0 -16 -3 -32 -8 -47h-31c-3 -8 -5 -15 -5 -22c0 -32 42 -54 102 -54
c96 0 139 58 139 174c0 106 -48 147 -107 171c-32 -7 -55 -11 -95 -15l-3 30c110 9 177 37 177 169c0 96 -35 130 -101 130c-56 0 -89 -26 -89 -57c0 -6 1 -12 3 -18h28c5 -13 8 -29 8 -43c0 -35 -26 -57 -61 -57c-43 0 -64 30 -64 73c0 87 91 133 198 133z" />
    <glyph glyph-name="four.tf" 
d="M199 0v29h94v150h-279v30l293 491h111v-488h90v78h28v-185h-28v74h-91v-150h70v-29h-288zM53 212h240v403z" />
    <glyph glyph-name="five.tf" 
d="M249 395c-49 0 -94 -18 -136 -44l-19 9v329l16 12c83 -12 264 -33 293 -33c23 0 32 12 40 42l21 -3c-18 -123 -34 -152 -73 -152c-22 0 -50 8 -83 19l-179 55l-5 -236c44 21 94 36 153 36c163 0 219 -105 219 -209c0 -144 -107 -230 -261 -230c-99 0 -191 39 -191 139
c0 45 22 78 68 78c38 0 65 -23 65 -61c0 -15 -3 -32 -8 -46h-31c-4 -8 -6 -15 -6 -22c0 -33 42 -57 99 -57c95 0 131 69 131 207c0 115 -27 167 -113 167z" />
    <glyph glyph-name="six.tf" 
d="M39 308c0 265 116 403 284 403c108 0 167 -54 167 -122c0 -43 -28 -68 -66 -68c-33 0 -62 19 -62 59c0 10 1 20 4 30l27 4c2 6 2 12 2 18c0 27 -22 48 -74 48c-95 0 -150 -65 -152 -315c32 50 83 77 152 77c110 0 197 -66 197 -211c0 -146 -90 -241 -240 -241
s-239 88 -239 318zM171 222c0 -132 22 -201 109 -201c88 0 109 75 109 195c0 139 -27 189 -93 189c-55 0 -108 -38 -119 -88c-8 -28 -6 -51 -6 -95z" />
    <glyph glyph-name="seven.tf" 
d="M162 92c0 73 35 142 179 351l110 160h-235c-94 0 -106 -13 -123 -101h-21l8 198h432v-52l-60 -110c-148 -276 -162 -374 -162 -441c0 -32 7 -54 21 -79l-24 -27c-82 -4 -125 36 -125 101z" />
    <glyph glyph-name="eight.tf" 
d="M229 368c-113 15 -177 76 -177 166c0 109 84 177 224 177c137 0 225 -66 225 -176c0 -93 -64 -154 -175 -167v-3c132 -15 197 -81 197 -183c0 -126 -91 -192 -247 -192c-157 0 -248 68 -248 191c0 107 71 172 201 184v3zM276 349c-80 0 -121 -53 -121 -168
c0 -112 39 -160 121 -160s121 49 121 163c0 113 -42 165 -121 165zM174 535c0 -104 36 -150 103 -150c70 0 102 46 102 150c0 96 -32 144 -103 144s-102 -48 -102 -144z" />
    <glyph glyph-name="nine.tf" 
d="M511 382c0 -265 -108 -392 -278 -392c-115 0 -173 65 -173 128c0 49 25 81 66 81c37 0 65 -22 65 -64c0 -12 -2 -23 -5 -34h-29c-5 -10 -7 -20 -7 -28c0 -31 32 -52 82 -52c100 0 150 82 150 315c-32 -51 -82 -78 -152 -78c-110 0 -197 71 -197 221c0 146 95 231 241 231
c149 0 237 -100 237 -328zM363 360c13 23 17 47 17 104c0 143 -22 215 -108 215c-89 0 -110 -72 -110 -187c0 -145 26 -197 93 -197c50 0 84 25 108 65z" />
    <glyph glyph-name="dollar.tf" 
d="M213 -71v81c-51 9 -88 25 -106 25c-15 0 -18 -9 -26 -30h-18l-10 222h22c26 -91 66 -160 138 -185v268c-93 31 -149 80 -149 182c0 86 49 170 149 193v85h31v-80c7 0 14 1 22 1c13 0 25 -1 37 -3v82h31v-87c37 -9 62 -23 82 -23c14 0 18 7 25 20h15l5 -188h-21
c-23 78 -53 134 -106 158v-234c87 -29 163 -76 163 -197c0 -104 -59 -186 -163 -208v-82h-31v77c-9 -1 -19 -1 -28 -1c-11 0 -21 0 -31 1v-77h-31zM431 162c0 57 -35 87 -97 111v-232c59 17 97 60 97 121zM276 33c9 0 18 0 27 1v250c-18 6 -38 11 -59 16v-265
c10 -1 20 -2 32 -2zM244 442l59 -17v234c-12 3 -24 4 -37 4c-8 0 -15 -1 -22 -1v-220zM133 556c0 -54 31 -82 80 -103v203c-52 -14 -80 -51 -80 -100z" />
    <glyph glyph-name="Euro.tf" 
d="M351 683c-90 0 -130 -65 -137 -254h210l-7 -33h-204v-76h188l-8 -33h-179c6 -185 35 -268 137 -268c50 0 97 20 97 61c0 7 -1 14 -4 21h-38c-4 11 -6 22 -6 35c0 36 26 64 69 64s70 -29 70 -76c0 -88 -92 -134 -192 -134c-174 0 -253 101 -271 297h-75l8 33h66v20
c0 19 0 38 2 56h-63l8 33h58c24 191 126 282 274 282c108 0 182 -54 182 -134c0 -47 -27 -76 -70 -76c-41 0 -68 23 -68 62c0 12 1 23 5 35h38c3 7 4 15 4 22c0 35 -33 63 -94 63z" />
    <glyph glyph-name="cent.tf" 
d="M185 -20l27 116c-87 24 -135 94 -135 203c0 150 93 228 231 228h6l26 108l29 -7l-25 -103c82 -10 128 -56 128 -119c0 -50 -25 -72 -61 -72c-40 0 -58 26 -58 62c0 9 1 20 4 31h28c3 8 3 16 3 24c0 27 -17 45 -49 50l-85 -360c17 -10 38 -15 63 -15c81 0 111 56 127 106
l28 -6c-18 -61 -50 -139 -185 -139c-16 0 -31 1 -45 3l-28 -118zM198 314c0 -70 10 -118 31 -148l79 337c-75 -3 -110 -57 -110 -189z" />
    <glyph glyph-name="sterling.tf" 
d="M27 295v31h96c-20 49 -43 103 -43 172c0 132 93 213 232 213c127 0 187 -56 187 -137c0 -52 -28 -80 -71 -80c-40 0 -69 23 -69 63c0 12 1 23 5 35h37c2 8 3 16 3 23c0 37 -27 66 -82 66c-86 0 -110 -60 -110 -171v-184h200v-31h-200v-50c0 -59 -20 -103 -58 -149l1 -2
c36 23 77 37 106 37c77 0 147 -65 187 -65c32 0 44 20 49 92l26 -1c-2 -115 -45 -176 -114 -176c-38 0 -63 9 -103 27l-152 66c-18 -65 -50 -85 -82 -85c-28 0 -44 16 -44 36c0 35 41 68 96 75c16 31 27 63 27 111c0 29 -8 56 -17 84h-107z" />
    <glyph glyph-name="yen.tf" 
d="M320 395l143 279h-94v26h201v-26h-68l-152 -294h140v-31h-152v-73h152v-31h-152v-216h79v-29h-285v29h79v216h-150v31h150v73h-150v31h135l-154 294h-64v26h286v-26h-82z" />
    <glyph glyph-name="florin.tf" 
d="M430 406l-5 -26h-135l-59 -345c-27 -152 -102 -245 -234 -245c-82 0 -121 45 -121 96c0 44 27 82 76 82c37 0 58 -23 58 -56c0 -10 -2 -21 -6 -33l-41 -2c-6 -10 -10 -21 -10 -29c0 -19 16 -34 50 -34c70 0 80 49 95 138l75 428h-72l6 26h71l11 64
c22 147 102 241 237 241c80 0 120 -40 120 -95c0 -45 -22 -80 -72 -80c-38 0 -60 24 -60 55c0 9 2 26 6 36l37 1c5 12 9 22 9 30c0 19 -17 28 -48 28c-68 0 -84 -59 -98 -142l-24 -138h134z" />
    <glyph glyph-name="zero.tosf" 
d="M25 249c0 194 115 274 255 274c134 0 244 -67 244 -264c0 -192 -116 -269 -251 -269c-170 0 -248 100 -248 259zM156 256c0 -160 32 -236 120 -236c94 0 118 80 118 240c0 171 -35 232 -117 232s-121 -65 -121 -236z" />
    <glyph glyph-name="one.tosf" 
d="M228 467l-122 -11l-4 29l207 27h43v-483h116v-29h-369v28h129v439z" />
    <glyph glyph-name="two.tosf" 
d="M331 363c0 63 -21 129 -104 129c-58 0 -92 -26 -92 -63c0 -9 2 -19 7 -29h31c5 -15 8 -27 8 -44c0 -35 -28 -57 -66 -57c-44 0 -66 30 -66 73c0 101 102 151 209 151c148 0 199 -78 199 -154c0 -110 -82 -171 -283 -273v-1h187c83 0 105 28 120 109h20l-8 -204h-427v64
c217 124 265 219 265 299z" />
    <glyph glyph-name="three.tosf" 
d="M269 523c128 0 202 -49 202 -143c0 -84 -62 -138 -171 -168c141 -16 206 -76 206 -174c0 -123 -112 -198 -270 -198c-98 0 -193 38 -193 135c0 46 26 79 71 79c38 0 64 -23 64 -60c0 -16 -4 -32 -8 -47h-34c-21 -46 16 -76 97 -76c95 0 140 56 140 161
c0 100 -48 139 -107 164c-32 -8 -54 -12 -94 -16l-4 30c115 12 177 47 177 157c0 87 -35 125 -102 125c-76 0 -99 -33 -86 -75h35c4 -13 8 -29 8 -43c0 -40 -29 -62 -66 -62c-43 0 -66 33 -66 73c0 90 91 138 201 138z" />
    <glyph glyph-name="four.tosf" 
d="M417 -149h-120v199h-280v30l290 432h111v-429h87v78h27v-185h-27v74h-88v-199zM56 83h241v357z" />
    <glyph glyph-name="five.tosf" 
d="M259 235c-47 0 -95 -18 -137 -44l-18 9l30 300l16 12h266c24 0 33 13 41 43c7 0 13 -1 19 -1c-17 -133 -25 -148 -123 -148h-193l-24 -174c44 21 94 37 150 37c164 0 215 -91 215 -198c0 -141 -106 -231 -261 -231c-99 0 -192 39 -192 139c0 45 24 78 70 78
c39 0 65 -23 65 -61c0 -15 -3 -32 -8 -46h-32c-25 -44 17 -79 91 -79c95 0 134 68 134 202c0 116 -30 162 -109 162z" />
    <glyph glyph-name="six.tosf" 
d="M184 287c-7 -29 -8 -53 -8 -80c0 -110 21 -186 104 -186c84 0 105 73 105 186c0 123 -29 166 -90 166c-54 0 -98 -37 -111 -86zM325 630c-101 0 -152 -78 -151 -297c20 34 75 76 146 76c105 0 193 -50 193 -196c0 -128 -87 -223 -236 -223c-141 0 -232 73 -232 289
c0 259 116 382 278 382c102 0 171 -47 171 -122c0 -49 -30 -73 -70 -73c-38 0 -68 22 -68 67c0 9 2 20 4 31h34c13 44 -13 66 -69 66z" />
    <glyph glyph-name="seven.tosf" 
d="M151 -58c0 68 55 134 110 214l179 259h-236c-94 0 -106 -13 -123 -101h-21l8 198h432v-52c-202 -368 -223 -435 -223 -512c0 -31 8 -53 22 -78l-24 -27c-81 -5 -124 35 -124 99z" />
    <glyph glyph-name="eight.tosf" 
d="M231 337c-113 7 -174 65 -174 150c0 103 79 173 219 173c141 0 218 -59 218 -163c0 -88 -65 -150 -173 -160v-3c133 -10 195 -66 195 -165c0 -119 -92 -180 -240 -180c-155 0 -243 57 -243 176c0 102 79 161 198 169v3zM277 319c-74 0 -118 -46 -118 -148
c0 -98 40 -150 117 -150c75 0 116 47 116 151s-44 147 -115 147zM177 495c0 -98 39 -140 99 -140c64 0 98 43 98 142c0 91 -33 131 -97 131c-65 0 -100 -47 -100 -133z" />
    <glyph glyph-name="nine.tosf" 
d="M365 205c12 23 16 54 16 98c0 124 -26 189 -107 189c-84 0 -107 -74 -107 -188c0 -126 30 -166 92 -166c50 0 83 25 106 67zM232 -130c107 0 154 91 153 310c-28 -46 -80 -79 -151 -79c-108 0 -193 53 -193 199c0 134 87 223 236 223c141 0 232 -93 232 -325
c0 -255 -111 -359 -276 -359c-108 0 -173 52 -173 124c0 55 34 82 75 82c33 0 63 -20 63 -62c0 -14 -5 -29 -10 -39h-32c-16 -34 3 -74 76 -74z" />
    <glyph glyph-name="dollar.tosf" 
d="M215 -71v72c-43 6 -73 19 -92 19c-15 0 -17 -8 -25 -25h-17l-9 188h20c23 -79 57 -130 123 -148v182c-76 20 -134 56 -134 148c0 70 45 134 134 152v70h31v-66c7 1 14 1 22 1c11 0 21 -1 30 -2v67h30v-72c30 -8 51 -18 73 -18c12 0 16 6 23 17h15l5 -160h-20
c-20 67 -46 110 -96 127v-171c79 -19 150 -51 150 -151c0 -82 -56 -144 -150 -159v-71h-30v67c-8 0 -16 -1 -24 -1c-10 0 -19 1 -28 2v-68h-31zM273 28c8 0 16 0 25 1v171c-16 3 -35 7 -52 10v-181c8 -1 17 -1 27 -1zM246 328c15 -4 35 -9 52 -11v171c-10 1 -21 2 -31 2
c-8 0 -15 0 -21 -1v-161zM408 115c0 44 -32 63 -80 77v-159c52 11 80 41 80 82zM152 412c0 -40 24 -60 63 -74v146c-40 -10 -63 -35 -63 -72z" />
    <glyph glyph-name="Euro.tosf" 
d="M31 293l8 33h57c25 130 123 197 253 197c105 0 170 -44 170 -116c0 -47 -28 -69 -65 -69s-59 19 -59 55c0 9 3 22 7 34h39c15 47 -25 69 -81 69c-92 0 -129 -66 -141 -170h183l-8 -33h-178c-1 -12 -1 -25 -1 -38c0 -12 0 -24 1 -35h164l-8 -33h-153
c11 -102 48 -172 130 -172c58 0 105 24 89 71h-39c-3 12 -6 25 -6 34c0 36 22 56 59 56s64 -23 64 -71c0 -72 -74 -115 -169 -115c-145 0 -230 73 -253 197h-75l8 33h63c-1 10 -1 20 -1 31c0 14 0 28 2 42h-60z" />
    <glyph glyph-name="cent.tosf" 
d="M185 -66l27 116c-87 24 -135 94 -135 203c0 150 93 228 231 228h6l26 108l29 -7l-25 -103c82 -10 128 -56 128 -119c0 -50 -25 -72 -61 -72c-40 0 -58 26 -58 62c0 9 1 20 4 31h28c3 8 3 16 3 24c0 27 -17 45 -49 50l-85 -360c17 -10 38 -15 63 -15c81 0 111 56 127 106
l28 -6c-18 -61 -50 -139 -185 -139c-16 0 -31 1 -45 3l-28 -118zM198 268c0 -70 10 -118 31 -148l79 337c-75 -3 -110 -57 -110 -189z" />
    <glyph glyph-name="sterling.tosf" 
d="M125 292h-103v32h89c-18 37 -35 78 -35 130c0 125 93 206 231 206c127 0 187 -57 187 -137c0 -52 -28 -80 -71 -80c-40 0 -69 22 -69 63c0 12 1 23 5 35h37c3 12 4 23 3 34c-5 32 -32 54 -80 54c-88 0 -112 -60 -112 -170v-135h200v-32h-200v-47c0 -59 -20 -97 -57 -143
v-2c32 20 70 33 97 35c12 1 24 0 35 -2c66 -10 126 -61 161 -61c32 0 44 20 49 92l26 -1c-2 -115 -45 -176 -114 -176c-38 0 -63 9 -103 27l-152 66c-18 -65 -48 -88 -82 -88c-30 0 -44 19 -44 39c0 35 41 68 96 75c16 31 27 57 27 96c0 34 -10 61 -21 90z" />
    <glyph glyph-name="yen.tosf" 
d="M62 249v35h127l-119 202h-58v26h259v-26h-66l112 -196l113 196h-73v26h180v-26h-66l-117 -202h137v-35h-151v-75h151v-35h-151v-110h79v-29h-286v29h79v110h-150v35h150v75h-150z" />
    <glyph glyph-name="florin.tosf" 
d="M485 354l-7 -34h-135l-38 -211c-28 -165 -95 -269 -237 -269c-82 0 -122 45 -122 96c0 44 27 82 77 82c33 0 53 -18 57 -44c2 -12 0 -26 -5 -40l-37 -4c-6 -10 -9 -21 -9 -30c0 -18 13 -33 45 -33c63 0 79 44 91 112c18 114 41 228 61 341h-72l7 34h72l10 59
c27 147 103 247 238 247c80 0 122 -40 122 -95c0 -45 -25 -80 -75 -80c-39 0 -59 24 -59 55c0 9 2 20 6 31l34 2c6 13 9 24 8 34c0 17 -15 27 -44 27c-68 0 -84 -62 -98 -141l-25 -139h135z" />
    <glyph glyph-name="thinspace" unicode="&#x2009;" horiz-adv-x="50" 
 />
    </font>
</defs>
</svg>
