<?xml version="1.0" standalone="no"?>
<!DOCTYPE svg PUBLIC "-//W3C//DTD SVG 1.1//EN" "http://www.w3.org/Graphics/SVG/1.1/DTD/svg11.dtd" >
<svg>
<metadata>
Created by FontForge 20120731 at Mon Sep 23 15:08:04 2019
 By www-data
 The digitally encoded machine readable software for producing the
 Typefaces licensed to you is copyrighted (c) 1991, 2002 Adobe Systems.
 All Rights Reserved. This software is the property of Adobe Systems
 Incorporated and its licensors, and may not be reproduced, used, 
 displayed, modified, disclosed or transferred without the express 
 written approval of Adobe.
 
 The digitally encoded machine readable outline data for producing the Typefaces 
 provided as part of your laser printer is copyrighted (c) 1981, 2002 Heidelberger Druckmaschinen AG. 
 All rights reserved. This data is the property of Heidelberger Druckmaschinen AG, 
 and may not be reproduced, used, displayed, modified, disclosed or transferred 
 without the express written approval of Heidelberger Druckmaschinen AG. 
</metadata>
<defs>
<font id="TradeGothicLTStd-BoldExt" horiz-adv-x="278" >
  <font-face 
    font-family="Trade Gothic LT Std"
    font-weight="700"
    font-stretch="expanded"
    units-per-em="1000"
    panose-1="0 0 8 5 0 0 0 0 0 0"
    ascent="727"
    descent="-273"
    x-height="537"
    cap-height="727"
    bbox="-176 -250 1068 1013"
    underline-thickness="50"
    underline-position="-50"
    stemh="106"
    stemv="124"
    unicode-range="U+0020-FB02"
  />
<missing-glyph horiz-adv-x="500" 
d="M0 0v700h500v-700h-500zM250 395l170 255h-340zM280 350l170 -255v510zM80 50h340l-170 255zM50 605v-510l170 255z" />
    <glyph glyph-name="fi" unicode="fi" horiz-adv-x="722" 
d="M521 0v537h124v-537h-124zM521 635v110h124v-110h-124zM218 0h-124v413h-100v106h100v62c0 166 170 164 211 164c47 0 80 -6 134 -16v-106c-65 15 -81 15 -109 16c-101 4 -112 -49 -112 -83v-37h193v-106h-193v-413z" />
    <glyph glyph-name="fl" unicode="fl" horiz-adv-x="722" 
d="M521 0v727h124v-727h-124zM94 0v413h-100v106h100v62c0 166 170 164 211 164c47 0 80 -6 134 -16v-106c-65 15 -81 15 -109 16c-101 4 -112 -49 -112 -83v-37h193v-106h-193v-413h-124z" />
    <glyph glyph-name=".notdef" horiz-adv-x="500" 
d="M0 0v700h500v-700h-500zM250 395l170 255h-340zM280 350l170 -255v510zM80 50h340l-170 255zM50 605v-510l170 255z" />
    <glyph glyph-name="space" unicode=" " horiz-adv-x="361" 
 />
    <glyph glyph-name="exclam" unicode="!" horiz-adv-x="333" 
d="M94 727h145l-27 -496h-91zM100 0v142h133v-142h-133z" />
    <glyph glyph-name="quotedbl" unicode="&#x22;" horiz-adv-x="444" 
d="M276 431v296h96v-296h-96zM72 431v296h96v-296h-96z" />
    <glyph glyph-name="numbersign" unicode="#" horiz-adv-x="722" 
d="M387 0l29 217h-148l-29 -217h-88l29 217h-90v86h101l16 121h-90v86h101l29 217h88l-29 -217h148l29 217h88l-29 -217h90v-86h-101l-16 -121h90v-86h-101l-29 -217h-88zM427 303l16 121h-148l-16 -121h148z" />
    <glyph glyph-name="dollar" unicode="$" horiz-adv-x="722" 
d="M410 627v-201l82 -19c130 -30 205 -80 204 -196c-1 -167 -148 -223 -286 -229v-122h-96v122c-149 10 -251 88 -288 150l90 89c23 -33 82 -102 198 -121v210l-72 18c-118 30 -202 64 -202 198c0 152 141 219 274 219v85h96v-85c137 -7 239 -91 269 -135l-87 -89
c-29 45 -101 99 -182 106zM314 444v183h-22c-49 -2 -133 -23 -128 -91c0 -69 100 -83 150 -92zM410 292v-192c83 6 162 32 162 100c0 38 -38 64 -101 78z" />
    <glyph glyph-name="percent" unicode="%" horiz-adv-x="1000" 
d="M250 477c46 0 84 38 84 84s-38 84 -84 84s-84 -38 -84 -84s38 -84 84 -84zM240 -31l430 776h88l-430 -776h-88zM66 561c0 102 82 184 184 184s184 -82 184 -184s-82 -184 -184 -184s-184 82 -184 184zM750 -18c-102 0 -184 82 -184 184s82 184 184 184s184 -82 184 -184
s-82 -184 -184 -184zM666 166c0 -46 38 -84 84 -84s84 38 84 84s-38 84 -84 84s-84 -38 -84 -84z" />
    <glyph glyph-name="ampersand" unicode="&#x26;" horiz-adv-x="944" 
d="M392 468l24 7c48 16 97 48 97 103c0 54 -40 85 -95 85s-92 -33 -92 -88c0 -34 27 -66 48 -90zM917 -18h-25c-115 0 -212 50 -260 86l-34 -22c-92 -46 -163 -64 -267 -64c-181 0 -304 80 -304 226c0 116 101 192 201 222l31 9l-17 23c-29 39 -38 79 -38 113
c0 113 104 170 209 170c111 0 222 -50 222 -173c0 -110 -84 -164 -155 -190l-11 -4l9 -9c44 -45 92 -93 138 -131l23 -19l9 7c55 43 104 111 133 158l8 13l111 -58l-8 -13c-36 -59 -76 -110 -126 -160l-24 -22c41 -30 103 -40 149 -40h26v-122zM166 211
c0 -86 98 -111 167 -111c59 0 111 15 166 35l32 14l-32 27c-42 35 -89 81 -141 137l-27 30l-28 -10c-56 -18 -137 -51 -137 -122z" />
    <glyph glyph-name="quoteright" unicode="&#x2019;" 
d="M72 585v142h133v-147l-63 -149h-66l54 154h-58z" />
    <glyph glyph-name="parenleft" unicode="(" horiz-adv-x="333" 
d="M187 745h136c-109 -111 -180 -239 -180 -411s71 -300 180 -411h-136c-98 99 -170 247 -170 411s72 312 170 411z" />
    <glyph glyph-name="parenright" unicode=")" horiz-adv-x="333" 
d="M146 -77h-136c109 111 180 239 180 411s-71 300 -180 411h136c98 -99 170 -247 170 -411s-72 -312 -170 -411z" />
    <glyph glyph-name="asterisk" unicode="*" horiz-adv-x="500" 
d="M411 667l34 -107l-152 -20l116 -105l-93 -68l-68 138l-58 -139l-95 68l107 106l-147 20l31 101l133 -66l-27 150h113l-30 -150z" />
    <glyph glyph-name="plus" unicode="+" horiz-adv-x="600" 
d="M252 0v205h-205v96h205v205h96v-205h205v-96h-205v-205h-96z" />
    <glyph glyph-name="comma" unicode="," horiz-adv-x="361" 
d="M114 0v142h133v-147l-63 -149h-66l54 154h-58z" />
    <glyph glyph-name="hyphen" unicode="-" horiz-adv-x="333" 
d="M44 230v106h245v-106h-245z" />
    <glyph glyph-name="period" unicode="." horiz-adv-x="361" 
d="M114 0v142h133v-142h-133z" />
    <glyph glyph-name="slash" unicode="/" 
d="M-29 -18l230 763h106l-230 -763h-106z" />
    <glyph glyph-name="zero" unicode="0" horiz-adv-x="722" 
d="M166 363c0 -180 82 -267 196 -267s194 87 194 267c0 128 -36 268 -194 268s-196 -140 -196 -268zM33 363c0 213 95 382 329 382s327 -169 327 -382c0 -257 -133 -381 -327 -381s-329 124 -329 381z" />
    <glyph glyph-name="one" unicode="1" horiz-adv-x="722" 
d="M174 559v82c78 11 145 35 202 104h74v-745h-126v559h-150z" />
    <glyph glyph-name="two" unicode="2" horiz-adv-x="722" 
d="M22 0v100l369 224c78 47 152 93 153 176c1 131 -149 131 -187 131c-123 0 -173 -64 -193 -141h-133c0 103 89 255 325 255c166 0 321 -59 321 -247c0 -120 -82 -195 -180 -250l-226 -128v-2h397v-118h-646z" />
    <glyph glyph-name="three" unicode="3" horiz-adv-x="722" 
d="M245 325v114h106c108 0 177 20 177 96c0 71 -72 96 -170 96c-152 0 -188 -70 -188 -92h-126c0 50 37 206 312 206c197 0 305 -81 305 -206c0 -98 -69 -138 -103 -152c37 -16 121 -59 121 -176c0 -125 -109 -229 -321 -229c-278 0 -326 156 -330 231h133
c11 -55 65 -117 185 -117c110 0 198 36 200 130c1 46 -37 99 -165 99h-136z" />
    <glyph glyph-name="four" unicode="4" horiz-adv-x="722" 
d="M17 264l441 463h139v-463h93v-110h-93v-154h-126v154h-454v110zM471 264v327l-312 -327h312z" />
    <glyph glyph-name="five" unicode="5" horiz-adv-x="722" 
d="M648 727v-114h-464l-10 -158c40 25 106 53 203 53c182 0 309 -87 309 -257c0 -140 -85 -269 -330 -269c-294 0 -324 183 -324 222h136c0 -28 43 -108 190 -108c121 0 195 61 195 155c0 91 -83 147 -191 147c-117 0 -165 -53 -179 -69h-124l12 398h577z" />
    <glyph glyph-name="six" unicode="6" horiz-adv-x="722" 
d="M677 542h-133c-3 32 -57 89 -154 89c-109 0 -214 -66 -218 -233c43 32 111 74 221 74c198 0 296 -114 296 -238c0 -147 -116 -252 -307 -252c-185 0 -349 114 -349 370c0 174 86 393 356 393c202 0 283 -126 288 -203zM556 230c0 77 -65 132 -173 132
c-124 0 -178 -67 -208 -90c17 -99 87 -176 204 -176c98 0 177 44 177 134z" />
    <glyph glyph-name="seven" unicode="7" horiz-adv-x="722" 
d="M155 0l354 613h-464v114h632v-64l-367 -663h-155z" />
    <glyph glyph-name="eight" unicode="8" horiz-adv-x="722" 
d="M35 200c0 108 83 169 130 182v2c-70 29 -113 79 -113 160c0 113 97 201 309 201c217 0 310 -97 310 -201c0 -94 -58 -138 -114 -160v-2c47 -13 130 -74 130 -182c0 -157 -145 -218 -326 -218s-326 61 -326 218zM168 212c0 -88 82 -116 193 -116s193 28 193 116
c0 91 -94 111 -193 111s-193 -20 -193 -111zM181 533c0 -78 79 -100 180 -100s181 22 181 100c0 90 -121 98 -181 98s-180 -8 -180 -98z" />
    <glyph glyph-name="nine" unicode="9" horiz-adv-x="722" 
d="M45 185h133c3 -32 57 -89 154 -89c109 0 214 66 218 233c-43 -32 -111 -74 -221 -74c-198 0 -296 114 -296 238c0 147 116 252 307 252c185 0 349 -114 349 -370c0 -174 -86 -393 -356 -393c-202 0 -283 126 -288 203zM166 497c0 -77 65 -132 173 -132
c124 0 178 67 208 90c-17 99 -87 176 -204 176c-98 0 -177 -44 -177 -134z" />
    <glyph glyph-name="colon" unicode=":" horiz-adv-x="361" 
d="M114 302v142h133v-142h-133zM114 0v142h133v-142h-133z" />
    <glyph glyph-name="semicolon" unicode=";" horiz-adv-x="361" 
d="M114 0v142h133v-147l-63 -149h-66l54 154h-58zM114 302v142h133v-142h-133z" />
    <glyph glyph-name="less" unicode="&#x3c;" horiz-adv-x="600" 
d="M553 -12l-506 220v86l506 220v-100l-370 -163l370 -163v-100z" />
    <glyph glyph-name="equal" unicode="=" horiz-adv-x="600" 
d="M47 316v96h506v-96h-506zM47 94v96h506v-96h-506z" />
    <glyph glyph-name="greater" unicode="&#x3e;" horiz-adv-x="600" 
d="M47 514l506 -220v-86l-506 -220v100l370 163l-370 163v100z" />
    <glyph glyph-name="question" unicode="?" horiz-adv-x="611" 
d="M229 229v35c0 54 13 100 75 143l56 38c50 34 88 55 88 106c0 63 -60 88 -142 88c-152 0 -182 -98 -189 -114l-111 49c10 26 73 171 288 171c201 0 280 -81 287 -198c3 -56 -31 -126 -124 -182c-73 -44 -116 -62 -116 -121v-15h-112zM218 0v142h133v-142h-133z" />
    <glyph glyph-name="at" unicode="@" horiz-adv-x="800" 
d="M496 396c0 49 -24 88 -78 88c-79 0 -134 -92 -134 -165c0 -55 33 -93 80 -93c78 0 132 96 132 170zM547 558h77l-60 -237c-9 -35 -15 -65 -15 -81s3 -23 17 -23c63 0 130 90 130 198c0 167 -124 254 -283 254c-167 0 -297 -130 -297 -305c0 -176 131 -306 297 -306
c101 0 186 31 240 94h80c-68 -108 -184 -170 -315 -170c-209 0 -390 154 -390 382c0 227 181 381 396 381c183 0 348 -123 348 -313c0 -201 -168 -294 -248 -294c-35 0 -62 19 -64 59h-3c-22 -36 -72 -59 -118 -59c-86 0 -155 77 -155 169c0 132 89 265 228 265
c48 0 91 -21 117 -73z" />
    <glyph glyph-name="A" unicode="A" horiz-adv-x="889" 
d="M295 289h304l-152 324zM8 0l358 727h162l353 -727h-150l-76 167h-419l-77 -167h-151z" />
    <glyph glyph-name="B" unicode="B" horiz-adv-x="889" 
d="M86 0v727h438c171 0 285 -48 285 -186c0 -92 -45 -126 -84 -151c51 -22 112 -84 112 -179c0 -137 -109 -211 -286 -211h-465zM228 118h309c90 0 158 18 158 104c0 76 -62 100 -158 100h-309v-204zM228 440h305c93 0 134 23 134 84c0 62 -41 85 -134 85h-305v-169z" />
    <glyph glyph-name="C" unicode="C" horiz-adv-x="889" 
d="M708 259h142c-14 -81 -72 -277 -406 -277c-230 0 -411 128 -411 393c0 212 133 370 422 370c325 0 373 -211 384 -250h-142c-8 25 -64 128 -234 128c-201 0 -285 -113 -285 -264c0 -167 121 -255 277 -255c166 0 239 99 253 155z" />
    <glyph glyph-name="D" unicode="D" horiz-adv-x="889" 
d="M228 122h144c242 0 336 74 336 244c0 178 -98 239 -336 239h-144v-483zM86 0v727h350c230 0 414 -97 414 -359c0 -248 -168 -368 -408 -368h-356z" />
    <glyph glyph-name="E" unicode="E" horiz-adv-x="778" 
d="M86 0v727h652v-122h-510v-169h439v-122h-439v-192h522v-122h-664z" />
    <glyph glyph-name="F" unicode="F" horiz-adv-x="778" 
d="M86 0v727h669v-122h-527v-169h453v-122h-453v-314h-142z" />
    <glyph glyph-name="G" unicode="G" horiz-adv-x="889" 
d="M448 373h388v-381h-86l-28 75c-55 -36 -131 -85 -272 -85c-186 0 -411 91 -411 380c0 194 117 383 407 383c167 0 350 -62 385 -245h-145c-17 37 -56 123 -223 123c-228 0 -282 -154 -282 -255c0 -172 116 -260 270 -260c140 0 218 49 252 151h-255v114z" />
    <glyph glyph-name="H" unicode="H" horiz-adv-x="944" 
d="M86 0v727h142v-288h488v288h142v-727h-142v313h-488v-313h-142z" />
    <glyph glyph-name="I" unicode="I" horiz-adv-x="332" 
d="M95 0v727h142v-727h-142z" />
    <glyph glyph-name="J" unicode="J" horiz-adv-x="611" 
d="M22 8v133c51 -13 100 -23 163 -23c167 -1 200 59 198 166v443h142v-451c-2 -214 -109 -284 -323 -284c-68 0 -145 7 -180 16z" />
    <glyph glyph-name="K" unicode="K" horiz-adv-x="889" 
d="M86 0v727h142v-339l403 339h202l-347 -288l382 -439h-186l-299 355l-155 -129v-226h-142z" />
    <glyph glyph-name="L" unicode="L" horiz-adv-x="778" 
d="M86 0v727h142v-601h527v-126h-669z" />
    <glyph glyph-name="M" unicode="M" horiz-adv-x="1000" 
d="M444 0l-234 551h-2v-551h-126v727h191l227 -539l231 539h187v-727h-126v551h-2l-233 -551h-113z" />
    <glyph glyph-name="N" unicode="N" horiz-adv-x="944" 
d="M86 0v727h150l486 -525v525h136v-727h-130l-506 544v-544h-136z" />
    <glyph glyph-name="O" unicode="O" horiz-adv-x="944" 
d="M472 104c136 0 291 56 291 262c0 175 -125 257 -291 257s-291 -82 -291 -257c0 -206 155 -262 291 -262zM39 358c0 199 113 387 433 387s433 -188 433 -387c0 -151 -89 -376 -433 -376s-433 225 -433 376z" />
    <glyph glyph-name="P" unicode="P" horiz-adv-x="833" 
d="M86 0v727h405c123 0 325 0 325 -223c0 -222 -202 -222 -325 -222h-263v-282h-142zM228 404h294c81 0 152 7 152 101c0 93 -71 100 -152 100h-294v-201z" />
    <glyph glyph-name="Q" unicode="Q" horiz-adv-x="944" 
d="M493 197v122c116 -9 163 -89 193 -147c46 41 77 103 77 194c0 175 -125 257 -291 257s-291 -82 -291 -257c0 -206 155 -262 291 -262c35 0 70 4 104 13c-17 41 -35 64 -83 80zM917 20v-122c-90 0 -161 3 -256 114c-52 -20 -115 -30 -189 -30c-344 0 -433 225 -433 376
c0 199 113 387 433 387s433 -188 433 -387c0 -91 -33 -209 -134 -287c47 -42 72 -50 146 -51z" />
    <glyph glyph-name="R" unicode="R" horiz-adv-x="889" 
d="M228 404h274c116 0 175 17 175 103c0 85 -59 102 -175 102h-274v-205zM86 0v727h437c172 0 296 -39 296 -217c0 -134 -96 -208 -203 -214l223 -296h-175l-211 286h-225v-286h-142z" />
    <glyph glyph-name="S" unicode="S" horiz-adv-x="833" 
d="M786 550l-134 -44c-23 65 -82 121 -255 121c-96 0 -193 -24 -193 -91c0 -31 18 -64 163 -82l172 -26c163 -25 259 -88 259 -210c0 -172 -164 -236 -358 -236c-312 0 -388 154 -405 209l137 43c26 -53 80 -130 272 -130c116 0 212 38 212 101c0 47 -54 78 -158 91l-174 24
c-168 23 -262 96 -262 207c0 218 283 218 339 218c313 0 367 -145 385 -195z" />
    <glyph glyph-name="T" unicode="T" horiz-adv-x="832" 
d="M345 0v605h-325v122h792v-122h-325v-605h-142z" />
    <glyph glyph-name="U" unicode="U" horiz-adv-x="944" 
d="M858 727v-415c0 -234 -149 -330 -386 -330s-386 96 -386 330v415h142v-405c0 -120 43 -218 244 -218s244 98 244 218v405h142z" />
    <glyph glyph-name="V" unicode="V" horiz-adv-x="889" 
d="M368 0l-351 727h152l273 -580l278 580h152l-356 -727h-148z" />
    <glyph glyph-name="W" unicode="W" horiz-adv-x="1018" 
d="M233 0l-214 727h142l140 -500h2l139 500h136l141 -499h2l139 499h139l-212 -727h-136l-138 516h-2l-139 -516h-139z" />
    <glyph glyph-name="X" unicode="X" horiz-adv-x="833" 
d="M649 0l-230 274l-232 -274h-185l329 376l-304 351h181l211 -249l210 249h180l-305 -351l327 -376h-182z" />
    <glyph glyph-name="Y" unicode="Y" horiz-adv-x="888" 
d="M373 0v291l-355 436h174l252 -308l251 308h175l-355 -436v-291h-142z" />
    <glyph glyph-name="Z" unicode="Z" horiz-adv-x="778" 
d="M754 0h-730v70l508 535h-482v122h692v-80l-494 -525h506v-122z" />
    <glyph glyph-name="bracketleft" unicode="[" horiz-adv-x="333" 
d="M42 -62v789h271v-69h-157v-651h154v-69h-268z" />
    <glyph glyph-name="backslash" unicode="\" 
d="M201 -18l-230 763h106l230 -763h-106z" />
    <glyph glyph-name="bracketright" unicode="]" horiz-adv-x="333" 
d="M291 727v-789h-271v69h157v651h-154v69h268z" />
    <glyph glyph-name="asciicircum" unicode="^" horiz-adv-x="600" 
d="M440 323l-140 286l-140 -286h-100l199 404h82l199 -404h-100z" />
    <glyph glyph-name="underscore" unicode="_" horiz-adv-x="500" 
d="M500 -125h-500v50h500v-50z" />
    <glyph glyph-name="quoteleft" unicode="&#x2018;" 
d="M73 431v147l63 149h66l-54 -154h58v-142h-133z" />
    <glyph glyph-name="a" unicode="a" horiz-adv-x="667" 
d="M599 355v-268c0 -36 2 -72 10 -87h-127c-4 18 -7 36 -7 54c-52 -30 -129 -72 -235 -72c-71 0 -208 30 -208 162c0 181 270 207 443 217v24c0 41 -37 70 -139 70c-114 0 -138 -42 -145 -71h-129c30 146 173 171 273 171c259 0 264 -126 264 -200zM475 148v123
c-72 -3 -135 -13 -193 -27c-77 -18 -113 -44 -114 -91c-1 -46 29 -75 90 -75c94 0 169 41 217 70z" />
    <glyph glyph-name="b" unicode="b" horiz-adv-x="722" 
d="M72 0v727h124v-246c53 38 103 74 206 74c177 0 288 -120 288 -283c0 -182 -131 -290 -283 -290c-123 0 -187 60 -213 87v-69h-122zM196 375v-209c48 -37 98 -78 183 -78c96 0 185 62 185 180c0 121 -94 181 -189 181c-90 0 -141 -43 -179 -74z" />
    <glyph glyph-name="c" unicode="c" horiz-adv-x="666" 
d="M504 192h130c-17 -75 -92 -210 -289 -210c-172 0 -313 84 -313 300c0 141 111 272 302 273c197 1 281 -112 290 -203h-124c-12 43 -65 97 -158 97c-117 0 -184 -86 -184 -172c0 -103 55 -189 174 -189c107 0 161 56 172 104z" />
    <glyph glyph-name="d" unicode="d" horiz-adv-x="722" 
d="M528 0v69c-28 -27 -90 -87 -213 -87c-152 0 -283 108 -283 290c0 163 111 283 288 283c103 0 153 -36 206 -74v246h124v-727h-122zM526 166v209c-38 31 -89 74 -179 74c-95 0 -189 -60 -189 -181c0 -118 89 -180 185 -180c85 0 135 41 183 78z" />
    <glyph glyph-name="e" unicode="e" horiz-adv-x="667" 
d="M165 330h335c-19 91 -81 125 -170 125c-65 0 -140 -22 -165 -125zM486 161h136c-9 -44 -81 -179 -280 -179c-192 0 -307 120 -307 288c0 152 100 285 298 285c202 -2 299 -127 299 -321h-471c5 -34 24 -146 177 -152c78 0 130 37 148 79z" />
    <glyph glyph-name="f" unicode="f" horiz-adv-x="500" 
d="M261 0h-124v413h-119v106h119v62c0 166 170 164 211 164c47 0 80 -6 134 -16v-106c-65 15 -81 15 -109 16c-101 4 -112 -49 -112 -83v-37h193v-106h-193v-413z" />
    <glyph glyph-name="g" unicode="g" horiz-adv-x="667" 
d="M647 564v-114c-11 3 -31 10 -45 8c-14 0 -32 -6 -40 -10c8 -11 25 -43 25 -89c0 -146 -130 -198 -272 -198c-50 0 -89 8 -113 17c-14 -9 -34 -24 -34 -43s12 -32 120 -31h169c121 -4 191 -39 191 -123c0 -128 -187 -165 -349 -165c-150 0 -280 30 -280 119
c0 64 57 73 108 83v2c-46 4 -81 29 -81 83s51 95 94 101v2c-60 33 -89 86 -89 154c0 158 145 195 277 195c94 0 149 -24 186 -49c19 20 59 58 113 58h20zM353 -7h-127c-29 0 -71 -8 -71 -39c0 -44 58 -49 156 -49c97 0 201 11 201 54c0 37 -22 35 -159 34zM316 253
c66 0 149 27 149 106c0 80 -82 104 -148 104c-68 0 -144 -24 -144 -105c0 -84 77 -105 143 -105z" />
    <glyph glyph-name="h" unicode="h" horiz-adv-x="667" 
d="M67 0v727h124v-257c35 38 90 85 199 85c112 0 210 -47 210 -211v-344h-124v298c0 106 -32 151 -115 151c-99 0 -139 -41 -170 -79v-370h-124z" />
    <glyph glyph-name="i" unicode="i" 
d="M77 0v537h124v-537h-124zM77 635v110h124v-110h-124z" />
    <glyph glyph-name="j" unicode="j" 
d="M77 10v527h124v-564c0 -130 -99 -157 -155 -157c-17 0 -44 3 -65 9v111c10 -3 23 -6 40 -6c46 0 56 39 56 80zM77 635v110h124v-110h-124z" />
    <glyph glyph-name="k" unicode="k" horiz-adv-x="667" 
d="M67 0v727h124v-411l272 221h178l-229 -182l243 -355h-149l-188 279l-127 -102v-177h-124z" />
    <glyph glyph-name="l" unicode="l" 
d="M77 0v727h124v-727h-124z" />
    <glyph glyph-name="m" unicode="m" horiz-adv-x="1000" 
d="M63 0v537h122v-61c33 29 79 79 182 79c109 0 150 -52 175 -86c28 34 85 86 189 86c120 0 206 -50 206 -175v-380h-124v325c0 90 -32 124 -108 124c-62 0 -114 -41 -143 -68v-381h-124v325c0 90 -32 124 -108 124c-62 0 -114 -41 -143 -68v-381h-124z" />
    <glyph glyph-name="n" unicode="n" horiz-adv-x="667" 
d="M67 0v537h122v-67c39 38 92 85 201 85c112 0 210 -47 210 -211v-344h-124v298c0 106 -32 151 -115 151c-99 0 -139 -41 -170 -79v-370h-124z" />
    <glyph glyph-name="o" unicode="o" horiz-adv-x="666" 
d="M333 -18c-147 0 -301 73 -301 287c0 144 87 286 301 286s301 -142 301 -286c0 -214 -154 -287 -301 -287zM333 88c111 0 175 69 175 183c0 126 -81 178 -175 178c-95 0 -175 -52 -175 -178c0 -114 64 -183 175 -183z" />
    <glyph glyph-name="p" unicode="p" horiz-adv-x="722" 
d="M72 -184v721h122v-69c28 27 90 87 208 87c177 0 288 -120 288 -283c0 -182 -131 -290 -283 -290c-108 0 -158 36 -211 74v-240h-124zM196 375v-209c48 -37 98 -78 183 -78c96 0 185 62 185 180c0 121 -94 181 -189 181c-90 0 -141 -43 -179 -74z" />
    <glyph glyph-name="q" unicode="q" horiz-adv-x="722" 
d="M526 -184v240c-53 -38 -103 -74 -211 -74c-152 0 -283 108 -283 290c0 163 111 283 288 283c118 0 180 -60 208 -87v69h122v-721h-124zM526 166v209c-38 31 -89 74 -179 74c-95 0 -189 -60 -189 -181c0 -118 89 -180 185 -180c85 0 135 41 183 78z" />
    <glyph glyph-name="r" unicode="r" horiz-adv-x="444" 
d="M67 0v537h124v-80h3c27 44 81 98 188 98c18 0 31 0 44 -2v-134c-12 3 -35 10 -76 10c-158 -1 -158 -106 -159 -144v-285h-124z" />
    <glyph glyph-name="s" unicode="s" horiz-adv-x="611" 
d="M575 429l-103 -57c-19 25 -62 84 -175 84c-90 0 -120 -35 -120 -65c0 -42 52 -49 126 -59c147 -19 281 -41 281 -174c0 -158 -181 -176 -268 -176c-185 0 -243 74 -289 131l105 61c43 -70 118 -92 196 -92c66 0 126 20 126 67c0 41 -30 45 -162 63
c-203 26 -245 91 -245 173c0 56 44 171 253 171c61 0 194 -14 275 -127z" />
    <glyph glyph-name="t" unicode="t" horiz-adv-x="444" 
d="M9 413v106h96v175h124v-175h187v-106h-187v-246c0 -38 15 -79 87 -79c24 0 74 6 106 15v-109c-61 -8 -90 -12 -134 -12c-118 0 -183 38 -183 156v275h-96z" />
    <glyph glyph-name="u" unicode="u" horiz-adv-x="667" 
d="M600 537v-537h-122v67c-37 -38 -92 -85 -201 -85c-112 0 -210 47 -210 211v344h124v-298c0 -106 32 -151 115 -151c99 0 139 41 170 79v370h124z" />
    <glyph glyph-name="v" unicode="v" horiz-adv-x="667" 
d="M17 537h136l181 -398l180 398h136l-256 -537h-124z" />
    <glyph glyph-name="w" unicode="w" horiz-adv-x="944" 
d="M609 0l-137 376l-137 -376h-117l-212 537h130l141 -377l140 377h110l142 -377l143 377h126l-210 -537h-119z" />
    <glyph glyph-name="x" unicode="x" horiz-adv-x="611" 
d="M441 537h157l-217 -262l229 -275h-156l-150 186l-147 -186h-156l229 275l-219 262h156l137 -174z" />
    <glyph glyph-name="y" unicode="y" horiz-adv-x="667" 
d="M39 -168v106c16 -4 43 -12 76 -12c102 0 136 43 136 84c0 25 -5 49 -22 84l-215 443h136l182 -392l182 392h136l-279 -580c-48 -101 -126 -141 -224 -141c-48 0 -86 8 -108 16z" />
    <glyph glyph-name="z" unicode="z" horiz-adv-x="611" 
d="M31 0v77l346 354h-327v106h520v-78l-346 -353h356v-106h-549z" />
    <glyph glyph-name="braceleft" unicode="{" horiz-adv-x="333" 
d="M309 727v-69h-46c-36 0 -44 -34 -44 -67v-149c0 -84 -58 -104 -79 -109v-2c21 -4 79 -24 79 -108v-149c0 -33 8 -67 44 -67h46v-69h-98c-60 0 -98 38 -98 111v161c0 59 -40 85 -73 85v75c33 0 73 26 73 85v161c0 73 38 111 98 111h98z" />
    <glyph glyph-name="bar" unicode="|" horiz-adv-x="222" 
d="M63 -250v1000h96v-1000h-96z" />
    <glyph glyph-name="braceright" unicode="}" horiz-adv-x="333" 
d="M24 -62v69h46c36 0 44 34 44 67v149c0 84 58 104 79 109v2c-21 4 -79 24 -79 108v149c0 33 -8 67 -44 67h-46v69h98c60 0 98 -38 98 -111v-161c0 -59 40 -85 73 -85v-75c-33 0 -73 -26 -73 -85v-161c0 -73 -38 -111 -98 -111h-98z" />
    <glyph glyph-name="asciitilde" unicode="~" horiz-adv-x="600" 
d="M492 347l42 -80c-32 -45 -65 -86 -125 -86c-39 0 -72 18 -105 35s-68 35 -112 35s-68 -38 -84 -70l-42 80c27 51 65 86 125 86c38 0 78 -17 116 -34c37 -18 71 -36 97 -36c42 0 68 43 88 70z" />
    <glyph glyph-name="exclamdown" unicode="&#xa1;" horiz-adv-x="333" 
d="M239 -166h-145l27 496h91zM233 561v-142h-133v142h133z" />
    <glyph glyph-name="cent" unicode="&#xa2;" horiz-adv-x="722" 
d="M246 122l118 327c-116 -1 -182 -87 -182 -172c0 -63 20 -119 64 -155zM150 -139l56 152c-90 43 -150 128 -150 269s111 272 302 273c16 0 32 -1 44 -2l45 122h92l-51 -139c106 -37 153 -117 160 -184h-124c-8 28 -32 61 -74 79l-124 -341c9 -2 19 -2 30 -2
c107 0 161 56 172 104h130c-17 -75 -92 -210 -289 -210c-28 0 -55 2 -80 7l-47 -128h-92z" />
    <glyph glyph-name="sterling" unicode="&#xa3;" horiz-adv-x="722" 
d="M561 220h124c2 -62 -6 -238 -243 -238c-82 0 -168 29 -244 72c-11 -9 -38 -40 -70 -52c-35 -14 -61 -17 -98 -20v128c76 13 132 37 127 205h-127v100h117c-3 24 -7 51 -7 86c1 157 103 244 252 244c216 0 271 -125 283 -222h-129c-15 93 -93 108 -145 108
c-100 0 -128 -66 -128 -136c0 -27 3 -54 7 -80h174v-100h-165c-2 0 -2 -91 -29 -163c65 -30 119 -54 189 -52c91 0 108 74 112 120z" />
    <glyph glyph-name="fraction" unicode="&#x2044;" horiz-adv-x="167" 
d="M-176 -18l431 763h88l-431 -763h-88z" />
    <glyph glyph-name="yen" unicode="&#xa5;" horiz-adv-x="722" 
d="M303 0v136h-173v88h173v67l-1 1h-172v88h134l-250 347h142l203 -308l207 308h142l-251 -347h133v-88h-172l-1 -1v-67h173v-88h-173v-136h-114z" />
    <glyph glyph-name="florin" unicode="&#x192;" horiz-adv-x="722" 
d="M155 370v106h177l10 43c27 110 54 229 236 226c59 -1 94 -12 107 -15l-21 -106c-13 3 -44 15 -95 15c-78 0 -84 -43 -96 -102l-12 -61h173v-106h-192l-58 -296c-39 -201 -87 -258 -233 -258c-52 0 -89 7 -114 12l20 107c25 -7 51 -13 82 -13c71 0 95 27 111 113l63 335
h-158z" />
    <glyph glyph-name="section" unicode="&#xa7;" horiz-adv-x="500" 
d="M358 235c0 28 -14 50 -64 104c-57 61 -89 88 -118 88c-20 0 -39 -15 -40 -40c1 -29 28 -69 98 -136c53 -50 68 -54 88 -54c23 0 36 20 36 38zM416 659l-78 -58c-21 25 -43 58 -83 58c-27 0 -49 -16 -49 -49c1 -37 37 -71 99 -130l39 -36c62 -58 120 -127 120 -198
c0 -68 -44 -121 -115 -119c33 -38 55 -73 54 -124c-1 -75 -55 -147 -145 -147c-85 0 -136 39 -187 94l81 58c21 -39 53 -65 89 -64c37 0 56 24 56 56c0 41 -52 88 -98 135l-55 56c-84 86 -108 131 -108 182c0 87 66 123 113 126c-18 22 -49 60 -49 115c0 46 32 131 146 131
c70 0 125 -35 170 -86z" />
    <glyph glyph-name="currency" unicode="&#xa4;" horiz-adv-x="722" 
d="M97 171l57 57c-26 39 -41 85 -41 135s15 96 40 136l-56 56l71 71l56 -56c40 26 87 41 137 41c51 0 99 -15 137 -41l56 56l71 -65l-58 -59c26 -40 42 -88 42 -139c0 -50 -15 -98 -42 -136l58 -58l-71 -71l-58 58c-37 -26 -84 -41 -135 -41c-49 0 -95 14 -135 41l-58 -58z
M197 363c0 -91 73 -164 164 -164s164 73 164 164s-73 164 -164 164s-164 -73 -164 -164z" />
    <glyph glyph-name="quotesingle" unicode="'" 
d="M91 431v296h96v-296h-96z" />
    <glyph glyph-name="quotedblleft" unicode="&#x201c;" horiz-adv-x="444" 
d="M267 431v147l63 149h66l-54 -154h58v-142h-133zM44 431v147l63 149h66l-54 -154h58v-142h-133z" />
    <glyph glyph-name="guillemotleft" unicode="&#xab;" horiz-adv-x="500" 
d="M234 266l120 165h122l-120 -165l120 -165h-124zM18 266l120 165h122l-120 -165l120 -165h-124z" />
    <glyph glyph-name="guilsinglleft" unicode="&#x2039;" 
d="M12 266l120 165h122l-120 -165l120 -165h-124z" />
    <glyph glyph-name="guilsinglright" unicode="&#x203a;" 
d="M266 266l-120 -165h-122l120 165l-120 165h124z" />
    <glyph glyph-name="endash" unicode="&#x2013;" horiz-adv-x="500" 
d="M0 239v88h500v-88h-500z" />
    <glyph glyph-name="dagger" unicode="&#x2020;" horiz-adv-x="500" 
d="M454 566v-126l-180 41c3 -32 10 -62 20 -99c9 -34 18 -64 25 -79c-10 -42 -24 -133 -33 -214c-9 -94 -12 -160 -15 -233h-42c-3 73 -6 139 -15 233c-9 81 -23 172 -33 214c7 15 16 45 25 79c10 37 17 67 20 99l-180 -41v126l180 -43l-38 222h124l-38 -222z" />
    <glyph glyph-name="daggerdbl" unicode="&#x2021;" horiz-adv-x="500" 
d="M454 567v-126l-181 40l44 -173l-44 -186l181 40v-126l-181 40l39 -220h-124l39 220l-181 -40v126l181 -40l-44 186l44 173l-181 -40v126l181 -42l-39 220h124l-39 -220z" />
    <glyph glyph-name="periodcentered" unicode="&#xb7;" horiz-adv-x="361" 
d="M92 287c0 47 40 89 89 89c47 0 89 -41 89 -89c0 -47 -42 -89 -89 -89c-49 0 -89 43 -89 89z" />
    <glyph glyph-name="paragraph" unicode="&#xb6;" horiz-adv-x="722" 
d="M277 -126v475c-133 0 -215 75 -215 189c0 139 95 189 235 189h283v-853h-100v765h-103v-765h-100z" />
    <glyph glyph-name="bullet" unicode="&#x2022;" horiz-adv-x="500" 
d="M68 364c0 101 81 182 182 182s182 -81 182 -182s-81 -182 -182 -182s-182 81 -182 182z" />
    <glyph glyph-name="quotesinglbase" unicode="&#x201a;" 
d="M72 0v142h133v-147l-63 -149h-66l54 154h-58z" />
    <glyph glyph-name="quotedblbase" unicode="&#x201e;" horiz-adv-x="444" 
d="M44 0v142h133v-147l-63 -149h-66l54 154h-58zM267 0v142h133v-147l-63 -149h-66l54 154h-58z" />
    <glyph glyph-name="quotedblright" unicode="&#x201d;" horiz-adv-x="444" 
d="M44 585v142h133v-147l-63 -149h-66l54 154h-58zM267 585v142h133v-147l-63 -149h-66l54 154h-58z" />
    <glyph glyph-name="guillemotright" unicode="&#xbb;" horiz-adv-x="500" 
d="M266 266l-120 -165h-122l120 165l-120 165h124zM482 266l-120 -165h-122l120 165l-120 165h124z" />
    <glyph glyph-name="ellipsis" unicode="&#x2026;" horiz-adv-x="1000" 
d="M101 0v142h133v-142h-133zM434 0v142h133v-142h-133zM767 0v142h133v-142h-133z" />
    <glyph glyph-name="perthousand" unicode="&#x2030;" horiz-adv-x="1000" 
d="M407 133c0 -38 31 -69 69 -69s69 31 69 69s-31 69 -69 69s-69 -31 -69 -69zM67 -18l430 763h88l-430 -763h-88zM90 594c0 -38 31 -69 69 -69s69 31 69 69s-31 69 -69 69s-69 -31 -69 -69zM325 133c0 83 68 151 151 151s151 -68 151 -151s-68 -151 -151 -151
s-151 68 -151 151zM8 594c0 83 68 151 151 151s151 -68 151 -151s-68 -151 -151 -151s-151 68 -151 151zM772 133c0 -38 31 -69 69 -69s69 31 69 69s-31 69 -69 69s-69 -31 -69 -69zM690 133c0 83 68 151 151 151s151 -68 151 -151s-68 -151 -151 -151s-151 68 -151 151z
" />
    <glyph glyph-name="questiondown" unicode="&#xbf;" horiz-adv-x="611" 
d="M382 332v-35c0 -54 -13 -100 -75 -143l-56 -38c-50 -34 -88 -55 -88 -106c0 -63 60 -88 142 -88c152 0 182 98 189 114l111 -49c-10 -26 -73 -171 -288 -171c-201 0 -280 81 -287 198c-3 56 31 126 124 182c73 44 116 62 116 121v15h112zM393 561v-142h-133v142h133z" />
    <glyph glyph-name="grave" unicode="`" 
d="M138 615l-160 143h139l109 -143h-88z" />
    <glyph glyph-name="acute" unicode="&#xb4;" 
d="M52 615l108 143h140l-160 -143h-88z" />
    <glyph glyph-name="circumflex" unicode="&#x2c6;" 
d="M211 615l-72 89l-75 -89h-100l119 143h111l120 -143h-103z" />
    <glyph glyph-name="tilde" unicode="&#x2dc;" 
d="M244 744h58c0 -19 -14 -115 -103 -115c-23 0 -48 9 -71 19c-23 9 -44 18 -60 18c-25 0 -34 -25 -34 -44h-58c0 30 9 59 27 81c18 21 44 35 77 35c22 0 45 -10 66 -19c21 -10 41 -20 56 -20c42 0 42 30 42 45z" />
    <glyph glyph-name="macron" unicode="&#xaf;" 
d="M-13 643v76h304v-76h-304z" />
    <glyph glyph-name="breve" unicode="&#x2d8;" 
d="M-12 760h61c4 -52 40 -74 89 -74c54 0 84 20 91 74h61c-8 -93 -60 -144 -155 -144c-109 0 -146 76 -147 144z" />
    <glyph glyph-name="dotaccent" unicode="&#x2d9;" 
d="M83 635v110h112v-110h-112z" />
    <glyph glyph-name="dieresis" unicode="&#xa8;" 
d="M175 635v110h112v-110h-112zM-9 635v110h112v-110h-112z" />
    <glyph glyph-name="ring" unicode="&#x2da;" 
d="M17 736c0 67 55 122 122 122s122 -55 122 -122s-55 -122 -122 -122s-122 55 -122 122zM80 736c0 -33 26 -59 59 -59s59 26 59 59s-26 59 -59 59s-59 -26 -59 -59z" />
    <glyph glyph-name="cedilla" unicode="&#xb8;" 
d="M126 0h49l-44 -60l2 -2c8 3 20 5 37 5c38 0 79 -29 79 -76c0 -71 -65 -101 -128 -101c-35 0 -76 12 -98 23l19 50c13 -6 37 -17 69 -17s56 14 56 39c0 22 -14 39 -45 39c-18 0 -32 -5 -40 -8l-22 18z" />
    <glyph glyph-name="hungarumlaut" unicode="&#x2dd;" 
d="M-58 615l107 143h142l-161 -143h-88zM137 615l107 143h142l-161 -143h-88z" />
    <glyph glyph-name="ogonek" unicode="&#x2db;" 
d="M202 0h49c-64 -44 -91 -93 -91 -128c0 -34 13 -50 41 -50c16 0 35 1 44 3l15 -52c-17 -4 -43 -7 -67 -7c-64 0 -115 30 -115 94c0 66 58 106 124 140z" />
    <glyph glyph-name="caron" unicode="&#x2c7;" 
d="M195 615h-111l-120 143h103l72 -89l75 89h100z" />
    <glyph glyph-name="emdash" unicode="&#x2014;" horiz-adv-x="1000" 
d="M0 327h1000v-88h-1000v88z" />
    <glyph glyph-name="AE" unicode="&#xc6;" horiz-adv-x="1055" 
d="M525 289v346h-2l-196 -346h198zM525 0v167h-267l-95 -167h-155l418 727h587v-122h-352v-169h280v-122h-280v-192h366v-122h-502z" />
    <glyph glyph-name="ordfeminine" unicode="&#xaa;" horiz-adv-x="434" 
d="M397 625v-161c0 -21 2 -43 8 -52h-91c-3 11 -5 22 -5 32c-26 -18 -76 -43 -145 -43c-46 0 -135 18 -135 97c0 112 175 128 280 134v11c0 22 -23 39 -83 39c-74 0 -90 -25 -94 -40h-84c20 88 112 103 177 103c169 0 172 -76 172 -120zM309 501v71c-39 -2 -80 -8 -118 -17
c-45 -10 -68 -26 -69 -51c-1 -23 19 -40 58 -40c57 0 105 19 129 37z" />
    <glyph glyph-name="Lslash" unicode="&#x141;" horiz-adv-x="778" 
d="M86 0v252l-86 -48v90l86 48v385h142v-305l276 154v-90l-276 -154v-206h527v-126h-669z" />
    <glyph glyph-name="Oslash" unicode="&#xd8;" horiz-adv-x="944" 
d="M705 535l-394 -398c49 -24 106 -33 161 -33c136 0 291 56 291 262c0 72 -21 129 -58 169zM239 192l394 398c-46 22 -101 33 -161 33c-166 0 -291 -82 -291 -257c0 -78 23 -135 58 -174zM-8 -58l152 154c-79 77 -105 180 -105 262c0 199 113 387 433 387
c108 0 192 -21 257 -58l97 98h126l-150 -152c73 -72 103 -172 103 -275c0 -151 -89 -376 -433 -376c-110 0 -193 23 -255 60l-99 -100h-126z" />
    <glyph glyph-name="OE" unicode="&#x152;" horiz-adv-x="1073" 
d="M535 281v187c0 74 -14 149 -153 149c-144 0 -201 -99 -201 -252c0 -155 43 -259 206 -259c131 0 148 73 148 175zM1045 122v-122h-545c-27 0 -55 -3 -82 -6c-26 -3 -51 -6 -72 -6c-218 0 -307 162 -307 374c0 208 101 377 307 377c26 0 51 -3 77 -6c25 -3 51 -6 77 -6
h531v-122h-350v-169h278v-122h-278v-192h364z" />
    <glyph glyph-name="ordmasculine" unicode="&#xba;" horiz-adv-x="433" 
d="M21 573c0 87 56 172 195 172c140 0 196 -85 196 -172c0 -128 -100 -172 -196 -172c-95 0 -195 44 -195 172zM111 575c0 -63 39 -104 105 -104c67 0 106 41 106 104c0 69 -50 100 -106 100c-55 0 -105 -31 -105 -100z" />
    <glyph glyph-name="ae" unicode="&#xe6;" horiz-adv-x="1000" 
d="M830 160h136c-32 -88 -101 -178 -273 -178c-137 0 -195 57 -226 89c-68 -46 -144 -87 -254 -87c-140 0 -192 89 -192 166c0 182 263 211 396 211v25c0 43 -37 69 -120 69c-97 0 -118 -46 -126 -68h-126c0 40 57 168 258 168c130 0 180 -50 202 -72c29 26 81 72 174 72
c216 0 295 -153 295 -321h-433c0 -48 20 -152 162 -152c81 0 109 48 127 78zM419 150v123c-66 -2 -265 -21 -265 -120c0 -55 45 -73 93 -73c60 0 124 36 172 70zM541 330h297c0 71 -62 125 -144 125c-105 0 -153 -78 -153 -125z" />
    <glyph glyph-name="dotlessi" unicode="&#x131;" 
d="M77 0v537h124v-537h-124z" />
    <glyph glyph-name="lslash" unicode="&#x142;" 
d="M77 0v309l-79 -58v80l79 58v338h124v-248l79 58v-78l-79 -58v-401h-124z" />
    <glyph glyph-name="oslash" unicode="&#xf8;" horiz-adv-x="666" 
d="M486 367l-236 -262c23 -11 51 -17 83 -17c111 0 175 69 175 183c0 39 -8 72 -22 96zM187 159l240 268c-28 15 -60 22 -94 22c-95 0 -175 -52 -175 -178c0 -45 10 -83 29 -112zM-20 -71l124 138c-44 46 -72 111 -72 202c0 144 87 286 301 286c71 0 127 -15 172 -42l69 77
h112l-117 -130c45 -53 65 -122 65 -191c0 -214 -154 -287 -301 -287c-56 0 -113 10 -161 36l-80 -89h-112z" />
    <glyph glyph-name="oe" unicode="&#x153;" horiz-adv-x="1000" 
d="M829 160h133c-24 -88 -98 -178 -260 -178c-116 0 -172 60 -204 87c-26 -30 -82 -87 -205 -87c-183 0 -272 116 -272 291c0 200 133 282 266 282c81 0 164 -34 214 -92c54 63 132 92 205 92c154 0 268 -89 268 -321h-407c0 -111 83 -152 142 -152c55 0 96 28 120 78z
M441 274c0 122 -63 175 -148 175c-86 0 -146 -59 -146 -181c0 -98 42 -180 146 -180c106 0 148 84 148 186zM572 330h269c-5 84 -55 125 -137 125c-78 0 -123 -41 -132 -125z" />
    <glyph glyph-name="germandbls" unicode="&#xdf;" horiz-adv-x="667" 
d="M304 340v100c72 5 153 9 153 98c0 72 -51 101 -129 101c-144 0 -147 -97 -147 -203v-436h-124v488c0 154 83 257 267 257c150 0 257 -65 257 -195c-1 -106 -59 -131 -111 -147v-2c80 -7 170 -61 170 -196c0 -157 -108 -223 -233 -223c-40 0 -104 11 -142 33v118
c40 -25 70 -45 127 -45c88 0 124 58 124 120c0 113 -103 131 -212 132z" />
    <glyph glyph-name="onesuperior" unicode="&#xb9;" horiz-adv-x="469" 
d="M113 623v60c51 6 94 21 131 62h60v-447h-100v325h-91z" />
    <glyph glyph-name="logicalnot" unicode="&#xac;" horiz-adv-x="600" 
d="M457 106v210h-410v96h506v-306h-96z" />
    <glyph glyph-name="mu" unicode="&#xb5;" horiz-adv-x="667" 
d="M600 537v-537h-122v67c-37 -38 -92 -85 -195 -85c-32 0 -66 7 -92 30v-196h-124v721h124v-298c0 -106 32 -151 115 -151c99 0 139 41 170 79v370h124z" />
    <glyph glyph-name="trademark" unicode="&#x2122;" horiz-adv-x="1000" 
d="M179 315v342h-123v70h332v-70h-123v-342h-86zM862 315v312h-2l-117 -312h-62l-117 312h-2v-312h-82v412h124l109 -283l107 283h124v-412h-82z" />
    <glyph glyph-name="Eth" unicode="&#xd0;" horiz-adv-x="889" 
d="M228 424h237v-96h-237v-206h144c242 0 336 74 336 244c0 178 -98 239 -336 239h-144v-181zM86 0v328h-87v96h87v303h350c230 0 414 -97 414 -359c0 -248 -168 -368 -408 -368h-356z" />
    <glyph glyph-name="onehalf" unicode="&#xbd;" horiz-adv-x="1083" 
d="M200 -18l430 763h88l-430 -763h-88zM66 623v60c51 6 94 21 131 62h60v-447h-100v325h-91zM591 0v74l240 134c51 29 86 56 86 92c0 52 -48 65 -108 65c-66 0 -110 -39 -112 -71h-100c0 62 58 153 222 153c97 0 198 -35 198 -148c-2 -69 -38 -107 -117 -150l-120 -62v-2
h231v-85h-420z" />
    <glyph glyph-name="plusminus" unicode="&#xb1;" horiz-adv-x="600" 
d="M47 274v96h205v136h96v-136h205v-96h-205v-136h-96v136h-205zM47 0v96h506v-96h-506z" />
    <glyph glyph-name="Thorn" unicode="&#xde;" horiz-adv-x="833" 
d="M86 0v727h142v-107h263c123 0 325 0 325 -223c0 -222 -202 -222 -325 -222h-263v-175h-142zM228 297h294c81 0 152 7 152 101c0 93 -71 100 -152 100h-294v-201z" />
    <glyph glyph-name="onequarter" unicode="&#xbc;" horiz-adv-x="1083" 
d="M231 -18l430 763h88l-430 -763h-88zM66 623v60c51 6 94 21 131 62h60v-447h-100v325h-91zM856 0v90h-297v70l287 287h110v-284h61v-73h-61v-90h-100zM856 163v192l-191 -192h191z" />
    <glyph glyph-name="divide" unicode="&#xf7;" horiz-adv-x="600" 
d="M47 205v96h506v-96h-506zM216 47c0 46 38 84 84 84s84 -38 84 -84s-38 -84 -84 -84s-84 38 -84 84zM216 459c0 46 38 84 84 84s84 -38 84 -84s-38 -84 -84 -84s-84 38 -84 84z" />
    <glyph glyph-name="brokenbar" unicode="&#xa6;" horiz-adv-x="222" 
d="M63 -175v350h96v-350h-96zM63 325v350h96v-350h-96z" />
    <glyph glyph-name="degree" unicode="&#xb0;" horiz-adv-x="400" 
d="M57 567c0 80 63 143 143 143s143 -63 143 -143s-63 -143 -143 -143s-143 63 -143 143zM127 567c0 -40 33 -73 73 -73s73 33 73 73s-33 73 -73 73s-73 -33 -73 -73z" />
    <glyph glyph-name="thorn" unicode="&#xfe;" horiz-adv-x="722" 
d="M72 -184v911h124v-246c53 38 103 74 206 74c177 0 288 -120 288 -283c0 -182 -131 -290 -283 -290c-108 0 -158 36 -211 74v-240h-124zM196 375v-209c48 -37 98 -78 183 -78c96 0 185 62 185 180c0 121 -94 181 -189 181c-90 0 -141 -43 -179 -74z" />
    <glyph glyph-name="threequarters" unicode="&#xbe;" horiz-adv-x="1083" 
d="M306 -18l430 763h88l-430 -763h-88zM159 489v70h69c48 0 108 16 108 55c0 38 -40 49 -114 49c-90 0 -109 -24 -111 -42h-86c0 30 24 124 206 124c134 0 205 -49 205 -124c0 -58 -48 -82 -73 -90v-2c27 -8 84 -34 84 -104c0 -75 -73 -138 -214 -138
c-185 0 -216 94 -218 139h91c6 -33 41 -57 122 -57c63 0 119 15 119 56c0 39 -27 64 -102 64h-86zM907 0v90h-297v70l287 287h110v-284h61v-73h-61v-90h-100zM907 163v192l-191 -192h191z" />
    <glyph glyph-name="twosuperior" unicode="&#xb2;" horiz-adv-x="469" 
d="M24 298v74l240 134c51 29 86 56 86 92c0 52 -48 65 -108 65c-66 0 -110 -39 -112 -71h-100c0 62 58 153 222 153c97 0 198 -35 198 -148c-2 -69 -38 -107 -117 -150l-120 -62v-2h231v-85h-420z" />
    <glyph glyph-name="registered" unicode="&#xae;" horiz-adv-x="800" 
d="M489 150l-104 178h-53v-178h-77v414h158c101 0 156 -34 156 -121c0 -75 -47 -106 -104 -112l111 -181h-87zM332 387h72c49 0 88 6 88 62c0 48 -46 56 -87 56h-73v-118zM18 364c0 210 171 381 382 381s382 -171 382 -381c0 -211 -171 -382 -382 -382s-382 171 -382 382z
M107 364c0 -165 134 -299 293 -299s293 134 293 299s-134 298 -293 298s-293 -133 -293 -298z" />
    <glyph glyph-name="minus" unicode="&#x2212;" horiz-adv-x="600" 
d="M47 205v96h506v-96h-506z" />
    <glyph glyph-name="eth" unicode="&#xf0;" horiz-adv-x="666" 
d="M165 253c0 -86 46 -171 168 -171s168 85 168 171s-46 169 -168 169s-168 -83 -168 -169zM134 587l103 49c-32 18 -64 30 -92 40l68 69c31 -5 90 -23 137 -53l108 53l43 -42l-94 -46c113 -66 227 -181 227 -390c0 -146 -83 -285 -301 -285c-217 0 -301 134 -301 266
c0 133 84 268 272 268c58 0 100 -7 136 -37l2 2c-35 51 -89 94 -144 123l-121 -59z" />
    <glyph glyph-name="multiply" unicode="&#xd7;" horiz-adv-x="600" 
d="M466 16l-166 165l-166 -165l-71 71l166 166l-166 165l70 71l167 -166l167 166l70 -71l-166 -165l166 -166z" />
    <glyph glyph-name="threesuperior" unicode="&#xb3;" horiz-adv-x="469" 
d="M159 489v70h69c48 0 108 16 108 55c0 38 -40 49 -114 49c-90 0 -109 -24 -111 -42h-86c0 30 24 124 206 124c134 0 205 -49 205 -124c0 -58 -48 -82 -73 -90v-2c27 -8 84 -34 84 -104c0 -75 -73 -138 -214 -138c-185 0 -216 94 -218 139h91c6 -33 41 -57 122 -57
c63 0 119 15 119 56c0 39 -27 64 -102 64h-86z" />
    <glyph glyph-name="copyright" unicode="&#xa9;" horiz-adv-x="800" 
d="M505 298h82c-17 -102 -91 -162 -179 -162c-128 0 -211 100 -211 230c0 131 77 229 208 229c91 0 165 -55 179 -157h-79c-8 48 -45 81 -104 81c-83 0 -128 -66 -128 -153c0 -84 50 -154 131 -154c56 0 94 31 101 86zM18 364c0 210 171 381 382 381s382 -171 382 -381
c0 -211 -171 -382 -382 -382s-382 171 -382 382zM693 364c0 165 -134 298 -293 298s-293 -133 -293 -298s134 -299 293 -299s293 134 293 299z" />
    <glyph glyph-name="Aacute" unicode="&#xc1;" horiz-adv-x="889" 
d="M295 289h304l-152 324zM8 0l358 727h162l353 -727h-150l-76 167h-419l-77 -167h-151zM358 780l108 143h140l-160 -143h-88z" />
    <glyph glyph-name="Acircumflex" unicode="&#xc2;" horiz-adv-x="889" 
d="M295 289h304l-152 324zM8 0l358 727h162l353 -727h-150l-76 167h-419l-77 -167h-151zM517 780l-72 89l-75 -89h-100l119 143h111l120 -143h-103z" />
    <glyph glyph-name="Adieresis" unicode="&#xc4;" horiz-adv-x="889" 
d="M295 289h304l-152 324zM8 0l358 727h162l353 -727h-150l-76 167h-419l-77 -167h-151zM481 800v110h112v-110h-112zM297 800v110h112v-110h-112z" />
    <glyph glyph-name="Agrave" unicode="&#xc0;" horiz-adv-x="889" 
d="M295 289h304l-152 324zM8 0l358 727h162l353 -727h-150l-76 167h-419l-77 -167h-151zM444 780l-160 143h139l109 -143h-88z" />
    <glyph glyph-name="Aring" unicode="&#xc5;" horiz-adv-x="889" 
d="M295 289h304l-152 324zM8 0l358 727h162l353 -727h-150l-76 167h-419l-77 -167h-151zM323 891c0 67 55 122 122 122s122 -55 122 -122s-55 -122 -122 -122s-122 55 -122 122zM386 891c0 -33 26 -59 59 -59s59 26 59 59s-26 59 -59 59s-59 -26 -59 -59z" />
    <glyph glyph-name="Atilde" unicode="&#xc3;" horiz-adv-x="889" 
d="M295 289h304l-152 324zM8 0l358 727h162l353 -727h-150l-76 167h-419l-77 -167h-151zM550 909h58c0 -19 -14 -115 -103 -115c-23 0 -48 9 -71 19c-23 9 -44 18 -60 18c-25 0 -34 -25 -34 -44h-58c0 30 9 59 27 81c18 21 44 35 77 35c22 0 45 -10 66 -19
c21 -10 41 -20 56 -20c42 0 42 30 42 45z" />
    <glyph glyph-name="Ccedilla" unicode="&#xc7;" horiz-adv-x="889" 
d="M708 259h142c-14 -79 -69 -267 -381 -277l-32 -42l2 -2c8 3 20 5 37 5c38 0 79 -29 79 -76c0 -71 -65 -101 -128 -101c-35 0 -76 12 -98 23l19 50c13 -6 37 -17 69 -17s56 14 56 39c0 22 -14 39 -45 39c-18 0 -32 -5 -40 -8l-22 18l54 72c-219 9 -387 137 -387 393
c0 212 133 370 422 370c325 0 373 -211 384 -250h-142c-8 25 -64 128 -234 128c-201 0 -285 -113 -285 -264c0 -167 121 -255 277 -255c166 0 239 99 253 155z" />
    <glyph glyph-name="Eacute" unicode="&#xc9;" horiz-adv-x="778" 
d="M86 0v727h652v-122h-510v-169h439v-122h-439v-192h522v-122h-664zM302 780l108 143h140l-160 -143h-88z" />
    <glyph glyph-name="Ecircumflex" unicode="&#xca;" horiz-adv-x="778" 
d="M86 0v727h652v-122h-510v-169h439v-122h-439v-192h522v-122h-664zM461 780l-72 89l-75 -89h-100l119 143h111l120 -143h-103z" />
    <glyph glyph-name="Edieresis" unicode="&#xcb;" horiz-adv-x="778" 
d="M86 0v727h652v-122h-510v-169h439v-122h-439v-192h522v-122h-664zM425 800v110h112v-110h-112zM241 800v110h112v-110h-112z" />
    <glyph glyph-name="Egrave" unicode="&#xc8;" horiz-adv-x="778" 
d="M86 0v727h652v-122h-510v-169h439v-122h-439v-192h522v-122h-664zM388 780l-160 143h139l109 -143h-88z" />
    <glyph glyph-name="Iacute" unicode="&#xcd;" horiz-adv-x="332" 
d="M95 0v727h142v-727h-142zM79 780l108 143h140l-160 -143h-88z" />
    <glyph glyph-name="Icircumflex" unicode="&#xce;" horiz-adv-x="332" 
d="M95 0v727h142v-727h-142zM238 780l-72 89l-75 -89h-100l119 143h111l120 -143h-103z" />
    <glyph glyph-name="Idieresis" unicode="&#xcf;" horiz-adv-x="332" 
d="M95 0v727h142v-727h-142zM202 800v110h112v-110h-112zM18 800v110h112v-110h-112z" />
    <glyph glyph-name="Igrave" unicode="&#xcc;" horiz-adv-x="332" 
d="M95 0v727h142v-727h-142zM165 780l-160 143h139l109 -143h-88z" />
    <glyph glyph-name="Ntilde" unicode="&#xd1;" horiz-adv-x="944" 
d="M86 0v727h150l486 -525v525h136v-727h-130l-506 544v-544h-136zM577 909h58c0 -19 -14 -115 -103 -115c-23 0 -48 9 -71 19c-23 9 -44 18 -60 18c-25 0 -34 -25 -34 -44h-58c0 30 9 59 27 81c18 21 44 35 77 35c22 0 45 -10 66 -19c21 -10 41 -20 56 -20
c42 0 42 30 42 45z" />
    <glyph glyph-name="Oacute" unicode="&#xd3;" horiz-adv-x="944" 
d="M472 104c136 0 291 56 291 262c0 175 -125 257 -291 257s-291 -82 -291 -257c0 -206 155 -262 291 -262zM39 358c0 199 113 387 433 387s433 -188 433 -387c0 -151 -89 -376 -433 -376s-433 225 -433 376zM385 780l108 143h140l-160 -143h-88z" />
    <glyph glyph-name="Ocircumflex" unicode="&#xd4;" horiz-adv-x="944" 
d="M472 104c136 0 291 56 291 262c0 175 -125 257 -291 257s-291 -82 -291 -257c0 -206 155 -262 291 -262zM39 358c0 199 113 387 433 387s433 -188 433 -387c0 -151 -89 -376 -433 -376s-433 225 -433 376zM544 780l-72 89l-75 -89h-100l119 143h111l120 -143h-103z" />
    <glyph glyph-name="Odieresis" unicode="&#xd6;" horiz-adv-x="944" 
d="M472 104c136 0 291 56 291 262c0 175 -125 257 -291 257s-291 -82 -291 -257c0 -206 155 -262 291 -262zM39 358c0 199 113 387 433 387s433 -188 433 -387c0 -151 -89 -376 -433 -376s-433 225 -433 376zM508 800v110h112v-110h-112zM324 800v110h112v-110h-112z" />
    <glyph glyph-name="Ograve" unicode="&#xd2;" horiz-adv-x="944" 
d="M472 104c136 0 291 56 291 262c0 175 -125 257 -291 257s-291 -82 -291 -257c0 -206 155 -262 291 -262zM39 358c0 199 113 387 433 387s433 -188 433 -387c0 -151 -89 -376 -433 -376s-433 225 -433 376zM471 780l-160 143h139l109 -143h-88z" />
    <glyph glyph-name="Otilde" unicode="&#xd5;" horiz-adv-x="944" 
d="M472 104c136 0 291 56 291 262c0 175 -125 257 -291 257s-291 -82 -291 -257c0 -206 155 -262 291 -262zM39 358c0 199 113 387 433 387s433 -188 433 -387c0 -151 -89 -376 -433 -376s-433 225 -433 376zM577 909h58c0 -19 -14 -115 -103 -115c-23 0 -48 9 -71 19
c-23 9 -44 18 -60 18c-25 0 -34 -25 -34 -44h-58c0 30 9 59 27 81c18 21 44 35 77 35c22 0 45 -10 66 -19c21 -10 41 -20 56 -20c42 0 42 30 42 45z" />
    <glyph glyph-name="Scaron" unicode="&#x160;" horiz-adv-x="833" 
d="M786 550l-134 -44c-23 65 -82 121 -255 121c-96 0 -193 -24 -193 -91c0 -31 18 -64 163 -82l172 -26c163 -25 259 -88 259 -210c0 -172 -164 -236 -358 -236c-312 0 -388 154 -405 209l137 43c26 -53 80 -130 272 -130c116 0 212 38 212 101c0 47 -54 78 -158 91l-174 24
c-168 23 -262 96 -262 207c0 218 283 218 339 218c313 0 367 -145 385 -195zM473 780h-111l-120 143h103l72 -89l75 89h100z" />
    <glyph glyph-name="Uacute" unicode="&#xda;" horiz-adv-x="944" 
d="M858 727v-415c0 -234 -149 -330 -386 -330s-386 96 -386 330v415h142v-405c0 -120 43 -218 244 -218s244 98 244 218v405h142zM385 780l108 143h140l-160 -143h-88z" />
    <glyph glyph-name="Ucircumflex" unicode="&#xdb;" horiz-adv-x="944" 
d="M858 727v-415c0 -234 -149 -330 -386 -330s-386 96 -386 330v415h142v-405c0 -120 43 -218 244 -218s244 98 244 218v405h142zM544 780l-72 89l-75 -89h-100l119 143h111l120 -143h-103z" />
    <glyph glyph-name="Udieresis" unicode="&#xdc;" horiz-adv-x="944" 
d="M858 727v-415c0 -234 -149 -330 -386 -330s-386 96 -386 330v415h142v-405c0 -120 43 -218 244 -218s244 98 244 218v405h142zM508 800v110h112v-110h-112zM324 800v110h112v-110h-112z" />
    <glyph glyph-name="Ugrave" unicode="&#xd9;" horiz-adv-x="944" 
d="M858 727v-415c0 -234 -149 -330 -386 -330s-386 96 -386 330v415h142v-405c0 -120 43 -218 244 -218s244 98 244 218v405h142zM471 780l-160 143h139l109 -143h-88z" />
    <glyph glyph-name="Yacute" unicode="&#xdd;" horiz-adv-x="888" 
d="M373 0v291l-355 436h174l252 -308l251 308h175l-355 -436v-291h-142zM357 780l108 143h140l-160 -143h-88z" />
    <glyph glyph-name="Ydieresis" unicode="&#x178;" horiz-adv-x="888" 
d="M373 0v291l-355 436h174l252 -308l251 308h175l-355 -436v-291h-142zM480 800v110h112v-110h-112zM296 800v110h112v-110h-112z" />
    <glyph glyph-name="Zcaron" unicode="&#x17d;" horiz-adv-x="778" 
d="M754 0h-730v70l508 535h-482v122h692v-80l-494 -525h506v-122zM445 780h-111l-120 143h103l72 -89l75 89h100z" />
    <glyph glyph-name="aacute" unicode="&#xe1;" horiz-adv-x="667" 
d="M599 355v-268c0 -36 2 -72 10 -87h-127c-4 18 -7 36 -7 54c-52 -30 -129 -72 -235 -72c-71 0 -208 30 -208 162c0 181 270 207 443 217v24c0 41 -37 70 -139 70c-114 0 -138 -42 -145 -71h-129c30 146 173 171 273 171c259 0 264 -126 264 -200zM475 148v123
c-72 -3 -135 -13 -193 -27c-77 -18 -113 -44 -114 -91c-1 -46 29 -75 90 -75c94 0 169 41 217 70zM247 615l108 143h140l-160 -143h-88z" />
    <glyph glyph-name="acircumflex" unicode="&#xe2;" horiz-adv-x="667" 
d="M599 355v-268c0 -36 2 -72 10 -87h-127c-4 18 -7 36 -7 54c-52 -30 -129 -72 -235 -72c-71 0 -208 30 -208 162c0 181 270 207 443 217v24c0 41 -37 70 -139 70c-114 0 -138 -42 -145 -71h-129c30 146 173 171 273 171c259 0 264 -126 264 -200zM475 148v123
c-72 -3 -135 -13 -193 -27c-77 -18 -113 -44 -114 -91c-1 -46 29 -75 90 -75c94 0 169 41 217 70zM406 615l-72 89l-75 -89h-100l119 143h111l120 -143h-103z" />
    <glyph glyph-name="adieresis" unicode="&#xe4;" horiz-adv-x="667" 
d="M599 355v-268c0 -36 2 -72 10 -87h-127c-4 18 -7 36 -7 54c-52 -30 -129 -72 -235 -72c-71 0 -208 30 -208 162c0 181 270 207 443 217v24c0 41 -37 70 -139 70c-114 0 -138 -42 -145 -71h-129c30 146 173 171 273 171c259 0 264 -126 264 -200zM475 148v123
c-72 -3 -135 -13 -193 -27c-77 -18 -113 -44 -114 -91c-1 -46 29 -75 90 -75c94 0 169 41 217 70zM370 635v110h112v-110h-112zM186 635v110h112v-110h-112z" />
    <glyph glyph-name="agrave" unicode="&#xe0;" horiz-adv-x="667" 
d="M599 355v-268c0 -36 2 -72 10 -87h-127c-4 18 -7 36 -7 54c-52 -30 -129 -72 -235 -72c-71 0 -208 30 -208 162c0 181 270 207 443 217v24c0 41 -37 70 -139 70c-114 0 -138 -42 -145 -71h-129c30 146 173 171 273 171c259 0 264 -126 264 -200zM475 148v123
c-72 -3 -135 -13 -193 -27c-77 -18 -113 -44 -114 -91c-1 -46 29 -75 90 -75c94 0 169 41 217 70zM333 615l-160 143h139l109 -143h-88z" />
    <glyph glyph-name="aring" unicode="&#xe5;" horiz-adv-x="667" 
d="M599 355v-268c0 -36 2 -72 10 -87h-127c-4 18 -7 36 -7 54c-52 -30 -129 -72 -235 -72c-71 0 -208 30 -208 162c0 181 270 207 443 217v24c0 41 -37 70 -139 70c-114 0 -138 -42 -145 -71h-129c30 146 173 171 273 171c259 0 264 -126 264 -200zM475 148v123
c-72 -3 -135 -13 -193 -27c-77 -18 -113 -44 -114 -91c-1 -46 29 -75 90 -75c94 0 169 41 217 70zM212 736c0 67 55 122 122 122s122 -55 122 -122s-55 -122 -122 -122s-122 55 -122 122zM275 736c0 -33 26 -59 59 -59s59 26 59 59s-26 59 -59 59s-59 -26 -59 -59z" />
    <glyph glyph-name="atilde" unicode="&#xe3;" horiz-adv-x="667" 
d="M599 355v-268c0 -36 2 -72 10 -87h-127c-4 18 -7 36 -7 54c-52 -30 -129 -72 -235 -72c-71 0 -208 30 -208 162c0 181 270 207 443 217v24c0 41 -37 70 -139 70c-114 0 -138 -42 -145 -71h-129c30 146 173 171 273 171c259 0 264 -126 264 -200zM475 148v123
c-72 -3 -135 -13 -193 -27c-77 -18 -113 -44 -114 -91c-1 -46 29 -75 90 -75c94 0 169 41 217 70zM439 744h58c0 -19 -14 -115 -103 -115c-23 0 -48 9 -71 19c-23 9 -44 18 -60 18c-25 0 -34 -25 -34 -44h-58c0 30 9 59 27 81c18 21 44 35 77 35c22 0 45 -10 66 -19
c21 -10 41 -20 56 -20c42 0 42 30 42 45z" />
    <glyph glyph-name="ccedilla" unicode="&#xe7;" horiz-adv-x="666" 
d="M504 192h130c-35 -141 -149 -204 -272 -210l-32 -42l2 -2c8 3 20 5 37 5c38 0 79 -29 79 -76c0 -71 -65 -101 -128 -101c-35 0 -76 12 -98 23l19 50c13 -6 37 -17 69 -17s56 14 56 39c0 22 -14 39 -45 39c-18 0 -32 -5 -40 -8l-22 18l54 72c-150 10 -281 98 -281 300
c0 156 120 273 302 273c161 0 266 -71 290 -203h-124c-16 52 -70 97 -158 97c-103 0 -184 -68 -184 -170c0 -104 76 -191 162 -191c104 0 151 38 184 104z" />
    <glyph glyph-name="eacute" unicode="&#xe9;" horiz-adv-x="667" 
d="M165 330h335c-19 91 -81 125 -170 125c-65 0 -140 -22 -165 -125zM486 161h136c-9 -44 -81 -179 -280 -179c-192 0 -307 120 -307 288c0 152 100 285 298 285c202 -2 299 -127 299 -321h-471c5 -34 24 -146 177 -152c78 0 130 37 148 79zM247 615l108 143h140l-160 -143
h-88z" />
    <glyph glyph-name="ecircumflex" unicode="&#xea;" horiz-adv-x="667" 
d="M165 330h335c-19 91 -81 125 -170 125c-65 0 -140 -22 -165 -125zM486 161h136c-9 -44 -81 -179 -280 -179c-192 0 -307 120 -307 288c0 152 100 285 298 285c202 -2 299 -127 299 -321h-471c5 -34 24 -146 177 -152c78 0 130 37 148 79zM406 615l-72 89l-75 -89h-100
l119 143h111l120 -143h-103z" />
    <glyph glyph-name="edieresis" unicode="&#xeb;" horiz-adv-x="667" 
d="M165 330h335c-19 91 -81 125 -170 125c-65 0 -140 -22 -165 -125zM486 161h136c-9 -44 -81 -179 -280 -179c-192 0 -307 120 -307 288c0 152 100 285 298 285c202 -2 299 -127 299 -321h-471c5 -34 24 -146 177 -152c78 0 130 37 148 79zM370 635v110h112v-110h-112z
M186 635v110h112v-110h-112z" />
    <glyph glyph-name="egrave" unicode="&#xe8;" horiz-adv-x="667" 
d="M165 330h335c-19 91 -81 125 -170 125c-65 0 -140 -22 -165 -125zM486 161h136c-9 -44 -81 -179 -280 -179c-192 0 -307 120 -307 288c0 152 100 285 298 285c202 -2 299 -127 299 -321h-471c5 -34 24 -146 177 -152c78 0 130 37 148 79zM333 615l-160 143h139l109 -143
h-88z" />
    <glyph glyph-name="iacute" unicode="&#xed;" 
d="M77 0v537h124v-537h-124zM52 615l108 143h140l-160 -143h-88z" />
    <glyph glyph-name="icircumflex" unicode="&#xee;" 
d="M77 0v537h124v-537h-124zM211 615l-72 89l-75 -89h-100l119 143h111l120 -143h-103z" />
    <glyph glyph-name="idieresis" unicode="&#xef;" 
d="M77 0v537h124v-537h-124zM175 635v110h112v-110h-112zM-9 635v110h112v-110h-112z" />
    <glyph glyph-name="igrave" unicode="&#xec;" 
d="M77 0v537h124v-537h-124zM138 615l-160 143h139l109 -143h-88z" />
    <glyph glyph-name="ntilde" unicode="&#xf1;" horiz-adv-x="667" 
d="M67 0v537h122v-67c39 38 92 85 201 85c112 0 210 -47 210 -211v-344h-124v298c0 106 -32 151 -115 151c-99 0 -139 -41 -170 -79v-370h-124zM439 744h58c0 -19 -14 -115 -103 -115c-23 0 -48 9 -71 19c-23 9 -44 18 -60 18c-25 0 -34 -25 -34 -44h-58c0 30 9 59 27 81
c18 21 44 35 77 35c22 0 45 -10 66 -19c21 -10 41 -20 56 -20c42 0 42 30 42 45z" />
    <glyph glyph-name="oacute" unicode="&#xf3;" horiz-adv-x="666" 
d="M333 -18c-147 0 -301 73 -301 287c0 144 87 286 301 286s301 -142 301 -286c0 -214 -154 -287 -301 -287zM333 88c111 0 175 69 175 183c0 126 -81 178 -175 178c-95 0 -175 -52 -175 -178c0 -114 64 -183 175 -183zM246 615l108 143h140l-160 -143h-88z" />
    <glyph glyph-name="ocircumflex" unicode="&#xf4;" horiz-adv-x="666" 
d="M333 -18c-147 0 -301 73 -301 287c0 144 87 286 301 286s301 -142 301 -286c0 -214 -154 -287 -301 -287zM333 88c111 0 175 69 175 183c0 126 -81 178 -175 178c-95 0 -175 -52 -175 -178c0 -114 64 -183 175 -183zM405 615l-72 89l-75 -89h-100l119 143h111l120 -143
h-103z" />
    <glyph glyph-name="odieresis" unicode="&#xf6;" horiz-adv-x="666" 
d="M333 -18c-147 0 -301 73 -301 287c0 144 87 286 301 286s301 -142 301 -286c0 -214 -154 -287 -301 -287zM333 88c111 0 175 69 175 183c0 126 -81 178 -175 178c-95 0 -175 -52 -175 -178c0 -114 64 -183 175 -183zM369 635v110h112v-110h-112zM185 635v110h112v-110
h-112z" />
    <glyph glyph-name="ograve" unicode="&#xf2;" horiz-adv-x="666" 
d="M333 -18c-147 0 -301 73 -301 287c0 144 87 286 301 286s301 -142 301 -286c0 -214 -154 -287 -301 -287zM333 88c111 0 175 69 175 183c0 126 -81 178 -175 178c-95 0 -175 -52 -175 -178c0 -114 64 -183 175 -183zM332 615l-160 143h139l109 -143h-88z" />
    <glyph glyph-name="otilde" unicode="&#xf5;" horiz-adv-x="666" 
d="M333 -18c-147 0 -301 73 -301 287c0 144 87 286 301 286s301 -142 301 -286c0 -214 -154 -287 -301 -287zM333 88c111 0 175 69 175 183c0 126 -81 178 -175 178c-95 0 -175 -52 -175 -178c0 -114 64 -183 175 -183zM438 744h58c0 -19 -14 -115 -103 -115
c-23 0 -48 9 -71 19c-23 9 -44 18 -60 18c-25 0 -34 -25 -34 -44h-58c0 30 9 59 27 81c18 21 44 35 77 35c22 0 45 -10 66 -19c21 -10 41 -20 56 -20c42 0 42 30 42 45z" />
    <glyph glyph-name="scaron" unicode="&#x161;" horiz-adv-x="611" 
d="M575 429l-103 -57c-19 25 -62 84 -175 84c-90 0 -120 -35 -120 -65c0 -42 52 -49 126 -59c147 -19 281 -41 281 -174c0 -158 -181 -176 -268 -176c-185 0 -243 74 -289 131l105 61c43 -70 118 -92 196 -92c66 0 126 20 126 67c0 41 -30 45 -162 63
c-203 26 -245 91 -245 173c0 56 44 171 253 171c61 0 194 -14 275 -127zM362 615h-111l-120 143h103l72 -89l75 89h100z" />
    <glyph glyph-name="uacute" unicode="&#xfa;" horiz-adv-x="667" 
d="M600 537v-537h-122v67c-37 -38 -92 -85 -201 -85c-112 0 -210 47 -210 211v344h124v-298c0 -106 32 -151 115 -151c99 0 139 41 170 79v370h124zM247 615l108 143h140l-160 -143h-88z" />
    <glyph glyph-name="ucircumflex" unicode="&#xfb;" horiz-adv-x="667" 
d="M600 537v-537h-122v67c-37 -38 -92 -85 -201 -85c-112 0 -210 47 -210 211v344h124v-298c0 -106 32 -151 115 -151c99 0 139 41 170 79v370h124zM406 615l-72 89l-75 -89h-100l119 143h111l120 -143h-103z" />
    <glyph glyph-name="udieresis" unicode="&#xfc;" horiz-adv-x="667" 
d="M600 537v-537h-122v67c-37 -38 -92 -85 -201 -85c-112 0 -210 47 -210 211v344h124v-298c0 -106 32 -151 115 -151c99 0 139 41 170 79v370h124zM370 635v110h112v-110h-112zM186 635v110h112v-110h-112z" />
    <glyph glyph-name="ugrave" unicode="&#xf9;" horiz-adv-x="667" 
d="M600 537v-537h-122v67c-37 -38 -92 -85 -201 -85c-112 0 -210 47 -210 211v344h124v-298c0 -106 32 -151 115 -151c99 0 139 41 170 79v370h124zM333 615l-160 143h139l109 -143h-88z" />
    <glyph glyph-name="yacute" unicode="&#xfd;" horiz-adv-x="667" 
d="M39 -168v106c16 -4 43 -12 76 -12c102 0 136 43 136 84c0 25 -5 49 -22 84l-215 443h136l182 -392l182 392h136l-279 -580c-48 -101 -126 -141 -224 -141c-48 0 -86 8 -108 16zM247 615l108 143h140l-160 -143h-88z" />
    <glyph glyph-name="ydieresis" unicode="&#xff;" horiz-adv-x="667" 
d="M39 -168v106c16 -4 43 -12 76 -12c102 0 136 43 136 84c0 25 -5 49 -22 84l-215 443h136l182 -392l182 392h136l-279 -580c-48 -101 -126 -141 -224 -141c-48 0 -86 8 -108 16zM370 635v110h112v-110h-112zM186 635v110h112v-110h-112z" />
    <glyph glyph-name="zcaron" unicode="&#x17e;" horiz-adv-x="611" 
d="M31 0v77l346 354h-327v106h520v-78l-346 -353h356v-106h-549zM362 615h-111l-120 143h103l72 -89l75 89h100z" />
    <glyph glyph-name="Delta" unicode="&#x2206;" horiz-adv-x="833" 
d="M34 0v68l312 687h143l309 -687v-68h-764zM161 90h501l-170 378c-21 52 -63 143 -78 189h-5c-12 -33 -49 -119 -70 -170z" />
    <glyph glyph-name="Omega" unicode="&#x2126;" horiz-adv-x="939" 
d="M247 89v3c-86 56 -171 159 -171 306c0 197 167 349 395 349c239 0 391 -168 391 -347c0 -149 -85 -252 -174 -308v-3h191v-89h-330v68c100 51 192 148 192 314c0 135 -98 277 -269 277c-163 0 -274 -125 -274 -282c0 -152 91 -262 191 -309v-68h-330v89h188z" />
    <glyph glyph-name="uni03BC" unicode="&#x3bc;" horiz-adv-x="667" 
d="M600 537v-537h-122v67c-37 -38 -92 -85 -195 -85c-32 0 -66 7 -92 30v-196h-124v721h124v-298c0 -106 32 -151 115 -151c99 0 139 41 170 79v370h124z" />
    <glyph glyph-name="pi" unicode="&#x3c0;" horiz-adv-x="742" 
d="M710 457h-98v-285c0 -91 8 -141 17 -172h-118c-13 18 -21 71 -21 160v297h-210c-6 -135 -43 -370 -86 -457h-119c44 108 81 323 85 457c-70 0 -109 -4 -138 -14l-16 72c31 20 88 33 193 33h522z" />
    <glyph glyph-name="Euro" unicode="&#x20ac;" horiz-adv-x="722" 
d="M671 192v-149c-35 -21 -74 -38 -110 -47c-40 -10 -88 -14 -125 -14c-74 0 -175 16 -252 103c-35 39 -66 97 -78 166h-102l36 88h55c0 5 -2 23 -2 36s1 25 2 32h-91l36 88h67c15 80 59 142 108 181c76 60 165 69 237 69c50 0 95 -6 140 -20c47 -14 83 -34 111 -55
l-49 -122c-17 15 -55 45 -108 64c-34 12 -69 19 -108 19c-48 0 -95 -9 -134 -42c-17 -15 -31 -33 -42 -53c-7 -13 -12 -26 -16 -41h386l-35 -88h-369c-1 -7 -2 -22 -2 -36c0 -12 1 -25 2 -32h341l-35 -88h-293c4 -24 16 -69 59 -108c38 -35 81 -47 133 -47c14 0 28 1 42 3
c22 3 45 9 66 17c42 15 87 39 130 76z" />
    <glyph glyph-name="afii61289" unicode="&#x2113;" horiz-adv-x="637" 
d="M552 189l55 -50c-63 -108 -157 -152 -256 -152c-132 0 -197 80 -213 178c0 4 0 8 -1 11c-22 -15 -44 -32 -67 -48l-35 63c34 25 69 47 100 71v267c0 204 97 276 205 276c120 0 173 -88 173 -184c0 -135 -103 -255 -264 -387l1 -22c2 -90 63 -133 128 -133
c77 0 141 57 174 110zM249 555v-220c100 95 176 191 176 283c0 62 -22 108 -81 108c-42 0 -95 -41 -95 -171z" />
    <glyph glyph-name="estimated" unicode="&#x212e;" horiz-adv-x="920" 
d="M883 353h-686c-3 0 -6 -1 -6 -5v-207c0 -9 4 -17 9 -24c67 -69 158 -113 260 -113c109 0 207 50 273 126h61c-76 -89 -199 -147 -335 -147c-234 0 -423 170 -423 380c0 211 189 382 423 382c235 0 424 -171 424 -382v-10zM728 380v209c0 9 -4 18 -11 25
c-66 65 -157 108 -257 108s-192 -44 -258 -112c-7 -7 -11 -16 -11 -26v-204c0 -2 3 -7 6 -7h526c3 0 5 5 5 7z" />
    <glyph glyph-name="partialdiff" unicode="&#x2202;" horiz-adv-x="703" 
d="M124 679l-39 76c38 26 111 64 224 64c182 0 335 -150 335 -405c0 -230 -124 -429 -343 -429c-178 0 -255 145 -255 251c0 157 117 267 268 267c119 0 192 -82 211 -114h2c1 12 1 32 1 44c0 176 -101 296 -232 296c-82 0 -140 -29 -172 -50zM312 74h1
c111 0 183 112 199 223c-15 42 -79 120 -174 120c-96 0 -174 -79 -174 -180c0 -90 61 -163 148 -163z" />
    <glyph glyph-name="product" unicode="&#x220f;" horiz-adv-x="891" 
d="M863 636h-140v-737h-116v737h-325v-737h-115v737h-140v98h836v-98z" />
    <glyph glyph-name="summation" unicode="&#x2211;" horiz-adv-x="705" 
d="M680 -101h-655v66l325 348l-309 346v75h619v-97h-452v-3l278 -309l-300 -324v-2h494v-100z" />
    <glyph glyph-name="uni2219" unicode="&#x2219;" horiz-adv-x="361" 
d="M92 287c0 47 40 89 89 89c47 0 89 -41 89 -89c0 -47 -42 -89 -89 -89c-49 0 -89 43 -89 89z" />
    <glyph glyph-name="radical" unicode="&#x221a;" horiz-adv-x="720" 
d="M735 871l-285 -1030h-99l-199 478l-92 -35l-23 60l184 74l156 -394c8 -24 17 -48 23 -72h2c4 22 12 49 18 75l228 844h87z" />
    <glyph glyph-name="infinity" unicode="&#x221e;" horiz-adv-x="914" 
d="M856 305v-2c0 -118 -90 -191 -184 -191c-70 0 -133 42 -214 138c-62 -72 -125 -138 -220 -138c-96 0 -180 79 -180 187c0 110 82 190 189 190c89 0 155 -62 217 -136c56 63 116 137 216 136c103 0 176 -75 176 -184zM246 177h2c71 0 128 71 174 120
c-50 62 -100 129 -181 129c-70 0 -114 -57 -114 -128c0 -65 48 -121 119 -121zM673 426h-1c-76 0 -135 -81 -175 -123c76 -87 120 -126 179 -126c71 0 111 64 111 122c0 78 -48 127 -114 127z" />
    <glyph glyph-name="integral" unicode="&#x222b;" horiz-adv-x="435" 
d="M424 886l-16 -73c-11 7 -30 12 -47 12c-21 0 -47 -8 -63 -26c-28 -32 -38 -90 -38 -183c0 -166 18 -338 18 -516c0 -107 -23 -172 -48 -209c-30 -46 -82 -66 -133 -66c-33 0 -71 10 -88 19l17 76c11 -6 33 -15 57 -15c21 0 43 8 57 24c25 28 42 71 42 174
c0 179 -19 354 -19 525c0 117 19 185 69 230c32 32 78 44 122 44c27 0 57 -9 70 -16z" />
    <glyph glyph-name="approxequal" unicode="&#x2248;" horiz-adv-x="695" 
d="M597 480l44 -43c-41 -65 -94 -109 -163 -109c-53 0 -87 18 -145 48c-35 19 -70 38 -112 38c-57 0 -92 -40 -126 -84l-44 43c38 64 105 109 176 109c59 0 99 -26 135 -45c45 -25 70 -41 115 -41c49 0 83 28 120 84zM597 272l44 -43c-41 -64 -93 -109 -164 -109
c-53 0 -88 20 -144 49c-36 20 -71 38 -112 38c-58 0 -92 -40 -126 -85l-44 43c38 65 105 110 176 110c59 0 99 -26 134 -44c39 -21 68 -42 116 -42c50 0 82 27 120 83z" />
    <glyph glyph-name="notequal" unicode="&#x2260;" horiz-adv-x="695" 
d="M499 560l-52 -111h187v-67h-217l-79 -166h296v-67h-326l-66 -142l-56 27l54 115h-179v67h210l78 166h-288v67h318l64 138z" />
    <glyph glyph-name="lessequal" unicode="&#x2264;" horiz-adv-x="695" 
d="M631 101l-564 255v73l564 255v-77l-489 -213v-2l489 -214v-77zM634 -12h-573v69h573v-69z" />
    <glyph glyph-name="greaterequal" unicode="&#x2265;" horiz-adv-x="695" 
d="M67 684l565 -256v-72l-565 -255v77l488 214v2l-488 213v77zM631 -12h-569v69h569v-69z" />
    <glyph glyph-name="lozenge" unicode="&#x25ca;" horiz-adv-x="721" 
d="M658 366l-253 -422h-91l-251 422l252 422h91zM554 364l-171 292c-8 15 -19 35 -23 48h-3c-5 -15 -14 -32 -23 -48l-168 -288l172 -294c10 -18 18 -35 21 -46h4c4 12 14 33 22 46z" />
    <glyph glyph-name="uni00A0" unicode="&#xa0;" horiz-adv-x="361" 
 />
    <glyph glyph-name="uni00AD" unicode="&#xad;" horiz-adv-x="333" 
d="M44 230v106h245v-106h-245z" />
    <glyph glyph-name="uni02C9" unicode="&#x2c9;" 
d="M-13 643v76h304v-76h-304z" />
    <glyph glyph-name="uni03A9" unicode="&#x3a9;" horiz-adv-x="939" 
d="M247 89v3c-86 56 -171 159 -171 306c0 197 167 349 395 349c239 0 391 -168 391 -347c0 -149 -85 -252 -174 -308v-3h191v-89h-330v68c100 51 192 148 192 314c0 135 -98 277 -269 277c-163 0 -274 -125 -274 -282c0 -152 91 -262 191 -309v-68h-330v89h188z" />
    <glyph glyph-name="uni2215" unicode="&#x2215;" horiz-adv-x="167" 
d="M-176 -18l431 763h88l-431 -763h-88z" />
    </font>
</defs>
</svg>
