<svg class="ico-svg" xmlns="http://www.w3.org/2000/svg" viewBox="0 0 512 512">
<path class="st0" d="M256 49.5c67.3 0 75.2 0.3 101.8 1.5 24.6 1.1 37.9 5.2 46.8 8.7 11.8 4.6 20.2 10 29 18.8 8.8 8.8 14.3 17.2 18.8 29 3.5 8.9 7.6 22.2 8.7 46.8 1.2 26.6 1.5 34.5 1.5 101.8s-0.3 75.2-1.5 101.8c-1.1 24.6-5.2 37.9-8.7 46.8 -4.6 11.8-10 20.2-18.8 29 -8.8 8.8-17.2 14.3-29 18.8 -8.9 3.5-22.2 7.6-46.8 8.7 -26.6 1.2-34.5 1.5-101.8 1.5s-75.2-0.3-101.8-1.5c-24.6-1.1-37.9-5.2-46.8-8.7 -11.8-4.6-20.1-10-29-18.8 -8.8-8.8-14.3-17.2-18.8-29 -3.4-8.9-7.5-22.2-8.7-46.8 -1.2-26.6-1.5-34.5-1.5-101.8s0.3-75.2 1.5-101.8c1.1-24.6 5.2-37.9 8.7-46.8 4.6-11.8 10-20.1 18.8-29 8.8-8.8 17.2-14.3 29-18.8 8.9-3.4 22.2-7.5 46.8-8.7C180.8 49.7 188.7 49.5 256 49.5M256 4.1c-68.4 0-77 0.3-103.9 1.5 -26.8 1.2-45.1 5.5-61.1 11.7 -16.6 6.4-30.6 15.1-44.6 29.1C32.4 60.4 23.7 74.4 17.3 91c-6.2 16-10.5 34.3-11.7 61.2C4.4 179 4.1 187.6 4.1 256c0 68.4 0.3 77 1.5 103.9 1.2 26.8 5.5 45.1 11.7 61.2 6.4 16.6 15.1 30.6 29.1 44.6 14 14 28.1 22.6 44.6 29.1 16 6.2 34.3 10.5 61.2 11.7 26.9 1.2 35.5 1.5 103.9 1.5s77-0.3 103.9-1.5c26.8-1.2 45.1-5.5 61.2-11.7 16.6-6.4 30.6-15 44.6-29.1 14-14 22.6-28 29.1-44.6 6.2-16 10.5-34.3 11.7-61.1 1.2-26.9 1.5-35.4 1.5-103.9s-0.3-77-1.5-103.9c-1.2-26.8-5.5-45.1-11.7-61.1 -6.4-16.6-15-30.6-29.1-44.6 -14-14-28-22.6-44.6-29.1 -16-6.2-34.3-10.5-61.1-11.7C333 4.4 324.4 4.1 256 4.1L256 4.1z"/><path class="st0" d="M256 126.6c-71.4 0-129.4 57.9-129.4 129.4S184.6 385.4 256 385.4 385.4 327.5 385.4 256 327.5 126.6 256 126.6zM256 340c-46.4 0-84-37.6-84-84s37.6-84 84-84c46.4 0 84 37.6 84 84S302.4 340 256 340z"/><circle class="st0" cx="390.5" cy="121.5" r="30.2"/></svg>